<svg width="24" height="24" viewBox="0 0 24 24" fill="none" xmlns="http://www.w3.org/2000/svg">
<path fill-rule="evenodd" clip-rule="evenodd" d="M19.5 22H4.5C4.22386 22 4 21.7761 4 21.5C4 20.3954 4.89543 19.5 6 19.5V17.5C6 15.9262 6.74097 14.4443 8 13.5L10 12L8 10.5C6.74097 9.55573 6 8.07379 6 6.5V4.5C4.89543 4.5 4 3.60457 4 2.5C4 2.22386 4.22386 2 4.5 2H19.5C19.7761 2 20 2.22386 20 2.5C20 3.60457 19.1046 4.5 18 4.5V6.5C18 8.07379 17.259 9.55573 16 10.5L14 12L16 13.5C17.259 14.4443 18 15.9262 18 17.5V19.5C19.1046 19.5 20 20.3954 20 21.5C20 21.7761 19.7761 22 19.5 22ZM8 19C8 19.2761 8.22386 19.5 8.5 19.5H15.5C15.7761 19.5 16 19.2761 16 19C16 18.0557 15.5554 17.1666 14.8 16.6L12.6 14.95C12.2444 14.6833 11.7556 14.6833 11.4 14.95L9.2 16.6C8.44458 17.1666 8 18.0557 8 19ZM11.3998 10.55C11.7553 10.8167 12.2442 10.8167 12.5998 10.55L14.3998 9.2C14.6485 9.01346 14.8719 8.8007 15.0674 8.56708C15.265 8.33093 15.079 8 14.7711 8H9.22843C8.92052 8 8.7345 8.33093 8.9321 8.56708C9.12759 8.8007 9.35104 9.01346 9.59975 9.2L11.3998 10.55Z" fill="currentColor"/>
</svg>
