<svg width="36" height="36" viewBox="0 0 36 36" fill="none" xmlns="http://www.w3.org/2000/svg">
<path fill-rule="evenodd" clip-rule="evenodd" d="M26.0706 6H9.92943C8.57533 5.99997 7.45869 5.99994 6.57494 6.11876C5.64711 6.2435 4.82769 6.51547 4.17158 7.17158C3.51547 7.82769 3.2435 8.64711 3.11876 9.57494C2.99994 10.4587 2.99997 11.5753 3 12.9294V21.0732C2.99998 22.8966 2.99995 24.3664 3.15537 25.5223C3.31672 26.7225 3.66191 27.733 4.46447 28.5355C5.26703 29.3381 6.27752 29.6833 7.47767 29.8446C8.63363 30.0001 10.1034 30 11.9269 30H24.0731C25.8966 30 27.3664 30.0001 28.5223 29.8446C29.7225 29.6833 30.733 29.3381 31.5355 28.5355C32.3381 27.733 32.6833 26.7225 32.8446 25.5223C33.0001 24.3664 33 22.8966 33 21.0731V12.9295C33 11.5753 33.0001 10.4587 32.8813 9.57494C32.7565 8.64711 32.4845 7.82769 31.8284 7.17158C31.1723 6.51547 30.3529 6.2435 29.4251 6.11876C28.5413 5.99994 27.4247 5.99997 26.0706 6ZM5.58579 8.58579C5.80836 8.36322 6.13538 8.19585 6.84144 8.10092C7.57626 8.00213 8.55752 8 10 8H26C27.4425 8 28.4238 8.00213 29.1586 8.10092C29.8646 8.19585 30.1916 8.36322 30.4142 8.58579C30.6368 8.80836 30.8042 9.13538 30.8991 9.84144C30.9501 10.221 30.9754 10.6664 30.9878 11.2072C30.9995 11.712 31.0053 11.9645 30.8821 12.181C30.759 12.3976 30.5328 12.5252 30.0805 12.7804L22.422 17.1005C21.2053 17.7869 20.3538 18.266 19.6441 18.5803C18.9541 18.8859 18.4687 19.0024 18.0001 19.0024C17.5315 19.0024 17.0461 18.8859 16.3562 18.5803C15.6465 18.266 14.7949 17.7869 13.5782 17.1005L5.91955 12.7802C5.4672 12.5251 5.24102 12.3975 5.11786 12.1809C4.9947 11.9643 5.00053 11.7119 5.01218 11.207C5.02465 10.6663 5.04989 10.221 5.10092 9.84144C5.19585 9.13538 5.36322 8.80836 5.58579 8.58579ZM5.8948 15.0625C5.49654 14.8379 5.29741 14.7256 5.14871 14.8124C5 14.8993 5 15.1279 5 15.5851V21C5 22.9139 5.00213 24.2487 5.13753 25.2558C5.26907 26.2342 5.50967 26.7523 5.87868 27.1213C6.2477 27.4903 6.7658 27.7309 7.74416 27.8625C8.7513 27.9979 10.0861 28 12 28H24C25.9139 28 27.2487 27.9979 28.2558 27.8625C29.2342 27.7309 29.7523 27.4903 30.1213 27.1213C30.4903 26.7523 30.7309 26.2342 30.8625 25.2558C30.9979 24.2487 31 22.9139 31 21V15.5853C31 15.128 31 14.8994 30.8513 14.8125C30.7026 14.7257 30.5035 14.838 30.1052 15.0627L23.3613 18.8669C22.198 19.5232 21.2626 20.0508 20.454 20.409C19.6157 20.7803 18.8446 21.0024 18.0001 21.0024C17.1557 21.0024 16.3846 20.7803 15.5462 20.409C14.7376 20.0508 13.8022 19.5232 12.6389 18.8669L5.8948 15.0625Z" fill="currentColor"/>
</svg>
