<svg width="36" height="36" viewBox="0 0 36 36" fill="none" xmlns="http://www.w3.org/2000/svg">
<path d="M23.9829 21.6837C23.8658 21.8008 23.6772 21.8008 23.3002 21.8008H18.7005C18.3234 21.8008 18.1348 21.8008 18.0176 21.6836C17.9005 21.5665 17.9005 21.3779 17.9005 21.0008V20.2005C17.9005 19.8234 17.9005 19.6348 18.0176 19.5177C18.1348 19.4005 18.3234 19.4005 18.7005 19.4005H23.3003C23.6775 19.4005 23.8661 19.4005 23.9833 19.5177C24.1004 19.6349 24.1004 19.8235 24.1003 20.2007L24.1002 21.0009C24.1001 21.378 24.1001 21.5665 23.9829 21.6837Z" fill="currentColor"/>
<path d="M15.3833 19.5177C15.2662 19.4005 15.0776 19.4005 14.7005 19.4005H12.7003C12.3233 19.4005 12.1347 19.4005 12.0176 19.5176C11.9004 19.6348 11.9004 19.8233 11.9003 20.2004L11.9002 21.0006C11.9001 21.3778 11.9001 21.5664 12.0172 21.6836C12.1344 21.8008 12.323 21.8008 12.7002 21.8008H14.7005C15.0776 21.8008 15.2662 21.8008 15.3833 21.6836C15.5005 21.5665 15.5005 21.3779 15.5005 21.0008V20.2005C15.5005 19.8234 15.5005 19.6348 15.3833 19.5177Z" fill="currentColor"/>
<path d="M12.0172 24.318C11.9001 24.4352 11.9001 24.6237 11.9002 25.0009L11.9003 25.8005C11.9004 26.1775 11.9004 26.3661 12.0176 26.4832C12.1347 26.6003 12.3233 26.6003 12.7003 26.6003H14.7005C15.0776 26.6003 15.2662 26.6003 15.3833 26.4832C15.5005 26.366 15.5005 26.1774 15.5005 25.8003V25.0008C15.5005 24.6237 15.5005 24.4351 15.3833 24.3179C15.2662 24.2008 15.0776 24.2008 14.7005 24.2008H12.7002C12.323 24.2008 12.1344 24.2008 12.0172 24.318Z" fill="currentColor"/>
<path d="M18.0176 26.4832C17.9005 26.366 17.9005 26.1774 17.9005 25.8003V25.0008C17.9005 24.6237 17.9005 24.4351 18.0176 24.3179C18.1348 24.2008 18.3234 24.2008 18.7005 24.2008H23.3002C23.6772 24.2008 23.8658 24.2008 23.9829 24.3179C24.1001 24.435 24.1001 24.6236 24.1002 25.0006L24.1003 25.8002C24.1004 26.1773 24.1004 26.3659 23.9833 26.4831C23.8661 26.6003 23.6775 26.6003 23.3003 26.6003H18.7005C18.3234 26.6003 18.1348 26.6003 18.0176 26.4832Z" fill="currentColor"/>
<path fill-rule="evenodd" clip-rule="evenodd" d="M5.87868 3.88014C5 4.75882 5 6.17304 5 9.00147L5 27.0015C5 29.8299 5 31.2441 5.87868 32.1228C6.75736 33.0015 8.17157 33.0015 11 33.0015H25C27.8284 33.0015 29.2426 33.0015 30.1213 32.1228C31 31.2441 31 29.8299 31 27.0015V15.8016C31 15.1417 31 14.8117 30.795 14.6067C30.5899 14.4016 30.26 14.4016 29.6 14.4016L25.8784 14.4017C25.0423 14.4019 24.1932 14.4021 23.4858 14.307C22.675 14.198 21.702 13.926 20.8889 13.1129C20.0757 12.2998 19.8038 11.3267 19.6948 10.516C19.5997 9.80862 19.5999 8.95945 19.6001 8.12339L19.6001 4.40161C19.6001 3.74165 19.6001 3.41168 19.3951 3.20665C19.1901 3.00162 18.8601 3.00162 18.2002 3.00161L11 3.00146C8.17157 3.00146 6.75736 3.00147 5.87868 3.88014ZM11.4429 17.0478C11.7965 17.0003 12.2211 17.0004 12.6391 17.0005L23.3609 17.0005C23.7789 17.0004 24.2035 17.0003 24.5572 17.0478C24.9626 17.1023 25.4491 17.2383 25.8557 17.6449C26.2622 18.0514 26.3982 18.538 26.4527 18.9433C26.5003 19.297 26.5001 19.7216 26.5 20.1396L26.5 22.9873L26.5001 23.0008L26.5 23.0143L26.5 25.8612C26.5001 26.2792 26.5003 26.7038 26.4527 27.0575C26.3982 27.4629 26.2622 27.9494 25.8557 28.3559C25.4491 28.7625 24.9626 28.8985 24.5572 28.953C24.2035 29.0006 23.7789 29.0004 23.3609 29.0003L16.7262 29.0003L16.7005 29.0006L16.6747 29.0003L12.6391 29.0003C12.2211 29.0004 11.7965 29.0006 11.4429 28.953C11.0375 28.8985 10.551 28.7625 10.1444 28.3559C9.73782 27.9494 9.60184 27.4629 9.54734 27.0575C9.49978 26.7038 9.4999 26.2792 9.50001 25.8612V20.1396C9.4999 19.7216 9.49978 19.297 9.54734 18.9433C9.60184 18.538 9.73782 18.0514 10.1444 17.6449C10.551 17.2383 11.0375 17.1023 11.4429 17.0478Z" fill="currentColor"/>
<path d="M22.0002 5.0376C22.0002 3.80518 22.0002 3.18896 22.3705 3.03551C22.7408 2.88205 23.1766 3.31762 24.0484 4.18878L29.816 9.95227C30.6885 10.8242 31.1247 11.2601 30.9713 11.6306C30.8179 12.0011 30.2012 12.0011 28.9677 12.0011L26.0002 12.0011C24.1146 12.0012 23.1718 12.0012 22.586 11.4154C22.0002 10.8296 22.0002 9.88678 22.0002 8.00113V5.0376Z" fill="currentColor"/>
</svg>
