<svg width="24" height="24" viewBox="0 0 24 24" fill="none" xmlns="http://www.w3.org/2000/svg">
<path fill-rule="evenodd" clip-rule="evenodd" d="M12 22C17.5228 22 22 17.5228 22 12C22 6.47715 17.5228 2 12 2C6.47715 2 2 6.47715 2 12C2 17.5228 6.47715 22 12 22ZM10.6291 9.26825C10.6921 9.20525 10.7998 9.24987 10.7998 9.33896L10.7998 17.8C10.7998 18.4627 11.3371 19 11.9998 19C12.6625 19 13.1998 18.4627 13.1998 17.8V9.33838C13.1998 9.24929 13.3075 9.20468 13.3705 9.26767L14.7603 10.6574C15.2289 11.126 15.9887 11.126 16.4573 10.6574C16.9259 10.1888 16.9259 9.42898 16.4573 8.96035L12.8486 5.35167C12.38 4.88304 11.6202 4.88304 11.1516 5.35167L7.54288 8.96035C7.07425 9.42898 7.07425 10.1888 7.54288 10.6574C8.01151 11.126 8.77131 11.126 9.23993 10.6574L10.6291 9.26825Z" fill="currentColor"/>
</svg>
