<svg width="36" height="36" viewBox="0 0 36 36" fill="none" xmlns="http://www.w3.org/2000/svg">
<path fill-rule="evenodd" clip-rule="evenodd" d="M18 32C25.732 32 32 25.732 32 18C32 10.268 25.732 4 18 4C10.268 4 4 10.268 4 18C4 25.732 10.268 32 18 32ZM18 10C18.6904 10 19.25 10.5596 19.25 11.25V15.95C19.25 16.3271 19.25 16.5157 19.3672 16.6328C19.4843 16.75 19.6729 16.75 20.05 16.75H24.75C25.4404 16.75 26 17.3096 26 18C26 18.6904 25.4404 19.25 24.75 19.25H20.05C19.6729 19.25 19.4843 19.25 19.3672 19.3672C19.25 19.4843 19.25 19.6729 19.25 20.05V24.75C19.25 25.4404 18.6904 26 18 26C17.3096 26 16.75 25.4404 16.75 24.75V20.05C16.75 19.6729 16.75 19.4843 16.6328 19.3672C16.5157 19.25 16.3271 19.25 15.95 19.25H11.25C10.5596 19.25 10 18.6904 10 18C10 17.3096 10.5596 16.75 11.25 16.75H15.95C16.3271 16.75 16.5157 16.75 16.6328 16.6328C16.75 16.5157 16.75 16.3271 16.75 15.95V11.25C16.75 10.5596 17.3096 10 18 10Z" fill="currentColor"/>
</svg>
