<svg width="24" height="24" viewBox="0 0 24 24" fill="none" xmlns="http://www.w3.org/2000/svg">
<path fill-rule="evenodd" clip-rule="evenodd" d="M16.0658 22H7.93418C7.0477 22.0001 6.28387 22.0001 5.67222 21.9179C5.0167 21.8297 4.38835 21.631 3.87869 21.1213C3.36902 20.6117 3.17028 19.9833 3.08215 19.3278C2.99991 18.7161 2.99995 17.9523 3 17.0658L3 6.9342C2.99995 6.0477 2.99991 5.28388 3.08215 4.67222C3.17028 4.0167 3.36902 3.38835 3.87869 2.87869C4.38835 2.36902 5.0167 2.17028 5.67222 2.08215C6.28388 1.99991 7.0477 1.99995 7.9342 2L16.0658 2C16.9523 1.99995 17.7161 1.99991 18.3278 2.08214C18.9833 2.17028 19.6117 2.36902 20.1213 2.87868C20.631 3.38835 20.8297 4.0167 20.9179 4.67221C21.0001 5.28387 21.0001 6.04767 21 6.93414L21 17.0658C21.0001 17.9523 21.0001 18.7161 20.9179 19.3278C20.8297 19.9833 20.631 20.6117 20.1213 21.1213C19.6117 21.631 18.9833 21.8297 18.3278 21.9179C17.7161 22.0001 16.9523 22.0001 16.0658 22ZM17.0068 11.9056C16.9583 11.3923 16.3556 11.0436 15.1502 10.3464L11.3664 8.15767C10.1579 7.45868 9.55373 7.10919 9.08414 7.32394C9.02693 7.3501 8.97232 7.3816 8.92103 7.41802C8.50001 7.71698 8.50001 8.41499 8.50001 9.811V14.1884C8.50001 15.5407 8.50001 16.2381 8.88278 16.5521C8.89513 16.5623 8.90788 16.572 8.92103 16.5813C8.97232 16.6178 9.02693 16.6493 9.08413 16.6754C9.52438 16.8768 10.0829 16.5822 11.1467 15.9686L15.1502 13.653C16.3556 12.9557 16.9583 12.6071 17.0068 12.0937C17.0127 12.0312 17.0127 11.9682 17.0068 11.9056Z" fill="currentColor"/>
</svg>
