<svg width="36" height="36" viewBox="0 0 36 36" fill="none" xmlns="http://www.w3.org/2000/svg">
<path fill-rule="evenodd" clip-rule="evenodd" d="M14.9053 22.5C14.9053 23.6514 15.1805 24.5456 15.7798 25.1487C16.3797 25.7523 17.2401 26 18.2673 26C19.2839 26 20.1388 25.7725 20.7339 25.1748C21.3284 24.5778 21.5947 23.6806 21.5947 22.5C21.5947 21.3779 21.389 20.4798 20.8244 19.8675C20.2533 19.2482 19.3896 19 18.2673 19C17.2001 19 16.3357 19.2483 15.7445 19.8576C15.1556 20.4644 14.9053 21.3601 14.9053 22.5ZM17.1255 22.5086C17.1255 21.8308 17.2429 21.4515 17.4087 21.243C17.5579 21.0553 17.7979 20.9441 18.2327 20.9441C18.688 20.9441 18.9367 21.0446 19.0896 21.2236C19.2565 21.4191 19.3831 21.791 19.3831 22.5086C19.3831 23.2211 19.2569 23.5911 19.0949 23.7844C18.9481 23.9598 18.7139 24.0559 18.2931 24.0559C17.867 24.0559 17.6077 23.9634 17.4422 23.7824C17.2681 23.5919 17.1255 23.2258 17.1255 22.5086Z" fill="currentColor"/>
<path fill-rule="evenodd" clip-rule="evenodd" d="M8.66967 19.1301C8.61738 19.1332 8.59124 19.1347 8.56921 19.1394C8.44693 19.1654 8.35357 19.2645 8.33491 19.3881C8.33154 19.4103 8.33154 19.4365 8.33154 19.4889L8.33154 25.5025C8.33154 25.5547 8.33154 25.5808 8.33489 25.603C8.35346 25.7263 8.44635 25.8252 8.56822 25.8516C8.59018 25.8563 8.61623 25.8579 8.66833 25.8612C9.35353 25.9046 9.86234 25.931 10.6237 25.931C11.8326 25.931 12.7802 25.6656 13.4216 25.0419C14.0653 24.4161 14.3307 23.4978 14.3307 22.3533C14.3307 21.3778 14.1427 20.5289 13.5514 19.9325C12.9606 19.3365 12.0433 19.069 10.7703 19.069C9.90888 19.069 9.40134 19.0865 8.66967 19.1301ZM10.6927 23.9955L10.6567 23.9954C10.568 23.995 10.5237 23.9947 10.4946 23.9655C10.4655 23.9362 10.4655 23.8907 10.4655 23.7997V21.2021C10.4655 21.1114 10.4655 21.066 10.4942 21.0368C10.523 21.0076 10.5674 21.0069 10.6562 21.0055C10.7008 21.0048 10.7473 21.0045 10.7962 21.0045C11.3891 21.0045 11.695 21.1284 11.8656 21.3091C12.0411 21.4951 12.1536 21.8246 12.1536 22.431C12.1536 23.0794 12.026 23.4465 11.8269 23.6573C11.6325 23.8632 11.2977 23.9955 10.6927 23.9955Z" fill="currentColor"/>
<path d="M27.5491 21.6157C27.4988 21.6446 27.432 21.6054 27.2983 21.5272L27.0583 21.3867C26.7403 21.2005 26.3372 21.0045 25.6351 21.0045C25.1334 21.0045 24.8578 21.1132 24.6943 21.2914C24.5229 21.4782 24.3985 21.8227 24.3985 22.4741C24.3985 23.1595 24.5314 23.514 24.7118 23.7043C24.8866 23.8886 25.1796 23.9955 25.7041 23.9955C26.3782 23.9955 26.8576 23.7783 27.0999 23.6052L27.3521 23.425C27.4906 23.3261 27.5599 23.2766 27.6141 23.3045C27.6684 23.3325 27.6684 23.4176 27.6684 23.5878V25.304C27.6684 25.3404 27.6684 25.3585 27.6665 25.3753C27.6562 25.4668 27.6044 25.5486 27.526 25.597C27.5117 25.6058 27.4953 25.6136 27.4624 25.6291C27.1021 25.7992 26.4541 25.9914 25.592 25.9914C24.4644 25.9914 23.5851 25.7407 22.9953 25.1354C22.4073 24.532 22.1782 23.6489 22.1782 22.5518C22.1782 21.4249 22.4114 20.5185 22.9992 19.8975C23.5911 19.2722 24.473 19.0086 25.6006 19.0086C26.4665 19.0086 27.0518 19.1939 27.3535 19.2945C27.3924 19.3075 27.4119 19.314 27.4287 19.322C27.521 19.3661 27.5844 19.4541 27.5971 19.5556C27.5994 19.5741 27.5994 19.5946 27.5994 19.6356V21.3546C27.5994 21.5095 27.5994 21.5869 27.5491 21.6157Z" fill="currentColor"/>
<path fill-rule="evenodd" clip-rule="evenodd" d="M11.9294 3L18.9289 3C20.1552 3 20.7683 3 21.3196 3.22837C21.8709 3.45673 22.3045 3.89027 23.1716 4.75736L29.2426 10.8284C30.1097 11.6955 30.5433 12.1291 30.7716 12.6804C31 13.2317 31 13.8448 31 15.0711V26.0706C31 27.4247 31.0001 28.5413 30.8813 29.4251C30.7565 30.3529 30.4845 31.1723 29.8284 31.8284C29.1723 32.4845 28.3529 32.7565 27.4251 32.8813C26.5413 33.0001 25.4247 33 24.0706 33H11.9294C10.5753 33 9.4587 33.0001 8.57494 32.8813C7.64711 32.7565 6.82769 32.4845 6.17158 31.8284C5.51547 31.1723 5.2435 30.3529 5.11876 29.4251C4.99994 28.5413 4.99997 27.4247 5 26.0706V9.9294C4.99997 8.57531 4.99994 7.45868 5.11876 6.57494C5.2435 5.64711 5.51547 4.82769 6.17158 4.17158C6.82769 3.51547 7.64711 3.2435 8.57494 3.11876C9.45868 2.99994 10.5753 2.99997 11.9294 3ZM19.8828 5.11716C20 5.23432 20 5.42288 20 5.80001L20 9.06586C20 9.95235 19.9999 10.7162 20.0821 11.3278C20.1703 11.9833 20.369 12.6117 20.8787 13.1214C21.3884 13.631 22.0167 13.8298 22.6722 13.9179C23.2839 14.0001 24.0477 14.0001 24.9342 14L28.2 14C28.5771 14 28.7657 14 28.8828 14.1172C29 14.2343 29 14.4229 29 14.8V26C29 27.4425 28.9979 28.4238 28.8991 29.1586C28.8042 29.8646 28.6368 30.1916 28.4142 30.4142C28.1916 30.6368 27.8646 30.8042 27.1586 30.8991C26.4238 30.9979 25.4425 31 24 31H12C10.5575 31 9.57626 30.9979 8.84144 30.8991C8.13538 30.8042 7.80836 30.6368 7.58579 30.4142C7.36322 30.1916 7.19585 29.8646 7.10092 29.1586C7.00213 28.4238 7 27.4425 7 26V10C7 8.55752 7.00213 7.57626 7.10092 6.84144C7.19585 6.13538 7.36322 5.80836 7.58579 5.58579C7.80836 5.36322 8.13538 5.19585 8.84144 5.10092C9.57626 5.00213 10.5575 5 12 5H19.2C19.5771 5 19.7657 5 19.8828 5.11716ZM27.2877 11.8766C27.2366 12 27.0311 12 26.6201 12H25C24.0289 12 23.4012 11.9979 22.9387 11.9357C22.505 11.8774 22.369 11.7833 22.2929 11.7071C22.2168 11.631 22.1226 11.4951 22.0643 11.0613C22.0021 10.5988 22 9.97111 22 9.00003V7.37993C22 6.96894 22 6.76345 22.1235 6.71231C22.2469 6.66117 22.3922 6.80648 22.6829 7.09709L26.903 11.3172C27.1936 11.6078 27.3389 11.7531 27.2877 11.8766Z" fill="currentColor"/>
</svg>
