<svg width="24" height="24" viewBox="0 0 24 24" fill="none" xmlns="http://www.w3.org/2000/svg">
<path d="M19.9136 5.8855C20.3856 6.49565 20.7892 7.16234 21.1119 7.87301L12.0006 14.5886L8.19363 12.2022V9.33125L12.0006 11.7177L19.9136 5.8855Z" fill="#21A038"/>
<path d="M4.31023 11.9997C4.31023 11.8709 4.31338 11.7429 4.31966 11.6157L2.01256 11.5002C2.00471 11.6659 2 11.8324 2 11.9997C2 14.7607 3.119 17.261 4.92902 19.0711L6.56472 17.4353C5.17323 16.0422 4.31023 14.1199 4.31023 11.9997Z" fill="url(#paint0_linear_21_37)"/>
<path d="M11.9997 4.30948C12.1285 4.30948 12.2565 4.31419 12.3837 4.32047L12.4992 2.01256C12.3335 2.00471 12.167 2 11.9997 2C9.23882 2 6.73852 3.11901 4.9285 4.92905L6.56419 6.56476C7.95724 5.1717 9.87953 4.30948 11.9997 4.30948Z" fill="url(#paint1_linear_21_37)"/>
<path d="M12.0001 19.6898C11.8713 19.6898 11.7433 19.6867 11.6161 19.6804L11.5006 21.9875C11.6663 21.9954 11.8328 22.0001 12.0001 22.0001C14.761 22.0001 17.2613 20.8811 19.0713 19.0711L17.4356 17.4353C16.0425 18.8268 14.1202 19.6898 12.0001 19.6898Z" fill="url(#paint2_linear_21_37)"/>
<path d="M16.3362 5.6515L18.2813 4.21838C16.5647 2.83081 14.3802 2 12.0008 2V4.31026C13.6083 4.30948 15.101 4.80576 16.3362 5.6515Z" fill="url(#paint3_linear_21_37)"/>
<path d="M22 11.9996C22 11.3879 21.945 10.7895 21.8398 10.2076L19.6874 11.7939C19.6889 11.8622 19.6905 11.9305 19.6905 11.9988C19.6905 14.2565 18.712 16.2903 17.1572 17.6983L18.7097 19.4141C20.7302 17.5853 22 14.9405 22 11.9996Z" fill="#21A038"/>
<path d="M12.0008 19.6897C9.74321 19.6897 7.70936 18.7113 6.30139 17.1565L4.5856 18.7089C6.41525 20.7302 9.06003 22 12.0008 22V19.6897Z" fill="url(#paint4_linear_21_37)"/>
<path d="M6.84348 6.30016L5.29103 4.58435C3.26977 6.41403 2 9.05879 2 11.9997H4.31023C4.31102 9.74123 5.28867 7.70814 6.84348 6.30016Z" fill="url(#paint5_linear_21_37)"/>
<defs>
<linearGradient id="paint0_linear_21_37" x1="4.68215" y1="18.7814" x2="2.33312" y2="11.9915" gradientUnits="userSpaceOnUse">
<stop offset="0.1444" stop-color="#F2E913"/>
<stop offset="0.3037" stop-color="#E7E518"/>
<stop offset="0.5823" stop-color="#CADB26"/>
<stop offset="0.891" stop-color="#A3CD39"/>
</linearGradient>
<linearGradient id="paint1_linear_21_37" x1="5.58875" y1="4.67112" x2="11.5752" y2="2.38983" gradientUnits="userSpaceOnUse">
<stop offset="0.0592" stop-color="#0FA8E0"/>
<stop offset="0.5385" stop-color="#0099F9"/>
<stop offset="0.9234" stop-color="#0291EB"/>
</linearGradient>
<linearGradient id="paint2_linear_21_37" x1="11.3482" y1="20.0449" x2="18.4769" y2="18.4338" gradientUnits="userSpaceOnUse">
<stop offset="0.1226" stop-color="#A3CD39"/>
<stop offset="0.2846" stop-color="#86C339"/>
<stop offset="0.8693" stop-color="#21A038"/>
</linearGradient>
<linearGradient id="paint3_linear_21_37" x1="11.5175" y1="3.46537" x2="17.4481" y2="5.2952" gradientUnits="userSpaceOnUse">
<stop offset="0.0566" stop-color="#0291EB"/>
<stop offset="0.79" stop-color="#0C8ACB"/>
</linearGradient>
<linearGradient id="paint4_linear_21_37" x1="5.16506" y1="19.0806" x2="11.5366" y2="21.4612" gradientUnits="userSpaceOnUse">
<stop offset="0.1324" stop-color="#F2E913"/>
<stop offset="0.2977" stop-color="#EBE716"/>
<stop offset="0.5306" stop-color="#D9E01F"/>
<stop offset="0.8023" stop-color="#BBD62D"/>
<stop offset="0.9829" stop-color="#A3CD39"/>
</linearGradient>
<linearGradient id="paint5_linear_21_37" x1="3.76473" y1="12.2795" x2="6.30393" y2="5.67414" gradientUnits="userSpaceOnUse">
<stop offset="0.0698" stop-color="#A3CD39"/>
<stop offset="0.2599" stop-color="#81C55F"/>
<stop offset="0.9216" stop-color="#0FA8E0"/>
</linearGradient>
</defs>
</svg>
