<svg width="16" height="16" viewBox="0 0 16 16" fill="none" xmlns="http://www.w3.org/2000/svg">
<path d="M2.75 12.25C2.33579 12.25 2 12.5858 2 13C2 13.4142 2.33579 13.75 2.75 13.75H6.75C7.16421 13.75 7.5 13.4142 7.5 13C7.5 12.5858 7.16421 12.25 6.75 12.25L2.75 12.25Z" fill="currentColor"/>
<path d="M2.75 8.91992C2.33579 8.91992 2 9.25571 2 9.66992C2 10.0841 2.33579 10.4199 2.75 10.4199L8.75 10.4199C9.16421 10.4199 9.5 10.0841 9.5 9.66992C9.5 9.25571 9.16421 8.91992 8.75 8.91992L2.75 8.91992Z" fill="currentColor"/>
<path d="M2.75 5.58301C2.33579 5.58301 2 5.91879 2 6.33301C2 6.74722 2.33579 7.08301 2.75 7.08301L10.75 7.08301C11.1642 7.08301 11.5 6.74722 11.5 6.33301C11.5 5.9188 11.1642 5.58301 10.75 5.58301L2.75 5.58301Z" fill="currentColor"/>
<path d="M2 3C2 2.58579 2.33579 2.25 2.75 2.25L13.25 2.25C13.6642 2.25 14 2.58579 14 3C14 3.41421 13.6642 3.75 13.25 3.75L2.75 3.75C2.33579 3.75 2 3.41421 2 3Z" fill="currentColor"/>
</svg>
