<svg width="16" height="16" viewBox="0 0 16 16" fill="none" xmlns="http://www.w3.org/2000/svg">
<path d="M3.33325 11.5C2.91904 11.5 2.58325 11.8358 2.58325 12.25C2.58325 12.6642 2.91904 13 3.33325 13H6.66659C7.0808 13 7.41659 12.6642 7.41659 12.25C7.41659 11.8358 7.0808 11.5 6.66659 11.5L3.33325 11.5Z" fill="currentColor"/>
<path d="M3.33325 8.66667C2.91904 8.66667 2.58325 9.00246 2.58325 9.41667C2.58325 9.83088 2.91904 10.1667 3.33325 10.1667L8.66659 10.1667C9.0808 10.1667 9.41659 9.83089 9.41659 9.41667C9.41659 9.00246 9.0808 8.66667 8.66659 8.66667L3.33325 8.66667Z" fill="currentColor"/>
<path d="M3.33325 5.83331C2.91904 5.83331 2.58325 6.1691 2.58325 6.58331C2.58325 6.99753 2.91904 7.33331 3.33325 7.33331L10.6666 7.33331C11.0808 7.33331 11.4166 6.99753 11.4166 6.58331C11.4166 6.1691 11.0808 5.83331 10.6666 5.83331L3.33325 5.83331Z" fill="currentColor"/>
<path d="M2.58325 3.75C2.58325 3.33579 2.91904 3 3.33325 3L12.6666 3C13.0808 3 13.4166 3.33579 13.4166 3.75C13.4166 4.16421 13.0808 4.5 12.6666 4.5L3.33325 4.5C2.91904 4.5 2.58325 4.16421 2.58325 3.75Z" fill="currentColor"/>
</svg>
