<svg width="36" height="36" viewBox="0 0 36 36" fill="none" xmlns="http://www.w3.org/2000/svg">
<path d="M7 19.5C6.05719 19.5 5.58579 19.5 5.29289 19.7929C5 20.0858 5 20.5572 5 21.5V24C5 27.7712 5 29.6569 6.17157 30.8284C7.34315 32 9.22876 32 13 32H14.5C15.4428 32 15.9142 32 16.2071 31.7071C16.5 31.4142 16.5 30.9428 16.5 30V21.5C16.5 20.5572 16.5 20.0858 16.2071 19.7929C15.9142 19.5 15.4428 19.5 14.5 19.5H7Z" fill="currentColor"/>
<path d="M21.5 19.5C20.5572 19.5 20.0858 19.5 19.7929 19.7929C19.5 20.0858 19.5 20.5572 19.5 21.5V30C19.5 30.9428 19.5 31.4142 19.7929 31.7071C20.0858 32 20.5572 32 21.5 32H23C26.7712 32 28.6569 32 29.8284 30.8284C31 29.6569 31 27.7712 31 24V21.5C31 20.5572 31 20.0858 30.7071 19.7929C30.4142 19.5 29.9428 19.5 29 19.5H21.5Z" fill="currentColor"/>
<path d="M29.75 9C29.75 9.65151 29.6462 10.2788 29.4541 10.8661C29.4327 10.9317 29.4807 10.9999 29.5497 10.9991C30.4748 10.9878 31.7186 10.8902 32.4142 11.5858C33 12.1716 33 13.1144 33 15C33 15.9428 33 16.4142 32.7071 16.7071C32.4142 17 31.9428 17 31 17H21.25C20.3072 17 19.8358 17 19.5429 16.7071C19.25 16.4142 19.25 15.9428 19.25 15V13C19.25 12.0572 19.25 11.5858 19.5429 11.2929C19.8358 11 20.3072 11 21.25 11H25.5391C25.8235 11 26.1022 10.8837 26.2585 10.6461C26.5692 10.1735 26.75 9.60786 26.75 9C26.75 7.34985 25.4033 6 23.7397 6C21.3983 6 19.5 7.89932 19.5 10.2273C19.5 10.654 19.154 11 18.7273 11H17.2727C16.846 11 16.5 10.654 16.5 10.2273C16.5 7.89932 14.6017 6 12.2603 6C10.5967 6 9.25 7.34985 9.25 9C9.25 9.60786 9.43078 10.1735 9.74152 10.6461C9.89779 10.8837 10.1765 11 10.4609 11H14.75C15.6928 11 16.1642 11 16.4571 11.2929C16.75 11.5858 16.75 12.0572 16.75 13V15C16.75 15.9428 16.75 16.4142 16.4571 16.7071C16.1642 17 15.6928 17 14.75 17H5C4.05719 17 3.58579 17 3.29289 16.7071C3 16.4142 3 15.9428 3 15C3 13.1144 3 12.1716 3.58579 11.5858C4.11465 11.0569 4.9249 11.0053 6.46636 11.0003C6.53036 11.0001 6.57808 10.9407 6.56359 10.8784C6.41672 10.2467 6.25 9.66668 6.25 9C6.25 5.68629 8.9466 3 12.2603 3C14.4087 3 16.3418 3.93742 17.6689 5.42554C17.8434 5.62121 18.1566 5.62121 18.3311 5.42554C19.6582 3.93742 21.5913 3 23.7397 3C27.0534 3 29.75 5.68629 29.75 9Z" fill="currentColor"/>
</svg>
