<svg width="24" height="24" viewBox="0 0 24 24" fill="none" xmlns="http://www.w3.org/2000/svg">
<path d="M6.9226 13.1492C6.81182 13.3043 6.75643 13.3819 6.72782 13.4712C6.69922 13.5605 6.69922 13.6564 6.69922 13.8481C6.69922 14.0851 6.69922 14.2037 6.77244 14.2769C6.84566 14.3501 6.96352 14.3501 7.19922 14.3501L9.94122 14.3501C10.2241 14.3501 10.3655 14.3501 10.4534 14.2623C10.5412 14.1744 10.5412 14.033 10.5412 13.7501V13.5981C10.5412 13.3153 10.5412 13.1739 10.4534 13.086C10.3655 12.9981 10.2241 12.9981 9.94122 12.9981H9.02087C8.90175 12.9981 8.84219 12.9981 8.82265 12.9602C8.8031 12.9222 8.83771 12.8737 8.90693 12.7768L10.2818 10.8511C10.3926 10.6959 10.448 10.6183 10.4766 10.5291C10.5052 10.4398 10.5052 10.3439 10.5052 10.1522C10.5052 9.91512 10.5052 9.79658 10.432 9.72335C10.3588 9.65013 10.2409 9.65013 10.0052 9.65013H7.37122C7.08838 9.65013 6.94695 9.65013 6.85909 9.738C6.77122 9.82587 6.77122 9.96729 6.77122 10.2501V10.4021C6.77122 10.685 6.77122 10.8264 6.85909 10.9143C6.94695 11.0021 7.08838 11.0021 7.37122 11.0021H8.18356C8.30269 11.0021 8.36225 11.0021 8.38179 11.0401C8.40133 11.0781 8.36672 11.1265 8.2975 11.2235L6.9226 13.1492Z" fill="currentColor"/>
<path d="M11.8596 9.65013C11.5768 9.65013 11.4353 9.65013 11.3475 9.738C11.2596 9.82587 11.2596 9.96729 11.2596 10.2501L11.2596 13.7501C11.2596 14.033 11.2596 14.1744 11.3475 14.2623C11.4353 14.3501 11.5768 14.3501 11.8596 14.3501H12.1376C12.4204 14.3501 12.5619 14.3501 12.6497 14.2623C12.7376 14.1744 12.7376 14.033 12.7376 13.7501L12.7376 10.2501C12.7376 9.96729 12.7376 9.82587 12.6497 9.738C12.5619 9.65013 12.4204 9.65013 12.1376 9.65013H11.8596Z" fill="currentColor"/>
<path fill-rule="evenodd" clip-rule="evenodd" d="M13.6127 9.7262C13.668 9.66823 13.7583 9.66405 13.9388 9.65568L13.9894 9.65334C14.399 9.63398 14.6921 9.62013 15.2354 9.62013C15.9104 9.62013 16.4401 9.71954 16.799 10.0104C17.1727 10.3132 17.3034 10.7728 17.3034 11.3401C17.3034 11.9237 17.1526 12.4026 16.7796 12.7278C16.4144 13.0462 15.884 13.1741 15.2234 13.1741C15.1482 13.1741 15.1106 13.1741 15.0852 13.1914C15.0745 13.1986 15.0659 13.2073 15.0586 13.218C15.0414 13.2434 15.0414 13.28 15.0414 13.3532V13.7501C15.0414 14.033 15.0414 14.1744 14.9535 14.2623C14.8656 14.3501 14.7242 14.3501 14.4414 14.3501H14.1574C13.8745 14.3501 13.7331 14.3501 13.6452 14.2623C13.5574 14.1744 13.5574 14.033 13.5574 13.7501L13.5574 10.0553C13.5574 9.87453 13.5574 9.78416 13.6127 9.7262ZM15.2234 11.8641C15.5059 11.8641 15.6307 11.807 15.689 11.7519C15.7433 11.7004 15.7894 11.6031 15.7894 11.3881C15.7894 11.168 15.7473 11.0806 15.7002 11.0363C15.6476 10.9869 15.5247 10.9301 15.2174 10.9301C15.145 10.9301 15.1088 10.9301 15.0825 10.9493C15.0742 10.9553 15.0666 10.963 15.0605 10.9713C15.0414 10.9976 15.0414 11.0342 15.0414 11.1074V11.6789C15.0414 11.7601 15.0414 11.8007 15.0649 11.8286C15.0685 11.8328 15.0727 11.837 15.0769 11.8406C15.1048 11.8641 15.1443 11.8641 15.2234 11.8641Z" fill="currentColor"/>
<path fill-rule="evenodd" clip-rule="evenodd" d="M22.0323 7.02463C21.8069 6.84984 21.5667 6.73696 21.323 6.66262C21.16 6.61289 21.0786 6.58803 21.0393 6.53545C21.0001 6.48288 20.9996 6.40596 20.9985 6.25212C20.9942 5.65138 20.9782 5.12087 20.9179 4.67221C20.8297 4.0167 20.631 3.38835 20.1213 2.87868C19.6117 2.36902 18.9833 2.17028 18.3278 2.08215C17.7161 1.99991 16.9523 1.99995 16.0658 2L7.93417 2C7.04769 1.99995 6.28387 1.99991 5.67221 2.08215C5.0167 2.17028 4.38835 2.36902 3.87868 2.87869C3.36902 3.38835 3.17028 4.0167 3.08215 4.67222C3.02183 5.12087 3.00577 5.65138 3.00152 6.25213C3.00043 6.40596 2.99989 6.48288 2.96067 6.53545C2.92146 6.58803 2.83997 6.61289 2.677 6.66262C2.43333 6.73696 2.19308 6.84984 1.96774 7.02463C1.80203 7.15317 1.65315 7.30204 1.52462 7.46775C1.20909 7.87453 1.09532 8.32991 1.04574 8.76624C0.999919 9.16958 0.999959 9.66161 1 10.2088V13.7912C0.999959 14.3384 0.999919 14.8305 1.04574 15.2338C1.09532 15.6701 1.20909 16.1255 1.52462 16.5323C1.65315 16.698 1.80203 16.8469 1.96774 16.9754C2.19308 17.1502 2.43333 17.2631 2.677 17.3374C2.83997 17.3871 2.92146 17.412 2.96067 17.4646C2.99989 17.5172 3.00043 17.5941 3.00152 17.7479C3.00577 18.3486 3.02183 18.8792 3.08215 19.3278C3.17028 19.9833 3.36902 20.6117 3.87868 21.1213C4.38835 21.631 5.0167 21.8297 5.67221 21.9179C6.28388 22.0001 7.0477 22.0001 7.9342 22H16.0658C16.9523 22.0001 17.7161 22.0001 18.3278 21.9179C18.9833 21.8297 19.6117 21.631 20.1213 21.1213C20.631 20.6117 20.8297 19.9833 20.9179 19.3278C20.9782 18.8792 20.9942 18.3486 20.9985 17.7479C20.9996 17.5941 21.0001 17.5172 21.0393 17.4646C21.0786 17.412 21.16 17.3871 21.323 17.3374C21.5667 17.2631 21.8069 17.1502 22.0323 16.9754C22.198 16.8469 22.3469 16.698 22.4754 16.5323C22.7909 16.1255 22.9047 15.6701 22.9543 15.2338C23.0001 14.8305 23.0001 14.3384 23 13.7912V10.2088C23.0001 9.66161 23.0001 9.16958 22.9543 8.76624C22.9047 8.32991 22.7909 7.87453 22.4754 7.46775C22.3469 7.30204 22.198 7.15317 22.0323 7.02463ZM18.9967 6.09861C18.9989 6.28703 19 6.38124 18.9412 6.44063C18.8825 6.50002 18.7877 6.50002 18.5982 6.50002L5.40185 6.50002C5.21227 6.50002 5.11747 6.50002 5.05876 6.44063C5.00005 6.38124 5.00112 6.28703 5.00327 6.09861C5.00885 5.60961 5.0239 5.23927 5.06431 4.93871C5.12263 4.50497 5.21677 4.36902 5.2929 4.2929C5.36902 4.21677 5.50497 4.12263 5.93871 4.06431C6.40121 4.00213 7.02893 4.00001 8 4.00001L16 4.00001C16.9711 4.00001 17.5988 4.00213 18.0613 4.06431C18.495 4.12263 18.631 4.21677 18.7071 4.2929C18.7832 4.36902 18.8774 4.50497 18.9357 4.93871C18.9761 5.23928 18.9912 5.60961 18.9967 6.09861ZM5.00327 17.9014C5.00112 17.713 5.00005 17.6188 5.05876 17.5594C5.11747 17.5 5.21227 17.5 5.40185 17.5H18.5982C18.7877 17.5 18.8825 17.5 18.9412 17.5594C19 17.6188 18.9989 17.713 18.9967 17.9014C18.9912 18.3904 18.9761 18.7607 18.9357 19.0613C18.8774 19.495 18.7832 19.631 18.7071 19.7071C18.631 19.7832 18.495 19.8774 18.0613 19.9357C17.5988 19.9979 16.9711 20 16 20H8C7.02893 20 6.40122 19.9979 5.93871 19.9357C5.50497 19.8774 5.36902 19.7832 5.2929 19.7071C5.21677 19.631 5.12263 19.495 5.06431 19.0613C5.0239 18.7607 5.00886 18.3904 5.00327 17.9014ZM3.19355 8.60494C3.16041 8.63065 3.13064 8.66043 3.10493 8.69357C3.10173 8.69769 3.0926 8.70945 3.08015 8.7463C3.06571 8.78904 3.04758 8.86336 3.03296 8.99201C3.00152 9.26877 3.00001 9.64538 3.00001 10.26V13.74C3.00001 14.3547 3.00152 14.7313 3.03296 15.008C3.04758 15.1367 3.06571 15.211 3.08015 15.2537C3.0926 15.2906 3.10169 15.3023 3.10489 15.3064C3.1306 15.3396 3.16041 15.3694 3.19355 15.3951C3.19767 15.3983 3.20944 15.4074 3.24629 15.4199C3.28902 15.4343 3.36334 15.4524 3.49199 15.4671C3.76875 15.4985 4.14536 15.5 4.76001 15.5H19.24C19.8546 15.5 20.2313 15.4985 20.508 15.4671C20.6367 15.4524 20.711 15.4343 20.7537 15.4199C20.7906 15.4074 20.8023 15.3983 20.8064 15.3951C20.8396 15.3694 20.8694 15.3396 20.8951 15.3065C20.8983 15.3024 20.9074 15.2906 20.9199 15.2537C20.9343 15.211 20.9524 15.1367 20.9671 15.008C20.9985 14.7313 21 14.3547 21 13.74V10.26C21 9.64538 20.9985 9.26877 20.9671 8.99201C20.9524 8.86336 20.9343 8.78904 20.9199 8.7463C20.9074 8.70945 20.8983 8.69774 20.8951 8.69362C20.8694 8.66047 20.8396 8.63065 20.8065 8.60494C20.8023 8.60175 20.7906 8.59262 20.7537 8.58016C20.711 8.56572 20.6367 8.54759 20.508 8.53297C20.2313 8.50153 19.8546 8.50002 19.24 8.50002L4.76001 8.50002C4.14536 8.50002 3.76875 8.50153 3.49199 8.53297C3.36334 8.54759 3.28902 8.56572 3.24629 8.58016C3.20944 8.59262 3.19767 8.60174 3.19355 8.60494Z" fill="currentColor"/>
</svg>
