<svg width="36" height="36" viewBox="0 0 36 36" fill="none" xmlns="http://www.w3.org/2000/svg">
<path d="M17.45 9C17.45 9.80714 17.5456 10.5919 17.7262 11.3437C17.805 11.672 17.5643 12 17.2267 12L9 12C8.72386 12 8.5 12.2239 8.5 12.5V12.7672C8.50006 13.9756 8.50637 14.4013 8.57206 14.7316C8.86796 16.2192 10.0308 17.382 11.5184 17.6779C11.7644 17.7269 12.0633 17.7429 12.699 17.7479C12.865 17.7492 13 17.6145 13 17.4485V17C13 16.0572 13 15.5858 13.2929 15.2929C13.5858 15 14.0572 15 15 15L19.0496 15C19.3012 15 19.5366 15.1197 19.6956 15.3147C21.5293 17.5637 24.3219 19 27.45 19C28.3945 19 29.3083 18.8691 30.1745 18.6244C30.5787 18.5102 31 18.8013 31 19.2213V21C31 21.9428 31 22.4142 30.7071 22.7071C30.4142 23 29.9428 23 29 23H15C14.0572 23 13.5858 23 13.2929 22.7071C13 22.4142 13 21.9428 13 21V20.5494C13 20.3839 12.866 20.2499 12.7005 20.2487C12.0184 20.244 11.4977 20.2228 11.0307 20.1299C10.2975 19.9841 9.61172 19.7119 8.99659 19.3367C8.78551 19.208 8.5 19.353 8.5 19.6003V22.75C8.5 23.9715 8.50606 24.3998 8.57206 24.7316C8.86796 26.2192 10.0308 27.382 11.5184 27.6779C11.7644 27.7269 12.0633 27.7429 12.699 27.7479C12.865 27.7492 13 27.6145 13 27.4485V27C13 26.0572 13 25.5858 13.2929 25.2929C13.5858 25 14.0572 25 15 25H29C29.9428 25 30.4142 25 30.7071 25.2929C31 25.5858 31 26.0572 31 27L31 31C31 31.9428 31 32.4142 30.7071 32.7071C30.4142 33 29.9428 33 29 33H15C14.0572 33 13.5858 33 13.2929 32.7071C13 32.4142 13 31.9428 13 31V30.5494C13 30.3839 12.866 30.2499 12.7005 30.2487C12.0184 30.244 11.4977 30.2228 11.0307 30.1299C8.55137 29.6367 6.61326 27.6986 6.12009 25.2193C5.99955 24.6133 5.99972 23.9167 5.99998 22.8947L6 12.5C6 12.2239 5.77614 12 5.5 12H5C4.05719 12 3.58579 12 3.29289 11.7071C3 11.4142 3 10.9428 3 10L3 6C3 5.05719 3 4.58579 3.29289 4.2929C3.58579 4 4.05719 4 5 4L17.921 4C18.306 4 18.55 4.41944 18.3869 4.76825C17.7858 6.05342 17.45 7.4875 17.45 9Z" fill="currentColor"/>
<path fill-rule="evenodd" clip-rule="evenodd" d="M24.4414 3.80335C24.1132 3.99329 23.7236 4.06129 23.3628 3.94452L22.3608 3.62022C21.9668 3.49271 21.5296 3.59552 21.2662 3.91507C20.7101 4.58975 20.2624 5.35712 19.9498 6.19053C19.8039 6.57925 19.934 7.01045 20.2422 7.28861L21.0252 7.99526C21.3063 8.24897 21.4428 8.62132 21.4428 9C21.4428 9.37868 21.3063 9.75103 21.0252 10.0047L20.2422 10.7114C19.934 10.9896 19.8039 11.4208 19.9498 11.8095C20.2624 12.6429 20.7101 13.4102 21.2662 14.0849C21.5296 14.4045 21.9668 14.5073 22.3608 14.3798L23.3628 14.0555C23.7236 13.9387 24.1132 14.0067 24.4414 14.1967C24.7691 14.3863 25.0251 14.6909 25.1043 15.0612L25.3245 16.0914C25.4112 16.4972 25.7197 16.8251 26.1291 16.8927C26.5565 16.9633 26.9952 17 27.4425 17C27.8898 17 28.3286 16.9633 28.7559 16.8927C29.1653 16.8251 29.4738 16.4972 29.5606 16.0914L29.7808 15.0612C29.8599 14.6909 30.1159 14.3863 30.4436 14.1967C30.7718 14.0067 31.1615 13.9387 31.5223 14.0555L32.5242 14.3798C32.9182 14.5073 33.3555 14.4045 33.6188 14.0849C34.175 13.4102 34.6227 12.6429 34.9353 11.8095C35.0811 11.4207 34.9511 10.9896 34.6428 10.7114L33.8599 10.0048C33.5788 9.75108 33.4423 9.37871 33.4423 9C33.4423 8.62129 33.5788 8.24892 33.8599 7.99519L34.6428 7.28859C34.9511 7.01044 35.0811 6.57925 34.9353 6.19055C34.6227 5.35713 34.175 4.58975 33.6188 3.91506C33.3555 3.59552 32.9182 3.49271 32.5242 3.62022L31.5223 3.94451C31.1615 4.06127 30.7718 3.99327 30.4436 3.80333C30.1159 3.61365 29.8599 3.30906 29.7808 2.93877L29.5606 1.90859C29.4738 1.5028 29.1653 1.17491 28.7559 1.10729C28.3286 1.03671 27.8898 1 27.4425 1C26.9952 1 26.5565 1.03671 26.1291 1.10729C25.7197 1.17491 25.4112 1.5028 25.3245 1.90861L25.1043 2.93882C25.0251 3.3091 24.7691 3.61368 24.4414 3.80335ZM29.9491 9C29.9491 10.3807 28.8299 11.5 27.4491 11.5C26.0684 11.5 24.9491 10.3807 24.9491 9C24.9491 7.61929 26.0684 6.5 27.4491 6.5C28.8299 6.5 29.9491 7.61929 29.9491 9Z" fill="currentColor"/>
</svg>
