<svg width="24" height="24" viewBox="0 0 24 24" fill="none" xmlns="http://www.w3.org/2000/svg">
<path d="M3 11C3 9.89543 3.89543 9 5 9H7C7.55229 9 8 9.44771 8 10C8 10.5523 7.55229 11 7 11H5.6C5.26863 11 5 11.2686 5 11.6V19.4C5 19.7314 5.26863 20 5.6 20H18.4C18.7314 20 19 19.7314 19 19.4V11.6C19 11.2686 18.7314 11 18.4 11H17C16.4477 11 16 10.5523 16 10C16 9.44771 16.4477 9 17 9H19C20.1046 9 21 9.89543 21 11V20C21 21.1046 20.1046 22 19 22H5C3.89543 22 3 21.1046 3 20L3 11Z" fill="currentColor"/>
<path d="M11 4.82422L9.70711 6.11711C9.31658 6.50763 8.68342 6.50763 8.29289 6.11711C7.90237 5.72658 7.90237 5.09342 8.29289 4.7029L12 0.995789L15.7071 4.7029C16.0976 5.09342 16.0976 5.72658 15.7071 6.11711C15.3166 6.50763 14.6834 6.50763 14.2929 6.11711L13 4.82422L13 15C13 15.5523 12.5523 16 12 16C11.4477 16 11 15.5523 11 15L11 4.82422Z" fill="currentColor"/>
</svg>
