<svg width="24" height="24" viewBox="0 0 24 24" fill="none" xmlns="http://www.w3.org/2000/svg">
<path d="M12.061 16.4408C12.6467 17.0266 12.6468 17.9763 12.061 18.5621C11.4752 19.1479 10.5254 19.1479 9.93965 18.5621L4.43739 13.0599C4.15609 12.7786 3.99805 12.3971 3.99805 11.9993C3.99805 11.6015 4.15608 11.2199 4.43739 10.9386L9.93964 5.43641C10.5254 4.85062 11.4752 4.85063 12.061 5.43641C12.6467 6.0222 12.6467 6.97195 12.061 7.55773L8.60934 11.0093C8.14267 11.476 7.90933 11.7093 7.90933 11.9993C7.90933 12.2892 8.14267 12.5226 8.60934 12.9892L12.061 16.4408Z" fill="currentColor"/>
<path d="M19.561 16.4408C20.1467 17.0266 20.1468 17.9763 19.561 18.5621C18.9752 19.1479 18.0254 19.1479 17.4396 18.5621L11.9374 13.0599C11.6561 12.7786 11.498 12.3971 11.498 11.9993C11.498 11.6015 11.6561 11.2199 11.9374 10.9386L17.4396 5.43641C18.0254 4.85062 18.9752 4.85063 19.561 5.43641C20.1467 6.0222 20.1467 6.97195 19.561 7.55773L16.1093 11.0093C15.6427 11.476 15.4093 11.7093 15.4093 11.9993C15.4093 12.2892 15.6427 12.5226 16.1093 12.9892L19.561 16.4408Z" fill="currentColor"/>
</svg>
