<svg width="36" height="36" viewBox="0 0 36 36" fill="none" xmlns="http://www.w3.org/2000/svg">
<path fill-rule="evenodd" clip-rule="evenodd" d="M30.5 15.5C30.5 18.4302 29.4918 21.1248 27.8034 23.2561C26.758 24.6116 25.5449 25.7301 24.3429 26.8384C22.7407 28.3157 21.1584 29.7747 20.0196 31.7524C19.9152 31.9337 19.863 32.0243 19.847 32.0502C19.4526 32.6894 18.9566 32.9762 18.2058 32.999C18.1754 32.9999 18.117 32.9999 18 32.9999C17.8831 32.9999 17.8246 32.9999 17.7942 32.999C17.0434 32.9762 16.5475 32.6895 16.153 32.0503C16.1371 32.0244 16.085 31.9341 15.981 31.7534L15.9804 31.7524C14.8414 29.7745 13.2583 28.3155 11.6552 26.8381C10.3981 25.6796 9.12881 24.5097 8.05165 23.0695C6.45065 20.9685 5.5 18.3453 5.5 15.5C5.5 8.59644 11.0964 3 18 3C24.9036 3 30.5 8.59644 30.5 15.5ZM18 20C20.4853 20 22.5 17.9853 22.5 15.5C22.5 13.0147 20.4853 11 18 11C15.5147 11 13.5 13.0147 13.5 15.5C13.5 17.9853 15.5147 20 18 20Z" fill="currentColor"/>
</svg>
