<svg width="16" height="16" viewBox="0 0 16 16" fill="none" xmlns="http://www.w3.org/2000/svg">
<path d="M1.43934 2.43934C1.12908 2.7496 1.03792 3.19341 1.01114 3.92549C0.992676 4.43026 0.983444 4.68265 1.1111 4.90572C1.23875 5.12879 1.47431 5.25586 1.94544 5.50999L6.10099 7.7516C7.03032 8.25291 7.49499 8.50356 8.00002 8.50356C8.50506 8.50356 8.96972 8.25291 9.89906 7.7516L14.0546 5.50999C14.5257 5.25586 14.7612 5.12879 14.8889 4.90572C15.0166 4.68265 15.0073 4.43026 14.9889 3.9255C14.9621 3.19341 14.8709 2.7496 14.5607 2.43934C14.1213 2 13.4142 2 12 2H4C2.58579 2 1.87868 2 1.43934 2.43934Z" fill="currentColor"/>
<path d="M15 8.16336C15 7.56556 15 7.26667 14.8051 7.15026C14.6102 7.03386 14.3471 7.17557 13.8207 7.45898L9.89643 9.57206C8.96832 10.0718 8.50426 10.3217 8.00002 10.3217C7.49579 10.3217 7.03174 10.0718 6.10363 9.57206L2.17928 7.45895C1.65294 7.17554 1.38977 7.03383 1.19489 7.15024C1 7.26664 1 7.56554 1 8.16333V10C1 11.8856 1 12.8284 1.58579 13.4142C2.17157 14 3.11438 14 5 14H11C12.8856 14 13.8284 14 14.4142 13.4142C15 12.8284 15 11.8856 15 10V8.16336Z" fill="currentColor"/>
</svg>
