<svg width="36" height="36" viewBox="0 0 36 36" fill="none" xmlns="http://www.w3.org/2000/svg">
<path d="M15.7968 4.30815C15 4.90825 15 6.12594 15 8.56132V12.5002C15 12.9716 15 13.2073 15.1464 13.3537C15.2929 13.5002 15.5286 13.5002 16 13.5002H22.75C23.4404 13.5002 24 14.0598 24 14.7502C24 15.4405 23.4404 16.0002 22.75 16.0002H16C15.5286 16.0002 15.2929 16.0002 15.1464 16.1466C15 16.2931 15 16.5288 15 17.0002V17.7502C15 18.2216 15 18.4573 15.1464 18.6037C15.2929 18.7502 15.5286 18.7502 16 18.7502H22.75C23.4404 18.7502 24 19.3098 24 20.0002C24 20.6905 23.4404 21.2502 22.75 21.2502H16C15.5286 21.2502 15.2929 21.2502 15.1464 21.3966C15 21.5431 15 21.7788 15 22.2502V23.0002C15 23.4716 15 23.7073 15.1464 23.8537C15.2929 24.0002 15.5286 24.0002 16 24.0002H22.75C23.4404 24.0002 24 24.5598 24 25.2502C24 25.9405 23.4404 26.5002 22.75 26.5002H16C15.5286 26.5002 15.2929 26.5002 15.1464 26.6466C15 26.7931 15 27.0288 15 27.5002V31C15 31.4714 15 31.7071 15.1464 31.8536C15.2929 32 15.5286 32 16 32L32.75 32C33.4404 32 34 31.4404 34 30.75C34 30.0596 33.4404 29.5 32.75 29.5H32C31.5286 29.5 31.2929 29.5 31.1464 29.3536C31 29.2071 31 28.9714 31 28.5V12.3662C31 10.191 31 9.10346 30.3964 8.302C29.7928 7.50053 28.7475 7.2002 26.6569 6.59952L20.1046 4.71686C17.7639 4.04432 16.5936 3.70805 15.7968 4.30815Z" fill="currentColor"/>
<path d="M10.3714 11.745L7.6786 12.6875C6.38466 13.1404 5.73767 13.3668 5.36883 13.8867C5 14.4065 5 15.092 5 16.4629V28.5C5 28.9714 5 29.2071 4.85355 29.3536C4.70711 29.5 4.4714 29.5 4 29.5H3.25C2.55964 29.5 2 30.0596 2 30.75C2 31.4404 2.55964 32 3.25 32H11.5C11.9714 32 12.2071 32 12.3536 31.8536C12.5 31.7071 12.5 31.4714 12.5 31V13.2552C12.5 12.2279 12.5 11.7143 12.1629 11.4751C11.8258 11.236 11.341 11.4056 10.3714 11.745Z" fill="currentColor"/>
</svg>
