<svg width="16" height="16" viewBox="0 0 16 16" fill="none" xmlns="http://www.w3.org/2000/svg">
<path fill-rule="evenodd" clip-rule="evenodd" d="M4.70063 2C4.03579 1.99997 3.46289 1.99994 3.00416 2.06161C2.51252 2.12771 2.04126 2.27677 1.65901 2.65901C1.27677 3.04126 1.12771 3.51252 1.06161 4.00416C0.999936 4.46289 0.999966 5.03574 1 5.70058L1 9.30201C0.999975 10.2005 0.99995 10.9497 1.07992 11.5445C1.16432 12.1723 1.34999 12.7391 1.80546 13.1945C2.26093 13.65 2.82773 13.8357 3.45553 13.9201C4.0503 14.0001 4.79951 14 5.69798 14H10.302C11.2005 14 11.9497 14.0001 12.5445 13.9201C13.1723 13.8357 13.7391 13.65 14.1945 13.1945C14.65 12.7391 14.8357 12.1723 14.9201 11.5445C15.0001 10.9497 15 10.2005 15 9.30203V5.70064C15 5.03577 15.0001 4.46291 14.9384 4.00416C14.8723 3.51252 14.7232 3.04126 14.341 2.65901C13.9587 2.27677 13.4875 2.12771 12.9958 2.06161C12.5371 1.99994 11.9643 1.99997 11.2994 2H4.70063ZM2.71968 3.71968C2.77677 3.66258 2.87873 3.59197 3.20403 3.54823C3.55091 3.5016 4.0217 3.50001 4.75001 3.50001H11.25C11.9783 3.50001 12.4491 3.5016 12.796 3.54823C13.1213 3.59197 13.2232 3.66258 13.2803 3.71968C13.3374 3.77677 13.408 3.87873 13.4518 4.20403C13.4749 4.37579 13.4869 4.57792 13.4932 4.82665C13.5018 5.16838 13.5061 5.33924 13.421 5.48596C13.3359 5.63268 13.1799 5.71664 12.8681 5.88456L10.4892 7.16551C9.78096 7.54686 9.29442 7.80798 8.89158 7.97856C8.5031 8.14305 8.24318 8.2003 8.00015 8.2003C7.75711 8.2003 7.49719 8.14305 7.10872 7.97856C6.70587 7.80798 6.21934 7.54685 5.51112 7.16551L3.13194 5.88441C2.82008 5.71648 2.66415 5.63252 2.57901 5.4858C2.49387 5.33909 2.49819 5.16822 2.50682 4.8265C2.5131 4.57784 2.52515 4.37575 2.54823 4.20403C2.59197 3.87873 2.66258 3.77677 2.71968 3.71968ZM3.23705 7.64464C2.90809 7.46751 2.74361 7.37894 2.62181 7.4517C2.50001 7.52445 2.50001 7.71126 2.50001 8.08488V9.25001C2.50001 10.214 2.5016 10.8616 2.56654 11.3446C2.62858 11.8061 2.73581 12.0036 2.86612 12.1339C2.99644 12.2642 3.19394 12.3714 3.6554 12.4335C4.13843 12.4984 4.78599 12.5 5.75001 12.5H10.25C11.214 12.5 11.8616 12.4984 12.3446 12.4335C12.8061 12.3714 13.0036 12.2642 13.1339 12.1339C13.2642 12.0036 13.3714 11.8061 13.4335 11.3446C13.4984 10.8616 13.5 10.214 13.5 9.25001V8.08503C13.5 7.71141 13.5 7.5246 13.3782 7.45185C13.2564 7.3791 13.0919 7.46766 12.763 7.6448L11.1695 8.50282C10.4996 8.86355 9.95152 9.15867 9.47646 9.35983C8.97976 9.57015 8.51346 9.7003 8.00015 9.7003C7.48683 9.7003 7.02053 9.57015 6.52384 9.35983C6.04877 9.15867 5.5007 8.86354 4.83079 8.50281L3.23705 7.64464Z" fill="currentColor"/>
</svg>
