<svg width="16" height="16" viewBox="0 0 16 16" fill="none" xmlns="http://www.w3.org/2000/svg">
<path d="M8 4.00195C8.41421 4.00195 8.75 4.33774 8.75 4.75195V8.25195C8.75 8.66617 8.41421 9.00195 8 9.00195C7.58579 9.00195 7.25 8.66617 7.25 8.25195V4.75195C7.25 4.33774 7.58579 4.00195 8 4.00195Z" fill="currentColor"/>
<path d="M8.00042 11.75C8.49684 11.75 8.89927 11.3476 8.89927 10.8511C8.89927 10.3547 8.49684 9.9523 8.00042 9.9523C7.50399 9.9523 7.10156 10.3547 7.10156 10.8511C7.10156 11.3476 7.50399 11.75 8.00042 11.75Z" fill="currentColor"/>
<path fill-rule="evenodd" clip-rule="evenodd" d="M6.49036 1H9.50615C10.0884 0.999982 10.5825 0.999966 10.9901 1.04278C11.4241 1.08836 11.8248 1.18739 12.2013 1.4255C12.5779 1.66361 12.8392 1.9832 13.0665 2.35581C13.28 2.70584 13.492 3.15228 13.7417 3.67844L14.8855 6.08759C15.2278 6.80671 15.499 7.37637 15.499 8C15.499 8.62363 15.2278 9.19329 14.8855 9.91241L13.7417 12.3216C13.492 12.8477 13.2801 13.2942 13.0665 13.6442C12.8392 14.0168 12.5779 14.3364 12.2013 14.5745C11.8248 14.8126 11.4241 14.9116 10.9901 14.9572C10.5825 15 10.0884 15 9.50616 15H6.49036C5.90786 15 5.4136 15 5.00576 14.9572C4.57161 14.9116 4.17079 14.8125 3.79415 14.5742C3.41751 14.3359 3.15622 14.0161 2.92895 13.6433C2.71544 13.2931 2.50362 12.8463 2.25396 12.3198L1.11141 9.91079C0.769704 9.19224 0.499023 8.62305 0.499023 8C0.499023 7.37696 0.769705 6.80776 1.11141 6.08921L2.25396 3.68015C2.50362 3.15367 2.71544 2.70695 2.92895 2.35671C3.15622 1.98387 3.41751 1.66408 3.79415 1.4258C4.17079 1.18751 4.57161 1.08842 5.00576 1.04281C5.4136 0.999966 5.90786 0.999982 6.49036 1ZM5.16238 2.53461C4.85964 2.56641 4.70846 2.62216 4.59562 2.69354C4.48279 2.76493 4.36764 2.87767 4.20916 3.13766C4.04148 3.41273 3.86272 3.78745 3.59262 4.35701L2.52561 6.60701C2.09553 7.51392 1.99849 7.75809 1.99849 8C1.99849 8.24192 2.09553 8.48609 2.52561 9.39299L3.59262 11.643C3.86272 12.2126 4.04148 12.5873 4.20916 12.8623C4.36764 13.1223 4.48279 13.2351 4.59562 13.3065C4.70846 13.3778 4.85964 13.4336 5.16238 13.4654C5.48268 13.499 5.89773 13.5 6.52791 13.5H9.4686C10.0985 13.5 10.5134 13.499 10.8336 13.4654C11.1362 13.4336 11.2873 13.3779 11.4001 13.3066C11.5129 13.2353 11.6281 13.1226 11.7866 12.8628C11.9543 12.5879 12.1331 12.2134 12.4033 11.6442L13.4715 9.39417C13.9023 8.48652 13.9996 8.24214 13.9996 8C13.9996 7.75786 13.9023 7.51349 13.4715 6.60583L12.4033 4.35583C12.1331 3.78661 11.9543 3.41214 11.7866 3.13724C11.6281 2.87742 11.5129 2.76475 11.4001 2.69341C11.2873 2.62207 11.1362 2.56637 10.8336 2.53458C10.5134 2.50096 10.0985 2.5 9.4686 2.5H6.52791C5.89773 2.5 5.48268 2.50096 5.16238 2.53461Z" fill="currentColor"/>
</svg>
