<svg width="36" height="36" viewBox="0 0 36 36" fill="none" xmlns="http://www.w3.org/2000/svg">
<path d="M29.2415 8.79501C29.4561 8.63975 29.7552 8.67814 29.9162 8.88839C30.657 9.85577 31.2827 10.916 31.7728 12.0486C31.8639 12.2592 31.7927 12.5035 31.6067 12.6381L18.5281 22.1035C18.2652 22.2937 17.9134 22.3063 17.6376 22.1354L12.7839 19.1268C12.6074 19.0174 12.5 18.8245 12.5 18.6169V14.3667C12.5 14.0532 12.8442 13.8616 13.1107 14.0267L17.5643 16.7867C17.7712 16.9149 18.035 16.9055 18.2322 16.7628L29.2415 8.79501Z" fill="#21A038"/>
<path d="M18 7.5V3C20.9978 3.00001 23.7902 3.87942 26.1333 5.39433C26.3641 5.5436 26.3669 5.87608 26.1441 6.03727L22.9288 8.36433C22.7486 8.4947 22.5118 8.51344 22.309 8.4221C20.9943 7.82967 19.5356 7.50001 18 7.5Z" fill="url(#paint0_linear_1317_32)"/>
<path d="M18.0002 7.5C15.2898 7.50003 12.8193 8.52703 10.9565 10.2131L7.9375 6.87606C10.5987 4.46723 14.1282 3 18.0004 3L18.0002 7.5Z" fill="url(#paint1_linear_1317_32)"/>
<path d="M7.5 17.9995C7.5 14.911 8.83352 12.1339 10.9562 10.2126L7.93726 6.87564C8.54188 6.32835 9.19133 5.82966 9.87944 5.38574C5.74044 8.05589 3 12.7077 3 17.9995H7.5Z" fill="url(#paint2_linear_1317_32)"/>
<path d="M6.87779 28.0648L10.2145 25.0453C8.52755 23.1824 7.5 20.7112 7.5 18L3 18C3 21.8731 4.46793 25.4034 6.87779 28.0648Z" fill="url(#paint3_linear_1317_32)"/>
<path d="M10.2146 25.0449C12.1358 27.1667 14.9123 28.4996 18.0001 28.4996V32.9996C13.589 32.9996 9.62255 31.0955 6.87793 28.0644L10.2146 25.0449Z" fill="url(#paint4_linear_1317_32)"/>
<path d="M28.0664 29.1203L28.0634 29.123L25.0446 25.7861C23.1817 27.4726 20.7108 28.4999 18 28.5V33C21.8739 32.9999 25.4048 31.5311 28.0664 29.1203Z" fill="url(#paint5_linear_1317_32)"/>
<path d="M28.0639 29.1232C31.0956 26.3785 33.0001 22.4118 33.0001 18.0002C33.0001 17.85 32.9978 17.7004 32.9935 17.5513C32.9821 17.1632 32.5424 16.9606 32.2279 17.1883L28.56 19.8428C28.3958 19.9616 28.2841 20.1388 28.2392 20.3364C27.7534 22.4744 26.6152 24.3645 25.0449 25.7861L26.2505 27.75L28.0639 29.1232Z" fill="url(#paint6_linear_1317_32)"/>
<defs>
<linearGradient id="paint0_linear_1317_32" x1="18" y1="5.3408" x2="25.954" y2="6.24002" gradientUnits="userSpaceOnUse">
<stop offset="0.0566" stop-color="#0199F8"/>
<stop offset="0.79" stop-color="#0C8ACB"/>
</linearGradient>
<linearGradient id="paint1_linear_1317_32" x1="9.56503" y1="7.22083" x2="22.0519" y2="-0.202159" gradientUnits="userSpaceOnUse">
<stop offset="0.0592" stop-color="#0FA8E0"/>
<stop offset="0.5385" stop-color="#0099F9"/>
<stop offset="0.9234" stop-color="#0291EB"/>
</linearGradient>
<linearGradient id="paint2_linear_1317_32" x1="5.89886" y1="18.4755" x2="10.3304" y2="7.34322" gradientUnits="userSpaceOnUse">
<stop offset="0.0698" stop-color="#A3CD39"/>
<stop offset="0.2599" stop-color="#81C55F"/>
<stop offset="0.9216" stop-color="#0FA8E0"/>
</linearGradient>
<linearGradient id="paint3_linear_1317_32" x1="7.23909" y1="27.6797" x2="5.70945" y2="17.3389" gradientUnits="userSpaceOnUse">
<stop offset="0.1444" stop-color="#F2E913"/>
<stop offset="0.388266" stop-color="#E7E518"/>
<stop offset="0.645124" stop-color="#CADB26"/>
<stop offset="0.891" stop-color="#A3CD39"/>
</linearGradient>
<linearGradient id="paint4_linear_1317_32" x1="7.74706" y1="28.205" x2="17.5021" y2="31.5337" gradientUnits="userSpaceOnUse">
<stop offset="0.1324" stop-color="#F2E913"/>
<stop offset="0.2977" stop-color="#EBE716"/>
<stop offset="0.5306" stop-color="#D9E01F"/>
<stop offset="0.8023" stop-color="#BBD62D"/>
<stop offset="0.9829" stop-color="#A3CD39"/>
</linearGradient>
<linearGradient id="paint5_linear_1317_32" x1="18" y1="31.5005" x2="28.5" y2="25.5005" gradientUnits="userSpaceOnUse">
<stop offset="0.1226" stop-color="#A3CD39"/>
<stop offset="0.321429" stop-color="#86C339"/>
<stop offset="0.817075" stop-color="#21A038"/>
</linearGradient>
<linearGradient id="paint6_linear_1317_32" x1="32.2505" y1="20.9995" x2="26.2505" y2="26.9995" gradientUnits="userSpaceOnUse">
<stop stop-color="#21A038"/>
<stop offset="1" stop-color="#27A239"/>
</linearGradient>
</defs>
</svg>
