<svg width="24" height="24" viewBox="0 0 24 24" fill="none" xmlns="http://www.w3.org/2000/svg">
<path d="M11.6556 11.7979C11.5915 11.8586 11.4542 11.9214 11.1434 11.9214L11.1356 11.9214C11.0463 11.9213 11.0017 11.9212 10.9725 11.892C10.9432 11.8627 10.9432 11.8169 10.9432 11.7255V11.089C10.9432 10.9986 10.9432 10.9534 10.9715 10.9243L10.9736 10.9222C11.0027 10.894 11.0474 10.894 11.1368 10.894C11.4749 10.894 11.61 10.9564 11.6679 11.0108C11.7197 11.0595 11.766 11.1557 11.766 11.3978C11.766 11.6342 11.7153 11.7413 11.6556 11.7979Z" fill="currentColor"/>
<path fill-rule="evenodd" clip-rule="evenodd" d="M3.08215 19.3278C3.01953 18.862 3.00461 18.3081 3.00109 17.6789C3.00103 17.6689 3.001 17.664 3.0009 17.661C2.99738 17.5605 2.92899 17.4843 2.82942 17.4701C2.82651 17.4696 2.81985 17.4689 2.80653 17.4674C2.48564 17.4309 2.11334 17.3434 1.7742 17.0803C1.64163 16.9775 1.52253 16.8584 1.4197 16.7258C1.15663 16.3867 1.06909 16.0144 1.03263 15.6935C0.999889 15.4053 0.999946 15.0601 1 14.7052V9.29477C0.999946 8.93992 0.999889 8.59471 1.03263 8.30651C1.06909 7.98562 1.15663 7.61332 1.4197 7.27418C1.52253 7.14161 1.64163 7.02251 1.7742 6.91968C2.11334 6.65661 2.48564 6.56907 2.80653 6.53261C2.81985 6.5311 2.82652 6.53034 2.82942 6.52992C2.92899 6.51564 2.99738 6.43947 3.0009 6.33894C3.001 6.33601 3.00103 6.33105 3.00109 6.32112C3.00461 5.69194 3.01953 5.13797 3.08215 4.67222C3.17028 4.0167 3.36902 3.38835 3.87868 2.87869C4.38835 2.36902 5.0167 2.17028 5.67221 2.08215C6.28387 1.99991 7.04769 1.99995 7.93417 2L16.0658 2C16.9523 1.99995 17.7161 1.99991 18.3278 2.08215C18.9833 2.17028 19.6117 2.36902 20.1213 2.87868C20.631 3.38835 20.8297 4.0167 20.9179 4.67221C20.9805 5.13797 20.9954 5.69194 20.9989 6.32111C20.999 6.33104 20.999 6.33601 20.9991 6.33895C21.0026 6.43947 21.071 6.51564 21.1706 6.52992C21.1735 6.53034 21.1802 6.5311 21.1935 6.53261C21.5144 6.56907 21.8867 6.65661 22.2258 6.91968C22.3584 7.02251 22.4775 7.14161 22.5803 7.27418C22.8434 7.61332 22.9309 7.98562 22.9674 8.30651C23.0001 8.5947 23.0001 8.93989 23 9.29472V14.7052C23.0001 15.06 23.0001 15.4053 22.9674 15.6935C22.9309 16.0144 22.8434 16.3867 22.5803 16.7258C22.4775 16.8584 22.3584 16.9775 22.2258 17.0803C21.8867 17.3434 21.5144 17.4309 21.1935 17.4674C21.1802 17.4689 21.1735 17.4696 21.1706 17.4701C21.071 17.4843 21.0026 17.5605 20.9991 17.661C20.999 17.664 20.999 17.6689 20.9989 17.6789C20.9954 18.3081 20.9805 18.862 20.9179 19.3278C20.8297 19.9833 20.631 20.6117 20.1213 21.1213C19.6117 21.631 18.9833 21.8297 18.3278 21.9179C17.7161 22.0001 16.9523 22.0001 16.0658 22H7.9342C7.0477 22.0001 6.28388 22.0001 5.67221 21.9179C5.0167 21.8297 4.38835 21.631 3.87868 21.1213C3.36902 20.6117 3.17028 19.9833 3.08215 19.3278ZM18.9357 4.93871C18.9761 5.23927 18.9912 5.60959 18.9967 6.09858C18.9989 6.287 19 6.38121 18.9412 6.4406C18.8825 6.49998 18.7877 6.49998 18.5982 6.49998L5.40185 6.49999C5.21227 6.49999 5.11748 6.49999 5.05876 6.4406C5.00005 6.38121 5.00112 6.287 5.00327 6.09858C5.00886 5.6096 5.0239 5.23927 5.06431 4.93871C5.12263 4.50497 5.21677 4.36902 5.2929 4.2929C5.36902 4.21677 5.50497 4.12263 5.93871 4.06431C6.40122 4.00213 7.02893 4.00001 8.00001 4.00001L16 4.00001C16.9711 4.00001 17.5988 4.00213 18.0613 4.06431C18.495 4.12263 18.631 4.21677 18.7071 4.2929C18.7832 4.36902 18.8774 4.50497 18.9357 4.93871ZM5.00327 17.9014C5.00112 17.713 5.00005 17.6188 5.05876 17.5594C5.11748 17.5 5.21227 17.5 5.40185 17.5L18.5982 17.5C18.7877 17.5 18.8825 17.5 18.9412 17.5594C19 17.6188 18.9989 17.713 18.9967 17.9014C18.9912 18.3904 18.9761 18.7607 18.9357 19.0613C18.8774 19.495 18.7832 19.631 18.7071 19.7071C18.631 19.7832 18.495 19.8774 18.0613 19.9357C17.5988 19.9979 16.9711 20 16 20H8C7.02893 20 6.40122 19.9979 5.93871 19.9357C5.50497 19.8774 5.36902 19.7832 5.2929 19.7071C5.21677 19.631 5.12263 19.495 5.06431 19.0613C5.0239 18.7607 5.00885 18.3904 5.00327 17.9014ZM5.94763 13.0807L5.82462 12.9782C5.68271 12.8599 5.61175 12.8008 5.55417 12.8278C5.49658 12.8548 5.49658 12.9471 5.49658 13.1319L5.49658 14.3282C5.49658 14.4505 5.57741 14.5582 5.69491 14.5923C5.92325 14.6586 6.18004 14.7088 6.58338 14.7088C7.15149 14.7088 7.61312 14.6026 7.92348 14.2878C8.23305 13.9738 8.33018 13.5148 8.33018 12.9686V10.086C8.33018 9.80314 8.33018 9.66172 8.24231 9.57385C8.15445 9.48598 8.01302 9.48598 7.73018 9.48598H7.29778C7.01494 9.48598 6.87352 9.48598 6.78565 9.57385C6.69778 9.66172 6.69778 9.80314 6.69778 10.086V12.83C6.69778 13.0846 6.65536 13.1566 6.63968 13.174C6.63329 13.1811 6.6004 13.215 6.41838 13.215C6.32292 13.215 6.21963 13.1962 6.12771 13.1665C6.03177 13.1354 5.97034 13.0996 5.94763 13.0807ZM9.78608 9.48951C9.60854 9.49773 9.51978 9.50185 9.45394 9.54223C9.40966 9.5694 9.37319 9.6076 9.34811 9.65309C9.31081 9.72072 9.31081 9.80958 9.31081 9.98731V14.056C9.31081 14.3388 9.31081 14.4802 9.39868 14.5681C9.48655 14.656 9.62797 14.656 9.91081 14.656H10.3432C10.6261 14.656 10.7675 14.656 10.8553 14.5681C10.9432 14.4802 10.9432 14.3388 10.9432 14.056V13.5593C10.9432 13.4691 10.9432 13.4239 10.969 13.3954L10.9725 13.3916L10.9762 13.3881C11.0048 13.3624 11.051 13.3624 11.1434 13.3624C11.8701 13.3624 12.4536 13.2217 12.8553 12.8714C13.2656 12.5137 13.4314 11.9869 13.4314 11.345C13.4314 10.721 13.2876 10.2154 12.8766 9.88228C12.4818 9.56233 11.8992 9.45298 11.1566 9.45298C10.559 9.45298 10.2366 9.46821 9.78608 9.48951ZM16.2589 11.5866C16.3468 11.4987 16.4882 11.4987 16.771 11.4987H17.903C18.1859 11.4987 18.3273 11.4987 18.4152 11.5866C18.503 11.6744 18.503 11.8159 18.503 12.0987V14.1167C18.503 14.1606 18.503 14.1826 18.4989 14.2027C18.4896 14.2476 18.4652 14.2879 18.4297 14.3169C18.4138 14.3299 18.3944 14.3401 18.3554 14.3604C18.0235 14.5339 17.3656 14.7415 16.545 14.7415C15.7058 14.7415 15.0335 14.5565 14.5754 14.0993C14.1171 13.6421 13.927 12.9664 13.927 12.1103C13.927 11.2485 14.1054 10.5524 14.5715 10.0765C15.0388 9.5994 15.7396 9.3999 16.6506 9.3999C17.3278 9.3999 17.7757 9.51717 18.0281 9.62756C18.1282 9.67135 18.1928 9.77025 18.1928 9.8795V11.0486C18.1928 11.2057 18.1928 11.2843 18.142 11.313C18.0911 11.3417 18.0239 11.3011 17.8894 11.2198L17.7756 11.1511C17.5044 10.9872 17.1581 10.8805 16.7232 10.8805C16.2395 10.8805 15.9813 10.9804 15.835 11.1327C15.6861 11.2876 15.5924 11.559 15.5924 12.0509C15.5924 12.5642 15.692 12.8507 15.8385 13.0118C15.979 13.1662 16.2142 13.2609 16.6308 13.2609C16.7299 13.2609 16.8161 13.2553 16.893 13.2462C16.9469 13.2399 16.9738 13.2367 16.9915 13.2168C17.0092 13.197 17.0092 13.1685 17.0092 13.1117V13.0599C17.0092 12.9939 17.0092 12.9609 16.9887 12.9404C16.9682 12.9199 16.9352 12.9199 16.8692 12.9199H16.771C16.4882 12.9199 16.3468 12.9199 16.2589 12.832C16.171 12.7442 16.171 12.6027 16.171 12.3199V12.0987C16.171 11.8159 16.171 11.6744 16.2589 11.5866Z" fill="currentColor"/>
</svg>
