<svg width="24" height="24" viewBox="0 0 24 24" fill="none" xmlns="http://www.w3.org/2000/svg">
<path d="M20.1111 20.661C19.6067 20.998 18.9045 20.998 17.5 20.998H6.5C5.09554 20.998 4.39331 20.998 3.88886 20.661C3.67048 20.515 3.48298 20.3275 3.33706 20.1092C3 19.6047 3 18.9025 3 17.498L3 16.998C3 16.0661 3 15.6002 3.15224 15.2327C3.35523 14.7426 3.74458 14.3533 4.23463 14.1503C4.46023 14.0568 4.7229 14.0207 5.10763 14.0068C5.41864 13.9955 5.57414 13.9899 5.69755 14.0601C5.74671 14.088 5.77778 14.1126 5.81632 14.154C5.91306 14.2579 5.95485 14.468 6.03843 14.8882C6.19624 15.6816 6.81644 16.3018 7.60982 16.4596C7.80302 16.498 8.03534 16.498 8.49999 16.498L15.5 16.498C15.9647 16.498 16.197 16.498 16.3902 16.4596C17.1836 16.3018 17.8038 15.6816 17.9616 14.8882C18.0452 14.468 18.0869 14.2579 18.1837 14.154C18.2222 14.1126 18.2533 14.088 18.3025 14.0601C18.4259 13.9899 18.5814 13.9955 18.8924 14.0068C19.2771 14.0207 19.5398 14.0568 19.7654 14.1503C20.2554 14.3533 20.6448 14.7426 20.8478 15.2327C21 15.6002 21 16.0661 21 16.998V17.498C21 18.9025 21 19.6047 20.6629 20.1092C20.517 20.3275 20.3295 20.515 20.1111 20.661Z" fill="currentColor"/>
<path d="M11.1913 14.2568L8.44018 11.2306C8.11908 10.8774 7.87045 10.6039 7.71968 10.3812C7.56942 10.1593 7.49317 9.95444 7.58145 9.75487C7.66973 9.5553 7.87259 9.47394 8.13788 9.43583C8.40407 9.3976 8.77369 9.3976 9.25103 9.3976H9.9001L9.9001 3.49035C9.9001 3.16688 9.9001 2.9139 9.92662 2.71663C9.95374 2.51493 10.0102 2.35655 10.1344 2.23236C10.2586 2.10817 10.417 2.05169 10.6187 2.02457C10.816 1.99805 11.069 1.99805 11.3924 1.99805L12.6077 1.99805C12.9312 1.99804 13.1842 1.99804 13.3815 2.02457C13.5832 2.05169 13.7416 2.10817 13.8658 2.23236C13.99 2.35655 14.0465 2.51492 14.0736 2.71663C14.1001 2.9139 14.1001 3.16689 14.1001 3.49036L14.1001 9.3976H14.7487C15.2261 9.3976 15.5957 9.3976 15.8619 9.43583C16.1272 9.47394 16.33 9.5553 16.4183 9.75487C16.5066 9.95444 16.4303 10.1593 16.2801 10.3812C16.1293 10.6039 15.8807 10.8774 15.5596 11.2306L12.8085 14.2568C12.6401 14.442 12.5066 14.5889 12.3871 14.6885C12.2642 14.7909 12.1435 14.8543 11.9999 14.8543C11.8562 14.8543 11.7355 14.7909 11.6126 14.6885C11.4932 14.5889 11.3597 14.442 11.1913 14.2568Z" fill="currentColor"/>
</svg>
