<svg width="24" height="24" viewBox="0 0 24 24" fill="none" xmlns="http://www.w3.org/2000/svg">
<path fill-rule="evenodd" clip-rule="evenodd" d="M16.5 12C16.5 14.4853 14.4853 16.5 12 16.5C9.51472 16.5 7.5 14.4853 7.5 12C7.5 9.51472 9.51472 7.5 12 7.5C14.4853 7.5 16.5 9.51472 16.5 12ZM14.5 12C14.5 13.3807 13.3807 14.5 12 14.5C10.6193 14.5 9.5 13.3807 9.5 12C9.5 10.6193 10.6193 9.5 12 9.5C13.3807 9.5 14.5 10.6193 14.5 12Z" fill="currentColor"/>
<path fill-rule="evenodd" clip-rule="evenodd" d="M12.0001 4C6.67455 4 3.3553 7.67059 1.8612 9.82357L1.81304 9.89286C1.39209 10.4981 1.00244 11.0583 1.00244 12C1.00244 12.9417 1.39209 13.5019 1.81304 14.1071L1.8612 14.1764C3.3553 16.3294 6.67455 20 12.0001 20C17.3257 20 20.645 16.3294 22.139 14.1764L22.1872 14.1071C22.6081 13.5019 22.9978 12.9417 22.9978 12C22.9978 11.0583 22.6081 10.4981 22.1872 9.89288L22.139 9.8236C20.645 7.67062 17.3257 4 12.0001 4ZM3.5043 10.9638C4.87861 8.98348 7.67566 6 12.0001 6C16.3246 6 19.1216 8.9835 20.4959 10.9639C20.7384 11.3133 20.8524 11.4829 20.9224 11.632C20.9718 11.7372 20.9978 11.8299 20.9978 12C20.9978 12.1701 20.9718 12.2628 20.9224 12.368C20.8524 12.5171 20.7384 12.6867 20.4959 13.0362C19.1216 15.0165 16.3246 18 12.0001 18C7.67566 18 4.87861 15.0165 3.5043 13.0362C3.26182 12.6868 3.14778 12.5171 3.07781 12.368C3.02845 12.2628 3.00244 12.1701 3.00244 12C3.00244 11.8299 3.02845 11.7372 3.07781 11.632C3.14778 11.4829 3.26182 11.3132 3.5043 10.9638Z" fill="currentColor"/>
</svg>
