<svg width="24" height="24" viewBox="0 0 24 24" fill="none" xmlns="http://www.w3.org/2000/svg">
<path d="M10.6095 4.22003C11.2207 3.07334 11.5263 2.5 12 2.5C12.4737 2.5 12.7793 3.07334 13.3905 4.22002L15.0397 7.314C15.2605 7.72825 15.3709 7.93538 15.5548 8.06832C15.7387 8.20125 15.9711 8.24198 16.436 8.32344L19.9075 8.93172C21.1869 9.15591 21.8267 9.26801 21.9729 9.7138C22.1191 10.1596 21.6684 10.6241 20.7672 11.5532L18.31 14.0863C17.9838 14.4225 17.8207 14.5907 17.7508 14.8047C17.6809 15.0187 17.7136 15.2499 17.7791 15.7122L18.272 19.1952C18.4534 20.4771 18.5441 21.118 18.161 21.3938C17.778 21.6695 17.1926 21.3846 16.0217 20.815L12.8654 19.2793C12.4405 19.0725 12.228 18.9691 12 18.9691C11.772 18.9691 11.5595 19.0725 11.1346 19.2793L7.97829 20.815C6.80744 21.3846 6.22202 21.6695 5.83897 21.3938C5.45593 21.118 5.54663 20.4771 5.72804 19.1952L6.22095 15.7122C6.28637 15.2499 6.31908 15.0187 6.24919 14.8047C6.1793 14.5907 6.01621 14.4225 5.69002 14.0863L3.23282 11.5532C2.33157 10.6241 1.88094 10.1596 2.02713 9.7138C2.17333 9.26801 2.81307 9.15591 4.09255 8.93172L7.56397 8.32344C8.02888 8.24198 8.26133 8.20125 8.44522 8.06832C8.6291 7.93538 8.73951 7.72825 8.96032 7.314L10.6095 4.22003Z" fill="currentColor"/>
</svg>
