<svg width="24" height="24" viewBox="0 0 24 24" fill="none" xmlns="http://www.w3.org/2000/svg">
<path d="M14 16C14 15.4477 14.4477 15 15 15H17C17.5523 15 18 15.4477 18 16C18 16.5523 17.5523 17 17 17L15 17C14.4477 17 14 16.5523 14 16Z" fill="currentColor"/>
<path fill-rule="evenodd" clip-rule="evenodd" d="M8 4L16 4V2C16 1.44772 16.4477 1 17 1C17.5523 1 18 1.44772 18 2V4L18 4.00415C18.4979 4.01124 18.943 4.03041 19.3278 4.08215C19.9833 4.17028 20.6117 4.36902 21.1213 4.87868C21.631 5.38835 21.8297 6.0167 21.9179 6.67221C22.0001 7.28388 22.0001 8.0477 22 8.9342L22 14.0706C22 15.4247 22.0001 16.5413 21.8813 17.4251C21.7565 18.3529 21.4845 19.1723 20.8284 19.8284C20.1723 20.4845 19.3529 20.7565 18.4251 20.8813C17.5413 21.0001 16.4247 21 15.0705 21H8.92946C7.57533 21 6.4587 21.0001 5.57494 20.8813C4.64711 20.7565 3.82769 20.4845 3.17158 19.8284C2.51547 19.1723 2.2435 18.3529 2.11876 17.4251C1.99994 16.5413 1.99997 15.4247 2 14.0706L2 8.93418C1.99995 8.04769 1.99991 7.28387 2.08215 6.67221C2.17028 6.0167 2.36902 5.38835 2.87868 4.87869C3.38835 4.36902 4.0167 4.17028 4.67221 4.08215C5.05704 4.03041 5.50208 4.01124 6.00001 4.00415L6 4V2C6 1.44772 6.44772 1 7 1C7.55228 1 8 1.44772 8 2V4ZM4.2929 6.2929C4.36902 6.21677 4.50497 6.12263 4.93871 6.06431C5.40122 6.00213 6.02893 6.00001 7 6.00001L17 6.00001C17.9711 6.00001 18.5988 6.00213 19.0613 6.06431C19.495 6.12263 19.631 6.21677 19.7071 6.2929C19.7832 6.36902 19.8774 6.50497 19.9357 6.93871C19.9789 7.25968 19.9931 7.66022 19.9977 8.19987C20.001 8.57545 20.0026 8.76324 19.8853 8.88162C19.7679 9.00001 19.5786 9.00001 19.2 9.00001H4.8C4.42141 9.00001 4.23212 9.00001 4.11475 8.88162C3.99739 8.76324 3.99901 8.57545 4.00226 8.19987C4.00693 7.66022 4.02116 7.25968 4.06431 6.93871C4.12263 6.50497 4.21677 6.36902 4.2929 6.2929ZM4.8 11C4.42288 11 4.23431 11 4.11716 11.1172C4 11.2343 4 11.4229 4 11.8L4 14C4 15.4425 4.00213 16.4238 4.10092 17.1586C4.19585 17.8646 4.36322 18.1916 4.58579 18.4142C4.80836 18.6368 5.13538 18.8042 5.84144 18.8991C6.57626 18.9979 7.55752 19 9 19H15C16.4425 19 17.4238 18.9979 18.1586 18.8991C18.8646 18.8042 19.1916 18.6368 19.4142 18.4142C19.6368 18.1916 19.8042 17.8646 19.8991 17.1586C19.9979 16.4238 20 15.4425 20 14L20 11.8C20 11.4229 20 11.2343 19.8828 11.1172C19.7657 11 19.5771 11 19.2 11L4.8 11Z" fill="currentColor"/>
</svg>
