<svg width="16" height="16" viewBox="0 0 16 16" fill="none" xmlns="http://www.w3.org/2000/svg">
<path d="M14.7803 8.53033C15.0732 8.23744 15.0732 7.76256 14.7803 7.46967L11.5303 4.21967C11.2374 3.92678 10.7626 3.92678 10.4697 4.21967C10.1768 4.51256 10.1768 4.98744 10.4697 5.28033L12.1028 6.91346C12.2481 7.05877 12.3208 7.13142 12.2952 7.19315C12.2696 7.25488 12.1669 7.25488 11.9614 7.25488L1.75 7.25488C1.33579 7.25488 1 7.59067 1 8.00488C1 8.4191 1.33579 8.75488 1.75 8.75488L11.9516 8.75488C12.1571 8.75488 12.2599 8.75488 12.2854 8.81661C12.311 8.87835 12.2383 8.951 12.093 9.0963L10.4697 10.7197C10.1768 11.0126 10.1768 11.4874 10.4697 11.7803C10.7626 12.0732 11.2374 12.0732 11.5303 11.7803L14.7803 8.53033Z" fill="currentColor"/>
</svg>
