<svg width="36" height="36" viewBox="0 0 36 36" fill="none" xmlns="http://www.w3.org/2000/svg">
<path fill-rule="evenodd" clip-rule="evenodd" d="M3.87868 5.87868C3 6.75736 3 8.17157 3 11V25C3 27.8284 3 29.2426 3.87868 30.1213C4.75736 31 6.17157 31 9 31H27C29.8284 31 31.2426 31 32.1213 30.1213C33 29.2426 33 27.8284 33 25V11C33 8.17157 33 6.75736 32.1213 5.87868C31.2426 5 29.8284 5 27 5H9C6.17157 5 4.75736 5 3.87868 5.87868ZM27.9121 11.4121C27.8243 11.5 27.6828 11.5 27.4 11.5H25.2693C24.9184 11.5 24.7429 11.5 24.5875 11.5692C24.4322 11.6384 24.3148 11.7688 24.08 12.0297L20.6018 15.8944C20.2123 16.3272 20.0175 16.5436 19.7539 16.5944C19.4904 16.6452 19.2291 16.5168 18.7066 16.2598L15.8187 14.8399C15.4189 14.6433 15.2191 14.5451 15.0074 14.558C14.7957 14.571 14.6094 14.693 14.2366 14.9369L8.61903 18.6132C8.34618 18.7917 8.20975 18.881 8.10488 18.8243C8 18.7676 8 18.6046 8 18.2785V16.6934C8 16.374 8 16.2143 8.07295 16.0803C8.14589 15.9462 8.27996 15.8594 8.5481 15.6859L14.1531 12.0591C14.5278 11.8167 14.7151 11.6955 14.9271 11.6838C15.1392 11.672 15.3387 11.7718 15.7379 11.9714L18.6628 13.4338C18.9249 13.5649 19.0559 13.6304 19.1885 13.6053C19.3211 13.5802 19.4192 13.4713 19.6152 13.2535L22.8475 9.66207C23.1409 9.33602 23.2876 9.173 23.4818 9.0865C23.6761 9 23.8954 9 24.334 9H27.4C27.6828 9 27.8243 9 27.9121 9.08787C28 9.17574 28 9.31716 28 9.6V10.9C28 11.1828 28 11.3243 27.9121 11.4121ZM27.9121 16.0879C28 16.1757 28 16.3172 28 16.6V25.0001C28 25.9429 28 26.4143 27.7071 26.7072C27.4142 27.0001 26.9428 27.0001 26 27.0001H10C9.05719 27.0001 8.58579 27.0001 8.29289 26.7072C8 26.4143 8 25.9429 8 25.0001V23.1203C8 22.9591 8 22.8784 8.03709 22.811C8.07418 22.7435 8.14225 22.7003 8.27838 22.6138L14.2944 18.7939C14.6401 18.5744 14.813 18.4646 15.0086 18.4481C15.2043 18.4316 15.3931 18.5107 15.7708 18.6691L19.5026 20.234C19.8532 20.381 20.0285 20.4545 20.2041 20.4223C20.3797 20.3901 20.5175 20.2592 20.7932 19.9974L24.5378 16.44C24.7665 16.2227 24.8809 16.1141 25.0237 16.057C25.1665 16 25.3243 16 25.6398 16H27.4C27.6828 16 27.8243 16 27.9121 16.0879Z" fill="currentColor"/>
</svg>
