<svg width="36" height="36" viewBox="0 0 36 36" fill="none" xmlns="http://www.w3.org/2000/svg">
<path d="M10.6927 23.996L10.6567 23.9959C10.568 23.9954 10.5237 23.9952 10.4946 23.966C10.4655 23.9367 10.4655 23.8912 10.4655 23.8002L10.4655 21.2026C10.4655 21.1118 10.4655 21.0665 10.4942 21.0373C10.523 21.0081 10.5674 21.0074 10.6562 21.006C10.7008 21.0053 10.7473 21.005 10.7962 21.005C11.3891 21.005 11.695 21.1288 11.8656 21.3096C12.0411 21.4956 12.1536 21.8251 12.1536 22.4315C12.1536 23.0799 12.026 23.447 11.8269 23.6578C11.6325 23.8637 11.2977 23.996 10.6927 23.996Z" fill="currentColor"/>
<path d="M17.1255 22.5091C17.1255 21.8312 17.2429 21.452 17.4087 21.2435C17.5579 21.0558 17.7979 20.9446 18.2327 20.9446C18.688 20.9446 18.9367 21.0451 19.0896 21.2241C19.2565 21.4195 19.3831 21.7915 19.3831 22.5091C19.3831 23.2216 19.2569 23.5916 19.0949 23.7849C18.9481 23.9602 18.7139 24.0564 18.2931 24.0564C17.867 24.0564 17.6077 23.9638 17.4422 23.7829C17.2681 23.5924 17.1255 23.2263 17.1255 22.5091Z" fill="currentColor"/>
<path fill-rule="evenodd" clip-rule="evenodd" d="M5.87868 3.87917C5 4.75785 5 6.17206 5 9.00049L5 27.0005C5 29.8289 5 31.2431 5.87868 32.1218C6.75736 33.0005 8.17157 33.0005 11 33.0005H25C27.8284 33.0005 29.2426 33.0005 30.1213 32.1218C31 31.2431 31 29.8289 31 27.0005V15.8007C31 15.1407 31 14.8107 30.795 14.6057C30.5899 14.4007 30.26 14.4007 29.6 14.4007L25.8784 14.4007C25.0423 14.4009 24.1932 14.4011 23.4858 14.306C22.675 14.197 21.702 13.9251 20.8889 13.1119C20.0757 12.2988 19.8038 11.3258 19.6948 10.515C19.5997 9.80764 19.5999 8.95847 19.6001 8.12241L19.6001 4.40064C19.6001 3.74068 19.6001 3.4107 19.3951 3.20567C19.1901 3.00065 18.8601 3.00064 18.2002 3.00063L11 3.00049C8.17157 3.00049 6.75736 3.00049 5.87868 3.87917ZM8.66963 19.1305C8.61737 19.1337 8.59123 19.1352 8.56921 19.1399C8.44693 19.1659 8.35357 19.2649 8.33491 19.3886C8.33154 19.4108 8.33154 19.437 8.33154 19.4894L8.33154 25.503C8.33154 25.5552 8.33154 25.5813 8.33489 25.6035C8.35346 25.7268 8.44635 25.8257 8.56822 25.852C8.59017 25.8568 8.6162 25.8584 8.66826 25.8617C9.35347 25.9051 9.86234 25.9315 10.6237 25.9315C11.8326 25.9315 12.7802 25.6661 13.4216 25.0424C14.0653 24.4166 14.3307 23.4983 14.3307 22.3538C14.3307 21.3783 14.1427 20.5294 13.5514 19.933C12.9606 19.337 12.0433 19.0695 10.7703 19.0695C9.90888 19.0695 9.4013 19.087 8.66963 19.1305ZM14.9053 22.5005C14.9053 23.6519 15.1805 24.546 15.7798 25.1492C16.3797 25.7528 17.2401 26.0005 18.2673 26.0005C19.2839 26.0005 20.1388 25.773 20.7339 25.1753C21.3284 24.5783 21.5947 23.6811 21.5947 22.5005C21.5947 21.3784 21.389 20.4803 20.8244 19.868C20.2533 19.2487 19.3896 19.0005 18.2673 19.0005C17.2001 19.0005 16.3357 19.2488 15.7445 19.8581C15.1556 20.4649 14.9053 21.3606 14.9053 22.5005ZM27.5491 21.6162C27.4988 21.6451 27.432 21.6059 27.2983 21.5277L27.0583 21.3872C26.7403 21.201 26.3372 21.005 25.6351 21.005C25.1334 21.005 24.8578 21.1137 24.6943 21.2919C24.5229 21.4787 24.3985 21.8232 24.3985 22.4746C24.3985 23.16 24.5314 23.5145 24.7118 23.7048C24.8866 23.8891 25.1796 23.996 25.7041 23.996C26.3782 23.996 26.8576 23.7787 27.0999 23.6057L27.3521 23.4255C27.4906 23.3266 27.5599 23.2771 27.6141 23.305C27.6684 23.3329 27.6684 23.4181 27.6684 23.5883V25.3045C27.6684 25.3409 27.6684 25.359 27.6665 25.3757C27.6562 25.4673 27.6044 25.5491 27.526 25.5975C27.5117 25.6063 27.4953 25.614 27.4625 25.6295C27.1022 25.7997 26.4541 25.9919 25.592 25.9919C24.4644 25.9919 23.5851 25.7412 22.9953 25.1359C22.4073 24.5325 22.1782 23.6494 22.1782 22.5523C22.1782 21.4254 22.4114 20.519 22.9992 19.898C23.5911 19.2726 24.473 19.0091 25.6006 19.0091C26.4665 19.0091 27.0517 19.1944 27.3535 19.295C27.3923 19.308 27.4119 19.3145 27.4287 19.3225C27.5209 19.3666 27.5844 19.4546 27.5971 19.5561C27.5994 19.5746 27.5994 19.5951 27.5994 19.6361V21.3551C27.5994 21.51 27.5994 21.5874 27.5491 21.6162Z" fill="currentColor"/>
<path d="M22.0002 5.03663C22.0002 3.8042 22.0002 3.18799 22.3705 3.03453C22.7408 2.88107 23.1766 3.31665 24.0484 4.1878L29.816 9.95129C30.6885 10.8232 31.1247 11.2591 30.9713 11.6296C30.8179 12.0001 30.2012 12.0001 28.9677 12.0001L26.0002 12.0002C24.1146 12.0002 23.1718 12.0002 22.586 11.4144C22.0002 10.8286 22.0002 9.8858 22.0002 8.00016V5.03663Z" fill="currentColor"/>
</svg>
