<svg width="36" height="36" viewBox="0 0 36 36" fill="none" xmlns="http://www.w3.org/2000/svg">
<path fill-rule="evenodd" clip-rule="evenodd" d="M25.7969 15.4102C26.5627 14.0952 27.001 12.5685 27.001 10.9401C27.001 6.00263 22.9715 2 18.001 2C13.0304 2 9.00098 6.00263 9.00098 10.9401C9.00098 12.5685 9.43925 14.0952 10.205 15.4102H10.203L10.2092 15.4173C11.0874 16.9223 12.2732 18.0107 13.4443 19.0857C14.5971 20.144 15.7359 21.1893 16.5532 22.6061C16.8564 23.1316 17.3943 23.5 18.001 23.5C18.6076 23.5 19.146 23.1319 19.4487 22.6062C20.2984 21.1309 21.5123 20.0049 22.7104 18.8936C23.8664 17.8213 25.0076 16.7627 25.7928 15.4172L25.799 15.4102H25.7969ZM21 11C21 12.6569 19.6569 14 18 14C16.3431 14 15 12.6569 15 11C15 9.34315 16.3431 8 18 8C19.6569 8 21 9.34315 21 11Z" fill="currentColor"/>
<path d="M9.35644 19.2071C9.67442 19.1136 10.0127 19.2176 10.25 19.449L11.8783 21.0364C12.071 21.2242 11.938 21.5512 11.6689 21.5512H11.1342C9.87608 21.5512 8.70419 22.1905 8.02316 23.2483L7.81345 23.574C7.69257 23.7618 7.71448 24.0049 7.84111 24.1888C8.69942 25.4353 8.57428 27.155 7.46567 28.2636C6.21599 29.5133 4.18987 29.5133 2.94019 28.2636C1.69051 27.0139 1.69051 24.9878 2.94019 23.7381C3.47145 23.2068 4.14303 22.9014 4.83563 22.8219C5.07332 22.7946 5.29738 22.6791 5.42689 22.4779L5.83704 21.8408C6.66656 20.5524 7.92376 19.6286 9.35644 19.2071Z" fill="currentColor"/>
<path d="M16.7012 26.3408C16.7012 26.0668 16.9731 25.8685 17.2439 25.9098C17.7238 25.9831 18.2787 25.9831 18.7586 25.9099C19.0294 25.8686 19.3012 26.0669 19.3012 26.3408V28.5522C19.3012 28.7496 19.4193 28.9256 19.5906 29.0238C20.5527 29.5756 21.2008 30.6129 21.2008 31.8016C21.2008 33.5689 19.7681 35.0016 18.0008 35.0016C16.2335 35.0016 14.8008 33.5689 14.8008 31.8016C14.8008 30.6126 15.4492 29.5752 16.4116 29.0234C16.583 28.9252 16.7012 28.7492 16.7012 28.5517V26.3408Z" fill="currentColor"/>
<path d="M24.8734 21.5512H24.2831C24.0115 21.5512 23.8797 21.219 24.0775 21.0328L25.7708 19.4383C26.0082 19.2148 26.3413 19.1158 26.654 19.208C28.0855 19.6299 29.3416 20.5533 30.1705 21.8408L30.4448 22.2669C30.5795 22.4761 30.8156 22.5921 31.0636 22.6124C31.7928 22.6721 32.5055 22.9809 33.0635 23.5389C34.3131 24.7886 34.3131 26.8147 33.0635 28.0644C31.8138 29.314 29.7877 29.314 28.538 28.0644C27.4529 26.9793 27.31 25.3088 28.1092 24.0695C28.2269 23.8871 28.2441 23.6516 28.1266 23.4692L27.9844 23.2483C27.3034 22.1905 26.1315 21.5512 24.8734 21.5512Z" fill="currentColor"/>
</svg>
