<svg width="24" height="24" viewBox="0 0 24 24" fill="none" xmlns="http://www.w3.org/2000/svg">
<path d="M5.88742 11.0002C5.79835 11.0002 5.75372 10.8926 5.81668 10.8296L9.11486 7.53042C9.271 7.37423 9.27091 7.12109 9.11464 6.96502L8.26555 6.11699C8.10938 5.96101 7.85629 5.961 7.7001 6.11697L2.12804 11.6813C1.9521 11.857 1.95211 12.1421 2.12806 12.3177L7.70194 17.883C7.85814 18.039 8.11121 18.039 8.26738 17.883L9.11645 17.035C9.27273 16.8789 9.27281 16.6257 9.11663 16.4696L5.81704 13.1698C5.75407 13.1068 5.79869 12.9992 5.88777 12.9992L21.5994 12.9992C21.8203 12.9992 21.9994 12.8202 21.9994 12.5994V11.4C21.9994 11.1792 21.8203 11.0002 21.5994 11.0002L5.88742 11.0002Z" fill="currentColor"/>
</svg>
