<svg width="24" height="24" viewBox="0 0 24 24" fill="none" xmlns="http://www.w3.org/2000/svg">
<path d="M7 2.00098C7.55229 2.00098 8 2.44869 8 3.00098C8 3.55326 7.55229 4.00098 7 4.00098L5.03704 4.00098C4.72304 4.00098 4.56605 4.00098 4.44156 4.05043C4.26245 4.12159 4.12061 4.26343 4.04946 4.44253C4 4.56702 4 4.72402 4 5.03801L4 7.00098C4 7.55326 3.55229 8.00098 3 8.00098C2.44772 8.00098 2 7.55326 2 7.00098L2 5.00098C2 4.06909 2 3.60315 2.15224 3.23561C2.35523 2.74555 2.74458 2.35621 3.23463 2.15322C3.60218 2.00098 4.06812 2.00098 5 2.00098L7 2.00098Z" fill="currentColor"/>
<path d="M7 22.001C7.55229 22.001 8 21.5533 8 21.001C8 20.4487 7.55229 20.001 7 20.001H5.03704C4.72304 20.001 4.56605 20.001 4.44156 19.9515C4.26245 19.8804 4.12061 19.7385 4.04946 19.5594C4 19.4349 4 19.2779 4 18.9639L4 17.001C4 16.4487 3.55229 16.001 3 16.001C2.44772 16.001 2 16.4487 2 17.001L2 19.001C2 19.9329 2 20.3988 2.15224 20.7663C2.35523 21.2564 2.74458 21.6457 3.23463 21.8487C3.60218 22.001 4.06812 22.001 5 22.001H7Z" fill="currentColor"/>
<path d="M16 3.00098C16 2.44869 16.4477 2.00098 17 2.00098L19 2.00098C19.9319 2.00098 20.3978 2.00098 20.7654 2.15322C21.2554 2.35621 21.6448 2.74555 21.8478 3.23561C22 3.60315 22 4.06909 22 5.00098V7.00098C22 7.55326 21.5523 8.00098 21 8.00098C20.4477 8.00098 20 7.55326 20 7.00098V5.03801C20 4.72402 20 4.56702 19.9505 4.44253C19.8794 4.26343 19.7375 4.12159 19.5584 4.05043C19.434 4.00098 19.277 4.00098 18.963 4.00098H17C16.4477 4.00098 16 3.55326 16 3.00098Z" fill="currentColor"/>
<path d="M17 22.001C16.4477 22.001 16 21.5533 16 21.001C16 20.4487 16.4477 20.001 17 20.001H18.963C19.277 20.001 19.434 20.001 19.5584 19.9515C19.7375 19.8804 19.8794 19.7385 19.9505 19.5594C20 19.4349 20 19.2779 20 18.9639V17.001C20 16.4487 20.4477 16.001 21 16.001C21.5523 16.001 22 16.4487 22 17.001V19.001C22 19.9329 22 20.3988 21.8478 20.7663C21.6448 21.2564 21.2554 21.6457 20.7654 21.8487C20.3978 22.001 19.9319 22.001 19 22.001H17Z" fill="currentColor"/>
<path d="M6.5 15.001C6.5 14.0582 6.5 13.5868 6.79289 13.2939C7.08579 13.001 7.55719 13.001 8.5 13.001H9C9.94281 13.001 10.4142 13.001 10.7071 13.2939C11 13.5868 11 14.0582 11 15.001V15.501C11 16.4438 11 16.9152 10.7071 17.2081C10.4142 17.501 9.94281 17.501 9 17.501H8.5C7.55719 17.501 7.08579 17.501 6.79289 17.2081C6.5 16.9152 6.5 16.4438 6.5 15.501V15.001Z" fill="currentColor"/>
<path d="M6.5 8.50098C6.5 7.55817 6.5 7.08676 6.79289 6.79387C7.08579 6.50098 7.55719 6.50098 8.5 6.50098H9C9.94281 6.50098 10.4142 6.50098 10.7071 6.79387C11 7.08676 11 7.55817 11 8.50098V9.00098C11 9.94379 11 10.4152 10.7071 10.7081C10.4142 11.001 9.94281 11.001 9 11.001H8.5C7.55719 11.001 7.08579 11.001 6.79289 10.7081C6.5 10.4152 6.5 9.94379 6.5 9.00098V8.50098Z" fill="currentColor"/>
<path d="M13.2929 6.79387C13 7.08676 13 7.55817 13 8.50098V9.00098C13 9.94379 13 10.4152 13.2929 10.7081C13.5858 11.001 14.0572 11.001 15 11.001H15.5C16.4428 11.001 16.9142 11.001 17.2071 10.7081C17.5 10.4152 17.5 9.94379 17.5 9.00098V8.50098C17.5 7.55817 17.5 7.08676 17.2071 6.79387C16.9142 6.50098 16.4428 6.50098 15.5 6.50098H15C14.0572 6.50098 13.5858 6.50098 13.2929 6.79387Z" fill="currentColor"/>
<path d="M15.25 14.002V14.702C15.25 14.8676 15.3843 15.002 15.55 15.002H16.5C16.9714 15.002 17.2071 15.002 17.3536 15.1484C17.5 15.2948 17.5 15.5306 17.5 16.002V16.502C17.5 16.9734 17.5 17.2091 17.3536 17.3555C17.2071 17.502 16.9714 17.502 16.5 17.502H16C15.5286 17.502 15.2929 17.502 15.1464 17.3555C15 17.2091 15 16.9734 15 16.502L15 15.552C15 15.3863 14.8657 15.252 14.7 15.252H14C13.5286 15.252 13.2929 15.252 13.1464 15.1055C13 14.9591 13 14.7234 13 14.252V14.002C13 13.5305 13 13.2948 13.1464 13.1484C13.2929 13.002 13.5286 13.002 14 13.002H14.25C14.7214 13.002 14.9571 13.002 15.1036 13.1484C15.25 13.2948 15.25 13.5306 15.25 14.002Z" fill="currentColor"/>
</svg>
