<svg width="36" height="36" viewBox="0 0 36 36" fill="none" xmlns="http://www.w3.org/2000/svg">
<path d="M22.0002 5.0376C22.0002 3.80517 22.0002 3.18896 22.3705 3.03551C22.7408 2.88205 23.1766 3.31762 24.0484 4.18877L29.816 9.95227C30.6885 10.8242 31.1247 11.2601 30.9713 11.6306C30.8179 12.0011 30.2012 12.0011 28.9677 12.0011L26.0002 12.0011C24.1146 12.0012 23.1718 12.0012 22.586 11.4154C22.0002 10.8296 22.0002 9.88677 22.0002 8.00113V5.0376Z" fill="currentColor"/>
<path fill-rule="evenodd" clip-rule="evenodd" d="M5.87868 3.88014C5 4.75882 5 6.17304 5 9.00146L5 27.0015C5 29.8299 5 31.2441 5.87868 32.1228C6.75736 33.0015 8.17157 33.0015 11 33.0015H25C27.8284 33.0015 29.2426 33.0015 30.1213 32.1228C31 31.2441 31 29.8299 31 27.0015V15.8016C31 15.1417 31 14.8117 30.795 14.6067C30.5899 14.4016 30.26 14.4016 29.6 14.4016L25.8784 14.4017C25.0423 14.4019 24.1932 14.4021 23.4858 14.307C22.675 14.198 21.702 13.926 20.8889 13.1129C20.0757 12.2998 19.8038 11.3267 19.6948 10.516C19.5997 9.80862 19.5999 8.95944 19.6001 8.12339L19.6001 4.40161C19.6001 3.74165 19.6001 3.41167 19.3951 3.20665C19.1901 3.00162 18.8601 3.00162 18.2002 3.0016L11 3.00146C8.17157 3.00146 6.75736 3.00146 5.87868 3.88014ZM24.2627 30.601C23.7479 30.601 23.4905 30.601 23.2542 30.52C23.1947 30.4996 23.1365 30.4755 23.0801 30.4478C22.8557 30.3378 22.6738 30.1558 22.31 29.7916L17.6411 25.1178C17.0671 24.5432 16.7801 24.2559 16.7412 23.9079C16.7317 23.8228 16.7332 23.7368 16.7456 23.6521C16.7962 23.3056 17.0928 23.0282 17.686 22.4735L18.4102 21.7962C20.4136 19.9226 21.4154 18.9858 22.6285 19.0061C23.8417 19.0264 24.8115 19.9962 26.7511 21.9358L27.7925 22.9771C28.1562 23.3409 28.3381 23.5227 28.4479 23.7469C28.4756 23.8034 28.4996 23.8615 28.52 23.921C28.6009 24.1572 28.6009 24.4144 28.6009 24.9288V27.401C28.6009 28.9095 28.6009 29.6637 28.1323 30.1323C27.6636 30.601 26.9094 30.601 25.4009 30.601H24.2627ZM18.161 29.0304C18.7662 29.6356 19.0688 29.9382 19.014 30.2024C19.0013 30.2641 18.9769 30.3228 18.9423 30.3755C18.7942 30.601 18.3663 30.601 17.5105 30.601H10.6009C9.09239 30.601 8.33814 30.601 7.86951 30.1323C7.40088 29.6637 7.40088 28.9095 7.40088 27.401V26.4036C7.40088 25.8762 7.40088 25.6124 7.49009 25.3655C7.51162 25.3059 7.54028 25.2404 7.56946 25.1841C7.69041 24.9511 7.87125 24.7841 8.23291 24.4502C9.27945 23.484 10.0259 23.0009 10.8897 23.0009C12.025 23.0009 12.9578 23.8356 14.6357 25.5051L18.161 29.0304ZM13.0014 18C11.3445 18 10.0014 16.6569 10.0014 15C10.0014 13.3431 11.3445 12 13.0014 12C14.6582 12 16.0014 13.3431 16.0014 15C16.0014 16.6569 14.6582 18 13.0014 18Z" fill="currentColor"/>
</svg>
