<svg width="24" height="24" viewBox="0 0 24 24" fill="none" xmlns="http://www.w3.org/2000/svg">
<path d="M11.9376 16.4408C11.3518 17.0266 11.3518 17.9763 11.9376 18.5621C12.5233 19.1479 13.4731 19.1479 14.0589 18.5621L19.5611 13.0599C19.8424 12.7786 20.0005 12.3971 20.0005 11.9993C20.0005 11.6015 19.8424 11.2199 19.5611 10.9386L14.0589 5.43641C13.4731 4.85062 12.5234 4.85063 11.9376 5.43641C11.3518 6.0222 11.3518 6.97195 11.9376 7.55773L15.3892 11.0093C15.8559 11.476 16.0892 11.7093 16.0892 11.9993C16.0892 12.2892 15.8559 12.5226 15.3892 12.9892L11.9376 16.4408Z" fill="currentColor"/>
<path d="M4.43758 16.4408C3.85179 17.0266 3.85178 17.9763 4.43756 18.5621C5.02335 19.1479 5.97309 19.1479 6.55888 18.5621L12.0611 13.0599C12.3424 12.7786 12.5005 12.3971 12.5005 11.9993C12.5005 11.6015 12.3424 11.2199 12.0611 10.9386L6.55889 5.43641C5.9731 4.85062 5.02336 4.85063 4.43757 5.43641C3.85179 6.0222 3.85179 6.97195 4.43758 7.55773L7.88919 11.0093C8.35586 11.476 8.5892 11.7093 8.5892 11.9993C8.5892 12.2892 8.35586 12.5226 7.88919 12.9892L4.43758 16.4408Z" fill="currentColor"/>
</svg>
