<svg width="24" height="24" viewBox="0 0 24 24" fill="none" xmlns="http://www.w3.org/2000/svg">
<path fill-rule="evenodd" clip-rule="evenodd" d="M4.73212 11.3433C4.93385 11.7578 4.93383 12.2421 4.73206 12.6566L2.31492 17.6223C1.15577 20.0037 3.38557 22.625 5.92064 21.8612L6.22719 21.7689C11.7762 20.097 17.0311 17.5709 21.8031 14.2812C23.4047 13.1771 23.3942 10.8154 21.8 9.71859C17.0358 6.44073 11.7875 3.91048 6.25472 2.22769L5.94498 2.13348C3.39957 1.35929 1.15438 3.99153 2.31895 6.38456L4.73212 11.3433ZM6.59693 13.3935C6.71412 13.1528 6.95833 13 7.226 13H10.9949C11.547 13 11.9945 12.5523 11.9945 12C11.9945 11.4477 11.547 11 10.9949 11H7.22612C6.95843 11 6.7142 10.8472 6.59702 10.6064L4.11638 5.50908C3.71585 4.68604 4.48804 3.78073 5.36348 4.047L5.67323 4.14121C11.0093 5.76419 16.0718 8.20475 20.6672 11.3665C21.1111 11.672 21.1125 12.3285 20.6688 12.6344C16.0677 15.8062 11.001 18.2419 5.65071 19.8538L5.34417 19.9462C4.47806 20.2071 3.71625 19.3116 4.11227 18.498L6.59693 13.3935Z" fill="currentColor"/>
</svg>
