<svg width="24" height="24" viewBox="0 0 24 24" fill="none" xmlns="http://www.w3.org/2000/svg">
<path fill-rule="evenodd" clip-rule="evenodd" d="M4.80098 2C4.35915 2 4.00098 2.35817 4.00098 2.8L4.00098 21.2C4.00098 21.6418 4.35915 22 4.80098 22H19.201C19.6428 22 20.001 21.6418 20.001 21.2V9.2C20.001 8.97909 19.8219 8.8 19.601 8.8H15.2012C14.0966 8.8 13.2012 7.90457 13.2012 6.8V2.4C13.2012 2.17909 13.0221 2 12.8012 2L4.80098 2ZM7.90195 16.0004C7.68104 16.0004 7.50195 16.1795 7.50195 16.4004L7.50195 18.0004C7.50195 18.2213 7.68104 18.4004 7.90195 18.4004H16.1018C16.3227 18.4004 16.5018 18.2213 16.5018 18.0004V16.4004C16.5018 16.1795 16.3227 16.0004 16.1018 16.0004L7.90195 16.0004ZM7.50195 12C7.50195 11.7791 7.68104 11.6 7.90195 11.6L16.1018 11.6C16.3227 11.6 16.5018 11.7791 16.5018 12L16.5018 13.6C16.5018 13.8209 16.3227 14 16.1018 14H7.90195C7.68104 14 7.50195 13.8209 7.50195 13.6V12ZM7.90195 7.19961C7.68104 7.19961 7.50195 7.3787 7.50195 7.59961V9.19961C7.50195 9.42052 7.68104 9.59961 7.90195 9.59961L11.102 9.59961C11.3229 9.59961 11.502 9.42052 11.502 9.19961L11.502 7.59961C11.502 7.3787 11.3229 7.19961 11.102 7.19961L7.90195 7.19961Z" fill="currentColor"/>
<path d="M15.001 2.40606C15.001 2.0497 15.4318 1.87123 15.6838 2.1232L19.8781 6.31711C20.1301 6.56909 19.9516 6.99997 19.5952 6.99997H15.801C15.3591 6.99997 15.001 6.64179 15.001 6.19997V2.40606Z" fill="currentColor"/>
</svg>
