<svg width="36" height="36" viewBox="0 0 36 36" fill="none" xmlns="http://www.w3.org/2000/svg">
<path d="M10.9565 10.2131C12.8193 8.52703 15.2898 7.50003 18.0002 7.5C19.5359 7.50001 20.9948 7.82967 22.3095 8.4221C22.5122 8.51344 22.7491 8.4947 22.9292 8.36433L26.1446 6.03727C26.3673 5.87608 26.3646 5.5436 26.1337 5.39433C23.7906 3.87942 20.9981 3.00001 18.0004 3C14.1282 3 10.5984 4.46744 7.93726 6.87627C7.98849 6.82989 8.04005 6.78386 8.09193 6.73818C4.96991 9.487 3 13.5135 3 18.0002C3 21.8733 4.46832 25.4037 6.87818 28.0651C9.62277 31.096 13.589 33.0004 18 33.0005C21.8739 33.0005 25.4048 31.5316 28.0664 29.1208L28.0639 29.1228C31.0956 26.3781 33.0001 22.4114 33.0001 17.9998C33.0001 17.8496 32.9978 17.7 32.9935 17.5509C32.9821 17.1628 32.5424 16.9602 32.2279 17.1879L28.56 19.8424C28.3958 19.9612 28.2841 20.1384 28.2392 20.336C27.7534 22.474 26.6149 24.365 25.0446 25.7866C23.1818 27.4731 20.7108 28.4999 18.0001 28.5C14.9123 28.5 12.1353 27.1673 10.2141 25.0456C8.52741 23.1826 7.5 20.7112 7.5 18.0002C7.5 14.9116 8.83383 12.1344 10.9565 10.2131Z" fill="currentColor"/>
<path d="M29.9162 8.88839C29.7552 8.67814 29.4561 8.63975 29.2415 8.79501L18.2322 16.7628C18.035 16.9055 17.7712 16.9149 17.5643 16.7867L13.1107 14.0267C12.8442 13.8616 12.5 14.0532 12.5 14.3667V18.6169C12.5 18.8245 12.6074 19.0174 12.7839 19.1268L17.6376 22.1354C17.9134 22.3063 18.2652 22.2937 18.5281 22.1035L31.6067 12.6381C31.7927 12.5035 31.8639 12.2592 31.7728 12.0486C31.2827 10.916 30.657 9.85577 29.9162 8.88839Z" fill="currentColor"/>
</svg>
