<svg width="24" height="24" viewBox="0 0 24 24" fill="none" xmlns="http://www.w3.org/2000/svg">
<path d="M5.00003 3.82123C5.00001 3.82531 5 3.82939 5 3.83348V20.166C5 20.1712 5.00002 20.1765 5.00005 20.1817L13.1601 12.0015L5.00003 3.82123Z" fill="currentColor"/>
<path d="M5.82196 21.4786C6.12048 21.5399 6.4804 21.4714 6.86495 21.2566L16.7608 15.6111L14.2179 13.0619L5.82196 21.4786Z" fill="currentColor"/>
<path d="M18.1096 14.8423L21.2272 13.0653C22.2576 12.4758 22.2576 11.5143 21.2272 10.9323L18.113 9.15722L15.2758 12.0015L18.1096 14.8423Z" fill="currentColor"/>
<path d="M16.7638 8.38885L14.2179 10.941L5.82284 2.52516C6.12115 2.46267 6.48112 2.53015 6.86495 2.75011L16.7638 8.38885Z" fill="currentColor"/>
</svg>
