<svg width="24" height="24" viewBox="0 0 24 24" fill="none" xmlns="http://www.w3.org/2000/svg">
<path d="M18.112 11.0002C18.201 11.0002 18.2457 10.8926 18.1827 10.8296L14.8845 7.53042C14.7284 7.37423 14.7285 7.12109 14.8848 6.96502L15.7338 6.11699C15.89 5.96101 16.1431 5.961 16.2993 6.11697L21.8714 11.6813C22.0473 11.857 22.0473 12.1421 21.8713 12.3177L16.2974 17.883C16.1413 18.039 15.8882 18.039 15.732 17.883L14.8829 17.035C14.7267 16.8789 14.7266 16.6257 14.8828 16.4696L18.1824 13.1698C18.2453 13.1068 18.2007 12.9992 18.1116 12.9992L2.4 12.9992C2.17909 12.9992 2 12.8202 2 12.5994L2 11.4C2 11.1792 2.17909 11.0002 2.4 11.0002L18.112 11.0002Z" fill="currentColor"/>
</svg>
