<svg width="36" height="36" viewBox="0 0 36 36" fill="none" xmlns="http://www.w3.org/2000/svg">
<path d="M9.28327 21.9075C9.31787 21.908 9.35434 21.9082 9.39381 21.9082C9.76603 21.9082 9.94826 21.8335 10.0417 21.745C10.131 21.6604 10.192 21.5125 10.192 21.2267C10.192 20.9363 10.1371 20.7998 10.056 20.7236C9.96922 20.642 9.78858 20.5684 9.38603 20.5684L9.28525 20.5685C9.19609 20.5688 9.1515 20.569 9.12234 20.5983C9.09318 20.6275 9.09318 20.6731 9.09318 20.7641V21.7111C9.09318 21.8017 9.09318 21.8471 9.12193 21.8762C9.15069 21.9054 9.19488 21.9061 9.28327 21.9075Z" fill="currentColor"/>
<path d="M14.5202 21.9079C14.5548 21.9085 14.5912 21.9087 14.6307 21.9087C15.0029 21.9087 15.1851 21.834 15.2786 21.7455C15.3679 21.6609 15.4289 21.513 15.4289 21.2271C15.4289 20.9368 15.374 20.8003 15.2929 20.724C15.2061 20.6425 15.0255 20.5689 14.6229 20.5689L14.5221 20.569C14.433 20.5693 14.3884 20.5695 14.3592 20.5988C14.3301 20.628 14.3301 20.6735 14.3301 20.7646V21.7116C14.3301 21.8022 14.3301 21.8475 14.3588 21.8767C14.3876 21.9059 14.4318 21.9066 14.5202 21.9079Z" fill="currentColor"/>
<path fill-rule="evenodd" clip-rule="evenodd" d="M5.87868 3.87917C5 4.75785 5 6.17206 5 9.00049L5 27.0005C5 29.8289 5 31.2431 5.87868 32.1218C6.75736 33.0005 8.17157 33.0005 11 33.0005H25C27.8284 33.0005 29.2426 33.0005 30.1213 32.1218C31 31.2431 31 29.8289 31 27.0005V15.8007C31 15.1407 31 14.8107 30.795 14.6057C30.5899 14.4007 30.26 14.4007 29.6 14.4007L25.8784 14.4007C25.0423 14.4009 24.1932 14.4011 23.4858 14.306C22.675 14.197 21.702 13.9251 20.8889 13.1119C20.0757 12.2988 19.8038 11.3258 19.6948 10.515C19.5997 9.80764 19.5999 8.95847 19.6001 8.12241L19.6001 4.40064C19.6001 3.74068 19.6001 3.4107 19.3951 3.20567C19.1901 3.00065 18.8601 3.00064 18.2002 3.00063L11 3.00049C8.17157 3.00049 6.75736 3.00049 5.87868 3.87917ZM7.4276 19.1073C7.49891 19.0573 7.5986 19.0527 7.798 19.0434C8.32857 19.0184 8.707 19.0005 9.40936 19.0005C10.281 19.0005 10.9478 19.1296 11.3947 19.4917C11.8569 19.8663 12.0243 20.438 12.0243 21.1645C12.0243 21.9102 11.8318 22.5092 11.3679 22.9138C10.9119 23.3113 10.2435 23.4762 9.39381 23.4762C9.36232 23.4762 9.33191 23.476 9.30227 23.4756C9.20251 23.4744 9.15263 23.4738 9.12291 23.5031C9.09318 23.5325 9.09318 23.5813 9.09318 23.6789V24.4C9.09318 24.6828 9.09318 24.8243 9.00531 24.9121C8.91745 25 8.77602 25 8.49318 25H7.89981C7.61696 25 7.47554 25 7.38767 24.9121C7.29981 24.8243 7.29981 24.6828 7.29981 24.4L7.29981 19.5653C7.29981 19.3657 7.29981 19.2659 7.34644 19.1923C7.36762 19.1589 7.3952 19.13 7.4276 19.1073ZM12.6645 19.1078C12.7358 19.0578 12.8355 19.0532 13.0349 19.0439C13.5654 19.0189 13.944 19.001 14.6462 19.001C15.5178 19.001 16.1847 19.1301 16.6316 19.4922C17.0938 19.8668 17.2612 20.4385 17.2612 21.1649C17.2612 21.9107 17.0687 22.5097 16.6047 22.9143C16.1488 23.3118 15.4804 23.4766 14.6307 23.4766C14.5992 23.4766 14.5688 23.4765 14.5392 23.4761C14.4394 23.4749 14.3895 23.4742 14.3598 23.5036C14.3301 23.533 14.3301 23.5818 14.3301 23.6793V24.4005C14.3301 24.6833 14.3301 24.8248 14.2422 24.9126C14.1543 25.0005 14.0129 25.0005 13.7301 25.0005H13.1367C12.8539 25.0005 12.7124 25.0005 12.6246 24.9126C12.5367 24.8248 12.5367 24.6833 12.5367 24.4005L12.5367 19.5658C12.5367 19.3662 12.5367 19.2663 12.5833 19.1928C12.6045 19.1594 12.6321 19.1305 12.6645 19.1078ZM18.9963 20.6544C19.0906 20.6544 19.1378 20.6544 19.167 20.6837C19.1963 20.713 19.1963 20.7601 19.1963 20.8544V24.4005C19.1963 24.6833 19.1963 24.8248 19.2842 24.9126C19.3721 25.0005 19.5135 25.0005 19.7963 25.0005H20.3819C20.6648 25.0005 20.8062 25.0005 20.8941 24.9126C20.9819 24.8248 20.9819 24.6833 20.9819 24.4005V20.8544C20.9819 20.7601 20.9819 20.713 21.0112 20.6837C21.0405 20.6544 21.0877 20.6544 21.1819 20.6544H21.9524C22.2353 20.6544 22.3767 20.6544 22.4646 20.5665C22.5524 20.4787 22.5524 20.3372 22.5524 20.0544V19.6398C22.5524 19.357 22.5524 19.2156 22.4646 19.1277C22.3767 19.0398 22.2353 19.0398 21.9524 19.0398H18.2258C17.943 19.0398 17.8016 19.0398 17.7137 19.1277C17.6258 19.2156 17.6258 19.357 17.6258 19.6398L17.6258 20.0544C17.6258 20.3372 17.6258 20.4787 17.7137 20.5665C17.8016 20.6544 17.943 20.6544 18.2258 20.6544H18.9963ZM24.4933 21.9485C24.4936 21.8962 24.467 21.8482 24.4139 21.7523L23.2397 19.6338C23.093 19.3691 23.0197 19.2368 23.0777 19.1383C23.1357 19.0398 23.287 19.0398 23.5895 19.0398H24.7438C24.8598 19.0398 24.9178 19.0398 24.9651 19.068C25.0124 19.0961 25.0401 19.1471 25.0954 19.249L25.716 20.3925C25.7617 20.4767 25.7846 20.5189 25.8199 20.5191C25.8553 20.5194 25.8789 20.4777 25.926 20.3942L26.5752 19.2433C26.6312 19.1441 26.6592 19.0944 26.7059 19.0671C26.7526 19.0398 26.8096 19.0398 26.9236 19.0398H28.0476C28.3595 19.0398 28.5155 19.0398 28.573 19.141C28.6306 19.2421 28.5508 19.3762 28.3914 19.6443L27.154 21.725C27.0952 21.8239 27.0658 21.8734 27.0656 21.928C27.0654 21.9826 27.0945 22.0323 27.1527 22.1316L28.4802 24.3983C28.6368 24.6657 28.7151 24.7994 28.6574 24.9C28.5998 25.0005 28.4449 25.0005 28.135 25.0005H26.9614C26.8488 25.0005 26.7925 25.0005 26.7461 24.9737C26.6997 24.947 26.6715 24.8982 26.6152 24.8007L25.8727 23.5169C25.8255 23.4353 25.8019 23.3945 25.7669 23.3949C25.7319 23.3953 25.7091 23.4366 25.6637 23.5192L24.9627 24.7933C24.9071 24.8943 24.8793 24.9448 24.8322 24.9727C24.7851 25.0005 24.7275 25.0005 24.6122 25.0005H23.4758C23.17 25.0005 23.0171 25.0005 22.9593 24.9011C22.9014 24.8017 22.977 24.6687 23.1281 24.4029L24.4118 22.1438C24.466 22.0484 24.4931 22.0007 24.4933 21.9485Z" fill="currentColor"/>
<path d="M22.0002 5.03663C22.0002 3.8042 22.0002 3.18799 22.3705 3.03453C22.7408 2.88107 23.1766 3.31665 24.0484 4.1878L29.816 9.95129C30.6885 10.8232 31.1247 11.2591 30.9713 11.6296C30.8179 12.0001 30.2012 12.0001 28.9677 12.0001L26.0002 12.0002C24.1146 12.0002 23.1718 12.0002 22.586 11.4144C22.0002 10.8286 22.0002 9.8858 22.0002 8.00016V5.03663Z" fill="currentColor"/>
</svg>
