<svg width="36" height="36" viewBox="0 0 36 36" fill="none" xmlns="http://www.w3.org/2000/svg">
<path d="M18.9534 6.50037L12.5188 6.50035C11.7809 6.50035 11.412 6.50035 11.2019 6.22527C10.9918 5.95019 11.0748 5.64549 11.241 5.0361C11.3709 4.55953 11.5708 4.18629 11.8784 3.87868C12.7571 3 14.1713 3 16.9998 3H25.9998C28.8282 3 30.2424 3 31.1211 3.87868C31.9998 4.75736 31.9998 6.17157 31.9998 9V21C31.9998 23.8284 31.9998 25.2426 31.1211 26.1213C30.8136 26.4288 30.4405 26.6287 29.9641 26.7587C29.3547 26.9249 29.0501 27.008 28.7749 26.7979C28.4998 26.5877 28.4998 26.2188 28.4998 25.4809L28.4998 15.7698C28.4998 15.7119 28.5002 15.6506 28.5006 15.5864C28.5048 14.928 28.5111 13.9597 28.1151 13.0646C27.7192 12.1696 26.9985 11.5228 26.5084 11.083C26.4607 11.0402 26.415 10.9992 26.3722 10.9602L23.3257 8.19076C23.2884 8.15679 23.249 8.12061 23.208 8.08284C22.7814 7.69057 22.155 7.11462 21.3493 6.80312C20.5435 6.49162 19.6937 6.49645 19.1142 6.49974C19.058 6.50006 19.0042 6.50037 18.9534 6.50037Z" fill="currentColor"/>
<path fill-rule="evenodd" clip-rule="evenodd" d="M5 15C5 12.1716 5 10.7574 5.87868 9.87868C6.75736 9 8.17157 9 11 9H16.1C16.76 9 17.0899 9 17.295 9.20503C17.5 9.41005 17.5 9.74003 17.5 10.4V11.5C17.5 14.3284 17.5 15.7426 18.3787 16.6213C19.2574 17.5 20.6716 17.5 23.5 17.5H24.6C25.26 17.5 25.59 17.5 25.795 17.705C26 17.9101 26 18.24 26 18.9V27C26 29.8284 26 31.2426 25.1213 32.1213C24.2426 33 22.8284 33 20 33H11C8.17157 33 6.75736 33 5.87868 32.1213C5 31.2426 5 29.8284 5 27V15ZM10.25 16C9.55964 16 9 16.5596 9 17.25C9 17.9404 9.55964 18.5 10.25 18.5H12.75C13.4404 18.5 14 17.9404 14 17.25C14 16.5596 13.4404 16 12.75 16H10.25ZM10.25 21C9.55964 21 9 21.5596 9 22.25C9 22.9404 9.55964 23.5 10.25 23.5H20.75C21.4404 23.5 22 22.9404 22 22.25C22 21.5596 21.4404 21 20.75 21H10.25ZM10.25 26C9.55964 26 9 26.5596 9 27.25C9 27.9404 9.55964 28.5 10.25 28.5H20.75C21.4404 28.5 22 27.9404 22 27.25C22 26.5596 21.4404 26 20.75 26H10.25Z" fill="currentColor"/>
<path d="M20.0215 10.0144C20.0242 9.40011 20.0255 9.09297 20.2106 9.0169C20.3957 8.94084 20.6126 9.15833 21.0464 9.59331L25.4167 13.9759C25.8513 14.4116 26.0685 14.6295 25.9917 14.8145C25.915 14.9995 25.6073 14.9995 24.9918 14.9995H24.0173C22.1243 14.9995 21.1778 14.9995 20.5915 14.4107C20.0052 13.8219 20.0092 12.8754 20.0174 10.9823L20.0215 10.0144Z" fill="currentColor"/>
</svg>
