<svg width="36" height="36" viewBox="0 0 36 36" fill="none" xmlns="http://www.w3.org/2000/svg">
<path fill-rule="evenodd" clip-rule="evenodd" d="M8.40017 18.6883C8.46331 18.6519 8.5472 18.648 8.71498 18.6402C9.21018 18.6168 9.56338 18.6001 10.2189 18.6001C11.0324 18.6001 11.6548 18.7206 12.0719 19.0586C12.5033 19.4082 12.6595 19.9418 12.6595 20.6198C12.6595 21.3158 12.4799 21.8749 12.0468 22.2525C11.6213 22.6235 10.9974 22.7774 10.2044 22.7774C10.1799 22.7774 10.1562 22.7773 10.1329 22.777C10.033 22.776 9.98312 22.7755 9.95347 22.8049C9.92382 22.8342 9.92382 22.883 9.92382 22.9805V23.5996C9.92382 23.8825 9.92382 24.0239 9.83595 24.1118C9.74808 24.1996 9.60666 24.1996 9.32382 24.1996H8.85C8.56716 24.1996 8.42574 24.1996 8.33787 24.1118C8.25 24.0239 8.25 23.8825 8.25 23.5996L8.25 19.1272C8.25 18.9593 8.25 18.8753 8.28343 18.8105C8.30982 18.7594 8.35034 18.717 8.40017 18.6883ZM10.1139 21.3134C10.1424 21.3138 10.1724 21.314 10.2044 21.314C10.5518 21.314 10.7219 21.2442 10.8091 21.1617C10.8925 21.0827 10.9494 20.9446 10.9494 20.6779C10.9494 20.4069 10.8981 20.2794 10.8225 20.2083C10.7415 20.1322 10.5729 20.0635 10.1971 20.0635L10.1159 20.0636C10.0268 20.0638 9.98221 20.0639 9.95301 20.0932C9.92382 20.1225 9.92382 20.168 9.92382 20.259V21.1173C9.92382 21.208 9.92382 21.2533 9.95265 21.2825C9.98148 21.3117 10.0256 21.3123 10.1139 21.3134Z" fill="currentColor"/>
<path fill-rule="evenodd" clip-rule="evenodd" d="M13.2879 18.6887C13.3511 18.6523 13.435 18.6484 13.6028 18.6406C14.098 18.6172 14.4512 18.6006 15.1067 18.6006C15.9202 18.6006 16.5426 18.721 16.9597 19.0591C17.391 19.4086 17.5473 19.9422 17.5473 20.6203C17.5473 21.3163 17.3677 21.8754 16.9346 22.253C16.5091 22.624 15.8852 22.7778 15.0922 22.7778C15.0677 22.7778 15.0439 22.7777 15.0207 22.7775C14.9208 22.7765 14.8709 22.776 14.8412 22.8053C14.8116 22.8347 14.8116 22.8834 14.8116 22.981V23.6001C14.8116 23.8829 14.8116 24.0244 14.7237 24.1122C14.6358 24.2001 14.4944 24.2001 14.2116 24.2001H13.7378C13.4549 24.2001 13.3135 24.2001 13.2256 24.1122C13.1378 24.0244 13.1378 23.8829 13.1378 23.6001V19.1277C13.1378 18.9597 13.1378 18.8757 13.1712 18.811C13.1976 18.7599 13.2381 18.7174 13.2879 18.6887ZM15.0017 21.3139C15.0302 21.3143 15.0601 21.3145 15.0922 21.3145C15.4396 21.3145 15.6096 21.2447 15.6968 21.1621C15.7802 21.0831 15.8372 20.9451 15.8372 20.6783C15.8372 20.4073 15.7859 20.2799 15.7102 20.2087C15.6292 20.1326 15.4606 20.0639 15.0849 20.0639L15.0036 20.064C14.9145 20.0642 14.87 20.0644 14.8408 20.0936C14.8116 20.1229 14.8116 20.1684 14.8116 20.2594V21.1177C14.8116 21.2084 14.8116 21.2538 14.8404 21.283C14.8692 21.3122 14.9134 21.3127 15.0017 21.3139Z" fill="currentColor"/>
<path d="M19.1534 20.1438C19.2477 20.1438 19.2948 20.1438 19.3241 20.173C19.3534 20.2023 19.3534 20.2495 19.3534 20.3438V23.6001C19.3534 23.8829 19.3534 24.0244 19.4413 24.1122C19.5292 24.2001 19.6706 24.2001 19.9534 24.2001H20.42C20.7028 24.2001 20.8442 24.2001 20.9321 24.1122C21.02 24.0244 21.02 23.8829 21.02 23.6001V20.3438C21.02 20.2495 21.02 20.2023 21.0493 20.173C21.0786 20.1438 21.1257 20.1438 21.22 20.1438H21.8858C22.1686 20.1438 22.31 20.1438 22.3979 20.0559C22.4858 19.968 22.4858 19.8266 22.4858 19.5438V19.2368C22.4858 18.954 22.4858 18.8126 22.3979 18.7247C22.31 18.6368 22.1686 18.6368 21.8858 18.6368H18.4876C18.2048 18.6368 18.0634 18.6368 17.9755 18.7247C17.8876 18.8126 17.8876 18.954 17.8876 19.2368V19.5438C17.8876 19.8266 17.8876 19.968 17.9755 20.0559C18.0634 20.1438 18.2048 20.1438 18.4876 20.1438H19.1534Z" fill="currentColor"/>
<path d="M24.2953 21.3515C24.2956 21.2992 24.269 21.2513 24.2159 21.1553L23.1492 19.2307C23.0025 18.9661 22.9292 18.8338 22.9872 18.7353C23.0452 18.6368 23.1965 18.6368 23.499 18.6368H24.5152C24.6312 18.6368 24.6892 18.6368 24.7365 18.665C24.7838 18.6931 24.8114 18.7441 24.8668 18.846L25.4315 19.8866C25.4773 19.9708 25.5001 20.013 25.5355 20.0133C25.5709 20.0135 25.5944 19.9718 25.6415 19.8883L26.2327 18.8403C26.2887 18.7411 26.3167 18.6914 26.3634 18.6641C26.4101 18.6368 26.4671 18.6368 26.5811 18.6368H27.5677C27.8797 18.6368 28.0357 18.6368 28.0932 18.738C28.1507 18.8391 28.071 18.9731 27.9115 19.2413L26.7887 21.1294C26.7298 21.2284 26.7004 21.2778 26.7002 21.3324C26.7001 21.3871 26.7291 21.4367 26.7873 21.536L27.9948 23.598C28.1514 23.8653 28.2297 23.999 28.1721 24.0996C28.1145 24.2001 27.9595 24.2001 27.6497 24.2001H26.6162C26.5036 24.2001 26.4473 24.2001 26.4009 24.1733C26.3545 24.1466 26.3263 24.0978 26.27 24.0003L25.5918 22.8277C25.5446 22.7461 25.521 22.7053 25.486 22.7057C25.451 22.7061 25.4282 22.7474 25.3828 22.83L24.7429 23.9929C24.6874 24.0939 24.6596 24.1444 24.6125 24.1723C24.5654 24.2001 24.5078 24.2001 24.3925 24.2001H23.3935C23.0877 24.2001 22.9348 24.2001 22.8769 24.1007C22.8191 24.0013 22.8946 23.8683 23.0457 23.6025L24.2138 21.5469C24.268 21.4515 24.2951 21.4038 24.2953 21.3515Z" fill="currentColor"/>
<path fill-rule="evenodd" clip-rule="evenodd" d="M11.9294 3L18.9289 3C20.1552 3 20.7683 3 21.3196 3.22837C21.8709 3.45673 22.3045 3.89027 23.1716 4.75736L29.2426 10.8284C30.1097 11.6955 30.5433 12.1291 30.7716 12.6804C31 13.2317 31 13.8448 31 15.0711V26.0706C31 27.4247 31.0001 28.5413 30.8813 29.4251C30.7565 30.3529 30.4845 31.1723 29.8284 31.8284C29.1723 32.4845 28.3529 32.7565 27.4251 32.8813C26.5413 33.0001 25.4247 33 24.0706 33H11.9294C10.5753 33 9.4587 33.0001 8.57494 32.8813C7.64711 32.7565 6.82769 32.4845 6.17158 31.8284C5.51547 31.1723 5.2435 30.3529 5.11876 29.4251C4.99994 28.5413 4.99997 27.4247 5 26.0706V9.9294C4.99997 8.57531 4.99994 7.45868 5.11876 6.57494C5.2435 5.64711 5.51547 4.82769 6.17158 4.17158C6.82769 3.51547 7.64711 3.2435 8.57494 3.11876C9.45868 2.99994 10.5753 2.99997 11.9294 3ZM19.8828 5.11716C20 5.23432 20 5.42288 20 5.80001L20 9.06586C20 9.95235 19.9999 10.7162 20.0821 11.3278C20.1703 11.9833 20.369 12.6117 20.8787 13.1214C21.3884 13.631 22.0167 13.8298 22.6722 13.9179C23.2839 14.0001 24.0477 14.0001 24.9342 14L28.2 14C28.5771 14 28.7657 14 28.8828 14.1172C29 14.2343 29 14.4229 29 14.8V26C29 27.4425 28.9979 28.4238 28.8991 29.1586C28.8042 29.8646 28.6368 30.1916 28.4142 30.4142C28.1916 30.6368 27.8646 30.8042 27.1586 30.8991C26.4238 30.9979 25.4425 31 24 31H12C10.5575 31 9.57626 30.9979 8.84144 30.8991C8.13538 30.8042 7.80836 30.6368 7.58579 30.4142C7.36322 30.1916 7.19585 29.8646 7.10092 29.1586C7.00213 28.4238 7 27.4425 7 26V10C7 8.55752 7.00213 7.57626 7.10092 6.84144C7.19585 6.13538 7.36322 5.80836 7.58579 5.58579C7.80836 5.36322 8.13538 5.19585 8.84144 5.10092C9.57626 5.00213 10.5575 5 12 5H19.2C19.5771 5 19.7657 5 19.8828 5.11716ZM27.2877 11.8766C27.2366 12 27.0311 12 26.6201 12H25C24.0289 12 23.4012 11.9979 22.9387 11.9357C22.505 11.8774 22.369 11.7833 22.2929 11.7071C22.2168 11.631 22.1226 11.4951 22.0643 11.0613C22.0021 10.5988 22 9.97111 22 9.00003V7.37993C22 6.96894 22 6.76345 22.1235 6.71231C22.2469 6.66117 22.3922 6.80648 22.6829 7.09709L26.903 11.3172C27.1936 11.6078 27.3389 11.7531 27.2877 11.8766Z" fill="currentColor"/>
</svg>
