<svg width="24" height="24" viewBox="0 0 24 24" fill="none" xmlns="http://www.w3.org/2000/svg">
<path d="M12.2909 17.2918C11.9004 17.6824 11.9004 18.3155 12.2909 18.7061C12.6815 19.0966 13.3146 19.0966 13.7052 18.7061L19.704 12.7072C19.8915 12.5197 19.9969 12.2653 19.9969 12.0001C19.9969 11.7349 19.8915 11.4805 19.7039 11.293L13.7051 5.29481C13.3146 4.9043 12.6814 4.90434 12.2909 5.29489C11.9004 5.68543 11.9004 6.3186 12.291 6.7091L17.0169 11.4345C17.2836 11.7011 17.4169 11.8345 17.4169 12.0002C17.4169 12.1659 17.2836 12.2992 17.0169 12.5659L12.2909 17.2918Z" fill="currentColor"/>
<path d="M6.29338 17.2918C5.90286 17.6824 5.90286 18.3155 6.29338 18.7061C6.68391 19.0966 7.31707 19.0966 7.7076 18.7061L13.7064 12.7072C13.894 12.5197 13.9993 12.2653 13.9993 12.0001C13.9993 11.7349 13.8939 11.4805 13.7064 11.293L7.70756 5.29481C7.31701 4.9043 6.68385 4.90434 6.29334 5.29489C5.90284 5.68543 5.90288 6.3186 6.29342 6.7091L11.0193 11.4345C11.286 11.7011 11.4194 11.8345 11.4194 12.0002C11.4194 12.1659 11.286 12.2992 11.0193 12.5659L6.29338 17.2918Z" fill="currentColor"/>
</svg>
