<svg width="16" height="16" viewBox="0 0 16 16" fill="none" xmlns="http://www.w3.org/2000/svg">
<path d="M5.03131 6.27952C4.73842 6.57242 4.26355 6.57242 3.97065 6.27953C3.67775 5.98664 3.67775 5.51176 3.97064 5.21887L7.46882 1.72065C7.60947 1.58 7.80024 1.50098 7.99915 1.50098C8.19806 1.50098 8.38883 1.57999 8.52948 1.72065L12.0277 5.21884C12.3206 5.51174 12.3206 5.98661 12.0277 6.2795C11.7348 6.5724 11.2599 6.5724 10.967 6.27951L8.35271 3.6652C8.18604 3.49853 8.10271 3.41519 7.99916 3.41519C7.8956 3.41519 7.81227 3.49853 7.6456 3.6652L5.03131 6.27952Z" fill="currentColor"/>
<path d="M3.97065 10.2756C4.26355 10.5685 4.73842 10.5685 5.03131 10.2756L7.6456 7.66129C7.81227 7.49462 7.8956 7.41129 7.99916 7.41129C8.10271 7.41129 8.18604 7.49462 8.35271 7.66129L10.967 10.2756C11.2599 10.5685 11.7348 10.5685 12.0277 10.2756C12.3206 9.98271 12.3206 9.50783 12.0277 9.21494L8.52948 5.71674C8.38883 5.57609 8.19806 5.49707 7.99915 5.49707C7.80024 5.49707 7.60947 5.57609 7.46882 5.71674L3.97064 9.21496C3.67775 9.50786 3.67775 9.98273 3.97065 10.2756Z" fill="currentColor"/>
<path d="M3.97065 14.2776C4.26355 14.5705 4.73842 14.5705 5.03131 14.2776L7.6456 11.6632C7.81227 11.4966 7.8956 11.4132 7.99916 11.4132C8.10271 11.4132 8.18604 11.4966 8.35271 11.6632L10.967 14.2776C11.2599 14.5704 11.7348 14.5704 12.0277 14.2776C12.3206 13.9847 12.3206 13.5098 12.0277 13.2169L8.52948 9.71869C8.38883 9.57804 8.19806 9.49902 7.99915 9.49902C7.80024 9.49902 7.60947 9.57804 7.46882 9.7187L3.97064 13.2169C3.67775 13.5098 3.67775 13.9847 3.97065 14.2776Z" fill="currentColor"/>
</svg>
