<svg width="36" height="36" viewBox="0 0 36 36" fill="none" xmlns="http://www.w3.org/2000/svg">
<path d="M34.752 16.6506C34.4558 16.9661 33.9952 16.9661 33.0741 16.9661H23.9541C22.1462 16.9661 21.2423 16.9661 20.665 16.4239C20.6345 16.3952 20.6049 16.3655 20.5762 16.335C20.0341 15.7576 20.0341 14.8534 20.0341 13.045V3.92262C20.0341 3.00129 20.0341 2.54063 20.3495 2.24433C20.3648 2.22999 20.3844 2.21272 20.4006 2.19945C20.7354 1.92529 21.1531 1.9802 21.9886 2.09001C23.2866 2.26065 24.5596 2.60091 25.7744 3.10422C27.5943 3.85824 29.2478 4.96342 30.6407 6.35667C32.0336 7.74991 33.1385 9.40394 33.8923 11.2243C34.3955 12.4394 34.7357 13.7127 34.9062 15.0111C35.016 15.8467 35.0709 16.2646 34.7968 16.5994C34.7836 16.6157 34.7663 16.6353 34.752 16.6506Z" fill="currentColor"/>
<path d="M17.5 33C24.4529 33 30.2628 28.105 31.6732 21.5723C31.8619 20.6984 31.9562 20.2615 31.6825 19.8965C31.6694 19.879 31.652 19.8575 31.6377 19.841C31.3387 19.4964 30.8485 19.4964 29.868 19.4964H25.5C21.7288 19.4964 19.8431 19.4964 18.6716 18.3246C17.5 17.1527 17.5 15.2665 17.5 11.4943V5.95232C17.5 5.03057 17.5 4.5697 17.1835 4.27334C17.1682 4.25902 17.1484 4.2417 17.1321 4.22846C16.7961 3.95436 16.379 4.01058 15.5449 4.12304C8.46137 5.07801 3 11.1491 3 18.4962C3 26.5064 9.49187 33 17.5 33Z" fill="currentColor"/>
</svg>
