<svg width="16" height="16" viewBox="0 0 16 16" fill="none" xmlns="http://www.w3.org/2000/svg">
<path fill-rule="evenodd" clip-rule="evenodd" d="M8 0.999023C11.866 0.999023 15 4.13303 15 7.99902C15 11.865 11.866 14.999 8 14.999C4.13401 14.999 1 11.865 1 7.99902C1 4.13303 4.13401 0.999023 8 0.999023ZM8.8002 6.99883C8.8002 7.10928 8.88974 7.19883 9.0002 7.19883L11.201 7.19883C11.3667 7.19883 11.501 7.33314 11.501 7.49883V8.49883C11.501 8.66451 11.3667 8.79883 11.201 8.79883L9.0002 8.79883C8.88974 8.79883 8.8002 8.88837 8.8002 8.99883V11.199C8.8002 11.3647 8.66588 11.499 8.5002 11.499H7.5002C7.33451 11.499 7.2002 11.3647 7.2002 11.199V8.99883C7.2002 8.88837 7.11065 8.79883 7.0002 8.79883H4.80098C4.63529 8.79883 4.50098 8.66451 4.50098 8.49883V7.49883C4.50098 7.33314 4.63529 7.19883 4.80098 7.19883L7.0002 7.19883C7.11065 7.19883 7.2002 7.10928 7.2002 6.99883V4.79902C7.2002 4.63334 7.33451 4.49902 7.5002 4.49902H8.5002C8.66588 4.49902 8.8002 4.63334 8.8002 4.79902V6.99883Z" fill="currentColor"/>
</svg>
