<svg width="24" height="24" viewBox="0 0 24 24" fill="none" xmlns="http://www.w3.org/2000/svg">
<path d="M16.78 2.96716C16.2878 3.68866 16 4.56074 16 5.50003C16 7.69092 17.5657 9.51612 19.6392 9.91779L19.1583 12.6737C18.8988 14.1605 19.1273 15.6925 19.8088 17.0351L19.8564 17.1289C20.3586 18.1183 19.4643 19.2421 18.4039 18.9541L3.93817 15.0254C2.87793 14.7374 2.65769 13.3113 3.5804 12.7088L3.66854 12.6512C4.92019 11.8338 5.87318 10.6233 6.38169 9.2049L7.44033 6.25196C8.56861 3.10479 11.8837 1.35449 15.0747 2.22115C15.6906 2.3884 16.2624 2.64241 16.78 2.96716Z" fill="currentColor"/>
<path d="M10.0521 18.4402C10.0178 18.6215 9.99993 18.8087 9.99993 19C9.99993 20.6569 11.3431 22 12.9999 22C14.397 22 15.571 21.0451 15.9048 19.7523L10.0521 18.4402Z" fill="currentColor"/>
<circle cx="20.5" cy="5.5" r="2.5" fill="currentColor"/>
</svg>
