<svg width="16" height="16" viewBox="0 0 16 16" fill="none" xmlns="http://www.w3.org/2000/svg">
<path fill-rule="evenodd" clip-rule="evenodd" d="M4.15743 1.50098C3.72269 1.50093 3.32886 1.50089 3.00946 1.54384C2.65952 1.59088 2.29611 1.70072 1.99792 1.9989C1.69974 2.29709 1.58991 2.6605 1.54286 3.01044C1.49992 3.32984 1.49996 3.72366 1.5 4.15841V4.79355C1.49996 5.22831 1.49992 5.62212 1.54286 5.94153C1.58991 6.29146 1.69974 6.65488 1.99792 6.95306C2.29611 7.25125 2.65952 7.36108 3.00946 7.40813C3.32886 7.45107 3.72268 7.45103 4.15743 7.45099L5.18986 7.45099C5.53247 7.45104 5.85602 7.45109 6.1211 7.41545C6.41657 7.37573 6.74177 7.28054 7.01067 7.01164C7.27956 6.74275 7.37475 6.41755 7.41447 6.12207C7.45011 5.857 7.45006 5.53345 7.45001 5.19084L7.45001 4.15841C7.45005 3.72365 7.4501 3.32984 7.40715 3.01044C7.36011 2.6605 7.25027 2.29709 6.95209 1.9989C6.6539 1.70072 6.29049 1.59088 5.94055 1.54384C5.62116 1.50089 5.22735 1.50093 4.79262 1.50098L4.15743 1.50098ZM2.90049 3.90098C2.90049 3.42958 2.90049 3.19388 3.04693 3.04743C3.19338 2.90098 3.42908 2.90098 3.90049 2.90098H5.05C5.5214 2.90098 5.75711 2.90098 5.90355 3.04743C6.05 3.19388 6.05 3.42958 6.05 3.90098V5.05098C6.05 5.52239 6.05 5.75809 5.90355 5.90454C5.75711 6.05098 5.5214 6.05098 5.05 6.05098H3.90049C3.42908 6.05098 3.19338 6.05098 3.04693 5.90454C2.90049 5.75809 2.90049 5.52239 2.90049 5.05098V3.90098Z" fill="currentColor"/>
<path fill-rule="evenodd" clip-rule="evenodd" d="M7.01067 8.99013C6.74177 8.72123 6.41657 8.62605 6.1211 8.58632C5.85602 8.55068 5.53247 8.55073 5.18986 8.55079L4.15792 8.55079C3.72318 8.55074 3.32935 8.5507 3.00995 8.59364C2.66001 8.64069 2.2966 8.75052 1.99841 9.04871C1.70023 9.34689 1.5904 9.71031 1.54335 10.0602C1.50041 10.3797 1.50045 10.7735 1.50049 11.2082V11.8434C1.50045 12.2781 1.50041 12.6719 1.54335 12.9913C1.5904 13.3413 1.70023 13.7047 1.99841 14.0029C2.2966 14.3011 2.66001 14.4109 3.00995 14.4579C3.32935 14.5009 3.72317 14.5008 4.15792 14.5008H4.79258C5.22733 14.5008 5.62115 14.5009 5.94055 14.4579C6.29049 14.4109 6.6539 14.3011 6.95209 14.0029C7.25027 13.7047 7.3601 13.3413 7.40715 12.9913C7.4501 12.6719 7.45005 12.2781 7.45001 11.8434L7.45001 10.8109C7.45006 10.4683 7.45011 10.1448 7.41447 9.8797C7.37475 9.58423 7.27956 9.25903 7.01067 8.99013ZM5.05 9.95079C5.5214 9.95079 5.75711 9.95079 5.90355 10.0972C6.05 10.2437 6.05 10.4794 6.05 10.9508V12.1008C6.05 12.5722 6.05 12.8079 5.90355 12.9543C5.75711 13.1008 5.5214 13.1008 5.05 13.1008H3.9C3.4286 13.1008 3.19289 13.1008 3.04645 12.9543C2.9 12.8079 2.9 12.5722 2.9 12.1008V10.9508C2.9 10.4794 2.9 10.2437 3.04645 10.0972C3.19289 9.95079 3.4286 9.95079 3.9 9.95079H5.05Z" fill="currentColor"/>
<path fill-rule="evenodd" clip-rule="evenodd" d="M11.2072 1.50098L11.8429 1.50098C12.2776 1.50094 12.6714 1.50089 12.9908 1.54384C13.3408 1.59088 13.7042 1.70072 14.0024 1.9989C14.3006 2.29709 14.4104 2.6605 14.4574 3.01044C14.5004 3.32984 14.5003 3.72366 14.5003 4.15841V4.79356C14.5003 5.22831 14.5004 5.62213 14.4574 5.94153C14.4104 6.29146 14.3006 6.65488 14.0024 6.95306C13.7042 7.25125 13.3408 7.36108 12.9908 7.40813C12.6714 7.45107 12.2776 7.45103 11.8429 7.45099L10.81 7.45099C10.4673 7.45104 10.1438 7.45109 9.87872 7.41545C9.58325 7.37573 9.25805 7.28054 8.98915 7.01164C8.72026 6.74275 8.62507 6.41755 8.58534 6.12207C8.54971 5.857 8.54976 5.53345 8.54981 5.19086L8.54981 4.15841C8.54976 3.72366 8.54972 3.32984 8.59267 3.01044C8.63971 2.6605 8.74955 2.29709 9.04773 1.9989C9.34592 1.70072 9.70933 1.59088 10.0593 1.54384C10.3787 1.50089 10.7725 1.50094 11.2072 1.50098ZM9.95 5.05098C9.95 5.52239 9.95 5.75809 10.0964 5.90454C10.2429 6.05098 10.4786 6.05098 10.95 6.05098H12.1C12.5714 6.05098 12.8071 6.05098 12.9536 5.90454C13.1 5.75809 13.1 5.52239 13.1 5.05098V3.90098C13.1 3.42958 13.1 3.19388 12.9536 3.04743C12.8071 2.90098 12.5714 2.90098 12.1 2.90098H10.95C10.4786 2.90098 10.2429 2.90098 10.0964 3.04743C9.95 3.19388 9.95 3.42958 9.95 3.90098V5.05098Z" fill="currentColor"/>
<path fill-rule="evenodd" clip-rule="evenodd" d="M10.81 8.55079C10.4674 8.55073 10.1438 8.55068 9.87872 8.58632C9.58325 8.62605 9.25805 8.72123 8.98915 8.99013C8.72026 9.25903 8.62507 9.58423 8.58534 9.8797C8.54971 10.1448 8.54976 10.4683 8.54981 10.8109L8.54981 11.8434C8.54977 12.2781 8.54972 12.6719 8.59267 12.9913C8.63971 13.3413 8.74955 13.7047 9.04773 14.0029C9.34592 14.3011 9.70933 14.4109 10.0593 14.4579C10.3787 14.5009 10.7725 14.5008 11.2072 14.5008H11.8429C12.2776 14.5008 12.6714 14.5009 12.9908 14.4579C13.3408 14.4109 13.7042 14.3011 14.0024 14.0029C14.3006 13.7047 14.4104 13.3413 14.4574 12.9913C14.5004 12.6719 14.5003 12.2781 14.5003 11.8434V11.2082C14.5003 10.7735 14.5004 10.3797 14.4574 10.0602C14.4104 9.71031 14.3006 9.34689 14.0024 9.04871C13.7042 8.75052 13.3408 8.64069 12.9908 8.59364C12.6714 8.5507 12.2776 8.55074 11.8429 8.55079L10.81 8.55079ZM9.95 12.1008C9.95 12.5722 9.95 12.8079 10.0964 12.9543C10.2429 13.1008 10.4786 13.1008 10.95 13.1008H12.1C12.5714 13.1008 12.8071 13.1008 12.9536 12.9543C13.1 12.8079 13.1 12.5722 13.1 12.1008V10.9508C13.1 10.4794 13.1 10.2437 12.9536 10.0972C12.8071 9.95079 12.5714 9.95079 12.1 9.95079H10.95C10.4786 9.95079 10.2429 9.95079 10.0964 10.0972C9.95 10.2437 9.95 10.4794 9.95 10.9508V12.1008Z" fill="currentColor"/>
</svg>
