<svg width="24" height="24" viewBox="0 0 24 24" fill="none" xmlns="http://www.w3.org/2000/svg">
<path d="M4.75736 10.7578L5.75463 9.76055C6.14516 9.37002 6.77832 9.37002 7.16885 9.76055C7.55937 10.1511 7.55937 10.7842 7.16885 11.1748L6.17157 12.172C4.60948 13.7341 4.60948 16.2668 6.17157 17.8289C7.73367 19.391 10.2663 19.391 11.8284 17.8289L12.8257 16.8316C13.2162 16.4411 13.8494 16.4411 14.2399 16.8316C14.6304 17.2221 14.6304 17.8553 14.2399 18.2458L13.2426 19.2431C10.8995 21.5862 7.1005 21.5862 4.75736 19.2431C2.41421 16.9 2.41421 13.101 4.75736 10.7578Z" fill="currentColor"/>
<path d="M17.826 11.8314L17.0683 12.589C16.6778 12.9795 16.6778 13.6127 17.0683 14.0032C17.4589 14.3937 18.092 14.3937 18.4826 14.0032L19.2402 13.2456C21.5833 10.9024 21.5833 7.10344 19.2402 4.76029C16.897 2.41715 13.098 2.41714 10.7549 4.76029L9.99727 5.5179C9.60675 5.90843 9.60675 6.54159 9.99727 6.93212C10.3878 7.32264 11.021 7.32264 11.4115 6.93212L12.1691 6.1745C13.7312 4.6124 16.2639 4.61241 17.826 6.1745C19.3881 7.7366 19.3881 10.2693 17.826 11.8314Z" fill="currentColor"/>
<path d="M10.7066 14.7073L14.7066 10.7068C15.0971 10.3163 15.097 9.68312 14.7065 9.29262C14.3159 8.90211 13.6828 8.90215 13.2923 9.2927L9.29226 13.2932C8.90176 13.6837 8.9018 14.3169 9.29234 14.7074C9.68289 15.0979 10.3161 15.0978 10.7066 14.7073Z" fill="currentColor"/>
</svg>
