<svg width="24" height="24" viewBox="0 0 24 24" fill="none" xmlns="http://www.w3.org/2000/svg">
<path fill-rule="evenodd" clip-rule="evenodd" d="M2.3743 8.5802C3.17879 5.87762 5.2209 3.71858 7.87445 2.76472C10.8117 1.70889 13.4722 1.78189 16.1241 2.76491C18.7769 3.71873 20.8181 5.87719 21.6224 8.57911L21.6648 8.72163C22.1076 10.2089 22.1091 11.7928 21.6692 13.2809L21.6158 13.4616C21.2181 14.8067 20.5138 16.0175 19.5798 17.0125C19.2274 17.3878 18.9996 17.8711 18.9996 18.3859V21.4963C18.9996 21.8808 18.5837 22.1214 18.2503 21.9297L16.4372 20.887C15.1652 20.1554 13.6693 19.977 12.2021 20.0015C10.7405 20.0258 9.27547 19.7871 7.87935 19.2852C5.2234 18.3305 3.18107 16.1671 2.38098 13.4606L2.32784 13.2808C1.88795 11.7927 1.88945 10.209 2.33216 8.72177L2.3743 8.5802ZM6.99951 8.80059C6.99951 8.13785 7.53677 7.60059 8.19951 7.60059L15.7995 7.60059C16.4623 7.60059 16.9995 8.13784 16.9995 8.80059C16.9995 9.46333 16.4623 10.0006 15.7995 10.0006L8.19951 10.0006C7.53677 10.0006 6.99951 9.46333 6.99951 8.80059ZM7 13.2C7 12.5373 7.53726 12 8.2 12H11.8C12.4627 12 13 12.5373 13 13.2C13 13.8627 12.4627 14.4 11.8 14.4H8.2C7.53726 14.4 7 13.8627 7 13.2Z" fill="currentColor"/>
</svg>
