<svg width="24" height="24" viewBox="0 0 24 24" fill="none" xmlns="http://www.w3.org/2000/svg">
<path fill-rule="evenodd" clip-rule="evenodd" d="M2.37455 8.57959C3.17904 5.87701 5.22115 3.71796 7.87469 2.76411C10.8119 1.70828 13.4724 1.78128 16.1244 2.7643C18.7772 3.71812 20.8184 5.87658 21.6227 8.5785L21.6651 8.72102C22.1078 10.2083 22.1093 11.7922 21.6694 13.2803L21.616 13.461C21.1398 15.0719 20.2236 16.4903 18.9999 17.5759V21.4957C18.9999 21.8802 18.5839 22.1208 18.2506 21.9291L16.4375 20.8863C15.1654 20.1548 13.6695 19.9764 12.2023 20.0009C10.7407 20.0252 9.27571 19.7865 7.8796 19.2846C5.22364 18.3299 3.18131 16.1665 2.38122 13.4599L2.32808 13.2802C1.8882 11.7921 1.8897 10.2084 2.33241 8.72116L2.37455 8.57959ZM8 8.00003C7.44772 8.00003 7 8.44775 7 9.00003C7 9.55232 7.44772 10 8 10H16C16.5523 10 17 9.55232 17 9.00003C17 8.44775 16.5523 8.00003 16 8.00003L8 8.00003ZM8 12C7.44772 12 7 12.4477 7 13C7 13.5523 7.44771 14 8 14L10.2656 14L13.0078 12.0001L8 12Z" fill="currentColor"/>
</svg>
