<svg width="24" height="24" viewBox="0 0 24 24" fill="none" xmlns="http://www.w3.org/2000/svg">
<path d="M12.9959 18.112C12.9959 18.201 13.1035 18.2457 13.1665 18.1827L16.4657 14.8845C16.6219 14.7284 16.875 14.7285 17.0311 14.8848L17.8791 15.7338C18.0351 15.89 18.0351 16.1431 17.8791 16.2993L12.3147 21.8714C12.1391 22.0473 11.854 22.0473 11.6784 21.8713L6.11305 16.2974C5.95709 16.1413 5.95711 15.8882 6.11309 15.732L6.9611 14.8829C7.11719 14.7267 7.37035 14.7266 7.52653 14.8828L10.8263 18.1824C10.8893 18.2453 10.9969 18.2007 10.9969 18.1116L10.9969 2.4C10.9969 2.17909 11.1759 2 11.3967 2L12.5961 2C12.8169 2 12.9959 2.17909 12.9959 2.4L12.9959 18.112Z" fill="currentColor"/>
</svg>
