<svg width="24" height="24" viewBox="0 0 24 24" fill="none" xmlns="http://www.w3.org/2000/svg">
<path d="M16.105 1.5C16.1939 2.66113 15.8267 3.81118 15.0814 4.70594C14.7245 5.14985 14.2715 5.50698 13.7566 5.75045C13.2416 5.99392 12.6782 6.11737 12.1086 6.11151C12.0723 5.55313 12.1463 4.99307 12.3266 4.46334C12.5068 3.93361 12.7897 3.4446 13.159 3.02426C13.9144 2.16383 14.9663 1.6196 16.105 1.5Z" fill="currentColor"/>
<path d="M18.1824 9.95135C17.804 10.6181 17.6004 11.3697 17.5905 12.1363C17.5914 12.9986 17.8462 13.8416 18.3229 14.5601C18.7997 15.2786 19.4775 15.8408 20.2717 16.1767C19.9594 17.1911 19.4887 18.1497 18.8771 19.017C18.0556 20.2458 17.1944 21.4463 15.8274 21.4685C15.1772 21.4835 14.7384 21.2965 14.2811 21.1017C13.8041 20.8985 13.307 20.6868 12.5292 20.6868C11.7043 20.6868 11.185 20.9053 10.6842 21.1161C10.2514 21.2983 9.83232 21.4746 9.24176 21.4991C7.93991 21.5473 6.94498 20.1876 6.09368 18.9704C4.39216 16.4845 3.06722 11.9648 4.84349 8.88945C5.25355 8.15259 5.84748 7.53452 6.56743 7.09545C7.28738 6.65638 8.10878 6.41129 8.95162 6.38406C9.68997 6.36887 10.3985 6.65345 11.0196 6.90295C11.4947 7.09376 11.9186 7.26406 12.2658 7.26406C12.571 7.26406 12.9831 7.10049 13.4634 6.90986C14.22 6.60958 15.1458 6.24216 16.0892 6.34118C16.8122 6.3638 17.52 6.55469 18.1563 6.8987C18.7926 7.2427 19.34 7.73034 19.7549 8.32289C19.1018 8.7244 18.5608 9.2846 18.1824 9.95135Z" fill="currentColor"/>
</svg>
