<svg width="24" height="24" viewBox="0 0 24 24" fill="none" xmlns="http://www.w3.org/2000/svg">
<path d="M9.92071 2.2193C9.73395 2.0103 9.43506 1.94741 9.17499 2.05193C8.91492 2.15644 8.7447 2.40859 8.74746 2.68887C8.75682 3.6394 8.76982 4.57232 8.47686 5.26931C8.1358 6.08076 7.54601 6.88911 6.52009 7.86513C4.26723 10.0084 4 12.2668 4 14.2104C4 14.6242 4.00369 15.8602 4.69889 17.3475C5.39697 18.8409 6.77375 20.6065 9.45408 22C9.79977 21.5474 9.74031 20.9209 9.50342 20.403C8.68369 18.6109 10.0045 16.5564 11.9924 16.5564C13.9965 16.5564 15.333 18.606 14.4832 20.4463C14.2521 20.9468 14.1885 21.5451 14.5001 22C18.8865 20.368 19.9985 16.1365 19.9985 14.211L19.9934 13.7721L19.9931 13.7644C19.9931 12.7624 19.8194 11.4875 18.9102 9.97268C18.0765 8.58385 16.8919 7.47028 15.4097 6.7573C15.2168 6.66452 14.9991 6.80912 14.9991 7.02315V8.21789C14.9991 9.14456 14.3724 9.87448 13.4414 9.89846C12.5628 9.9211 11.831 9.20822 11.831 8.31362C11.831 6.6152 11.7561 5.5705 11.452 4.64335C11.1812 3.81794 10.6015 2.98111 9.92071 2.2193Z" fill="currentColor"/>
</svg>
