<svg width="16" height="16" viewBox="0 0 16 16" fill="none" xmlns="http://www.w3.org/2000/svg">
<path d="M7.2 7C7.36569 7 7.5 7.13431 7.5 7.3L7.5 11.7C7.5 11.8657 7.36569 12 7.2 12H6.3C6.13432 12 6 11.8657 6 11.7L6 7.3C6 7.13431 6.13432 7 6.3 7H7.2Z" fill="currentColor"/>
<path d="M9.7 12C9.86569 12 10 11.8657 10 11.7V7.3C10 7.13431 9.86569 7 9.7 7H8.8C8.63432 7 8.5 7.13432 8.5 7.3L8.5 11.7C8.5 11.8657 8.63432 12 8.8 12H9.7Z" fill="currentColor"/>
<path fill-rule="evenodd" clip-rule="evenodd" d="M1 3.8C1 3.63431 1.13431 3.5 1.3 3.5L14.7 3.5C14.8657 3.5 15 3.63431 15 3.8V4.7C15 4.86568 14.8657 5 14.7 5H13.4185C13.3129 5 13.2254 5.0821 13.2188 5.1875L12.628 14.625C12.6148 14.8358 12.44 15 12.2288 15H3.77122C3.56001 15 3.3852 14.8358 3.372 14.625L2.78113 5.1875C2.77453 5.0821 2.68712 5 2.58152 5H1.3C1.13431 5 1 4.86569 1 4.7L1 3.8ZM10.9137 13.5C11.0721 13.5 11.2032 13.3768 11.2131 13.2188L11.7143 5.2125C11.7216 5.09735 11.6301 5 11.5147 5L4.48524 5C4.36987 5 4.27842 5.09735 4.28563 5.2125L4.78689 13.2188C4.79679 13.3768 4.9279 13.5 5.08631 13.5H10.9137Z" fill="currentColor"/>
<path d="M10 1.3C10 1.13432 9.86569 1 9.7 1L6.3 1C6.13432 1 6 1.13431 6 1.3L6 2.2C6 2.36569 6.13431 2.5 6.3 2.5L9.7 2.5C9.86569 2.5 10 2.36569 10 2.2L10 1.3Z" fill="currentColor"/>
</svg>
