<svg width="24" height="24" viewBox="0 0 24 24" fill="none" xmlns="http://www.w3.org/2000/svg">
<path d="M5 12C5 8.13401 8.13401 5 12 5C14.3422 5 16.4172 6.15049 17.6883 7.91916C17.7119 7.95199 17.6883 7.99743 17.6479 7.99743L15.5052 7.99743C14.953 7.99743 14.5052 8.44515 14.5052 8.99743C14.5052 9.54972 14.953 9.99743 15.5052 9.99743L20.5027 9.99743C20.7788 9.99743 21.0027 9.77357 21.0027 9.49743V4.5C21.0027 3.94772 20.555 3.5 20.0027 3.5C19.4504 3.5 19.0027 3.94772 19.0027 4.5V6.2049C19.0027 6.25204 18.9431 6.27321 18.9129 6.23702C17.2626 4.25939 14.779 3 12 3C7.02944 3 3 7.02944 3 12C3 16.9706 7.02944 21 12 21C15.778 21 19.0099 18.6725 20.3447 15.3769C20.5521 14.8651 20.3052 14.282 19.7933 14.0747C19.2814 13.8673 18.6983 14.1142 18.491 14.6261C17.4515 17.1926 14.9356 19 12 19C8.13401 19 5 15.866 5 12Z" fill="currentColor"/>
</svg>
