<svg width="36" height="36" viewBox="0 0 36 36" fill="none" xmlns="http://www.w3.org/2000/svg">
<path d="M18 3C14.9624 3 12.5 5.46243 12.5 8.5C12.5 11.5376 14.9624 14 18 14C21.0376 14 23.5 11.5376 23.5 8.5C23.5 5.46243 21.0376 3 18 3Z" fill="currentColor"/>
<path d="M15.2765 17.0817C15.6952 17.0546 16.0371 17.4064 16.0064 17.8248L15.4907 24.8487C15.4614 25.2473 15.661 25.6279 16.0055 25.8306L17.2324 26.5523C17.7018 26.8284 18.284 26.8284 18.7534 26.5523L19.9805 25.8306C20.325 25.6279 20.5246 25.2473 20.4954 24.8486L19.9799 17.8248C19.9491 17.4063 20.291 17.0546 20.7097 17.0817C21.9368 17.1612 23.1613 17.2947 24.3796 17.4822L24.8172 17.5495C26.5929 17.8227 28.036 19.126 28.4881 20.8648L29.8898 26.2558C30.2392 27.5997 29.7001 29.0179 28.5469 29.7911C22.1647 34.07 13.8262 34.0706 7.44589 29.789C6.29479 29.0166 5.75696 27.6015 6.10445 26.2595L7.5003 20.8687C7.95107 19.1278 9.395 17.8224 11.1724 17.549L11.6068 17.4822C12.825 17.2947 14.0494 17.1613 15.2765 17.0817Z" fill="currentColor"/>
</svg>
