<svg width="36" height="36" viewBox="0 0 36 36" fill="none" xmlns="http://www.w3.org/2000/svg">
<path d="M3.99989 12.5001C3.52874 12.5001 3.29316 12.5001 3.14672 12.6465C3.00028 12.7929 3.00023 13.0284 3.00015 13.4994C3.00001 14.2662 3.00021 15.033 3.00034 15.7998C3.00042 16.2712 3.00047 16.507 3.14691 16.6534C3.29335 16.7998 3.52905 16.7998 4.00045 16.7998H10.0004C10.4719 16.7998 10.7076 16.7998 10.854 16.6534C11.0004 16.5069 11.0004 16.2712 11.0004 15.7998V13.5001C11.0004 13.0287 11.0004 12.793 10.854 12.6465C10.7076 12.5001 10.4719 12.5001 10.0004 12.5001H3.99989Z" fill="currentColor"/>
<path d="M3.24471 8.03611C3.05805 8.91835 2.96472 9.35947 3.26488 9.72978C3.56504 10.1001 4.07952 10.1001 5.10848 10.1001H30.8924C31.9214 10.1001 32.4359 10.1001 32.736 9.72978C33.0362 9.35947 32.9428 8.91835 32.7562 8.03611C32.5885 7.24362 32.3057 6.64845 31.8289 6.17157C30.6573 5 28.7717 5 25.0004 5H11.0004C7.22921 5 5.34359 5 4.17202 6.17157C3.69515 6.64845 3.41238 7.24362 3.24471 8.03611Z" fill="currentColor"/>
<path d="M33.0007 13.4994C33.0007 13.0284 33.0006 12.7929 32.8542 12.6465C32.7077 12.5001 32.4722 12.5001 32.001 12.5001H26.0001C25.5287 12.5001 25.2929 12.5001 25.1465 12.6465C25.0001 12.793 25.0001 13.0287 25.0001 13.5001V15.7998C25.0001 16.2712 25.0001 16.5069 25.1465 16.6534C25.2929 16.7998 25.5287 16.7998 26.0001 16.7998H32.0004C32.4718 16.7998 32.7075 16.7998 32.854 16.6534C33.0004 16.507 33.0005 16.2713 33.0006 15.7998C33.0007 15.033 33.0009 14.2662 33.0007 13.4994Z" fill="currentColor"/>
<path d="M33.0008 20.1998C33.0005 19.7282 33.0004 19.4925 32.8539 19.3461C32.7075 19.1998 32.4718 19.1998 32.0004 19.1998H26.0001C25.5287 19.1998 25.2929 19.1998 25.1465 19.3463C25.0001 19.4927 25.0001 19.7284 25.0001 20.1998V23C25.0001 23.4714 25.0001 23.7071 25.1465 23.8536C25.2929 24 25.5287 24 26.0001 24H32.0024C32.4727 24 32.7079 24 32.8543 23.8537C33.0007 23.7075 33.001 23.4726 33.0015 23.0029C33.0024 22.0686 33.0014 21.1342 33.0008 20.1998Z" fill="currentColor"/>
<path d="M32.8447 27.4565C32.912 26.9818 32.9457 26.7444 32.7962 26.5722C32.6467 26.4 32.3925 26.4 31.8842 26.4H26.0001C25.5287 26.4 25.2929 26.4 25.1465 26.5464C25.0001 26.6929 25.0001 26.9286 25.0001 27.4V30C25.0001 30.472 25.0001 30.7081 25.147 30.8546C25.294 31.0011 25.5294 31.0004 26.0002 30.9991C29.1145 30.99 30.7658 30.8915 31.8289 29.8284C32.4025 29.2548 32.6953 28.51 32.8447 27.4565Z" fill="currentColor"/>
<path d="M21.6001 31C22.0715 31 22.3072 31 22.4536 30.8536C22.6001 30.7071 22.6001 30.4714 22.6001 30V27.4C22.6001 26.9286 22.6001 26.6929 22.4536 26.5464C22.3072 26.4 22.0715 26.4 21.6001 26.4H14.4004C13.929 26.4 13.6933 26.4 13.5469 26.5464C13.4004 26.6929 13.4004 26.9286 13.4004 27.4V30C13.4004 30.4714 13.4004 30.7071 13.5469 30.8536C13.6933 31 13.929 31 14.4004 31H21.6001Z" fill="currentColor"/>
<path d="M10.0003 30.9991C10.4711 31.0004 10.7065 31.0011 10.8535 30.8546C11.0004 30.7081 11.0004 30.472 11.0004 30L11.0004 27.4C11.0004 26.9286 11.0004 26.6929 10.854 26.5464C10.7076 26.4 10.4719 26.4 10.0004 26.4H4.11667C3.60837 26.4 3.35422 26.4 3.20471 26.5722C3.0552 26.7444 3.08887 26.9818 3.15621 27.4565C3.30563 28.51 3.59839 29.2548 4.17202 29.8284C5.23509 30.8915 6.88608 30.99 10.0003 30.9991Z" fill="currentColor"/>
<path d="M2.99944 23.0029C2.99994 23.4726 3.00019 23.7075 3.14661 23.8537C3.29302 24 3.52816 24 3.99845 24H10.0004C10.4719 24 10.7076 24 10.854 23.8536C11.0004 23.7071 11.0004 23.4714 11.0004 23V20.1998C11.0004 19.7284 11.0004 19.4927 10.854 19.3463C10.7076 19.1998 10.4719 19.1998 10.0004 19.1998H4.00045C3.52907 19.1998 3.29338 19.1998 3.14695 19.3461C3.00053 19.4925 3.00037 19.7282 3.00007 20.1998C2.99946 21.1342 2.99845 22.0686 2.99944 23.0029Z" fill="currentColor"/>
<path d="M21.6001 19.1998C22.0715 19.1998 22.3072 19.1998 22.4536 19.3463C22.6001 19.4927 22.6001 19.7284 22.6001 20.1998V23C22.6001 23.4714 22.6001 23.7071 22.4536 23.8536C22.3072 24 22.0715 24 21.6001 24H14.4004C13.929 24 13.6933 24 13.5469 23.8536C13.4004 23.7071 13.4004 23.4714 13.4004 23V20.1998C13.4004 19.7284 13.4004 19.4927 13.5469 19.3463C13.6933 19.1998 13.929 19.1998 14.4004 19.1998H21.6001Z" fill="currentColor"/>
<path d="M21.6001 12.5001C22.0715 12.5001 22.3072 12.5001 22.4536 12.6465C22.6001 12.793 22.6001 13.0287 22.6001 13.5001V15.7998C22.6001 16.2712 22.6001 16.5069 22.4536 16.6534C22.3072 16.7998 22.0715 16.7998 21.6001 16.7998H14.4004C13.929 16.7998 13.6933 16.7998 13.5469 16.6534C13.4004 16.5069 13.4004 16.2712 13.4004 15.7998V13.5001C13.4004 13.0287 13.4004 12.793 13.5469 12.6465C13.6933 12.5001 13.929 12.5001 14.4004 12.5001H21.6001Z" fill="currentColor"/>
</svg>
