<svg width="24" height="24" viewBox="0 0 24 24" fill="none" xmlns="http://www.w3.org/2000/svg">
<path d="M11.6 17H12.4C12.7314 17 13 16.7314 13 16.4V8.00001C13 7.44772 12.5523 7.00001 12 7.00001C11.4477 7.00001 11 7.44772 11 8.00001V16.4C11 16.7314 11.2686 17 11.6 17Z" fill="currentColor"/>
<path d="M7.6 17C7.26863 17 7 16.7314 7 16.4V13C7 12.4477 7.44772 12 8 12C8.55229 12 9 12.4477 9 13V16.4C9 16.7314 8.73137 17 8.4 17H7.6Z" fill="currentColor"/>
<path d="M15.6 17C15.2686 17 15 16.7314 15 16.4L15 10C15 9.44772 15.4477 9.00001 16 9.00001C16.5523 9.00001 17 9.44772 17 10L17 16.4C17 16.7314 16.7314 17 16.4 17H15.6Z" fill="currentColor"/>
<path fill-rule="evenodd" clip-rule="evenodd" d="M2 16.3747L2 7.62532C1.99997 6.88382 1.99994 6.24453 2.05886 5.72592C2.12154 5.17415 2.26155 4.6357 2.62954 4.16128C2.78378 3.96243 2.96243 3.78378 3.16128 3.62954C3.6357 3.26155 4.17415 3.12154 4.72592 3.05886C5.24453 2.99994 5.88381 2.99997 6.62532 3L17.3747 3C18.1162 2.99997 18.7555 2.99994 19.2741 3.05885C19.8259 3.12154 20.3643 3.26155 20.8387 3.62954C21.0376 3.78378 21.2162 3.96243 21.3705 4.16128C21.7385 4.63569 21.8785 5.17415 21.9412 5.72592C22.0001 6.24453 22 6.88381 22 7.62532V16.3747C22 17.1162 22.0001 17.7555 21.9412 18.2741C21.8785 18.8259 21.7385 19.3643 21.3705 19.8387C21.2162 20.0376 21.0376 20.2162 20.8387 20.3705C20.3643 20.7385 19.8259 20.8785 19.2741 20.9411C18.7555 21.0001 18.1162 21 17.3747 21H6.62532C5.88381 21 5.24453 21.0001 4.72592 20.9411C4.17415 20.8785 3.6357 20.7385 3.16128 20.3705C2.96243 20.2162 2.78378 20.0376 2.62954 19.8387C2.26155 19.3643 2.12154 18.8259 2.05886 18.2741C1.99994 17.7555 1.99997 17.1162 2 16.3747ZM4.04607 18.0483C4.08831 18.4201 4.15815 18.5463 4.20985 18.6129C4.26126 18.6792 4.32081 18.7387 4.3871 18.7902C4.45375 18.8419 4.57994 18.9117 4.95169 18.9539C5.34389 18.9985 5.8683 19 6.68 19L17.32 19C18.1317 19 18.6561 18.9985 19.0483 18.9539C19.4201 18.9117 19.5463 18.8419 19.6129 18.7902C19.6792 18.7387 19.7387 18.6792 19.7902 18.6129C19.8419 18.5463 19.9117 18.4201 19.9539 18.0483C19.9985 17.6561 20 17.1317 20 16.32V7.68C20 6.8683 19.9985 6.34389 19.9539 5.95169C19.9117 5.57994 19.8419 5.45374 19.7902 5.38709C19.7387 5.32081 19.6792 5.26126 19.6129 5.20985C19.5463 5.15815 19.4201 5.08831 19.0483 5.04607C18.6561 5.00151 18.1317 5 17.32 5L6.68 5C5.8683 5 5.34389 5.00151 4.95169 5.04607C4.57994 5.08831 4.45374 5.15815 4.3871 5.20985C4.32081 5.26126 4.26126 5.32081 4.20985 5.3871C4.15815 5.45374 4.08831 5.57994 4.04607 5.95169C4.00151 6.34389 4 6.8683 4 7.68L4 16.32C4 17.1317 4.00151 17.6561 4.04607 18.0483Z" fill="currentColor"/>
</svg>
