<svg width="24" height="24" viewBox="0 0 24 24" fill="none" xmlns="http://www.w3.org/2000/svg">
<path d="M20.002 17.4C20.002 17.1791 19.8229 17 19.602 17L4.40195 17C4.18104 17 4.00195 17.1791 4.00195 17.4L4.00195 18.6C4.00195 18.8209 4.18104 19 4.40195 19L19.602 19C19.8229 19 20.002 18.8209 20.002 18.6V17.4Z" fill="currentColor"/>
<path d="M20.002 13.4C20.002 13.1791 19.8229 13 19.602 13L4.40195 13C4.18104 13 4.00195 13.1791 4.00195 13.4L4.00195 14.6C4.00195 14.8209 4.18104 15 4.40195 15L19.602 15C19.8229 15 20.002 14.8209 20.002 14.6V13.4Z" fill="currentColor"/>
<path d="M20.002 9.4C20.002 9.17909 19.8229 9 19.602 9L4.40195 9C4.18104 9 4.00195 9.17909 4.00195 9.4L4.00195 10.6C4.00195 10.8209 4.18104 11 4.40195 11L19.602 11C19.8229 11 20.002 10.8209 20.002 10.6V9.4Z" fill="currentColor"/>
<path d="M4.00195 5.4C4.00195 5.17909 4.18104 5 4.40195 5L19.602 5C19.8229 5 20.002 5.17909 20.002 5.4V6.6C20.002 6.82091 19.8229 7 19.602 7L4.40195 7C4.18104 7 4.00195 6.82091 4.00195 6.6L4.00195 5.4Z" fill="currentColor"/>
</svg>
