<svg width="24" height="24" viewBox="0 0 24 24" fill="none" xmlns="http://www.w3.org/2000/svg">
<path d="M20.2959 15.2994C20.6868 14.909 21.3202 14.9092 21.7107 15.2999C22.1012 15.6906 22.101 16.3237 21.7101 16.7141L17.7124 20.7074C17.3218 21.0976 16.6888 21.0976 16.2982 20.7074L12.3004 16.7141C11.9096 16.3237 11.9093 15.6906 12.2998 15.2999C12.6904 14.9092 13.3238 14.909 13.7146 15.2994L15.7491 17.3317C15.8437 17.4261 16.0053 17.3592 16.0053 17.2256V4.00003C16.0053 3.44775 16.4531 3.00003 17.0056 3.00003C17.5581 3.00003 18.006 3.44775 18.006 4.00003V17.2248C18.006 17.3584 18.1676 17.4254 18.2621 17.3309L20.2959 15.2994Z" fill="currentColor"/>
<path d="M6.00158 6.7745C6.00158 6.64089 5.84 6.57396 5.74546 6.6684L3.71089 8.70069C3.32007 9.09106 2.68668 9.09083 2.29615 8.70016C1.90563 8.30948 1.90587 7.67632 2.29668 7.28594L6.29447 3.29263C6.68508 2.90246 7.31807 2.90246 7.70868 3.29263L11.7065 7.28594C12.0973 7.67632 12.0975 8.30949 11.707 8.70016C11.3165 9.09083 10.6831 9.09106 10.2923 8.70069L8.25844 6.66914C8.16389 6.5747 8.00232 6.64164 8.00232 6.77524V20C8.00232 20.5523 7.55444 21 7.00195 21C6.44946 21 6.00158 20.5523 6.00158 20V6.7745Z" fill="currentColor"/>
</svg>
