<svg width="16" height="16" viewBox="0 0 16 16" fill="none" xmlns="http://www.w3.org/2000/svg">
<g clip-path="url(#clip0_1059_142)">
<path fill-rule="evenodd" clip-rule="evenodd" d="M7.99951 5.25003C6.48073 5.25003 5.24951 6.48125 5.24951 8.00003C5.24951 9.51881 6.48073 10.75 7.99951 10.75C9.5183 10.75 10.7495 9.51881 10.7495 8.00003C10.7495 6.48125 9.5183 5.25003 7.99951 5.25003ZM6.74951 8.00003C6.74951 7.30967 7.30916 6.75003 7.99951 6.75003C8.68987 6.75003 9.24951 7.30967 9.24951 8.00003C9.24951 8.69039 8.68987 9.25003 7.99951 9.25003C7.30916 9.25003 6.74951 8.69039 6.74951 8.00003Z" fill="#02050A"/>
<path fill-rule="evenodd" clip-rule="evenodd" d="M7.99981 0.900024C7.62572 0.900024 7.25781 0.928662 6.89824 0.983997C6.60171 1.02963 6.36121 1.24902 6.28771 1.54095L6.07832 2.37254C6.02467 2.58562 5.8363 2.81124 5.51619 2.96623C5.20327 3.11775 4.91844 3.12395 4.71556 3.03162L3.93405 2.67599C3.66148 2.55196 3.34145 2.60332 3.12101 2.80649C2.57971 3.30536 2.11443 3.88633 1.74474 4.53004C1.59467 4.79135 1.61536 5.1175 1.79723 5.3576L2.30798 6.03187C2.44692 6.21528 2.50418 6.49765 2.4249 6.84113C2.3432 7.19506 2.16226 7.43533 1.96626 7.53574L1.20689 7.92476C0.940632 8.06116 0.781138 8.34386 0.801556 8.6432C0.85294 9.39651 1.01925 10.119 1.28324 10.7924C1.39324 11.073 1.66017 11.2601 1.96055 11.2671L2.79566 11.2865C3.02569 11.2918 3.29361 11.4306 3.52056 11.7168C3.74506 11.9998 3.81873 12.2894 3.77265 12.516L3.60439 13.3438C3.54453 13.6383 3.66581 13.9402 3.91245 14.1106C4.50991 14.5235 5.17288 14.8486 5.88276 15.067C6.16978 15.1553 6.48158 15.0624 6.67414 14.8313L7.20888 14.1893C7.3589 14.0092 7.63566 13.8847 7.99966 13.8847C8.36363 13.8847 8.64037 14.0092 8.79039 14.1893L9.32519 14.8313C9.51774 15.0625 9.82952 15.1554 10.1165 15.0671C10.8264 14.8488 11.4894 14.5237 12.0868 14.1109C12.3335 13.9404 12.4548 13.6385 12.3949 13.344L12.2267 12.5166C12.1806 12.2898 12.2543 12.0001 12.4789 11.7169C12.706 11.4307 12.974 11.2918 13.2041 11.2865L14.0391 11.2671C14.3395 11.2601 14.6064 11.073 14.7164 10.7924C14.9803 10.119 15.1467 9.39664 15.1981 8.6434C15.2185 8.34405 15.059 8.06134 14.7927 7.92494L14.0336 7.53604C13.8375 7.43557 13.6564 7.19516 13.5747 6.84106C13.4954 6.4974 13.5527 6.21486 13.6917 6.03134L14.2022 5.35733C14.3841 5.11722 14.4048 4.79105 14.2547 4.52974C13.885 3.88609 13.4198 3.30518 12.8785 2.80636C12.658 2.60321 12.338 2.55185 12.0655 2.67588L11.284 3.0315C11.081 3.12384 10.7962 3.11764 10.4832 2.96612C10.163 2.81109 9.97454 2.58541 9.92087 2.37225L9.71154 1.54089C9.63803 1.24895 9.39751 1.02955 9.10096 0.983932C8.74152 0.928639 8.37375 0.900024 7.99981 0.900024ZM7.57284 2.55218C7.59395 2.46832 7.66643 2.40728 7.75253 2.40365C7.91665 2.39671 8.08259 2.3967 8.24671 2.40363C8.33282 2.40726 8.4053 2.4683 8.42641 2.55217L8.47355 2.73938C8.6667 3.50648 9.24754 4.03144 9.83464 4.31567C10.4271 4.60249 11.1878 4.72042 11.9004 4.39613L12.081 4.31395C12.1593 4.27833 12.2517 4.29693 12.3083 4.36185C12.4161 4.48553 12.5187 4.61387 12.6158 4.74653C12.6669 4.81638 12.6646 4.91153 12.6124 4.98052L12.5033 5.12449C12.0263 5.75425 11.97 6.52762 12.1204 7.17925C12.2673 7.81561 12.6488 8.50886 13.3549 8.87059L13.5271 8.95881C13.6036 8.99799 13.6468 9.08205 13.6316 9.16687C13.6028 9.32745 13.5673 9.48567 13.5256 9.64123C13.5031 9.72495 13.4275 9.78256 13.3412 9.78456L13.1696 9.78855C12.3714 9.80709 11.7246 10.2623 11.311 10.7837C10.8974 11.3052 10.6053 12.0351 10.764 12.8161L10.8002 12.994C10.8174 13.0786 10.7786 13.1651 10.7028 13.2059C10.5625 13.2815 10.4187 13.3515 10.2718 13.4153C10.1926 13.4498 10.1007 13.4264 10.0453 13.3599L9.93567 13.2282C9.42388 12.6138 8.66752 12.3864 7.9997 12.3863C7.33183 12.3863 6.57542 12.6138 6.06359 13.2282L5.95401 13.3598C5.89865 13.4263 5.80678 13.4497 5.72758 13.4152C5.58059 13.3513 5.43677 13.2814 5.29644 13.2057C5.22065 13.1649 5.18191 13.0784 5.1991 12.9938L5.23534 12.8156C5.39406 12.0347 5.10206 11.305 4.6885 10.7836C4.27497 10.2622 3.62826 9.8071 2.83021 9.78856L2.65847 9.78457C2.5721 9.78256 2.49654 9.72496 2.47406 9.64124C2.43226 9.48562 2.39681 9.32734 2.36801 9.16669C2.35281 9.08187 2.39598 8.99782 2.47246 8.95864L2.64491 8.87029C3.35088 8.50863 3.73234 7.81554 3.8792 7.1793C4.02958 6.52782 3.97326 5.75463 3.49634 5.12502L3.38707 4.98077C3.33481 4.91178 3.33254 4.81664 3.38364 4.74678C3.48072 4.61408 3.58334 4.48569 3.69119 4.36197C3.74778 4.29705 3.84025 4.27845 3.91852 4.31407L4.09914 4.39626C4.81174 4.72053 5.57238 4.60259 6.1648 4.31576C6.75181 4.03154 7.33251 3.50664 7.52563 2.73966L7.57284 2.55218Z" fill="#02050A"/>
</g>
<defs>
<clipPath id="clip0_1059_142">
<rect width="16" height="16" fill="white"/>
</clipPath>
</defs>
</svg>
