<svg width="16" height="16" viewBox="0 0 16 16" fill="none" xmlns="http://www.w3.org/2000/svg">
<path d="M7.99951 4.75264C8.4137 4.75264 8.74947 5.08841 8.74947 5.50259V9.00238C8.74947 9.41657 8.4137 9.75233 7.99951 9.75233C7.58532 9.75233 7.24956 9.41657 7.24956 9.00238V5.50259C7.24956 5.08841 7.58532 4.75264 7.99951 4.75264Z" fill="currentColor"/>
<path d="M7.99993 12.5001C8.49632 12.5001 8.89873 12.0977 8.89873 11.6013C8.89873 11.1049 8.49632 10.7025 7.99993 10.7025C7.50354 10.7025 7.10113 11.1049 7.10113 11.6013C7.10113 12.0977 7.50354 12.5001 7.99993 12.5001Z" fill="currentColor"/>
<path fill-rule="evenodd" clip-rule="evenodd" d="M7.5423 1.04599C7.84437 0.983242 8.15611 0.983287 8.45815 1.04612C9.03887 1.16693 9.45156 1.55814 9.79437 1.99446C10.1295 2.421 10.4899 3.01435 10.9228 3.7272L14.6106 9.799C15.0746 10.5629 15.4585 11.1949 15.6952 11.7171C15.9353 12.2467 16.1013 12.8222 15.9178 13.4139C15.8233 13.7182 15.6653 13.9991 15.4542 14.2378C15.0438 14.7018 14.4658 14.8587 13.8885 14.9284C13.3193 14.9971 12.5798 14.9971 11.686 14.9971H4.31078C3.41671 14.9971 2.67701 14.9971 2.10768 14.9284C1.53028 14.8587 0.952104 14.7018 0.54166 14.2376C0.330544 13.9988 0.172563 13.7179 0.0781795 13.4135C-0.105317 12.8217 0.0608685 12.2461 0.301171 11.7165C0.538117 11.1943 0.9223 10.5622 1.38667 9.79815L5.07689 3.72635C5.51003 3.01362 5.87055 2.42038 6.20581 1.99394C6.54875 1.55772 6.96155 1.16663 7.5423 1.04599ZM8.15266 2.51459C8.05198 2.49365 7.94806 2.49363 7.84737 2.51455C7.78996 2.52647 7.65631 2.57579 7.38496 2.92094C7.11244 3.26759 6.79835 3.78186 6.3333 4.54704L2.69428 10.5346C2.19752 11.352 1.86205 11.9065 1.66706 12.3362C1.47105 12.7682 1.49414 12.9156 1.51081 12.9693C1.54227 13.0708 1.59493 13.1644 1.6653 13.244C1.70259 13.2862 1.8165 13.3824 2.28748 13.4393C2.75599 13.4959 3.40408 13.4972 4.36055 13.4972H11.6362C12.5924 13.4972 13.2403 13.4959 13.7087 13.4393C14.1795 13.3825 14.2934 13.2862 14.3307 13.2441C14.4011 13.1645 14.4537 13.0709 14.4852 12.9695C14.5019 12.9157 14.525 12.7684 14.3292 12.3365C14.1344 11.9068 13.7992 11.3523 13.3028 10.5351L9.66614 4.54753C9.20132 3.78221 8.88738 3.26785 8.61496 2.92112C8.34371 2.57589 8.21006 2.52653 8.15266 2.51459Z" fill="currentColor"/>
</svg>
