<svg width="24" height="24" viewBox="0 0 24 24" fill="none" xmlns="http://www.w3.org/2000/svg">
<path fill-rule="evenodd" clip-rule="evenodd" d="M13.2804 2.73131C12.7007 1.75595 11.2928 1.7563 10.7136 2.73194L1.21468 18.7339C0.621495 19.7331 1.3392 21.0001 2.49838 21L21.5058 20.9982C22.6652 20.9981 23.3826 19.7306 22.7889 18.7314L13.2804 2.73131ZM12.0004 18.999C12.884 18.999 13.6004 18.2827 13.6004 17.399C13.6004 16.5154 12.884 15.799 12.0004 15.799C11.1167 15.799 10.4004 16.5154 10.4004 17.399C10.4004 18.2827 11.1167 18.999 12.0004 18.999ZM12.8008 7.0002C13.0217 7.00021 13.2008 7.17929 13.2008 7.40021L13.2008 13.6C13.2008 13.8209 13.0217 14 12.8008 14L11.2008 14C10.9799 14 10.8008 13.8209 10.8008 13.6L10.8008 7.4002C10.8008 7.17928 10.9799 7.0002 11.2008 7.0002L12.8008 7.0002Z" fill="currentColor"/>
</svg>
