<svg width="36" height="36" viewBox="0 0 36 36" fill="none" xmlns="http://www.w3.org/2000/svg">
<path d="M9 22C8.44772 22 8 22.4477 8 23C8 23.5523 8.44772 24 9 24H13C13.5523 24 14 23.5523 14 23C14 22.4477 13.5523 22 13 22H9Z" fill="currentColor"/>
<path fill-rule="evenodd" clip-rule="evenodd" d="M23.5223 6.15537C24.7225 6.31672 25.733 6.66191 26.5355 7.46447C27.3381 8.26702 27.6833 9.27752 27.8446 10.4777C27.8575 10.5734 27.8639 10.6213 27.8721 10.6496C27.9359 10.871 28.1532 10.9887 28.3735 10.9213C28.4016 10.9127 28.4412 10.8938 28.5205 10.8562L29.5394 10.3716C31.8679 9.26421 33.0322 8.71052 33.9107 9.15986C34.0184 9.21495 34.1209 9.27969 34.2169 9.35329C35 9.9537 35 11.2429 35 13.8214V22.177C35 24.7554 35 26.0445 34.2169 26.6449C34.1209 26.7185 34.0184 26.7833 33.9107 26.8384C33.0322 27.2877 31.868 26.7341 29.5395 25.6268L28.522 25.1429C28.4416 25.1047 28.4014 25.0856 28.3728 25.0769C28.153 25.0103 27.9367 25.1275 27.8726 25.348C27.8642 25.3767 27.8577 25.4253 27.8446 25.5223C27.6833 26.7225 27.3381 27.733 26.5355 28.5355C25.733 29.3381 24.7225 29.6833 23.5223 29.8446C22.3664 30.0001 20.8966 30 19.0731 30H10.9268C9.10337 30 7.63362 30.0001 6.47767 29.8446C5.27752 29.6833 4.26703 29.3381 3.46447 28.5355C2.66191 27.733 2.31672 26.7225 2.15537 25.5223C1.99995 24.3664 1.99997 22.8966 2 21.0732L2 14.9268C1.99997 13.1034 1.99995 11.6336 2.15537 10.4777C2.31672 9.27752 2.66191 8.26702 3.46447 7.46447C4.26702 6.66191 5.27752 6.31672 6.47767 6.15537C7.63362 5.99995 9.10338 5.99997 10.9268 6L19.0732 6C20.8966 5.99997 22.3664 5.99995 23.5223 6.15537ZM23.2558 8.13753C22.2487 8.00213 20.9139 8 19 8L11 8C9.08611 8 7.7513 8.00213 6.74416 8.13753C5.7658 8.26907 5.2477 8.50966 4.87868 8.87868C4.50966 9.2477 4.26907 9.76579 4.13753 10.7442C4.00213 11.7513 4 13.0861 4 15L4 21C4 22.9139 4.00213 24.2487 4.13753 25.2558C4.26907 26.2342 4.50967 26.7523 4.87868 27.1213C5.2477 27.4903 5.7658 27.7309 6.74416 27.8625C7.7513 27.9979 9.08612 28 11 28H19C20.9139 28 22.2487 27.9979 23.2558 27.8625C24.2342 27.7309 24.7523 27.4903 25.1213 27.1213C25.4903 26.7523 25.7309 26.2342 25.8625 25.2558C25.9979 24.2487 26 22.9139 26 21L26 15C26 13.0861 25.9979 11.7513 25.8625 10.7442C25.7309 9.76579 25.4903 9.2477 25.1213 8.87868C24.7523 8.50966 24.2342 8.26907 23.2558 8.13753ZM27.9953 14.6063C27.9953 13.9819 27.9953 13.6697 28.1541 13.4227C28.3129 13.1756 28.5969 13.046 29.1649 12.7868L31.2165 11.8505C31.9813 11.5014 32.3636 11.3269 32.6392 11.5041C32.9147 11.6812 32.9147 12.1015 32.9147 12.9421L32.9147 23.0562C32.9147 23.8968 32.9147 24.3171 32.6392 24.4942C32.3637 24.6714 31.9813 24.4969 31.2166 24.1479L29.165 23.2117C28.597 22.9524 28.313 22.8228 28.1541 22.5758C27.9953 22.3287 27.9953 22.0165 27.9953 21.3922L27.9953 14.6063Z" fill="currentColor"/>
</svg>
