<svg width="24" height="24" viewBox="0 0 24 24" fill="none" xmlns="http://www.w3.org/2000/svg">
<path fill-rule="evenodd" clip-rule="evenodd" d="M7.93369 2.00098L16.0653 2.00098C16.9518 2.00093 17.7156 2.00089 18.3273 2.08312C18.9828 2.17126 19.6112 2.37 20.1208 2.87966C20.6305 3.38932 20.8292 4.01768 20.9174 4.67319C20.9996 5.28486 20.9996 6.04868 20.9995 6.93518V17.0668C20.9996 17.9533 20.9996 18.7171 20.9174 19.3288C20.8292 19.9843 20.6305 20.6126 20.1208 21.1223C19.6112 21.632 18.9828 21.8307 18.3273 21.9188C17.7156 22.0011 16.9518 22.001 16.0653 22.001H7.93371C7.04721 22.001 6.28339 22.0011 5.67173 21.9188C5.01621 21.8307 4.38786 21.632 3.8782 21.1223C3.36853 20.6126 3.16979 19.9843 3.08166 19.3288C2.99942 18.7171 2.99946 17.9533 2.99951 17.0668V6.93515C2.99946 6.04867 2.99942 5.28485 3.08166 4.67319C3.16979 4.01767 3.36853 3.38932 3.8782 2.87966C4.38786 2.37 5.01621 2.17125 5.67173 2.08312C6.28339 2.00089 7.0472 2.00093 7.93369 2.00098ZM5.93822 4.06529C5.50448 4.1236 5.36853 4.21775 5.29241 4.29388C5.21629 4.37 5.12214 4.50595 5.06382 4.93969C5.00164 5.40219 4.99952 6.0299 4.99952 7.00098V17.001C4.99952 17.9721 5.00164 18.5998 5.06382 19.0623C5.12214 19.496 5.21629 19.632 5.29241 19.7081C5.36853 19.7842 5.50448 19.8784 5.93822 19.9367C6.40073 19.9989 7.02844 20.001 7.99952 20.001H15.9995C16.9706 20.001 17.5983 19.9989 18.0608 19.9367C18.4946 19.8784 18.6305 19.7842 18.7066 19.7081C18.7827 19.632 18.8769 19.496 18.9352 19.0623C18.9974 18.5998 18.9995 17.9721 18.9995 17.001V7.00098C18.9995 6.0299 18.9974 5.40219 18.9352 4.93969C18.8769 4.50595 18.7827 4.37 18.7066 4.29387C18.6305 4.21775 18.4946 4.1236 18.0608 4.06529C17.5983 4.00311 16.9706 4.00098 15.9995 4.00098H13.9995C13.5281 4.00098 13.2924 4.00098 13.146 4.14743C12.9995 4.29388 12.9995 4.52958 12.9995 5.00098L12.9995 7.50098C12.9995 7.73668 12.9995 7.85453 13.0727 7.92776C13.146 8.00098 13.2638 8.00098 13.4995 8.00098L14.4995 8.00098C15.0518 8.00098 15.4995 8.4487 15.4995 9.00099C15.4995 9.55327 15.0518 10.001 14.4995 10.001L13.4995 10.001C13.2638 10.001 13.146 10.001 13.0727 10.0742C12.9995 10.1474 12.9995 10.2653 12.9995 10.501L12.9995 11.501C12.9995 11.7367 12.9995 11.8545 13.0727 11.9278C13.146 12.001 13.2638 12.001 13.4995 12.001L14.4995 12.001C15.0518 12.001 15.4995 12.4487 15.4995 13.001C15.4995 13.5533 15.0518 14.001 14.4995 14.001L13.4995 14.001C13.2638 14.001 13.146 14.001 13.0727 14.0742C12.9995 14.1474 12.9995 14.2653 12.9995 14.501L12.9995 17.001C12.9995 17.4724 12.9995 17.7081 12.8531 17.8545C12.7066 18.001 12.4709 18.001 11.9995 18.001C11.5281 18.001 11.2924 18.001 11.146 17.8545C10.9995 17.7081 10.9995 17.4724 10.9995 17.001L10.9995 16.501C10.9995 16.2653 10.9995 16.1474 10.9263 16.0742C10.8531 16.001 10.7352 16.001 10.4995 16.001L9.49951 16.001C8.94722 16.001 8.49951 15.5533 8.49951 15.001C8.49951 14.4487 8.94723 14.001 9.49951 14.001L10.4995 14.001C10.7352 14.001 10.8531 14.001 10.9263 13.9278C10.9995 13.8545 10.9995 13.7367 10.9995 13.501L10.9995 12.501C10.9995 12.2653 10.9995 12.1474 10.9263 12.0742C10.8531 12.001 10.7352 12.001 10.4995 12.001L9.49951 12.001C8.94722 12.001 8.49951 11.5533 8.49951 11.001C8.49951 10.4487 8.94723 10.001 9.49952 10.001L10.4995 10.001C10.7352 10.001 10.8531 10.001 10.9263 9.92776C10.9995 9.85453 10.9995 9.73668 10.9995 9.50098L10.9995 8.50098C10.9995 8.26528 10.9995 8.14743 10.9263 8.0742C10.8531 8.00098 10.7352 8.00098 10.4995 8.00098L9.49951 8.00098C8.94722 8.00098 8.49951 7.55326 8.49951 7.00097C8.49951 6.44869 8.94723 6.00098 9.49952 6.00098L10.4995 6.00098C10.7352 6.00098 10.8531 6.00098 10.9263 5.92776C10.9995 5.85453 10.9995 5.73668 10.9995 5.50098L10.9995 5.00098C10.9995 4.52958 10.9995 4.29388 10.8531 4.14743C10.7066 4.00098 10.4709 4.00098 9.99951 4.00098H7.99952C7.02844 4.00098 6.40073 4.00311 5.93822 4.06529Z" fill="currentColor"/>
</svg>
