<svg width="36" height="36" viewBox="0 0 36 36" fill="none" xmlns="http://www.w3.org/2000/svg">
<path fill-rule="evenodd" clip-rule="evenodd" d="M5.87868 3.87966C5 4.75834 5 6.17255 5 9.00098L5 27.001C5 29.8294 5 31.2436 5.87868 32.1223C6.75736 33.001 8.17157 33.001 11 33.001H25C27.8284 33.001 29.2426 33.001 30.1213 32.1223C31 31.2436 31 29.8294 31 27.001V15.8012C31 15.1412 31 14.8112 30.795 14.6062C30.5899 14.4011 30.26 14.4011 29.6 14.4011L25.8784 14.4012C25.0423 14.4014 24.1932 14.4016 23.4858 14.3065C22.675 14.1975 21.702 13.9256 20.8889 13.1124C20.0757 12.2993 19.8038 11.3262 19.6948 10.5155C19.5997 9.80813 19.5999 8.95896 19.6001 8.1229L19.6001 4.40112C19.6001 3.74117 19.6001 3.41119 19.3951 3.20616C19.1901 3.00114 18.8601 3.00113 18.2002 3.00112L11 3.00098C8.17157 3.00098 6.75736 3.00098 5.87868 3.87966ZM11.7705 23.8677C11.6508 24.0357 11.7195 24.2338 11.8567 24.6299C12.7383 27.1741 15.1558 29.0008 18 29.0008C21.5899 29.0008 24.5 26.0907 24.5 22.5008C24.5 19.6572 22.674 17.2401 20.1306 16.358C19.7344 16.2207 19.5364 16.152 19.3683 16.2716C19.2002 16.3912 19.2002 16.619 19.2002 17.0746L19.2002 21.6996C19.2002 22.6425 19.2002 23.1139 18.9073 23.4068C18.6144 23.6996 18.143 23.6996 17.2002 23.6996H12.5733C12.1178 23.6996 11.8901 23.6996 11.7705 23.8677ZM16.6322 16.2715C16.8002 16.3911 16.8002 16.6189 16.8002 17.0744L16.8002 20.2997C16.8002 20.7711 16.8002 21.0068 16.6538 21.1532C16.5073 21.2996 16.2716 21.2996 15.8002 21.2996H12.5741C12.1185 21.2996 11.8906 21.2996 11.771 21.1315C11.6514 20.9634 11.7201 20.7654 11.8576 20.3693C12.5084 18.4936 13.9941 17.0082 15.87 16.3579C16.2661 16.2205 16.4641 16.1519 16.6322 16.2715Z" fill="currentColor"/>
<path d="M22.0002 5.03711C22.0002 3.80469 22.0002 3.18847 22.3705 3.03502C22.7408 2.88156 23.1766 3.31714 24.0484 4.18829L29.816 9.95178C30.6885 10.8237 31.1247 11.2596 30.9713 11.6301C30.8179 12.0006 30.2012 12.0006 28.9677 12.0006L26.0002 12.0006C24.1146 12.0007 23.1718 12.0007 22.586 11.4149C22.0002 10.8291 22.0002 9.88629 22.0002 8.00065V5.03711Z" fill="currentColor"/>
</svg>
