<svg width="16" height="16" viewBox="0 0 16 16" fill="none" xmlns="http://www.w3.org/2000/svg">
<path d="M2.89885 12.1502C3.39528 12.1502 3.79771 11.7478 3.79771 11.2514C3.79771 10.755 3.39528 10.3525 2.89885 10.3525C2.40243 10.3525 2 10.755 2 11.2514C2 11.7478 2.40243 12.1502 2.89885 12.1502Z" fill="currentColor"/>
<path d="M2.89885 8.89829C3.39528 8.89829 3.79771 8.49586 3.79771 7.99944C3.79771 7.50302 3.39528 7.10059 2.89885 7.10059C2.40243 7.10059 2 7.50302 2 7.99944C2 8.49586 2.40243 8.89829 2.89885 8.89829Z" fill="currentColor"/>
<path d="M5.75 7.25098C5.33579 7.25098 5 7.58676 5 8.00098C5 8.41519 5.33579 8.75098 5.75 8.75098H13.25C13.6642 8.75098 14 8.41519 14 8.00098C14 7.58676 13.6642 7.25098 13.25 7.25098H5.75Z" fill="currentColor"/>
<path d="M5 11.2529C5 10.8387 5.33579 10.5029 5.75 10.5029H13.25C13.6642 10.5029 14 10.8387 14 11.2529C14 11.6671 13.6642 12.0029 13.25 12.0029H5.75C5.33579 12.0029 5 11.6671 5 11.2529Z" fill="currentColor"/>
<path d="M5 4.75293C5 4.33872 5.33579 4.00293 5.75 4.00293L13.25 4.00293C13.6642 4.00293 14 4.33872 14 4.75293C14 5.16714 13.6642 5.50293 13.25 5.50293H5.75C5.33579 5.50293 5 5.16714 5 4.75293Z" fill="currentColor"/>
<path d="M2.89885 5.55064C3.39528 5.55064 3.79771 5.14821 3.79771 4.65178C3.79771 4.15536 3.39528 3.75293 2.89885 3.75293C2.40243 3.75293 2 4.15536 2 4.65178C2 5.14821 2.40243 5.55064 2.89885 5.55064Z" fill="currentColor"/>
</svg>
