<svg width="16" height="16" viewBox="0 0 16 16" fill="none" xmlns="http://www.w3.org/2000/svg">
<path d="M9.28277 10.2173C8.98977 9.92456 8.51489 9.92474 8.22211 10.2177C7.92933 10.5107 7.9295 10.9856 8.22251 11.2784L10.7265 13.7805C10.8673 13.9213 11.0583 14.0002 11.2574 14C11.4565 13.9998 11.6473 13.9204 11.7879 13.7794L14.2814 11.2773C14.5738 10.9839 14.573 10.509 14.2796 10.2166C13.9862 9.92425 13.5113 9.92506 13.219 10.2185L12.5181 10.9218C12.3 11.1406 12.191 11.2499 12.0983 11.2116C12.0056 11.1733 12.0056 11.0189 12.0056 10.71V2.75C12.0056 2.33579 11.6698 2 11.2556 2C10.8414 2 10.5056 2.33579 10.5056 2.75V10.7153C10.5056 11.0234 10.5056 11.1775 10.413 11.2159C10.3204 11.2542 10.2115 11.1453 9.99351 10.9276L9.28277 10.2173Z" fill="currentColor"/>
<path d="M6.01746 5.07838C5.79945 4.85985 5.69044 4.75058 5.59776 4.78891C5.50508 4.82723 5.50508 4.98158 5.50508 5.29026V13.25C5.50508 13.6642 5.16929 14 4.75508 14C4.34087 14 4.00508 13.6642 4.00508 13.25V5.28251C4.00508 4.97441 4.00508 4.82036 3.91251 4.78199C3.81994 4.74363 3.71097 4.85252 3.49303 5.07029L2.78013 5.78265C2.48713 6.07544 2.01225 6.07526 1.71947 5.78226C1.42669 5.48925 1.42687 5.01438 1.71987 4.7216L4.22387 2.21947C4.36465 2.0788 4.55557 1.99984 4.75459 2C4.95361 2.00016 5.1444 2.07941 5.28496 2.2203L7.78116 4.72242C8.0737 5.01567 8.07314 5.49054 7.7799 5.78308C7.48666 6.07563 7.01178 6.07507 6.71924 5.78182L6.01746 5.07838Z" fill="currentColor"/>
</svg>
