<svg width="16" height="16" viewBox="0 0 16 16" fill="none" xmlns="http://www.w3.org/2000/svg">
<path d="M4.04436 4.55937L3.28233 5.32083C2.98932 5.61361 2.51445 5.61344 2.22167 5.32043C1.92888 5.02743 1.92906 4.55256 2.22207 4.25977L4.2639 2.21947C4.55675 1.92684 5.03131 1.92684 5.32416 2.21947L7.366 4.25977C7.659 4.55256 7.65918 5.02743 7.36639 5.32043C7.07361 5.61344 6.59874 5.61361 6.30574 5.32083L5.54436 4.56003V13.25C5.54436 13.6642 5.20858 14 4.79436 14C4.38015 14 4.04436 13.6642 4.04436 13.25V4.55937Z" fill="currentColor"/>
<path d="M12.0422 11.44L12.8035 10.6792C13.0965 10.3864 13.5714 10.3866 13.8642 10.6796C14.157 10.9726 14.1568 11.4474 13.8638 11.7402L11.822 13.7805C11.5291 14.0732 11.0546 14.0732 10.7617 13.7805L8.71987 11.7402C8.42687 11.4474 8.42669 10.9726 8.71947 10.6796C9.01225 10.3866 9.48713 10.3864 9.78013 10.6792L10.5422 11.4406V2.75002C10.5422 2.3358 10.878 2.00002 11.2922 2.00002C11.7064 2.00002 12.0422 2.3358 12.0422 2.75002V11.44Z" fill="currentColor"/>
</svg>
