<svg width="24" height="24" viewBox="0 0 24 24" fill="none" xmlns="http://www.w3.org/2000/svg">
<path fill-rule="evenodd" clip-rule="evenodd" d="M18.9755 13.1045C21.5163 10.5637 21.5149 6.44569 18.9746 3.9054C16.434 1.36487 12.315 1.36487 9.77451 3.9054L4.19078 9.48913C3.79993 9.87998 3.79993 10.5137 4.19078 10.9045C4.58163 11.2954 5.21532 11.2954 5.60617 10.9045L11.1899 5.32079C12.9487 3.56196 15.8003 3.56196 17.5592 5.32079C19.3182 7.07985 19.3187 9.9305 17.5601 11.6891L10.0262 19.2231C8.99154 20.2577 7.31534 20.2568 6.27848 19.22C5.24273 18.1842 5.24273 16.5049 6.27849 15.4692L13.5961 8.15158C13.9088 7.8389 14.4157 7.8389 14.7284 8.15158C15.0411 8.46426 15.0411 8.97122 14.7284 9.2839L9.35697 14.6553C8.96612 15.0462 8.96612 15.6799 9.35697 16.0707C9.74782 16.4616 10.3815 16.4616 10.7724 16.0707L16.1438 10.6993C17.2382 9.60491 17.2382 7.83057 16.1438 6.73619C15.0494 5.64181 13.2751 5.6418 12.1807 6.73619L4.86309 14.0538C3.04564 15.8712 3.04564 18.8179 4.86309 20.6354C6.67944 22.4517 9.62302 22.457 11.4416 20.6385L18.9755 13.1045Z" fill="currentColor"/>
</svg>
