<svg width="24" height="24" viewBox="0 0 24 24" fill="none" xmlns="http://www.w3.org/2000/svg">
<path d="M5.70632 3.2929C5.51878 3.10536 5.26443 3 4.99921 3C4.73399 3 4.47964 3.10536 4.2921 3.29289L0.791917 6.79307C0.401392 7.1836 0.401392 7.81676 0.791917 8.20729C1.18244 8.59781 1.81561 8.59781 2.20613 8.20729L3.6576 6.75582C3.7836 6.62982 3.99902 6.71906 3.99902 6.89724V20.0001C3.99902 20.5524 4.44674 21.0001 4.99902 21.0001C5.55131 21.0001 5.99902 20.5524 5.99902 20.0001V6.89691C5.99902 6.71873 6.21445 6.6295 6.34045 6.75549L7.79221 8.20728C8.18273 8.59781 8.8159 8.59782 9.20642 8.20729C9.59695 7.81677 9.59696 7.18361 9.20644 6.79308L5.70632 3.2929Z" fill="currentColor"/>
<path d="M11.998 5.50098L13.498 5.50098C14.0503 5.50098 14.498 5.05326 14.498 4.50098C14.498 3.94869 14.0503 3.50098 13.498 3.50098L11.998 3.50098C11.4458 3.50098 10.998 3.94869 10.998 4.50098C10.998 5.05326 11.4458 5.50098 11.998 5.50098Z" fill="currentColor"/>
<path d="M11.998 10.501H16.498C17.0503 10.501 17.498 10.0533 17.498 9.50098C17.498 8.94869 17.0503 8.50098 16.498 8.50098H11.998C11.4458 8.50098 10.998 8.94869 10.998 9.50098C10.998 10.0533 11.4458 10.501 11.998 10.501Z" fill="currentColor"/>
<path d="M11.998 15.501L19.498 15.501C20.0503 15.501 20.498 15.0533 20.498 14.501C20.498 13.9487 20.0503 13.501 19.498 13.501L11.998 13.501C11.4458 13.501 10.998 13.9487 10.998 14.501C10.998 15.0533 11.4458 15.501 11.998 15.501Z" fill="currentColor"/>
<path d="M11.998 20.501H22.998C23.5503 20.501 23.998 20.0533 23.998 19.501C23.998 18.9487 23.5503 18.501 22.998 18.501L11.998 18.501C11.4458 18.501 10.998 18.9487 10.998 19.501C10.998 20.0533 11.4458 20.501 11.998 20.501Z" fill="currentColor"/>
</svg>
