<svg width="24" height="24" viewBox="0 0 24 24" fill="none" xmlns="http://www.w3.org/2000/svg">
<g clip-path="url(#clip0_1600_49)">
<path d="M7.79319 15.7927C8.18371 15.4022 8.81687 15.4022 9.2074 15.7927C9.59793 16.1832 9.59793 16.8164 9.20741 17.2069L5.70729 20.7071C5.51976 20.8946 5.2654 21 5.00019 21C4.73497 21 4.48061 20.8946 4.29308 20.7071L0.792893 17.2069C0.402369 16.8164 0.402369 16.1832 0.792893 15.7927C1.18342 15.4022 1.81658 15.4022 2.20711 15.7927L3.31746 16.903C3.60807 17.1936 3.75337 17.3389 3.87684 17.2878C4.0003 17.2367 4.0003 17.0312 4.0003 16.6202V3.99988C4.0003 3.44759 4.44802 2.99988 5.0003 2.99988C5.55259 2.99988 6.0003 3.44759 6.0003 3.99988V16.6199C6.0003 17.0309 6.0003 17.2364 6.12376 17.2875C6.24723 17.3387 6.39253 17.1934 6.68315 16.9027L7.79319 15.7927Z" fill="#02050A"/>
<path d="M11.0001 19.5C11.0001 20.0523 11.4478 20.5 12.0001 20.5H23.0001C23.5523 20.5 24.0001 20.0523 24.0001 19.5C24.0001 18.9477 23.5523 18.5 23.0001 18.5H12.0001C11.4478 18.5 11.0001 18.9477 11.0001 19.5Z" fill="#02050A"/>
<path d="M12.0001 15.5C11.4478 15.5 11.0001 15.0523 11.0001 14.5C11.0001 13.9477 11.4478 13.5 12.0001 13.5H19.5001C20.0523 13.5 20.5001 13.9477 20.5001 14.5C20.5001 15.0523 20.0523 15.5 19.5001 15.5H12.0001Z" fill="#02050A"/>
<path d="M12.0001 10.5C11.4478 10.5 11.0001 10.0523 11.0001 9.49997C11.0001 8.94768 11.4478 8.49997 12.0001 8.49997H16.5001C17.0523 8.49997 17.5001 8.94768 17.5001 9.49997C17.5001 10.0523 17.0523 10.5 16.5001 10.5H12.0001Z" fill="#02050A"/>
<path d="M12.0001 5.49997C11.4478 5.49997 11.0001 5.05225 11.0001 4.49997C11.0001 3.94769 11.4478 3.49997 12.0001 3.49997H13.5001C14.0523 3.49997 14.5001 3.94769 14.5001 4.49997C14.5001 5.05225 14.0523 5.49997 13.5001 5.49997H12.0001Z" fill="#02050A"/>
</g>
<defs>
<clipPath id="clip0_1600_49">
<rect width="24" height="24" fill="white"/>
</clipPath>
</defs>
</svg>
