<svg width="16" height="16" viewBox="0 0 16 16" fill="none" xmlns="http://www.w3.org/2000/svg">
<path fill-rule="evenodd" clip-rule="evenodd" d="M3.90057 12.0762L3.90147 12.0771L3.9132 12.0888L3.92582 12.1015L3.92672 12.1024C6.28195 14.4457 8.76029 15.2508 11.2336 14.9386C12.2295 14.8129 13.0802 14.4126 13.7396 13.9828L13.7758 13.9592C14.0831 13.7591 14.3778 13.5671 14.5884 13.3515C14.8401 13.0938 14.9866 12.7919 14.9994 12.3963C15.013 11.9753 14.8503 11.6511 14.5938 11.3697C14.3701 11.1243 14.0472 10.8827 13.69 10.6155L12.7556 9.91632C12.5157 9.73677 12.3106 9.58331 12.1329 9.47256C11.9469 9.35672 11.7477 9.25917 11.5161 9.22863C11.2685 9.19599 11.0152 9.2585 10.7782 9.33524C10.5354 9.41383 10.2311 9.53546 9.8574 9.68484L9.83985 9.69186C9.5996 9.7879 9.38719 9.84406 9.22311 9.85244C8.90492 9.8687 8.62605 9.87926 8.29998 9.7805C7.97744 9.68281 7.56828 9.46383 7.05198 8.95007C6.53874 8.43673 6.31998 8.02797 6.22235 7.70504C6.12357 7.37829 6.13422 7.09813 6.15049 6.77982C6.15901 6.61298 6.21635 6.39662 6.3138 6.15239L6.32077 6.13494C6.46869 5.76422 6.58925 5.46209 6.66712 5.22071C6.74327 4.98467 6.80504 4.73267 6.77243 4.48564C6.74189 4.25432 6.6446 4.05545 6.52899 3.86976C6.41852 3.6923 6.26547 3.48769 6.08648 3.24839L5.38744 2.31376C5.12023 1.95638 4.8787 1.63335 4.63323 1.40954C4.35183 1.15297 4.02764 0.990109 3.60659 1.00372C3.21094 1.01651 2.90895 1.163 2.65125 1.41474C2.43556 1.62544 2.24359 1.9202 2.04344 2.22753L2.0198 2.26382C1.5902 2.92308 1.19001 3.77363 1.06432 4.76929C0.752116 7.24264 1.55723 9.72095 3.90057 12.0762Z" fill="currentColor"/>
</svg>
