<svg width="24" height="24" viewBox="0 0 24 24" fill="none" xmlns="http://www.w3.org/2000/svg">
<path d="M20.5 2C20.5 1.44772 20.0523 1 19.5 1C18.9477 1 18.5 1.44772 18.5 2V3.1C18.5 3.28856 18.5 3.38284 18.4414 3.44142C18.3828 3.5 18.2886 3.5 18.1 3.5H17C16.4477 3.5 16 3.94772 16 4.5C16 5.05228 16.4477 5.5 17 5.5H18.1C18.2886 5.5 18.3828 5.5 18.4414 5.55858C18.5 5.61716 18.5 5.71144 18.5 5.9V7C18.5 7.55228 18.9477 8 19.5 8C20.0523 8 20.5 7.55228 20.5 7V5.9C20.5 5.71144 20.5 5.61716 20.5586 5.55858C20.6172 5.5 20.7114 5.5 20.9 5.5H22C22.5523 5.5 23 5.05228 23 4.5C23 3.94771 22.5523 3.5 22 3.5H20.9C20.7114 3.5 20.6172 3.5 20.5586 3.44142C20.5 3.38284 20.5 3.28856 20.5 3.1V2Z" fill="currentColor"/>
<path d="M13 3C13.3738 3 13.5608 3 13.7 3.08039C13.7912 3.13305 13.867 3.20879 13.9196 3.3C14 3.43923 14 3.62616 14 4C14 4.37385 14 4.56077 13.9196 4.7C13.867 4.79122 13.7912 4.86696 13.7 4.91962C13.5608 5 13.3738 5 13 5L7 5C6.02893 5 5.40122 5.00213 4.93871 5.06431C4.50497 5.12263 4.36902 5.21677 4.2929 5.2929C4.21677 5.36902 4.12263 5.50497 4.06431 5.93871C4.00213 6.40122 4 7.02893 4 8L4.00001 16C4.00001 16.9711 4.00213 17.5988 4.06431 18.0613C4.12263 18.495 4.21677 18.631 4.2929 18.7071C4.36902 18.7832 4.50497 18.8774 4.93871 18.9357C5.40122 18.9979 6.02893 19 7.00001 19H17C17.9711 19 18.5988 18.9979 19.0613 18.9357C19.495 18.8774 19.631 18.7832 19.7071 18.7071C19.7832 18.631 19.8774 18.495 19.9357 18.0613C19.9979 17.5988 20 16.9711 20 16V11C20 10.6262 20 10.4392 20.0804 10.3C20.133 10.2088 20.2088 10.133 20.3 10.0804C20.4392 10 20.6262 10 21 10C21.3739 10 21.5608 10 21.7 10.0804C21.7912 10.133 21.867 10.2088 21.9196 10.3C22 10.4392 22 10.6262 22 11V16.0658C22.0001 16.9523 22.0001 17.7161 21.9179 18.3278C21.8297 18.9833 21.631 19.6117 21.1213 20.1213C20.6117 20.631 19.9833 20.8297 19.3278 20.9179C18.7161 21.0001 17.9523 21.0001 17.0658 21H6.9342C6.0477 21.0001 5.28388 21.0001 4.67221 20.9179C4.0167 20.8297 3.38835 20.631 2.87868 20.1213C2.36902 19.6117 2.17028 18.9833 2.08215 18.3278C1.99991 17.7161 1.99995 16.9523 2 16.0658L2 7.93418C1.99995 7.04769 1.99991 6.28387 2.08215 5.67221C2.17028 5.0167 2.36902 4.38835 2.87868 3.87868C3.38835 3.36902 4.0167 3.17028 4.67221 3.08215C5.28387 2.99991 6.04769 2.99995 6.93417 3L13 3Z" fill="currentColor"/>
<path d="M13 8.5C13 7.94772 12.5523 7.5 12 7.5C11.4477 7.5 11 7.94772 11 8.5V16.2C11 16.5771 11 16.7657 11.1172 16.8828C11.2343 17 11.4229 17 11.8 17H12.2C12.5771 17 12.7657 17 12.8828 16.8828C13 16.7657 13 16.5771 13 16.2V8.5Z" fill="currentColor"/>
<path d="M16.2 17C16.5771 17 16.7657 17 16.8828 16.8828C17 16.7657 17 16.5771 17 16.2L17 10.5C17 9.94771 16.5523 9.5 16 9.5C15.4477 9.5 15 9.94772 15 10.5V16.2C15 16.5771 15 16.7657 15.1172 16.8828C15.2343 17 15.4229 17 15.8 17H16.2Z" fill="currentColor"/>
<path d="M7 16.2C7 16.5771 7 16.7657 7.11716 16.8828C7.23431 17 7.42288 17 7.8 17H8.2C8.57712 17 8.76569 17 8.88284 16.8828C9 16.7657 9 16.5771 9 16.2L9 13C9 12.4477 8.55228 12 8 12C7.44772 12 7 12.4477 7 13V16.2Z" fill="currentColor"/>
</svg>
