<svg width="24" height="24" viewBox="0 0 24 24" fill="none" xmlns="http://www.w3.org/2000/svg">
<path d="M5.4 18.4C6.1732 18.4 6.8 17.7732 6.8 17C6.8 16.2268 6.1732 15.6 5.4 15.6C4.6268 15.6 4 16.2268 4 17C4 17.7732 4.6268 18.4 5.4 18.4Z" fill="currentColor"/>
<path d="M5.4 8.39998C6.1732 8.39998 6.8 7.77317 6.8 6.99998C6.8 6.22678 6.1732 5.59998 5.4 5.59998C4.6268 5.59998 4 6.22678 4 6.99998C4 7.77317 4.6268 8.39998 5.4 8.39998Z" fill="currentColor"/>
<path d="M8.5 17C8.5 16.4477 8.94772 16 9.5 16L19 16C19.5523 16 20 16.4477 20 17C20 17.5523 19.5523 18 19 18L9.5 18C8.94772 18 8.5 17.5523 8.5 17Z" fill="currentColor"/>
<path d="M9.5 11C8.94772 11 8.5 11.4477 8.5 12C8.5 12.5523 8.94772 13 9.5 13L19 13C19.5523 13 20 12.5523 20 12C20 11.4477 19.5523 11 19 11L9.5 11Z" fill="currentColor"/>
<path d="M9.5 5.99997C8.94772 5.99997 8.5 6.44769 8.5 6.99997C8.5 7.55225 8.94772 7.99997 9.5 7.99997L19 7.99997C19.5523 7.99997 20 7.55225 20 6.99997C20 6.44768 19.5523 5.99997 19 5.99997L9.5 5.99997Z" fill="currentColor"/>
<path d="M6.8 12C6.8 12.7732 6.1732 13.4 5.4 13.4C4.6268 13.4 4 12.7732 4 12C4 11.2268 4.6268 10.6 5.4 10.6C6.1732 10.6 6.8 11.2268 6.8 12Z" fill="currentColor"/>
</svg>
