<svg width="36" height="36" viewBox="0 0 36 36" fill="none" xmlns="http://www.w3.org/2000/svg">
<path d="M10.7479 22.3714C10.7648 22.4018 10.7646 22.4389 10.7474 22.4692L8.97449 25.5892C8.89872 25.7226 8.99502 25.8881 9.14837 25.8881H11.1448C11.2177 25.8881 11.2849 25.8484 11.32 25.7845L12.2 24.1851C12.2188 24.151 12.2676 24.1504 12.2871 24.1841L13.2147 25.7882C13.2505 25.85 13.3165 25.8881 13.3879 25.8881H15.4295C15.584 25.8881 15.6801 25.7203 15.602 25.587L13.7643 22.449C13.7459 22.4176 13.7461 22.3787 13.7647 22.3474L15.5084 19.4152C15.5877 19.2818 15.4916 19.1129 15.3365 19.1129H13.3435C13.2713 19.1129 13.2047 19.1518 13.1693 19.2147L12.346 20.6742C12.3266 20.7084 12.2772 20.708 12.2585 20.6735L11.4682 19.2175C11.4333 19.1531 11.3658 19.1129 11.2925 19.1129H9.28145C9.12904 19.1129 9.03264 19.2766 9.10652 19.4099L10.7479 22.3714Z" fill="currentColor"/>
<path d="M16.81 19.1129C16.6443 19.1129 16.51 19.2472 16.51 19.4129V25.5881C16.51 25.7537 16.6443 25.8881 16.81 25.8881H21.0131C21.1788 25.8881 21.3131 25.7537 21.3131 25.5881V24.1699C21.3131 24.0042 21.1788 23.8699 21.0131 23.8699H18.7492C18.694 23.8699 18.6492 23.8252 18.6492 23.7699V19.4129C18.6492 19.2472 18.5149 19.1129 18.3492 19.1129L16.81 19.1129Z" fill="currentColor"/>
<path d="M22.1482 23.1369L22.5785 23.5075C22.8491 23.7404 23.4174 24.1208 24.2721 24.1208C24.5991 24.1208 24.7713 24.0619 24.8517 24.0083C24.9094 23.9698 24.9323 23.9287 24.9323 23.8497C24.9323 23.8196 24.9324 23.7521 24.6823 23.6417C24.5633 23.5892 24.4181 23.5409 24.2436 23.4862L24.1399 23.454C23.9971 23.4097 23.8404 23.3612 23.685 23.3063C23.2981 23.1696 22.8627 22.9757 22.5251 22.6317C22.1749 22.2749 21.957 21.7852 21.957 21.1166C21.957 20.4999 22.139 19.9413 22.6226 19.5499C23.0899 19.1718 23.7785 19.0005 24.6786 19.0005C25.4779 19.0005 26.195 19.1251 26.6681 19.3223L26.7053 19.3378C26.817 19.3844 26.8898 19.4936 26.8898 19.6147V21.5394C26.8898 21.6197 26.7999 21.6673 26.7335 21.6221L26.3269 21.3454C25.9504 21.0894 25.363 20.8802 24.791 20.8802C24.403 20.8802 24.2296 20.9421 24.1615 20.9867C24.1261 21.0098 24.1135 21.0265 24.1135 21.0907C24.1127 21.1023 24.108 21.1682 24.3733 21.278C24.4988 21.3298 24.6511 21.3775 24.8328 21.4315L24.9257 21.459C25.0784 21.504 25.2459 21.5534 25.4127 21.61C25.8132 21.7457 26.2622 21.9387 26.6108 22.2808C26.9731 22.6363 27.2012 23.127 27.2012 23.7979C27.2012 24.4626 26.9876 25.0415 26.4755 25.441C25.981 25.8268 25.2636 26.0005 24.3499 26.0005C23.5296 26.0005 22.6813 25.8317 22.1652 25.5382L22.1347 25.5209C22.0409 25.4675 21.983 25.368 21.983 25.2601V23.2127C21.983 23.1272 22.0834 23.0811 22.1482 23.1369Z" fill="currentColor"/>
<path fill-rule="evenodd" clip-rule="evenodd" d="M8.57494 3.11924C9.45869 3.00043 10.5753 3.00046 11.9294 3.00049L18.9289 3.00049C20.1552 3.00049 20.7683 3.00049 21.3196 3.22885C21.8709 3.45721 22.3045 3.89075 23.1716 4.75783L29.2426 10.8289C30.1097 11.696 30.5433 12.1296 30.7716 12.6809C31 13.2322 31 13.8453 31 15.0716L31 26.0711C31 27.4252 31.0001 28.5418 30.8813 29.4256C30.7565 30.3534 30.4845 31.1728 29.8284 31.8289C29.1723 32.485 28.3529 32.757 27.4251 32.8817C26.5413 33.0006 25.4247 33.0005 24.0706 33.0005H11.9294C10.5753 33.0005 9.45869 33.0006 8.57494 32.8817C7.64711 32.757 6.82769 32.485 6.17158 31.8289C5.51547 31.1728 5.2435 30.3534 5.11876 29.4256C4.99994 28.5418 4.99997 27.4252 5 26.0711L5 9.92989C4.99997 8.57578 4.99994 7.45918 5.11876 6.57543C5.2435 5.6476 5.51547 4.82817 6.17158 4.17207C6.82769 3.51596 7.64711 3.24399 8.57494 3.11924ZM19.8828 5.11765C20 5.23481 20 5.42337 20 5.80049L20 9.06635C20 9.95284 19.9999 10.7166 20.0821 11.3283C20.1703 11.9838 20.369 12.6122 20.8787 13.1218C21.3884 13.6315 22.0167 13.8302 22.6722 13.9184C23.2839 14.0006 24.0477 14.0006 24.9342 14.0005L28.2 14.0005C28.5771 14.0005 28.7657 14.0005 28.8828 14.1177C29 14.2348 29 14.4234 29 14.8005L29 26.0005C29 27.443 28.9979 28.4242 28.8991 29.1591C28.8042 29.8651 28.6368 30.1921 28.4142 30.4147C28.1916 30.6373 27.8646 30.8046 27.1586 30.8996C26.4238 30.9984 25.4425 31.0005 24 31.0005H12C10.5575 31.0005 9.57626 30.9984 8.84144 30.8996C8.13538 30.8046 7.80836 30.6373 7.58579 30.4147C7.36322 30.1921 7.19585 29.8651 7.10092 29.1591C7.00213 28.4242 7 27.443 7 26.0005V10.0005C7 8.55801 7.00213 7.57674 7.10092 6.84192C7.19585 6.13587 7.36322 5.80885 7.58579 5.58628C7.80836 5.36371 8.13538 5.19634 8.84144 5.10141C9.57626 5.00261 10.5575 5.00049 12 5.00049L19.2 5.00049C19.5771 5.00049 19.7657 5.00049 19.8828 5.11765ZM27.2877 11.8771C27.2366 12.0005 27.0311 12.0005 26.6201 12.0005H25C24.0289 12.0005 23.4012 11.9984 22.9387 11.9362C22.505 11.8779 22.369 11.7837 22.2929 11.7076C22.2168 11.6315 22.1226 11.4956 22.0643 11.0618C22.0021 10.5993 22 9.9716 22 9.00052V7.38042C22 6.96943 22 6.76394 22.1235 6.7128C22.2469 6.66166 22.3922 6.80696 22.6828 7.09757L26.903 11.3177C27.1936 11.6083 27.3389 11.7536 27.2877 11.8771Z" fill="currentColor"/>
</svg>
