<svg width="36" height="36" viewBox="0 0 36 36" fill="none" xmlns="http://www.w3.org/2000/svg">
<path d="M23.5544 22.0879C23.6423 22 23.7837 22 24.0666 22H25.9226C26.2054 22 26.3468 22 26.4347 22.0879C26.5226 22.1757 26.5226 22.3172 26.5226 22.6V25.1812C26.5226 25.2756 26.5226 25.3227 26.5038 25.3629C26.4977 25.376 26.4902 25.3883 26.4815 25.3998C26.4546 25.435 26.4127 25.4569 26.3291 25.5006C25.8942 25.728 25.032 26 23.9567 26C22.8569 26 21.9759 25.7576 21.3755 25.1585C20.775 24.5592 20.5259 23.6738 20.5259 22.5519C20.5259 21.4225 20.7596 20.5104 21.3704 19.8866C21.9828 19.2614 22.9012 19 24.0951 19C24.9824 19 25.5695 19.1537 25.9001 19.2983C25.9349 19.3136 25.9523 19.3212 25.9675 19.33C26.0488 19.3776 26.1031 19.4606 26.114 19.5541C26.1161 19.5715 26.1161 19.5905 26.1161 19.6285V21.2707C26.1161 21.4278 26.1161 21.5063 26.0652 21.535C26.0143 21.5637 25.9471 21.5231 25.8126 21.4419L25.5693 21.2949C25.2139 21.0801 24.7601 20.9403 24.1902 20.9403C23.5562 20.9403 23.2179 21.0712 23.0262 21.2707C22.8311 21.4737 22.7083 21.8294 22.7083 22.4741C22.7083 23.1467 22.8388 23.5222 23.0308 23.7333C23.2148 23.9357 23.5232 24.0597 24.0691 24.0597C24.2226 24.0597 24.4326 24.0494 24.5836 24.0336C24.6372 24.028 24.664 24.0252 24.682 24.0052C24.7 23.9852 24.7 23.957 24.7 23.9006V23.7529C24.7 23.6869 24.7 23.6539 24.6795 23.6334C24.659 23.6129 24.626 23.6129 24.56 23.6129H24.0666C23.7837 23.6129 23.6423 23.6129 23.5544 23.525C23.4666 23.4371 23.4666 23.2957 23.4666 23.0129V22.6C23.4666 22.3172 23.4666 22.1757 23.5544 22.0879Z" fill="currentColor"/>
<path fill-rule="evenodd" clip-rule="evenodd" d="M15.0487 19.1198C14.7779 19.1323 14.6425 19.1386 14.5595 19.2255C14.4765 19.3125 14.4765 19.448 14.4765 19.7191V25.2879C14.4765 25.5708 14.4765 25.7122 14.5643 25.8001C14.6522 25.8879 14.7936 25.8879 15.0765 25.8879H16.0157C16.2985 25.8879 16.4399 25.8879 16.5278 25.8001C16.6157 25.7122 16.6157 25.5708 16.6157 25.2879V24.3954C16.6157 24.2986 16.6157 24.2502 16.6452 24.2209C16.6747 24.1916 16.724 24.1919 16.8226 24.1925L16.878 24.1927C17.8303 24.1927 18.595 24.0083 19.1214 23.5493C19.6591 23.0806 19.8764 22.3902 19.8764 21.549C19.8764 20.7312 19.688 20.0686 19.1494 19.6321C18.632 19.2129 17.8684 19.0696 16.8953 19.0696C16.1124 19.0696 15.6899 19.0895 15.0997 19.1174L15.0487 19.1198ZM17.5492 22.1425C17.4652 22.222 17.2854 22.3043 16.878 22.3043L16.808 22.304C16.7185 22.3033 16.6737 22.303 16.6447 22.2737C16.6157 22.2445 16.6157 22.1988 16.6157 22.1073V21.1552C16.6157 21.0628 16.6157 21.0167 16.6449 20.9874C16.6742 20.9581 16.7198 20.9581 16.8111 20.958L16.8694 20.9579C17.3124 20.9579 17.4895 21.0398 17.5653 21.111C17.6332 21.1748 17.6939 21.3009 17.6939 21.6182C17.6939 21.928 17.6275 22.0683 17.5492 22.1425Z" fill="currentColor"/>
<path d="M10.0691 23.8236L9.80607 23.6044C9.66415 23.4861 9.5932 23.427 9.53561 23.454C9.47803 23.4809 9.47803 23.5733 9.47803 23.758V25.4584C9.47803 25.5016 9.47803 25.5232 9.48055 25.5425C9.49415 25.6468 9.56143 25.7364 9.65784 25.7786C9.67568 25.7864 9.69643 25.7924 9.73793 25.8044C10.0372 25.8913 10.3737 25.9571 10.9022 25.9571C11.6467 25.9571 12.2517 25.8179 12.6584 25.4054C13.0641 24.9939 13.1914 24.3924 13.1914 23.6766V19.7128C13.1914 19.43 13.1914 19.2885 13.1035 19.2007C13.0156 19.1128 12.8742 19.1128 12.5914 19.1128H11.6522C11.3693 19.1128 11.2279 19.1128 11.14 19.2007C11.0522 19.2885 11.0522 19.43 11.0522 19.7128V23.495C11.0522 23.8287 10.9966 23.923 10.976 23.9459C10.9677 23.9552 10.9245 23.9995 10.686 23.9995C10.5609 23.9995 10.4256 23.975 10.3051 23.936C10.1794 23.8953 10.0989 23.8484 10.0691 23.8236Z" fill="currentColor"/>
<path fill-rule="evenodd" clip-rule="evenodd" d="M11.9294 3L18.9289 3C20.1552 3 20.7683 3 21.3196 3.22837C21.8709 3.45673 22.3045 3.89027 23.1716 4.75736L29.2426 10.8284C30.1097 11.6955 30.5433 12.1291 30.7716 12.6804C31 13.2317 31 13.8448 31 15.0711V26.0706C31 27.4247 31.0001 28.5413 30.8813 29.4251C30.7565 30.3529 30.4845 31.1723 29.8284 31.8284C29.1723 32.4845 28.3529 32.7565 27.4251 32.8813C26.5413 33.0001 25.4247 33 24.0706 33H11.9294C10.5753 33 9.4587 33.0001 8.57494 32.8813C7.64711 32.7565 6.82769 32.4845 6.17158 31.8284C5.51547 31.1723 5.2435 30.3529 5.11876 29.4251C4.99994 28.5413 4.99997 27.4247 5 26.0706V9.9294C4.99997 8.57531 4.99994 7.45868 5.11876 6.57494C5.2435 5.64711 5.51547 4.82769 6.17158 4.17158C6.82769 3.51547 7.64711 3.2435 8.57494 3.11876C9.45868 2.99994 10.5753 2.99997 11.9294 3ZM19.8828 5.11716C20 5.23432 20 5.42288 20 5.80001L20 9.06586C20 9.95235 19.9999 10.7162 20.0821 11.3278C20.1703 11.9833 20.369 12.6117 20.8787 13.1214C21.3884 13.631 22.0167 13.8298 22.6722 13.9179C23.2839 14.0001 24.0477 14.0001 24.9342 14L28.2 14C28.5771 14 28.7657 14 28.8828 14.1172C29 14.2343 29 14.4229 29 14.8V26C29 27.4425 28.9979 28.4238 28.8991 29.1586C28.8042 29.8646 28.6368 30.1916 28.4142 30.4142C28.1916 30.6368 27.8646 30.8042 27.1586 30.8991C26.4238 30.9979 25.4425 31 24 31H12C10.5575 31 9.57626 30.9979 8.84144 30.8991C8.13538 30.8042 7.80836 30.6368 7.58579 30.4142C7.36322 30.1916 7.19585 29.8646 7.10092 29.1586C7.00213 28.4238 7 27.4425 7 26V10C7 8.55752 7.00213 7.57626 7.10092 6.84144C7.19585 6.13538 7.36322 5.80836 7.58579 5.58579C7.80836 5.36322 8.13538 5.19585 8.84144 5.10092C9.57626 5.00213 10.5575 5 12 5H19.2C19.5771 5 19.7657 5 19.8828 5.11716ZM27.2877 11.8766C27.2366 12 27.0311 12 26.6201 12H25C24.0289 12 23.4012 11.9979 22.9387 11.9357C22.505 11.8774 22.369 11.7833 22.2929 11.7071C22.2168 11.631 22.1226 11.4951 22.0643 11.0613C22.0021 10.5988 22 9.97111 22 9.00003V7.37993C22 6.96894 22 6.76345 22.1235 6.71231C22.2469 6.66117 22.3922 6.80648 22.6829 7.09709L26.903 11.3172C27.1936 11.6078 27.3389 11.7531 27.2877 11.8766Z" fill="currentColor"/>
</svg>
