<svg width="36" height="36" viewBox="0 0 36 36" fill="none" xmlns="http://www.w3.org/2000/svg">
<path fill-rule="evenodd" clip-rule="evenodd" d="M7.49639 3.07994C8.80988 1.56226 10.9708 1.75743 12.2576 3.0039C13.6 4.30433 14.727 5.81003 15.5964 7.46456L16.0106 8.25286C16.5909 9.35742 16.5557 10.653 16.0222 11.7276C15.5546 12.6695 15.0374 13.8341 14.8653 14.6246C14.7634 15.0923 14.688 15.6968 14.8792 16.4401C15.0708 17.1848 15.5523 18.1531 16.7031 19.2986C17.8472 20.4376 18.8365 20.9129 19.5976 21.1035C20.3602 21.2944 20.9708 21.2192 21.4018 21.1352C22.196 20.9804 23.3197 20.4791 24.24 20.01C25.3218 19.4586 26.641 19.405 27.7676 19.9976L28.5307 20.3989C30.187 21.27 31.6943 22.3987 32.9964 23.7427C34.2454 25.032 34.4411 27.1974 32.9198 28.513C31.4227 29.8075 28.9599 31.4733 25.8351 31.8677C20.563 32.5332 15.2768 30.819 10.2465 25.8141L10.2448 25.8123L10.2178 25.7853L10.1926 25.76L10.1908 25.7583C5.18593 20.728 3.4717 15.4419 4.13718 10.1698C4.53208 7.04143 6.20111 4.57658 7.49639 3.07994Z" fill="currentColor"/>
</svg>
