<svg width="16" height="16" viewBox="0 0 16 16" fill="none" xmlns="http://www.w3.org/2000/svg">
<path fill-rule="evenodd" clip-rule="evenodd" d="M1.89976 4L14.0998 4C14.5968 4 14.9998 4.40294 14.9998 4.9C14.9998 5.39706 14.5968 5.8 14.0998 5.8H13.4011C13.1869 5.8 13.0107 5.96865 13.0014 6.1826L12.7467 12.0326C12.7248 12.5365 12.7053 12.986 12.6413 13.3484C12.5716 13.743 12.4335 14.1384 12.0991 14.4585C11.7647 14.7786 11.3637 14.8994 10.9665 14.9519C10.6016 15.0001 10.1517 15 9.64734 15H6.35096C5.84675 15 5.39693 15.0001 5.03217 14.9519C4.63495 14.8994 4.23404 14.7787 3.8997 14.4587C3.56536 14.1387 3.42721 13.7434 3.35741 13.3489C3.29331 12.9866 3.27367 12.5372 3.25164 12.0335L2.99533 6.18249C2.98596 5.96859 2.80982 5.8 2.59572 5.8H1.89976C1.4027 5.8 0.999756 5.39706 0.999756 4.9C0.999756 4.40294 1.4027 4 1.89976 4ZM7.2499 7.94941C7.2499 7.50759 6.89173 7.14941 6.4499 7.14941C6.00808 7.14941 5.6499 7.50759 5.6499 7.94941L5.6499 11.0994C5.6499 11.5412 6.00808 11.8994 6.4499 11.8994C6.89173 11.8994 7.2499 11.5412 7.2499 11.0994L7.2499 7.94941ZM9.55 7.14941C9.99183 7.14941 10.35 7.50759 10.35 7.94941V11.0994C10.35 11.5412 9.99183 11.8994 9.55 11.8994C9.10817 11.8994 8.75 11.5412 8.75 11.0994L8.75 7.94941C8.75 7.50759 9.10817 7.14941 9.55 7.14941Z" fill="currentColor"/>
<path d="M6.32792 1.10092C6.19382 1.20282 6.14486 1.37892 6.04693 1.73114L5.96152 2.03829C5.86444 2.38746 5.81589 2.56204 5.90593 2.68053C5.99597 2.79902 6.17718 2.79902 6.53959 2.79902L9.46061 2.79903C9.82294 2.79903 10.0041 2.79903 10.0941 2.68057C10.1842 2.5621 10.1357 2.38755 10.0387 2.03844L9.95343 1.73138C9.85557 1.37906 9.80663 1.2029 9.67252 1.10096C9.53841 0.999028 9.35558 0.999027 8.98992 0.999027L7.01038 0.999023C6.64481 0.999023 6.46201 0.999023 6.32792 1.10092Z" fill="currentColor"/>
</svg>
