<svg width="24" height="24" viewBox="0 0 24 24" fill="none" xmlns="http://www.w3.org/2000/svg">
<path fill-rule="evenodd" clip-rule="evenodd" d="M16 6.00001C14.3431 6.00001 13 7.34315 13 9.00001C13 10.6569 14.3431 12 16 12C17.6569 12 19 10.6569 19 9.00001C19 7.34315 17.6569 6.00001 16 6.00001ZM15 9.00001C15 8.44772 15.4477 8.00001 16 8.00001C16.5523 8.00001 17 8.44772 17 9.00001C17 9.55229 16.5523 10 16 10C15.4477 10 15 9.55229 15 9.00001Z" fill="currentColor"/>
<path fill-rule="evenodd" clip-rule="evenodd" d="M2 16.3747C1.99997 17.1162 1.99994 17.7555 2.05886 18.2741C2.12155 18.8259 2.26155 19.3643 2.62954 19.8387C2.78378 20.0376 2.96244 20.2162 3.16128 20.3705C3.6357 20.7385 4.17415 20.8785 4.72592 20.9411C5.24452 21.0001 5.88378 21 6.62527 21H17.3747C18.1162 21 18.7555 21.0001 19.2741 20.9411C19.8259 20.8785 20.3643 20.7385 20.8387 20.3705C21.0376 20.2162 21.2162 20.0376 21.3705 19.8387C21.7385 19.3643 21.8785 18.8259 21.9412 18.2741C22.0001 17.7555 22 17.1162 22 16.3747V7.62532C22 6.88381 22.0001 6.24453 21.9412 5.72592C21.8785 5.17415 21.7385 4.63569 21.3705 4.16128C21.2162 3.96243 21.0376 3.78378 20.8387 3.62954C20.3643 3.26154 19.8259 3.12154 19.2741 3.05885C18.7555 2.99993 18.1162 2.99997 17.3747 3L6.62532 3C5.88381 2.99997 5.24453 2.99994 4.72592 3.05886C4.17415 3.12154 3.6357 3.26155 3.16128 3.62954C2.96243 3.78378 2.78378 3.96243 2.62954 4.16128C2.26155 4.63569 2.12155 5.17415 2.05886 5.72592C1.99994 6.24452 1.99997 6.88378 2 7.62527L2 16.3747ZM4.20985 18.6129C4.15815 18.5463 4.08831 18.4201 4.04607 18.0483C4.00152 17.6561 4.00001 17.3586 4.00001 16.5469V16.0595L7.65356 12.4445L11.6486 16.4096L9.06654 19H6.68001C5.8683 19 5.34389 18.9985 4.95169 18.9539C4.57995 18.9117 4.45375 18.8419 4.3871 18.7902C4.32082 18.7387 4.26127 18.6792 4.20985 18.6129ZM13.0628 14.9954L9.6298 11.5624C9.37892 11.3114 9.13484 11.0672 8.90789 10.8866C8.6552 10.6855 8.33004 10.4841 7.90419 10.4303C7.73774 10.4093 7.5693 10.4093 7.40284 10.4303C6.977 10.4841 6.65185 10.6855 6.39917 10.8866C6.17222 11.0673 5.92817 11.3115 5.6773 11.5624L4.00001 13.2399L4.00001 7.68C4.00001 6.8683 4.00152 6.34389 4.04607 5.95169C4.08831 5.57994 4.15815 5.45374 4.20985 5.38709C4.26126 5.32081 4.32081 5.26126 4.3871 5.20985C4.45375 5.15815 4.57994 5.08831 4.95169 5.04607C5.34389 5.00151 5.8683 5 6.68 5L17.32 5C18.1317 5 18.6561 5.00151 19.0483 5.04607C19.4201 5.08831 19.5463 5.15815 19.6129 5.20985C19.6792 5.26126 19.7387 5.32081 19.7902 5.38709C19.8419 5.45374 19.9117 5.57994 19.9539 5.95169C19.9985 6.34389 20 6.8683 20 7.68V16.32C20 16.8766 19.9993 17.2981 19.9845 17.6346L17.1803 14.8304C16.9294 14.5794 16.6854 14.3353 16.4584 14.1547C16.2058 13.9535 15.8806 13.7522 15.4548 13.6984C15.2883 13.6774 15.1199 13.6774 14.9535 13.6984C14.5276 13.7522 14.2025 13.9535 13.9498 14.1546C13.7229 14.3352 13.4788 14.5794 13.228 14.8303L13.0628 14.9954ZM18.5107 18.9892L11.8865 19L15.2041 15.7125L18.5107 18.9892Z" fill="currentColor"/>
</svg>
