<svg width="16" height="16" viewBox="0 0 16 16" fill="none" xmlns="http://www.w3.org/2000/svg">
<g clip-path="url(#clip0_1820_119)">
<path d="M8 4.00293C8.41421 4.00293 8.75 4.33872 8.75 4.75293V8.25293C8.75 8.66714 8.41421 9.00293 8 9.00293C7.58579 9.00293 7.25 8.66714 7.25 8.25293V4.75293C7.25 4.33872 7.58579 4.00293 8 4.00293Z" fill="#02050A"/>
<path d="M8.89927 10.852C8.89927 11.3484 8.49684 11.7508 8.00042 11.7508C7.50399 11.7508 7.10156 11.3484 7.10156 10.852C7.10156 10.3556 7.50399 9.95312 8.00042 9.95312C8.49684 9.95312 8.89927 10.3556 8.89927 10.852Z" fill="#02050A"/>
<path fill-rule="evenodd" clip-rule="evenodd" d="M8.39184 0.0323326C8.13468 -0.00426712 7.87362 -0.00426712 7.61646 0.0323326C7.09882 0.106004 6.6732 0.354633 6.26692 0.679743C5.87957 0.989708 5.44679 1.42251 4.92805 1.94127L1.94053 4.92879C1.42178 5.44752 0.988973 5.8803 0.679009 6.26766C0.3539 6.67394 0.105271 7.09955 0.0316002 7.61719C-0.00499954 7.87436 -0.00499954 8.13541 0.0316002 8.39257C0.105271 8.91021 0.3539 9.33583 0.67901 9.74211C0.988974 10.1295 1.42178 10.5622 1.94053 11.081L4.92808 14.0685C5.44679 14.5873 5.87958 15.0201 6.26692 15.33C6.6732 15.6551 7.09882 15.9038 7.61646 15.9774C7.87362 16.014 8.13468 16.014 8.39184 15.9774C8.90948 15.9038 9.3351 15.6551 9.74138 15.33C10.1287 15.0201 10.5615 14.5873 11.0802 14.0685L14.0678 11.081C14.5865 10.5622 15.0193 10.1295 15.3293 9.74211C15.6544 9.33583 15.903 8.91021 15.9767 8.39257C16.0133 8.13541 16.0133 7.87436 15.9767 7.61719C15.903 7.09955 15.6544 6.67393 15.3293 6.26765C15.0193 5.88031 14.5865 5.44753 14.0678 4.92881L11.0802 1.94127C10.5615 1.42251 10.1287 0.989707 9.74138 0.679742C9.3351 0.354632 8.90948 0.106004 8.39184 0.0323326ZM7.82793 1.51817C7.94482 1.50154 8.06348 1.50154 8.18037 1.51817C8.32368 1.53857 8.5006 1.60903 8.80368 1.85156C9.11829 2.10331 9.49254 2.47604 10.0488 3.03229L12.9767 5.96023C13.533 6.51649 13.9057 6.89074 14.1575 7.20536C14.4 7.50843 14.4705 7.68535 14.4909 7.82866C14.5075 7.94555 14.5075 8.06421 14.4909 8.1811C14.4705 8.32442 14.4 8.50133 14.1575 8.80441C13.9057 9.11902 13.533 9.49328 12.9767 10.0495L10.0488 12.9775C9.49255 13.5337 9.11829 13.9065 8.80368 14.1582C8.5006 14.4007 8.32368 14.4712 8.18037 14.4916C8.06348 14.5082 7.94482 14.5082 7.82793 14.4916C7.68462 14.4712 7.5077 14.4007 7.20462 14.1582C6.89001 13.9065 6.51576 13.5337 5.95951 12.9775L3.03156 10.0495C2.47531 9.49328 2.10258 9.11902 1.85083 8.80441C1.6083 8.50133 1.53784 8.32442 1.51744 8.1811C1.5008 8.06421 1.5008 7.94555 1.51744 7.82866C1.53784 7.68535 1.6083 7.50843 1.85083 7.20536C2.10258 6.89075 2.47531 6.51649 3.03156 5.96024L5.9595 3.03229C6.51575 2.47604 6.89001 2.10332 7.20462 1.85156C7.5077 1.60903 7.68462 1.53857 7.82793 1.51817Z" fill="#02050A"/>
</g>
<defs>
<clipPath id="clip0_1820_119">
<rect width="16" height="16" fill="white"/>
</clipPath>
</defs>
</svg>
