<svg width="36" height="36" viewBox="0 0 36 36" fill="none" xmlns="http://www.w3.org/2000/svg">
<path d="M12.1161 6.92365C12.3561 7.16581 12.4762 7.28688 12.603 7.30831C12.7299 7.32974 12.8773 7.25761 13.1722 7.11336C14.6297 6.40027 16.2681 6 18.0001 6C19.7321 6 21.3705 6.40027 22.828 7.11336C23.1229 7.25761 23.2703 7.32974 23.3972 7.30831C23.524 7.28688 23.6441 7.16581 23.8842 6.92365C23.9241 6.8834 23.9645 6.84367 24.0054 6.80447C24.4414 6.387 24.6594 6.17826 24.6294 5.97398C24.5994 5.7697 24.3666 5.65089 23.9009 5.41327C22.1301 4.50962 20.1246 4 18.0001 4C15.8756 4 13.8701 4.50962 12.0993 5.41327C11.6336 5.65089 11.4008 5.7697 11.3708 5.97398C11.3408 6.17826 11.5588 6.387 11.9948 6.80447C12.0357 6.84367 12.0761 6.8834 12.1161 6.92365Z" fill="currentColor"/>
<path d="M7.12487 18.6622C7.0756 18.3371 7.05096 18.1746 6.96096 18.0824C6.87096 17.9902 6.70266 17.9606 6.36605 17.9014C6.31136 17.8918 6.25691 17.8815 6.2027 17.8705C5.60984 17.7504 5.31341 17.6904 5.16281 17.8313C5.01222 17.9723 5.04712 18.2316 5.11692 18.7503C5.60279 22.3606 7.57061 25.5011 10.3881 27.5396C10.8353 27.8631 11.0589 28.0248 11.2587 27.9514C11.4586 27.878 11.5346 27.5678 11.6867 26.9474C11.7002 26.8924 11.7144 26.8376 11.7292 26.7832C11.8142 26.472 11.8567 26.3164 11.8168 26.2C11.7769 26.0836 11.6529 25.9905 11.4049 25.8044C9.15003 24.1126 7.56634 21.5748 7.12487 18.6622Z" fill="currentColor"/>
<path d="M24.1834 26.2C24.2233 26.0835 24.3473 25.9905 24.5954 25.8044C26.8502 24.1126 28.4339 21.5748 28.8753 18.6622C28.9246 18.3371 28.9492 18.1746 29.0392 18.0824C29.1292 17.9902 29.2975 17.9606 29.6342 17.9014C29.6888 17.8918 29.7433 17.8815 29.7975 17.8705C30.3904 17.7504 30.6868 17.6904 30.8374 17.8313C30.988 17.9723 30.9531 18.2316 30.8833 18.7503C30.3974 22.3606 28.4296 25.5011 25.6121 27.5396C25.1649 27.8631 24.9413 28.0248 24.7415 27.9514C24.5416 27.878 24.4656 27.5678 24.3135 26.9474C24.3 26.8924 24.2858 26.8376 24.271 26.7832C24.186 26.472 24.1435 26.3164 24.1834 26.2Z" fill="currentColor"/>
<path fill-rule="evenodd" clip-rule="evenodd" d="M7.5 7C5.01472 7 3 9.01472 3 11.5C3 13.9853 5.01472 16 7.5 16C9.98528 16 12 13.9853 12 11.5C12 9.01472 9.98528 7 7.5 7ZM5 11.5C5 10.1193 6.11929 9 7.5 9C8.88071 9 10 10.1193 10 11.5C10 12.8807 8.88071 14 7.5 14C6.11929 14 5 12.8807 5 11.5Z" fill="currentColor"/>
<path fill-rule="evenodd" clip-rule="evenodd" d="M13.5 28.5C13.5 26.0147 15.5147 24 18 24C20.4853 24 22.5 26.0147 22.5 28.5C22.5 30.9853 20.4853 33 18 33C15.5147 33 13.5 30.9853 13.5 28.5ZM18 26C16.6193 26 15.5 27.1193 15.5 28.5C15.5 29.8807 16.6193 31 18 31C19.3807 31 20.5 29.8807 20.5 28.5C20.5 27.1193 19.3807 26 18 26Z" fill="currentColor"/>
<path fill-rule="evenodd" clip-rule="evenodd" d="M28.5 7C26.0147 7 24 9.01472 24 11.5C24 13.9853 26.0147 16 28.5 16C30.9853 16 33 13.9853 33 11.5C33 9.01472 30.9853 7 28.5 7ZM26 11.5C26 10.1193 27.1193 9 28.5 9C29.8807 9 31 10.1193 31 11.5C31 12.8807 29.8807 14 28.5 14C27.1193 14 26 12.8807 26 11.5Z" fill="currentColor"/>
</svg>
