<svg width="24" height="24" viewBox="0 0 24 24" fill="none" xmlns="http://www.w3.org/2000/svg">
<path d="M8 1C7.44772 1 7 1.44772 7 2C7 2.55228 7.44772 3 8 3H16C16.5523 3 17 2.55228 17 2C17 1.44772 16.5523 1 16 1H8Z" fill="currentColor"/>
<path fill-rule="evenodd" clip-rule="evenodd" d="M7.9384 4.5H16.0616C16.7157 4.49994 17.3035 4.49989 17.7792 4.56384C18.2985 4.63367 18.8313 4.7958 19.2678 5.23224C19.7042 5.66868 19.8663 6.20149 19.9362 6.72085C20.0001 7.19656 20.0001 7.78427 20 8.4384L20 12.79C20 12.9208 20.1009 13.0281 20.2305 13.0455C20.6137 13.0971 21.051 13.2226 21.4142 13.5858C21.7774 13.949 21.903 14.3863 21.9545 14.7695C22.0002 15.1094 22.0001 15.5215 22 15.9456L22 17.0658C22.0001 17.9523 22.0001 18.7161 21.9179 19.3278C21.8297 19.9833 21.631 20.6117 21.1213 21.1213C20.6117 21.631 19.9833 21.8297 19.3278 21.9179C18.7161 22.0001 17.9523 22.0001 17.0658 22H6.93418C6.0477 22.0001 5.28388 22.0001 4.67222 21.9179C4.01671 21.8297 3.38836 21.631 2.87869 21.1213C2.36903 20.6117 2.17029 19.9833 2.08215 19.3278C1.99992 18.7161 1.99996 17.9523 2.00001 17.0658L2.00001 15.9456C1.99992 15.5215 1.99984 15.1094 2.04554 14.7695C2.09706 14.3863 2.22259 13.949 2.5858 13.5858C2.94902 13.2226 3.38629 13.0971 3.76949 13.0455C3.89908 13.0281 4.00001 12.9208 4.00001 12.7901L4 8.4384C3.99994 7.78428 3.99989 7.19656 4.06384 6.72085C4.13367 6.20149 4.2958 5.66868 4.73224 5.23224C5.16868 4.7958 5.70149 4.63367 6.22085 4.56384C6.69656 4.49989 7.28428 4.49994 7.9384 4.5ZM18 8.50001C18.0027 9.98446 18.0016 11.5657 18.0008 12.4014C18.0005 12.6835 18.0003 12.8245 17.9125 12.9123C17.8246 13 17.6834 13 17.401 13H14.9585C14.4701 13 14.0531 13.3529 13.9723 13.8346C13.8138 14.7797 12.99 15.5 12 15.5C11.01 15.5 10.1863 14.7797 10.0277 13.8346C9.9469 13.3529 9.52993 13 9.04149 13H6.60001C6.31716 13 6.17574 13 6.08788 12.9121C6.00001 12.8243 6.00001 12.6829 6.00001 12.4V8.50001C6.00001 7.5572 6.00001 7.08579 6.2929 6.7929C6.58579 6.50001 7.0572 6.50001 8.00001 6.50001H15.9956C16.9256 6.50001 17.3906 6.50001 17.6783 6.76686C17.6965 6.78377 17.7132 6.80043 17.7301 6.81863C17.9975 7.10583 17.9983 7.57055 18 8.50001ZM4.00001 17C4.00001 17.9711 4.00214 18.5988 4.06432 19.0613C4.12263 19.495 4.21678 19.631 4.29291 19.7071C4.36903 19.7832 4.50498 19.8774 4.93872 19.9357C5.40122 19.9979 6.02893 20 7.00001 20H17C17.9711 20 18.5988 19.9979 19.0613 19.9357C19.495 19.8774 19.631 19.7832 19.7071 19.7071C19.7832 19.631 19.8774 19.495 19.9357 19.0613C19.9979 18.5988 20 17.9711 20 17L20 16C20 15.5286 20 15.2929 19.8536 15.1465C19.7071 15 19.4714 15 19 15H16.383C16.0773 15 15.9245 15 15.811 15.0633C15.6974 15.1266 15.5998 15.2846 15.4045 15.6005C14.6999 16.7405 13.4391 17.5 12 17.5C10.5609 17.5 9.30018 16.7405 8.59553 15.6005C8.40023 15.2846 8.30258 15.1266 8.18907 15.0633C8.07556 15 7.92273 15 7.61706 15H5.00001C4.52861 15 4.29291 15 4.14646 15.1465C4.00001 15.2929 4.00001 15.5286 4.00001 16C4.00001 16.3543 4.00001 16.7313 4.00001 17Z" fill="currentColor"/>
</svg>
