<svg width="36" height="36" viewBox="0 0 36 36" fill="none" xmlns="http://www.w3.org/2000/svg">
<path d="M10.6965 8.51885C10.2279 8.52024 10.1387 7.85211 10.5914 7.73081L20.5691 5.05729C24.2118 4.08123 26.0332 3.59319 27.4681 4.42162C28.4412 4.98343 28.9788 6.0019 29.5285 7.73541C29.6493 8.11632 29.3605 8.50015 28.9609 8.50015C22.885 8.50017 16.7749 8.50083 10.6965 8.51885Z" fill="currentColor"/>
<path fill-rule="evenodd" clip-rule="evenodd" d="M3 19C3 15.2288 3 13.3431 4.17157 12.1716C5.34315 11 7.22876 11 11 11H25C28.7712 11 30.6569 11 31.8284 12.1716C33 13.3431 33 15.2288 33 19V23C33 26.7712 33 28.6569 31.8284 29.8284C30.6569 31 28.7712 31 25 31H11C7.22876 31 5.34315 31 4.17157 29.8284C3 28.6569 3 26.7712 3 23V19ZM7.47746 17.5305C7 18.1877 7 19.1251 7 21C7 22.8749 7 23.8123 7.47746 24.4695C7.63166 24.6817 7.8183 24.8683 8.03054 25.0225C8.6877 25.5 9.62513 25.5 11.5 25.5C13.3749 25.5 14.3123 25.5 14.9695 25.0225C15.1817 24.8683 15.3683 24.6817 15.5225 24.4695C16 23.8123 16 22.8749 16 21C16 19.1251 16 18.1877 15.5225 17.5305C15.3683 17.3183 15.1817 17.1317 14.9695 16.9775C14.3123 16.5 13.3749 16.5 11.5 16.5C9.62513 16.5 8.6877 16.5 8.03054 16.9775C7.8183 17.1317 7.63166 17.3183 7.47746 17.5305ZM20.5 17.5C19.8096 17.5 19.25 18.0596 19.25 18.75C19.25 19.4404 19.8096 20 20.5 20L27.5 20C28.1904 20 28.75 19.4404 28.75 18.75C28.75 18.0596 28.1904 17.5 27.5 17.5L20.5 17.5ZM20.5 22C19.8096 22 19.25 22.5596 19.25 23.25C19.25 23.9404 19.8096 24.5 20.5 24.5L27.5 24.5C28.1904 24.5 28.75 23.9404 28.75 23.25C28.75 22.5596 28.1904 22 27.5 22L20.5 22Z" fill="currentColor"/>
</svg>
