<svg width="36" height="36" viewBox="0 0 36 36" fill="none" xmlns="http://www.w3.org/2000/svg">
<path d="M25 4.99962C25.0002 4.44734 25.4481 3.99979 26.0004 4L31.9977 4.00225L32 9.99962C32.0002 10.5519 31.5527 10.9998 31.0004 11C30.4481 11.0002 30.0002 10.5527 30 10.0004L29.9991 7.51614C23.592 13.9396 15.4296 18.362 6.50919 20.2088L5.20293 20.4792C4.66212 20.5912 4.13293 20.2436 4.02097 19.7027C3.909 19.1619 4.25665 18.6327 4.79747 18.5208L6.10373 18.2503C14.6879 16.4731 22.5384 12.2037 28.6852 6.00101L25.9996 6C25.4473 5.99979 24.9998 5.55191 25 4.99962Z" fill="currentColor"/>
<path fill-rule="evenodd" clip-rule="evenodd" d="M24 30.7C24 30.8657 23.8657 31 23.7 31H22.3C22.1343 31 22 30.8657 22 30.7V21.3874C22 20.0223 20.6626 19.0584 19.3675 19.4901L15.3675 20.8234C14.5509 21.0956 14 21.8599 14 22.7208L14 30.7C14 30.8657 13.8657 31 13.7 31H12.3C12.1343 31 12 30.8657 12 30.7V26.3874C12 25.0223 10.6626 24.0584 9.36754 24.4901L5.36755 25.8234C4.55086 26.0956 4 26.8599 4 27.7208L4 30.7C4 30.8657 3.86569 31 3.7 31H2.5C1.94772 31 1.5 31.4477 1.5 32C1.5 32.5523 1.94772 33 2.5 33H33.5C34.0523 33 34.5 32.5523 34.5 32C34.5 31.4477 34.0523 31 33.5 31H32.3C32.1343 31 32 30.8657 32 30.7V16.3874C32 15.0223 30.6626 14.0584 29.3675 14.4901L25.3675 15.8234C24.5509 16.0956 24 16.8599 24 17.7208V30.7ZM30 30.7C30 30.8657 29.8657 31 29.7 31H26.3C26.1343 31 26 30.8657 26 30.7V17.937C26 17.8079 26.0826 17.6932 26.2051 17.6524L29.6051 16.519C29.7994 16.4543 30 16.5989 30 16.8037V30.7ZM20 30.7C20 30.8657 19.8657 31 19.7 31H16.3C16.1343 31 16 30.8657 16 30.7L16 22.937C16 22.8079 16.0826 22.6932 16.2051 22.6524L19.6051 21.5191C19.7994 21.4543 20 21.5989 20 21.8037V30.7ZM10 30.7C10 30.8657 9.86569 31 9.7 31H6.3C6.13431 31 6 30.8657 6 30.7L6 27.937C6 27.8079 6.08263 27.6932 6.20513 27.6524L9.60513 26.5191C9.79939 26.4543 10 26.5989 10 26.8037V30.7Z" fill="currentColor"/>
</svg>
