<svg width="24" height="24" viewBox="0 0 24 24" fill="none" xmlns="http://www.w3.org/2000/svg">
<path d="M20.1111 20.6629C19.6067 21 18.9045 21 17.5 21L6.5 21C5.09554 21 4.39331 21 3.88886 20.6629C3.67048 20.517 3.48298 20.3295 3.33706 20.1111C3 19.6067 3 18.9045 3 17.5L3 17C3 16.0681 3 15.6022 3.15224 15.2346C3.35523 14.7446 3.74458 14.3552 4.23463 14.1522C4.46023 14.0588 4.7229 14.0227 5.10763 14.0088C5.41864 13.9975 5.57414 13.9919 5.69755 14.0621C5.74671 14.09 5.77778 14.1146 5.81632 14.156C5.91306 14.2599 5.95485 14.47 6.03843 14.8902C6.19624 15.6836 6.81644 16.3038 7.60982 16.4616C7.80302 16.5 8.03535 16.5 8.5 16.5L15.5 16.5C15.9647 16.5 16.197 16.5 16.3902 16.4616C17.1836 16.3038 17.8038 15.6836 17.9616 14.8902C18.0452 14.47 18.0869 14.2599 18.1837 14.156C18.2222 14.1146 18.2533 14.09 18.3025 14.0621C18.4259 13.9919 18.5814 13.9975 18.8924 14.0088C19.2771 14.0227 19.5398 14.0588 19.7654 14.1522C20.2554 14.3552 20.6448 14.7446 20.8478 15.2346C21 15.6022 21 16.0681 21 16.9999V17.5C21 18.9045 21 19.6067 20.6629 20.1111C20.517 20.3295 20.3295 20.517 20.1111 20.6629Z" fill="currentColor"/>
<path d="M11.1913 2.60045L8.44019 5.62663C8.11908 5.97984 7.87045 6.25334 7.71968 6.47603C7.56942 6.69796 7.49317 6.90279 7.58145 7.10236C7.66973 7.30193 7.87259 7.38329 8.13788 7.4214C8.40407 7.45963 8.77369 7.45963 9.25102 7.45963H9.9001V13.3679C9.9001 13.6913 9.9001 13.9443 9.92662 14.1416C9.95374 14.3433 10.0102 14.5017 10.1344 14.6258C10.2586 14.75 10.417 14.8065 10.6187 14.8336C10.816 14.8602 11.069 14.8602 11.3924 14.8602H12.6078C12.9312 14.8602 13.1842 14.8602 13.3815 14.8336C13.5832 14.8065 13.7416 14.75 13.8658 14.6258C13.99 14.5017 14.0465 14.3433 14.0736 14.1416C14.1001 13.9443 14.1001 13.6913 14.1001 13.3678V7.45963H14.7487C15.2261 7.45963 15.5957 7.45963 15.8619 7.42139C16.1272 7.38329 16.33 7.30193 16.4183 7.10236C16.5066 6.90279 16.4303 6.69796 16.2801 6.47602C16.1293 6.25335 15.8807 5.97986 15.5596 5.62668L12.8085 2.60046C12.6401 2.4152 12.5066 2.26832 12.3871 2.16877C12.2642 2.06633 12.1435 2.00293 11.9999 2.00293C11.8562 2.00293 11.7355 2.06633 11.6126 2.16877C11.4932 2.26832 11.3597 2.41519 11.1913 2.60045Z" fill="currentColor"/>
</svg>
