<svg width="24" height="24" viewBox="0 0 24 24" fill="none" xmlns="http://www.w3.org/2000/svg">
<path d="M20.9998 19C20.9998 20.1046 20.1043 21 18.9998 21H4.99976C3.89519 21 2.99976 20.1046 2.99976 19L2.99976 16C2.99976 14.8954 3.89519 14 4.99976 14H5.99976V15C5.99976 16.1046 6.89519 17 7.99976 17H15.9998C17.1043 17 17.9998 16.1046 17.9998 15V14H18.9998C20.1043 14 20.9998 14.8954 20.9998 16V19Z" fill="currentColor"/>
<path d="M7.76016 6.42366L11.6299 2.16696C11.8283 1.94874 12.1714 1.94874 12.3698 2.16696L16.2396 6.42366C16.5315 6.74484 16.3037 7.25999 15.8696 7.25999H13.9999V14.3C13.9999 14.6866 13.6865 15 13.2999 15H10.6999C10.3133 15 9.99986 14.6866 9.99986 14.3V7.25999H8.13013C7.69606 7.25999 7.46818 6.74484 7.76016 6.42366Z" fill="currentColor"/>
</svg>
