<svg width="24" height="24" viewBox="0 0 24 24" fill="none" xmlns="http://www.w3.org/2000/svg">
<path d="M2 5.7002C2 4.59563 2.89543 3.7002 4 3.7002C5.10457 3.7002 6 4.59563 6 5.7002C6 6.80476 5.10457 7.7002 4 7.7002C2.89543 7.7002 2 6.80477 2 5.7002Z" fill="currentColor"/>
<path d="M22 5.70039C22 4.76151 21.2389 4.00039 20.3 4.00039L9.7 4.00039C8.76112 4.00039 8 4.76151 8 5.70039C8 6.63927 8.76112 7.40039 9.7 7.40039H20.3C21.2389 7.40039 22 6.63927 22 5.70039Z" fill="currentColor"/>
<path d="M2 12C2 10.8954 2.89543 10 4 10C5.10457 10 6 10.8954 6 12C6 13.1046 5.10457 14 4 14C2.89543 14 2 13.1046 2 12Z" fill="currentColor"/>
<path d="M20.3 10.3002C21.2389 10.3002 22 11.0613 22 12.0002C22 12.9391 21.2389 13.7002 20.3 13.7002H9.7C8.76112 13.7002 8 12.9391 8 12.0002C8 11.0613 8.76112 10.3002 9.7 10.3002H20.3Z" fill="currentColor"/>
<path d="M22 18.3C22 17.3611 21.2389 16.6 20.3 16.6H9.7C8.76112 16.6 8 17.3611 8 18.3C8 19.2389 8.76112 20 9.7 20H20.3C21.2389 20 22 19.2389 22 18.3Z" fill="currentColor"/>
<path d="M2 18.2998C2 17.1952 2.89543 16.2998 4 16.2998C5.10457 16.2998 6 17.1952 6 18.2998C6 19.4044 5.10457 20.2998 4 20.2998C2.89543 20.2998 2 19.4044 2 18.2998Z" fill="currentColor"/>
</svg>
