<svg width="36" height="36" viewBox="0 0 36 36" fill="none" xmlns="http://www.w3.org/2000/svg">
<path fill-rule="evenodd" clip-rule="evenodd" d="M11.9384 16H15.0616C15.7157 15.9999 16.3035 15.9999 16.7792 16.0638C17.2985 16.1337 17.8313 16.2958 18.2678 16.7322C18.7042 17.1687 18.8664 17.7015 18.9362 18.2209C19.0001 18.6966 19.0001 19.2843 19 19.9384V22.0616C19.0001 22.7157 19.0001 23.3035 18.9362 23.7792C18.8664 24.2985 18.7042 24.8313 18.2678 25.2678C17.8313 25.7042 17.2985 25.8664 16.7792 25.9362C16.3035 26.0001 15.7157 26.0001 15.0616 26H11.9384C11.2843 26.0001 10.6966 26.0001 10.2209 25.9362C9.7015 25.8664 9.16868 25.7042 8.73225 25.2678C8.29581 24.8313 8.13367 24.2985 8.06385 23.7792C7.99989 23.3035 7.99995 22.7157 8.00001 22.0616V19.9384C7.99995 19.2843 7.99989 18.6966 8.06385 18.2209C8.13367 17.7015 8.29581 17.1687 8.73225 16.7322C9.16868 16.2958 9.7015 16.1337 10.2209 16.0638C10.6966 15.9999 11.2843 15.9999 11.9384 16ZM10.4874 18.046C10.2005 18.0846 10.1526 18.1394 10.1469 18.1459L10.1459 18.1469C10.1394 18.1526 10.0846 18.2005 10.046 18.4874C10.0021 18.8137 10 19.2646 10 20V22C10 22.7354 10.0021 23.1863 10.046 23.5127C10.0846 23.7995 10.1394 23.8474 10.1459 23.8531L10.1469 23.8541C10.1526 23.8606 10.2005 23.9154 10.4874 23.954C10.8137 23.9979 11.2646 24 12 24H15C15.7354 24 16.1863 23.9979 16.5127 23.954C16.7995 23.9154 16.8474 23.8606 16.8531 23.8541L16.8541 23.8531C16.8606 23.8474 16.9154 23.7995 16.954 23.5127C16.9979 23.1863 17 22.7354 17 22L17 20C17 19.2646 16.9979 18.8137 16.954 18.4874C16.9154 18.2005 16.8606 18.1526 16.8541 18.1469L16.8531 18.1459C16.8474 18.1394 16.7995 18.0846 16.5127 18.046C16.1863 18.0021 15.7354 18 15 18H12C11.2646 18 10.8137 18.0021 10.4874 18.046Z" fill="currentColor"/>
<path d="M9 12C9 11.4477 9.44772 11 10 11L17 11C17.5523 11 18 11.4477 18 12C18 12.5523 17.5523 13 17 13L10 13C9.44772 13 9 12.5523 9 12Z" fill="currentColor"/>
<path d="M21.5 20C21.5 19.4477 21.9477 19 22.5 19L27.5 19C28.0523 19 28.5 19.4477 28.5 20C28.5 20.5523 28.0523 21 27.5 21L22.5 21C21.9477 21 21.5 20.5523 21.5 20Z" fill="currentColor"/>
<path d="M21.5 24C21.5 23.4477 21.9477 23 22.5 23H27.5C28.0523 23 28.5 23.4477 28.5 24C28.5 24.5523 28.0523 25 27.5 25H22.5C21.9477 25 21.5 24.5523 21.5 24Z" fill="currentColor"/>
<path fill-rule="evenodd" clip-rule="evenodd" d="M32.8812 27.4251C33.0001 26.5413 33 25.4247 33 24.0706L33 17.0711C33 15.8448 33 15.2317 32.7716 14.6804C32.5433 14.1291 32.1097 13.6955 31.2427 12.8284L25.1716 6.75736C24.3045 5.89027 23.8709 5.45672 23.3196 5.22836C22.7683 5 22.1552 5 20.9289 5L9.92943 5C8.57532 4.99997 7.45869 4.99993 6.57494 5.11875C5.64711 5.2435 4.82768 5.51546 4.17158 6.17157C3.51547 6.82768 3.2435 7.64711 3.11875 8.57494C2.99994 9.45869 2.99997 10.5753 3 11.9294L3 24.0706C2.99996 25.4247 2.99994 26.5413 3.11875 27.4251C3.2435 28.3529 3.51547 29.1723 4.17157 29.8284C4.82768 30.4845 5.64711 30.7565 6.57494 30.8812C7.45868 31.0001 8.5753 31 9.92938 31L26.0706 31C27.4247 31 28.5413 31.0001 29.4251 30.8813C30.3529 30.7565 31.1723 30.4845 31.8284 29.8284C32.4845 29.1723 32.7565 28.3529 32.8812 27.4251ZM30.8828 16.1172C30.7657 16 30.5771 16 30.2 16L26.9341 16C26.0477 16.0001 25.2838 16.0001 24.6722 15.9179C24.0167 15.8297 23.3883 15.631 22.8787 15.1213C22.369 14.6117 22.1702 13.9833 22.0821 13.3278C21.9999 12.7161 21.9999 11.9523 22 11.0658L22 7.8C22 7.42288 22 7.23432 21.8828 7.11716C21.7657 7 21.5771 7 21.2 7L10 7C8.55752 7 7.57625 7.00212 6.84143 7.10092C6.13538 7.19584 5.80836 7.36322 5.58579 7.58579C5.36322 7.80836 5.19585 8.13538 5.10092 8.84143C5.00212 9.57625 5 10.5575 5 12L5 24C5 25.4425 5.00212 26.4237 5.10092 27.1586C5.19585 27.8646 5.36322 28.1916 5.58579 28.4142C5.80836 28.6368 6.13538 28.8042 6.84143 28.8991C7.57625 28.9979 8.55752 29 10 29H26C27.4425 29 28.4237 28.9979 29.1586 28.8991C29.8646 28.8042 30.1916 28.6368 30.4142 28.4142C30.6368 28.1916 30.8042 27.8646 30.8991 27.1586C30.9979 26.4237 31 25.4425 31 24L31 16.8C31 16.4229 31 16.2343 30.8828 16.1172ZM24.1234 8.71228C24 8.76342 24 8.96891 24 9.3799V11C24 11.9711 24.0021 12.5988 24.0643 13.0613C24.1226 13.495 24.2167 13.631 24.2929 13.7071C24.369 13.7832 24.5049 13.8774 24.9387 13.9357C25.4012 13.9979 26.0289 14 27 14L28.6201 14C29.0311 14 29.2366 14 29.2877 13.8765C29.3388 13.7531 29.1935 13.6078 28.9029 13.3172L24.6828 9.09705C24.3922 8.80644 24.2469 8.66114 24.1234 8.71228Z" fill="currentColor"/>
</svg>
