<svg width="24" height="24" viewBox="0 0 24 24" fill="none" xmlns="http://www.w3.org/2000/svg">
<path fill-rule="evenodd" clip-rule="evenodd" d="M17.5775 7.36087C17.4625 4.38037 15.0109 2 12.0027 2C8.92046 2 6.42275 4.49772 6.42275 7.58V9.86752C5.1195 10.3943 4.24773 11.7398 4.40925 13.2328L5.04629 19.1011C5.2254 20.7507 6.61801 22.0002 8.27745 22.0002H15.7274C17.3869 22.0002 18.7795 20.7507 18.9586 19.1011L19.5956 13.2331C19.7572 11.7397 18.8852 10.394 17.5817 9.86736V7.58L17.5775 7.36087ZM15.5817 9.6322V7.58C15.5817 5.60241 13.9796 4 12.0027 4C10.0888 4 8.52651 5.50058 8.42771 7.38982L8.42275 7.58V9.6322H15.5817ZM12.0023 14.2121C12.5152 14.2121 12.9379 14.5981 12.9956 15.0955L13.0023 15.2121V16.7381C13.0023 17.2904 12.5546 17.7381 12.0023 17.7381C11.4895 17.7381 11.0668 17.3521 11.0091 16.8547L11.0023 16.7381V15.2121C11.0023 14.6598 11.4501 14.2121 12.0023 14.2121Z" fill="currentColor"/>
</svg>
