<svg width="24" height="24" viewBox="0 0 24 24" fill="none" xmlns="http://www.w3.org/2000/svg">
<path d="M8.99902 13.999L14.999 13.999C15.5513 13.999 15.999 13.5513 15.999 12.999C15.999 12.4467 15.5513 11.999 14.999 11.999H8.99902C8.44674 11.999 7.99902 12.4467 7.99902 12.999C7.99902 13.5513 8.44674 13.999 8.99902 13.999Z" fill="currentColor"/>
<path fill-rule="evenodd" clip-rule="evenodd" d="M20.1604 2.0194C20.4903 2.0419 20.8202 2.0914 21.1461 2.22641C21.8812 2.53089 22.4652 3.11491 22.7697 3.85C22.9047 4.17592 22.9542 4.50583 22.9767 4.83566C22.9981 5.14892 22.9981 5.52741 22.998 5.96606V6.03004C22.9981 6.46869 22.9981 6.84717 22.9767 7.16043C22.9542 7.49026 22.9047 7.82017 22.7697 8.1461C22.4652 8.88118 21.8812 9.4652 21.1461 9.76969C21.0588 9.80586 20.9981 9.88888 20.9981 9.9834L20.9981 17.0639C20.9981 17.9504 20.9981 18.7142 20.9159 19.3258C20.8278 19.9814 20.629 20.6097 20.1194 21.1194C19.6097 21.629 18.9814 21.8278 18.3258 21.9159C17.7142 21.9981 16.9504 21.9981 16.0639 21.998H7.93222C7.04574 21.9981 6.28192 21.9981 5.67026 21.9159C5.01475 21.8278 4.3864 21.629 3.87673 21.1194C3.36707 20.6097 3.16833 19.9814 3.08019 19.3258C2.99796 18.7142 2.998 17.9504 2.99805 17.0639L2.99805 9.98341C2.99805 9.88888 2.93734 9.80586 2.85 9.76969C2.11492 9.46521 1.53089 8.88118 1.22641 8.1461C1.09141 7.82017 1.0419 7.49026 1.0194 7.16043C0.998029 6.8472 0.998037 6.46868 0.998047 6.03009L0.998047 5.96597C0.998037 5.52739 0.998029 5.14889 1.0194 4.83567C1.0419 4.50584 1.09141 4.17593 1.22641 3.85C1.53089 3.11492 2.11492 2.53089 2.85 2.22641C3.17593 2.09141 3.50584 2.0419 3.83567 2.0194C4.1489 1.99803 4.52746 1.99804 4.96607 1.99805L19.03 1.99805C19.4687 1.99803 19.8472 1.99802 20.1604 2.0194ZM20.0243 4.01476C19.7873 3.99859 19.4777 3.99805 18.998 3.99805L4.99805 3.99805C4.51843 3.99805 4.20879 3.99859 3.97181 4.01476C3.74381 4.03032 3.65698 4.05693 3.61537 4.07417C3.37034 4.17566 3.17566 4.37034 3.07417 4.61537C3.05693 4.65698 3.03032 4.74381 3.01476 4.97181C2.99859 5.20879 2.99805 5.51842 2.99805 5.99805C2.99805 6.47767 2.99859 6.78731 3.01476 7.02429C3.03032 7.25229 3.05693 7.33912 3.07417 7.38073C3.17566 7.62576 3.37034 7.82044 3.61537 7.92193C3.65698 7.93917 3.74381 7.96578 3.97181 7.98134C4.20879 7.99751 4.51843 7.99805 4.99805 7.99805L18.998 7.99805C19.4777 7.99805 19.7873 7.9975 20.0243 7.98134C20.2523 7.96578 20.3391 7.93916 20.3807 7.92193C20.6258 7.82043 20.8204 7.62576 20.9219 7.38073C20.9392 7.33912 20.9658 7.25228 20.9813 7.02429C20.9975 6.78731 20.998 6.47767 20.998 5.99805C20.998 5.51842 20.9975 5.20879 20.9813 4.97181C20.9658 4.74381 20.9392 4.65698 20.9219 4.61536C20.8204 4.37034 20.6258 4.17566 20.3807 4.07417C20.3391 4.05693 20.2523 4.03031 20.0243 4.01476ZM4.99805 16.998L4.99805 10.298C4.99805 10.1324 5.13237 9.99805 5.29805 9.99805L18.6981 9.99805C18.8637 9.99805 18.9981 10.1324 18.9981 10.298L18.9981 16.998C18.9981 17.9691 18.9959 18.5968 18.9338 19.0593C18.8754 19.4931 18.7813 19.629 18.7052 19.7052C18.629 19.7813 18.4931 19.8754 18.0594 19.9337C17.5968 19.9959 16.9691 19.998 15.9981 19.998H7.99805C7.02698 19.998 6.39926 19.9959 5.93676 19.9337C5.50302 19.8754 5.36707 19.7813 5.29095 19.7052C5.21482 19.629 5.12067 19.4931 5.06236 19.0593C5.00018 18.5968 4.99805 17.9691 4.99805 16.998Z" fill="currentColor"/>
</svg>
