<svg width="24" height="24" viewBox="0 0 24 24" fill="currentColor" xmlns="http://www.w3.org/2000/svg">
    <path d="M16.2929 17.7071C16.6834 18.0976 17.3166 18.0976 17.7071 17.7071C18.0976 17.3166 18.0976 16.6834 17.7071 16.2929L13.6264 12.2122C13.5092 12.095 13.5092 11.9051 13.6264 11.7879L17.7072 7.70711C18.0977 7.31658 18.0977 6.68342 17.7072 6.29289C17.3166 5.90237 16.6835 5.90237 16.293 6.29289L12.2122 10.3737C12.095 10.4908 11.9051 10.4908 11.7879 10.3737L7.70711 6.29289C7.31658 5.90237 6.68342 5.90237 6.29289 6.29289C5.90237 6.68342 5.90237 7.31658 6.29289 7.70711L10.3737 11.7879C10.4908 11.9051 10.4908 12.095 10.3737 12.2122L6.29295 16.2929C5.90243 16.6834 5.90243 17.3166 6.29295 17.7071C6.68348 18.0976 7.31664 18.0976 7.70717 17.7071L11.7879 13.6264C11.9051 13.5092 12.095 13.5092 12.2122 13.6264L16.2929 17.7071Z" />
    <path d="M16.2929 17.7071C16.6834 18.0976 17.3166 18.0976 17.7071 17.7071C18.0976 17.3166 18.0976 16.6834 17.7071 16.2929L13.6264 12.2122C13.5092 12.095 13.5092 11.9051 13.6264 11.7879L17.7072 7.70711C18.0977 7.31658 18.0977 6.68342 17.7072 6.29289C17.3166 5.90237 16.6835 5.90237 16.293 6.29289L12.2122 10.3737C12.095 10.4908 11.9051 10.4908 11.7879 10.3737L7.70711 6.29289C7.31658 5.90237 6.68342 5.90237 6.29289 6.29289C5.90237 6.68342 5.90237 7.31658 6.29289 7.70711L10.3737 11.7879C10.4908 11.9051 10.4908 12.095 10.3737 12.2122L6.29295 16.2929C5.90243 16.6834 5.90243 17.3166 6.29295 17.7071C6.68348 18.0976 7.31664 18.0976 7.70717 17.7071L11.7879 13.6264C11.9051 13.5092 12.095 13.5092 12.2122 13.6264L16.2929 17.7071Z" fill-opacity="0.64"/>
</svg>
