<svg width="24" height="24" viewBox="0 0 24 24" fill="currentColor" xmlns="http://www.w3.org/2000/svg">
    <path fill-rule="evenodd" clip-rule="evenodd" d="M6.29289 12.2901C6.68342 11.8996 7.31658 11.8996 7.70711 12.2901L9.43724 14.0202C9.70392 14.2868 9.83727 14.4202 10.003 14.4202C10.1686 14.4202 10.302 14.2868 10.5686 14.0201L17.2902 7.29782C17.6807 6.90727 18.3138 6.90723 18.7044 7.29774C19.0949 7.68824 19.095 8.3214 18.7045 8.71195L10.7101 16.7072C10.5226 16.8947 10.2683 17.0001 10.003 17.0001C9.7378 17.0001 9.48344 16.8948 9.29589 16.7072L6.29289 13.7043C5.90237 13.3138 5.90237 12.6807 6.29289 12.2901Z" />
</svg>
