<svg width="24" height="24" viewBox="0 0 24 24" fill="currentColor" xmlns="http://www.w3.org/2000/svg">
    <path d="M13.5995 9.00006C14.8057 9.00004 15.4089 9.00003 15.7003 9.28594C15.8598 9.44249 15.9624 9.64805 15.9915 9.86977C16.0446 10.2747 15.6821 10.7571 14.9571 11.7219L13.354 13.855C12.8469 14.5299 12.5933 14.8673 12.2705 14.9595C12.0914 15.0106 11.9016 15.0106 11.7225 14.9595C11.3997 14.8673 11.1461 14.5299 10.639 13.855L9.03601 11.7219C8.31103 10.7572 7.94854 10.2748 8.00169 9.86989C8.0308 9.64817 8.13332 9.44261 8.29288 9.28607C8.58428 9.00016 9.18736 9.00014 10.3935 9.00012L13.5995 9.00006Z" />
</svg>
