<svg width="36" height="36" viewBox="0 0 36 36" fill="none" xmlns="http://www.w3.org/2000/svg">
<path d="M27.5514 22.0879C27.6393 22.1757 27.6393 22.3172 27.6393 22.6V25.1812C27.6393 25.2166 27.6393 25.2342 27.6375 25.2506C27.6278 25.3385 27.5799 25.4176 27.5065 25.4669C27.4928 25.476 27.4772 25.4842 27.4458 25.5006C27.0108 25.728 26.1487 26 25.0734 26C23.9736 26 23.0926 25.7576 22.4922 25.1585C21.8917 24.5592 21.6426 23.6738 21.6426 22.5519C21.6426 21.4225 21.8762 20.5104 22.4871 19.8866C23.0995 19.2614 24.0179 19 25.2117 19C26.0991 19 26.6862 19.1537 27.0168 19.2983C27.0516 19.3136 27.069 19.3212 27.0841 19.33C27.1655 19.3776 27.2198 19.4606 27.2307 19.5541C27.2328 19.5715 27.2328 19.5905 27.2328 19.6285V21.2707C27.2328 21.4278 27.2328 21.5063 27.1819 21.535C27.131 21.5637 27.0638 21.5231 26.9293 21.4419L26.686 21.2949C26.3306 21.0801 25.8768 20.9403 25.3069 20.9403C24.6729 20.9403 24.3346 21.0712 24.1429 21.2707C23.9478 21.4737 23.825 21.8294 23.825 22.4741C23.825 23.1467 23.9555 23.5222 24.1475 23.7333C24.3315 23.9357 24.6399 24.0597 25.1858 24.0597C25.3385 24.0597 25.5374 24.0495 25.6837 24.0338C25.7373 24.0281 25.7641 24.0252 25.7821 24.0053C25.8 23.9853 25.8 23.9571 25.8 23.9006V23.7529C25.8 23.6869 25.8 23.6539 25.7795 23.6334C25.759 23.6129 25.726 23.6129 25.66 23.6129H25.1832C24.9004 23.6129 24.759 23.6129 24.6711 23.525C24.5832 23.4371 24.5832 23.2957 24.5832 23.0129V22.6C24.5832 22.3172 24.5832 22.1757 24.6711 22.0879C24.759 22 24.9004 22 25.1832 22H27.0393C27.3221 22 27.4635 22 27.5514 22.0879Z" fill="currentColor"/>
<path fill-rule="evenodd" clip-rule="evenodd" d="M8.93355 19.1194C8.66275 19.132 8.52736 19.1382 8.44434 19.2252C8.36133 19.3121 8.36133 19.4477 8.36133 19.7188L8.36133 25.2876C8.36133 25.5704 8.36133 25.7118 8.4492 25.7997C8.53707 25.8876 8.67849 25.8876 8.96133 25.8876H9.90054C10.1834 25.8876 10.3248 25.8876 10.4127 25.7997C10.5005 25.7118 10.5005 25.5704 10.5005 25.2876V24.395C10.5005 24.2983 10.5005 24.2499 10.5301 24.2205C10.5596 24.1912 10.6089 24.1915 10.7075 24.1922L10.7629 24.1923C11.7152 24.1923 12.4799 24.008 13.0063 23.549C13.544 23.0802 13.7612 22.3899 13.7612 21.5486C13.7612 20.7308 13.5728 20.0683 13.0342 19.6318C12.5168 19.2125 11.7533 19.0692 10.7802 19.0692C9.9971 19.0692 9.57459 19.0892 8.98415 19.1171L8.93355 19.1194ZM11.4341 22.1421C11.3501 22.2216 11.1702 22.304 10.7629 22.304L10.6929 22.3037C10.6033 22.303 10.5586 22.3026 10.5295 22.2734C10.5005 22.2441 10.5005 22.1984 10.5005 22.1069V21.1548C10.5005 21.0625 10.5005 21.0163 10.5298 20.987C10.559 20.9577 10.6047 20.9577 10.696 20.9576L10.7542 20.9576C11.1973 20.9576 11.3744 21.0394 11.4502 21.1106C11.5181 21.1745 11.5788 21.3005 11.5788 21.6178C11.5788 21.9277 11.5124 22.068 11.4341 22.1421Z" fill="currentColor"/>
<path d="M15.2471 19.1124C14.9643 19.1124 14.8229 19.1124 14.735 19.2003C14.6471 19.2882 14.6471 19.4296 14.6471 19.7124V25.2876C14.6471 25.5704 14.6471 25.7118 14.735 25.7997C14.8229 25.8876 14.9643 25.8876 15.2471 25.8876H16.1431C16.4259 25.8876 16.5674 25.8876 16.6552 25.7997C16.7431 25.7118 16.7431 25.5704 16.7431 25.2876V23.1666C16.7431 23.0261 16.7431 22.9558 16.7792 22.9454C16.8154 22.9349 16.8528 22.9944 16.9277 23.1134L18.4982 25.6073C18.5845 25.7443 18.6277 25.8128 18.6953 25.8502C18.763 25.8876 18.844 25.8876 19.0059 25.8876H20.113C20.3959 25.8876 20.5373 25.8876 20.6252 25.7997C20.713 25.7118 20.713 25.5704 20.713 25.2876V19.7124C20.713 19.4296 20.713 19.2882 20.6252 19.2003C20.5373 19.1124 20.3959 19.1124 20.113 19.1124H19.2084C18.9256 19.1124 18.7841 19.1124 18.6963 19.2003C18.6084 19.2882 18.6084 19.4296 18.6084 19.7124V21.7316C18.6084 21.8719 18.6084 21.9421 18.5723 21.9525C18.5362 21.963 18.4987 21.9036 18.4238 21.785L16.9137 19.3922C16.8273 19.2554 16.7842 19.187 16.7165 19.1497C16.6489 19.1124 16.568 19.1124 16.4063 19.1124H15.2471Z" fill="currentColor"/>
<path fill-rule="evenodd" clip-rule="evenodd" d="M11.9294 3L18.9289 3C20.1552 3 20.7683 3 21.3196 3.22837C21.8709 3.45673 22.3045 3.89027 23.1716 4.75736L29.2426 10.8284C30.1097 11.6955 30.5433 12.1291 30.7716 12.6804C31 13.2317 31 13.8448 31 15.0711V26.0706C31 27.4247 31.0001 28.5413 30.8813 29.4251C30.7565 30.3529 30.4845 31.1723 29.8284 31.8284C29.1723 32.4845 28.3529 32.7565 27.4251 32.8813C26.5413 33.0001 25.4247 33 24.0706 33H11.9294C10.5753 33 9.4587 33.0001 8.57494 32.8813C7.64711 32.7565 6.82769 32.4845 6.17158 31.8284C5.51547 31.1723 5.2435 30.3529 5.11876 29.4251C4.99994 28.5413 4.99997 27.4247 5 26.0706V9.9294C4.99997 8.57531 4.99994 7.45868 5.11876 6.57494C5.2435 5.64711 5.51547 4.82769 6.17158 4.17158C6.82769 3.51547 7.64711 3.2435 8.57494 3.11876C9.45868 2.99994 10.5753 2.99997 11.9294 3ZM19.8828 5.11716C20 5.23432 20 5.42288 20 5.80001L20 9.06586C20 9.95235 19.9999 10.7162 20.0821 11.3278C20.1703 11.9833 20.369 12.6117 20.8787 13.1214C21.3884 13.631 22.0167 13.8298 22.6722 13.9179C23.2839 14.0001 24.0477 14.0001 24.9342 14L28.2 14C28.5771 14 28.7657 14 28.8828 14.1172C29 14.2343 29 14.4229 29 14.8V26C29 27.4425 28.9979 28.4238 28.8991 29.1586C28.8042 29.8646 28.6368 30.1916 28.4142 30.4142C28.1916 30.6368 27.8646 30.8042 27.1586 30.8991C26.4238 30.9979 25.4425 31 24 31H12C10.5575 31 9.57626 30.9979 8.84144 30.8991C8.13538 30.8042 7.80836 30.6368 7.58579 30.4142C7.36322 30.1916 7.19585 29.8646 7.10092 29.1586C7.00213 28.4238 7 27.4425 7 26V10C7 8.55752 7.00213 7.57626 7.10092 6.84144C7.19585 6.13538 7.36322 5.80836 7.58579 5.58579C7.80836 5.36322 8.13538 5.19585 8.84144 5.10092C9.57626 5.00213 10.5575 5 12 5H19.2C19.5771 5 19.7657 5 19.8828 5.11716ZM27.2877 11.8766C27.2366 12 27.0311 12 26.6201 12H25C24.0289 12 23.4012 11.9979 22.9387 11.9357C22.505 11.8774 22.369 11.7833 22.2929 11.7071C22.2168 11.631 22.1226 11.4951 22.0643 11.0613C22.0021 10.5988 22 9.97111 22 9.00003V7.37993C22 6.96894 22 6.76345 22.1235 6.71231C22.2469 6.66117 22.3922 6.80648 22.6829 7.09709L26.903 11.3172C27.1936 11.6078 27.3389 11.7531 27.2877 11.8766Z" fill="currentColor"/>
</svg>
