<svg width="16" height="16" viewBox="0 0 16 16" fill="none" xmlns="http://www.w3.org/2000/svg">
<path fill-rule="evenodd" clip-rule="evenodd" d="M6.71765 2.2014L1.07199 11.7514C0.691092 12.3957 0.500643 12.7178 0.495777 12.9815C0.48901 13.3482 0.68332 13.6891 1.00211 13.8699C1.23139 14 1.60545 14 2.35357 14L13.6382 14C14.3859 14 14.7598 14 14.989 13.87C15.3077 13.6892 15.5021 13.3485 15.4954 12.9819C15.4907 12.7183 15.3005 12.3962 14.9201 11.752L9.28119 2.20206C8.91231 1.57733 8.72786 1.26496 8.50387 1.13391C8.19244 0.951713 7.80705 0.951613 7.49553 1.13365C7.27146 1.26458 7.08685 1.57686 6.71765 2.2014ZM7.25 4.5V9C7.25 9.41421 7.58579 9.75 8 9.75C8.41421 9.75 8.75 9.41421 8.75 9V4.5H7.25ZM8.89927 11.602C8.89927 12.0984 8.49684 12.5008 8.00042 12.5008C7.50399 12.5008 7.10156 12.0984 7.10156 11.602C7.10156 11.1056 7.50399 10.7031 8.00042 10.7031C8.49684 10.7031 8.89927 11.1056 8.89927 11.602Z" fill="currentColor"/>
</svg>
