<svg width="24" height="24" viewBox="0 0 24 24" fill="none" xmlns="http://www.w3.org/2000/svg">
<path fill-rule="evenodd" clip-rule="evenodd" d="M4.73175 2.73223C3.99951 3.46447 3.99951 4.64298 3.99951 7L3.99951 17C3.99951 19.357 3.99951 20.5355 4.73175 21.2678C5.46398 22 6.64249 22 8.99951 22H14.9995C17.3565 22 18.535 22 19.2673 21.2678C19.9995 20.5355 19.9995 19.357 19.9995 17V9.59981C19.9995 9.31996 19.9995 9.18004 19.9451 9.07314C19.8971 8.97895 19.8206 8.90238 19.7264 8.85443C19.6195 8.8 19.4795 8.8 19.1997 8.8C16.3713 8.8 14.9571 8.8 14.0784 7.92132C13.1997 7.04264 13.1997 5.62843 13.1997 2.8C13.1997 2.51998 13.1997 2.37996 13.1452 2.27301C13.0973 2.17892 13.0208 2.10244 12.9267 2.0545C12.8197 2 12.6797 2 12.3997 2L8.99951 2C6.64249 2 5.46398 2 4.73175 2.73223ZM8.69951 16.0004C8.03677 16.0004 7.49951 16.5376 7.49951 17.2004C7.49951 17.8631 8.03677 18.4004 8.69951 18.4004H15.2993C15.9621 18.4004 16.4993 17.8631 16.4993 17.2004C16.4993 16.5377 15.9621 16.0004 15.2993 16.0004L8.69951 16.0004ZM7.49951 12.8C7.49951 12.1373 8.03677 11.6 8.69951 11.6L15.2993 11.6C15.9621 11.6 16.4993 12.1373 16.4993 12.8C16.4993 13.4627 15.9621 14 15.2993 14H8.69951C8.03677 14 7.49951 13.4627 7.49951 12.8ZM7.49951 8.39961C7.49951 7.73687 8.03677 7.19961 8.69951 7.19961H10.2995C10.9623 7.19961 11.4995 7.73687 11.4995 8.39961C11.4995 9.06235 10.9623 9.59961 10.2995 9.59961H8.69951C8.03677 9.59961 7.49951 9.06235 7.49951 8.39961Z" fill="currentColor"/>
<path d="M15.3093 2.0253C15 2.15341 15 2.66817 15 3.69769V4.59515C15 5.72881 15 6.29564 15.3522 6.64782C15.7044 7 16.2712 7 17.4048 7H18.3024C19.3319 7 19.8467 7 19.9748 6.69071C20.1029 6.38143 19.7389 6.01743 19.0109 5.28943L16.7105 2.98914C15.9826 2.26118 15.6186 1.89719 15.3093 2.0253Z" fill="currentColor"/>
</svg>
