<svg width="24" height="24" viewBox="0 0 24 24" fill="none" xmlns="http://www.w3.org/2000/svg">
<path fill-rule="evenodd" clip-rule="evenodd" d="M8 19.5C5.17157 19.5 3.75736 19.5 2.87868 18.6213C2 17.7426 2 16.3284 2 13.5L2 10.5C2 7.67157 2 6.25736 2.87868 5.37868C3.75736 4.5 5.17157 4.5 8 4.5L12 4.5C14.8284 4.5 16.2426 4.5 17.1213 5.37868C17.5446 5.80192 17.7639 6.3494 17.8776 7.11933C17.9439 7.56827 17.9771 7.79275 18.1157 7.84428C18.2542 7.89581 18.4183 7.75417 18.7465 7.47089L19.842 6.52532C21.1336 5.41042 21.7794 4.85297 22.3208 5.0364C22.3858 5.05839 22.4483 5.087 22.5073 5.12178C23 5.41182 23 6.26494 23 7.97117V16.0278C23 17.734 23 18.5871 22.5073 18.8771C22.4483 18.9119 22.3858 18.9405 22.3209 18.9625C21.7794 19.1459 21.1336 18.5885 19.842 17.4737L18.7466 16.5282C18.4184 16.2449 18.2543 16.1033 18.1157 16.1548C17.9771 16.2064 17.944 16.4309 17.8778 16.8798C17.7641 17.6502 17.5447 18.1979 17.1213 18.6213C16.2426 19.5 14.8284 19.5 12 19.5H8ZM6.2 13.5991C5.53726 13.5991 5 14.1364 5 14.7991C5 15.4619 5.53726 15.9991 6.2 15.9991H7.79981C8.46255 15.9991 8.9998 15.4619 8.9998 14.7991C8.9998 14.1364 8.46255 13.5991 7.7998 13.5991H6.2Z" fill="currentColor"/>
</svg>
