<svg width="24" height="24" viewBox="0 0 24 24" fill="none" xmlns="http://www.w3.org/2000/svg">
<path d="M10.998 6.6C10.998 6.82091 10.819 7 10.598 7L4.39805 7C4.17713 7 3.99805 6.82091 3.99805 6.6L3.99805 5.4C3.99805 5.17909 4.17713 5 4.39805 5L10.598 5C10.819 5 10.998 5.17909 10.998 5.4L10.998 6.6Z" fill="currentColor"/>
<path d="M13.998 10.6C13.998 10.8209 13.819 11 13.598 11L4.39805 11C4.17713 11 3.99805 10.8209 3.99805 10.6L3.99805 9.4C3.99805 9.17909 4.17713 9 4.39805 9L13.598 9C13.819 9 13.998 9.17909 13.998 9.4V10.6Z" fill="currentColor"/>
<path d="M16.998 14.6C16.998 14.8209 16.819 15 16.598 15L4.39805 15C4.17713 15 3.99805 14.8209 3.99805 14.6L3.99805 13.4C3.99805 13.1791 4.17713 13 4.39805 13L16.598 13C16.819 13 16.998 13.1791 16.998 13.4L16.998 14.6Z" fill="currentColor"/>
<path d="M3.99805 18.6C3.99805 18.8209 4.17713 19 4.39805 19L19.598 19C19.819 19 19.998 18.8209 19.998 18.6V17.4C19.998 17.1791 19.819 17 19.598 17L4.39805 17C4.17713 17 3.99805 17.1791 3.99805 17.4L3.99805 18.6Z" fill="currentColor"/>
</svg>
