<svg width="16" height="16" viewBox="0 0 16 16" fill="none" xmlns="http://www.w3.org/2000/svg">
<path fill-rule="evenodd" clip-rule="evenodd" d="M4.00311 4C4.0031 4.00102 4.00308 4.00204 4.00307 4.00307C3.62839 4.00835 3.29357 4.0227 3.00416 4.06161C2.51252 4.12771 2.04126 4.27677 1.65901 4.65901C1.27677 5.04126 1.12771 5.51252 1.06161 6.00416C0.999936 6.46289 0.999966 7.03574 1 7.70058V11.2994C0.999966 11.9642 0.999936 12.5371 1.06161 12.9958C1.12771 13.4875 1.27677 13.9587 1.65901 14.341C2.04126 14.7232 2.51252 14.8723 3.00416 14.9384C3.46291 15.0001 4.03576 15 4.70062 15H8.04937C8.71424 15 9.28711 15.0001 9.74585 14.9384C10.2375 14.8723 10.7087 14.7232 11.091 14.341C11.4732 13.9587 11.6223 13.4875 11.6884 12.9958C11.7272 12.707 11.7416 12.373 11.7469 11.9993C11.7479 11.9993 11.749 11.9993 11.75 11.9992V11.4067C11.75 11.3712 11.75 11.3354 11.75 11.2994V7.70063C11.75 7.03577 11.7501 6.4629 11.6884 6.00416C11.6223 5.51252 11.4732 5.04126 11.091 4.65901C10.7087 4.27677 10.2375 4.12771 9.74585 4.06161C9.28711 3.99993 8.71425 3.99996 8.04939 4L4.00311 4ZM2.71968 5.71967C2.77677 5.66258 2.87873 5.59197 3.20403 5.54823C3.55091 5.5016 4.0217 5.5 4.75001 5.5H8.00001C8.72831 5.5 9.1991 5.5016 9.54598 5.54823C9.87128 5.59197 9.97324 5.66258 10.0303 5.71967C10.0874 5.77677 10.158 5.87873 10.2018 6.20403C10.2484 6.55091 10.25 7.02169 10.25 7.75V11.25C10.25 11.9783 10.2484 12.4491 10.2018 12.796C10.158 13.1213 10.0874 13.2232 10.0303 13.2803C9.97324 13.3374 9.87128 13.408 9.54598 13.4518C9.1991 13.4984 8.72831 13.5 8.00001 13.5H4.75001C4.0217 13.5 3.55091 13.4984 3.20403 13.4518C2.87873 13.408 2.77677 13.3374 2.71968 13.2803C2.66258 13.2232 2.59197 13.1213 2.54823 12.796C2.5016 12.4491 2.50001 11.9783 2.50001 11.25V7.75C2.50001 7.02169 2.5016 6.55091 2.54823 6.20403C2.59197 5.87873 2.66258 5.77677 2.71968 5.71967Z" fill="currentColor"/>
<path d="M13.5 6H13.4889C13.4766 5.43097 13.4509 4.9598 13.3969 4.55812C13.2982 3.82435 13.1178 3.43578 12.841 3.15901C12.5642 2.88225 12.1757 2.7018 11.4419 2.60315C10.8256 2.5203 10.0458 2.5032 9 2.5H4.16745C4.26008 2.19456 4.41011 1.90792 4.65902 1.65901C5.04126 1.27677 5.51253 1.12771 6.00416 1.06161C6.4629 0.999932 7.03575 0.999965 7.7006 1L8.30492 1C9.67249 0.999983 10.7748 0.999967 11.6418 1.11653C12.5419 1.23754 13.2997 1.49644 13.9017 2.09835C14.5036 2.70027 14.7625 3.45814 14.8835 4.35825C15 5.22521 15 6.32753 15 7.69511L15 8.29938C15 8.96423 15.0001 9.53711 14.9384 9.99585C14.8723 10.4875 14.7232 10.9587 14.341 11.341C14.0921 11.5899 13.8054 11.7399 13.5 11.8326V6Z" fill="currentColor"/>
</svg>
