<svg width="24" height="24" viewBox="0 0 24 24" fill="none" xmlns="http://www.w3.org/2000/svg">
<path d="M3 8C3 7.44772 3.44772 7 4 7H20C20.5523 7 21 7.44772 21 8C21 8.55229 20.5523 9 20 9L4 9C3.44772 9 3 8.55228 3 8Z" fill="currentColor"/>
<path d="M3 12C3 11.4477 3.44772 11 4 11L10.4 11C10.7314 11 11 11.2686 11 11.6V12.4C11 12.7314 10.7314 13 10.4 13H4C3.44772 13 3 12.5523 3 12Z" fill="currentColor"/>
<path d="M13 12.4C13 12.7314 13.2686 13 13.6 13L20 13C20.5523 13 21 12.5523 21 12C21 11.4477 20.5523 11 20 11L13.6 11C13.2686 11 13 11.2686 13 11.6V12.4Z" fill="currentColor"/>
<path d="M3 16C3 15.4477 3.44772 15 4 15H6.9C7.23137 15 7.5 15.2686 7.5 15.6V16.4C7.5 16.7314 7.23137 17 6.9 17H4C3.44772 17 3 16.5523 3 16Z" fill="currentColor"/>
<path d="M9.5 16.4C9.5 16.7314 9.76863 17 10.1 17L13.9 17C14.2314 17 14.5 16.7314 14.5 16.4V15.6C14.5 15.2686 14.2314 15 13.9 15L10.1 15C9.76863 15 9.5 15.2686 9.5 15.6V16.4Z" fill="currentColor"/>
<path d="M17.1 15C16.7686 15 16.5 15.2686 16.5 15.6V16.4C16.5 16.7314 16.7686 17 17.1 17H20C20.5523 17 21 16.5523 21 16C21 15.4477 20.5523 15 20 15H17.1Z" fill="currentColor"/>
</svg>
