<svg width="36" height="36" viewBox="0 0 36 36" fill="none" xmlns="http://www.w3.org/2000/svg">
<path d="M15.0021 3.75C15.0021 2.57721 15.0021 1.99082 15.3121 1.58686C15.3919 1.48286 15.485 1.38977 15.589 1.30997C15.9931 1 16.5795 1 17.7525 1H18.0025V1.00269C21.3648 1.00271 24.6515 1.99959 27.4471 3.86727C30.2428 5.73498 32.4217 8.38962 33.7084 11.4955C34.9951 14.6014 35.3317 18.019 34.6758 21.3162C34.0198 24.6134 32.4007 27.642 30.0232 30.0192C27.6458 32.3963 24.6166 34.0152 21.319 34.671C18.0213 35.3269 14.6032 34.9902 11.4968 33.7038C8.39048 32.4173 5.73544 30.2386 3.86746 27.4434C1.99947 24.6482 1.00244 21.3619 1.00244 18.0001C1.00244 16.4814 2.23384 15.2501 3.75285 15.2501C5.27186 15.2501 6.50326 16.4814 6.50326 18.0001C6.50326 20.2741 7.17768 22.497 8.44122 24.3878C9.70477 26.2785 11.5007 27.7522 13.6019 28.6224C15.7031 29.4926 18.0152 29.7203 20.2458 29.2767C22.4764 28.833 24.5254 27.738 26.1336 26.1301C27.7418 24.5221 28.837 22.4735 29.2807 20.2432C29.7244 18.0129 29.4966 15.7011 28.6263 13.6003C27.7559 11.4994 26.2821 9.70371 24.391 8.44036C22.5 7.177 20.2768 6.50269 18.0024 6.50269C17.9613 6.50269 17.9204 6.50178 17.8798 6.5H17.7525C16.5795 6.5 15.9931 6.5 15.589 6.19003C15.485 6.11023 15.3919 6.01714 15.3121 5.91314C15.0021 5.50918 15.0021 4.92279 15.0021 3.75Z" fill="currentColor"/>
<path d="M17.7312 15.5C16.5724 15.5 15.9906 15.4981 15.589 15.19C15.485 15.1102 15.3919 15.0171 15.3121 14.9131C15.0021 14.5092 15.0021 13.9228 15.0021 12.75C15.0021 11.5772 15.0021 10.9908 15.3121 10.5869C15.3919 10.4829 15.485 10.3898 15.589 10.31C15.9931 10 16.5795 10 17.7525 10H18.0025V10.0049C19.4525 10.0272 20.8699 10.4433 22.1026 11.2097C23.3702 11.9979 24.3919 13.125 25.0521 14.4635C25.7123 15.8021 25.9847 17.2986 25.8384 18.7839C25.6921 20.2692 25.1329 21.6839 24.2242 22.8679C23.3155 24.052 22.0936 24.9581 20.6966 25.4838C19.7921 25.8242 18.8376 25.9963 17.8797 25.9963C16.3607 25.9964 15.1293 24.7652 15.1292 23.2464C15.1292 21.7276 16.3605 20.4964 17.8795 20.4963C18.1786 20.4963 18.4765 20.4426 18.7589 20.3363C19.195 20.1722 19.5765 19.8894 19.8601 19.5197C20.1438 19.1501 20.3183 18.7085 20.364 18.2448C20.4097 17.7811 20.3247 17.3139 20.1186 16.8961C19.9125 16.4782 19.5935 16.1264 19.1978 15.8804C18.8021 15.6343 18.3454 15.5039 17.8795 15.5039C17.8297 15.5039 17.7803 15.5026 17.7312 15.5Z" fill="currentColor"/>
</svg>
