<svg width="25" height="24" viewBox="0 0 25 24" fill="currentColor" xmlns="http://www.w3.org/2000/svg">
    <path fill-rule="evenodd" clip-rule="evenodd" d="M6.95988 12.2901C7.35041 11.8996 7.98357 11.8996 8.3741 12.2901L10.1042 14.0202C10.3709 14.2868 10.5043 14.4202 10.6699 14.4202C10.8356 14.4202 10.969 14.2868 11.2356 14.0201L17.9572 7.29782C18.3477 6.90727 18.9808 6.90723 19.3714 7.29774C19.7619 7.68824 19.762 8.3214 19.3715 8.71195L11.3771 16.7072C11.1896 16.8947 10.9352 17.0001 10.67 17.0001C10.4048 17.0001 10.1504 16.8948 9.96289 16.7072L6.95989 13.7043C6.56936 13.3138 6.56936 12.6807 6.95988 12.2901Z" />
    <path fill-rule="evenodd" clip-rule="evenodd" d="M6.95988 12.2901C7.35041 11.8996 7.98357 11.8996 8.3741 12.2901L10.1042 14.0202C10.3709 14.2868 10.5043 14.4202 10.6699 14.4202C10.8356 14.4202 10.969 14.2868 11.2356 14.0201L17.9572 7.29782C18.3477 6.90727 18.9808 6.90723 19.3714 7.29774C19.7619 7.68824 19.762 8.3214 19.3715 8.71195L11.3771 16.7072C11.1896 16.8947 10.9352 17.0001 10.67 17.0001C10.4048 17.0001 10.1504 16.8948 9.96289 16.7072L6.95989 13.7043C6.56936 13.3138 6.56936 12.6807 6.95988 12.2901Z" fill-opacity="0.64"/>
</svg>
