<svg width="24" height="24" viewBox="0 0 24 24" fill="none" xmlns="http://www.w3.org/2000/svg">
<path d="M8 7.6C8 7.26863 7.73137 7 7.4 7H4C3.44772 7 3 7.44772 3 8C3 8.55228 3.44772 9 4 9L7.4 9C7.73137 9 8 8.73137 8 8.4V7.6Z" fill="currentColor"/>
<path d="M10.1 9C9.76863 9 9.5 8.73137 9.5 8.4V7.6C9.5 7.26863 9.76863 7 10.1 7H13.9C14.2314 7 14.5 7.26863 14.5 7.6V8.4C14.5 8.73137 14.2314 9 13.9 9L10.1 9Z" fill="currentColor"/>
<path d="M8 11.6C8 11.2686 7.73137 11 7.4 11L4 11C3.44772 11 3 11.4477 3 12C3 12.5523 3.44772 13 4 13L7.4 13C7.73137 13 8 12.7314 8 12.4V11.6Z" fill="currentColor"/>
<path d="M10.1 13C9.76863 13 9.5 12.7314 9.5 12.4V11.6C9.5 11.2686 9.76863 11 10.1 11L13.9 11C14.2314 11 14.5 11.2686 14.5 11.6V12.4C14.5 12.7314 14.2314 13 13.9 13L10.1 13Z" fill="currentColor"/>
<path d="M8 15.6C8 15.2686 7.73137 15 7.4 15H4C3.44772 15 3 15.4477 3 16C3 16.5523 3.44772 17 4 17H7.4C7.73137 17 8 16.7314 8 16.4V15.6Z" fill="currentColor"/>
<path d="M10.1 17C9.76863 17 9.5 16.7314 9.5 16.4V15.6C9.5 15.2686 9.76863 15 10.1 15L13.9 15C14.2314 15 14.5 15.2686 14.5 15.6V16.4C14.5 16.7314 14.2314 17 13.9 17L10.1 17Z" fill="currentColor"/>
<path d="M16 16.4C16 16.7314 16.2686 17 16.6 17H20C20.5523 17 21 16.5523 21 16C21 15.4477 20.5523 15 20 15H16.6C16.2686 15 16 15.2686 16 15.6V16.4Z" fill="currentColor"/>
<path d="M16 12.4C16 12.7314 16.2686 13 16.6 13L20 13C20.5523 13 21 12.5523 21 12C21 11.4477 20.5523 11 20 11L16.6 11C16.2686 11 16 11.2686 16 11.6V12.4Z" fill="currentColor"/>
<path d="M16 8.4C16 8.73137 16.2686 9 16.6 9L20 9C20.5523 9 21 8.55229 21 8C21 7.44772 20.5523 7 20 7H16.6C16.2686 7 16 7.26863 16 7.6V8.4Z" fill="currentColor"/>
</svg>
