<svg width="24" height="24" viewBox="0 0 24 24" fill="none" xmlns="http://www.w3.org/2000/svg">
<path fill-rule="evenodd" clip-rule="evenodd" d="M12.0088 17C9.26965 17 7 14.7345 7 11.9999C7 9.2655 9.26965 7 12.0088 7C13.4696 7 14.7944 7.61257 15.7281 8.64723C15.8389 8.76998 15.8177 8.95904 15.689 9.06281L14.0757 10.3634C13.9706 10.4481 13.818 10.433 13.7214 10.3387C13.2736 9.90195 12.7027 9.65616 12.0088 9.65616C10.6783 9.65616 9.66098 10.7499 9.66098 11.9999C9.66098 13.3283 10.7566 14.3438 12.0088 14.3438C12.6359 14.3438 13.2628 14.0961 13.7241 13.6009C13.8192 13.4987 13.9774 13.4763 14.0877 13.5619L15.7668 14.8658C15.8962 14.9663 15.9218 15.1527 15.8155 15.2774C14.8725 16.383 13.4749 17 12.0088 17ZM12 2C6.49999 2 2 6.50004 2 11.9999V21C2 21.5523 2.44772 22 3 22H12C17.4998 22 22 17.5002 22 11.9999C22 6.50004 17.4998 2 12 2Z" fill="currentColor"/>
</svg>
