<svg width="24" height="24" viewBox="0 0 24 24" fill="none" xmlns="http://www.w3.org/2000/svg">
<path d="M8.05478 12.9065C6.91259 12.9672 6.34149 12.9976 5.88823 13.2967C5.43497 13.5959 5.18255 14.1091 4.67772 15.1354L3.21833 18.1024L3.20812 18.1233C2.43484 19.7153 3.95843 21.4532 5.63801 20.8949L5.65997 20.8876L5.92113 20.7993C11.3117 18.9776 16.4554 16.4941 21.2344 13.4056C22.2558 12.7455 22.2516 11.2521 21.232 10.5945C16.4584 7.51579 11.3176 5.03284 5.93779 3.20955L5.67438 3.12028L5.62927 3.10513C3.95746 2.5596 2.44608 4.28207 3.20429 5.86878L3.22503 5.91124L4.67919 8.86761C5.18457 9.89508 5.43726 10.4088 5.8911 10.708C6.34495 11.0073 6.91669 11.0371 8.06017 11.0967L10.2507 11.2109C10.6707 11.2329 11 11.5798 11 12.0004C11 12.4207 10.6712 12.7675 10.2515 12.7898L8.05478 12.9065Z" fill="currentColor"/>
</svg>
