<svg width="16" height="16" viewBox="0 0 16 16" fill="none" xmlns="http://www.w3.org/2000/svg">
<path d="M3.5 8C3.5 5.51472 5.51472 3.5 8 3.5C9.17045 3.5 10.2371 3.94673 11.038 4.68013C11.1768 4.8072 11.2462 4.87074 11.2214 4.93451C11.1966 4.99829 11.0995 4.99829 10.9051 4.99829H10.25C9.83579 4.99829 9.5 5.33407 9.5 5.74829C9.5 6.1625 9.83579 6.49829 10.25 6.49829L13.5983 6.49829C13.8192 6.49829 13.9983 6.3192 13.9983 6.09829V2.75C13.9983 2.33579 13.6625 2 13.2483 2C12.8341 2 12.4983 2.33579 12.4983 2.75V3.50098C12.4983 3.72071 12.4983 3.83058 12.4377 3.85657C12.3772 3.88257 12.2953 3.80478 12.1315 3.6492C11.0561 2.62766 9.6016 2 8 2C4.68629 2 2 4.68629 2 8C2 11.3137 4.68629 14 8 14C10.6194 14 12.8449 12.3219 13.6638 9.98444C13.8008 9.59353 13.5949 9.1656 13.204 9.02864C12.8131 8.89168 12.3852 9.09756 12.2482 9.48847C11.6334 11.2433 9.96249 12.5 8 12.5C5.51472 12.5 3.5 10.4853 3.5 8Z" fill="currentColor"/>
</svg>
