<svg width="24" height="24" viewBox="0 0 24 24" fill="none" xmlns="http://www.w3.org/2000/svg">
<path d="M9 10C8.44772 10 8 10.4477 8 11V13C8 13.5523 8.44772 14 9 14C9.55228 14 10 13.5523 10 13V11C10 10.4477 9.55228 10 9 10Z" fill="currentColor"/>
<path fill-rule="evenodd" clip-rule="evenodd" d="M8.59747 20L4.70882 20C4.1616 20 3.66956 20.0001 3.26622 19.9543C2.82989 19.9047 2.37452 19.7909 1.96774 19.4754C1.80203 19.3469 1.65315 19.198 1.52462 19.0323C1.20909 18.6255 1.09532 18.1701 1.04574 17.7338C0.999919 17.3304 0.999959 16.8384 1 16.2912L1.00001 14.9585C1.00001 14.4701 1.35285 14.0531 1.83455 13.9723C2.7797 13.8137 3.50001 12.99 3.50001 12C3.50001 11.01 2.7797 10.1863 1.83455 10.0277C1.35285 9.94689 1.00001 9.52992 1.00001 9.04148L1 7.70882C0.999958 7.1616 0.999919 6.66956 1.04574 6.26622C1.09532 5.82989 1.20909 5.37452 1.52462 4.96774C1.65315 4.80203 1.80203 4.65315 1.96774 4.52462C2.37452 4.20909 2.82989 4.09531 3.26622 4.04574C3.66956 3.99992 4.16158 3.99996 4.7088 4L19.2912 4C19.8384 3.99996 20.3305 3.99992 20.7338 4.04574C21.1701 4.09531 21.6255 4.20909 22.0323 4.52462C22.198 4.65315 22.3469 4.80202 22.4754 4.96774C22.7909 5.37452 22.9047 5.82989 22.9543 6.26622C23.0001 6.66956 23.0001 7.1616 23 7.70882L23 9.04148C23 9.52992 22.6472 9.94689 22.1655 10.0277C21.2203 10.1863 20.5 11.01 20.5 12C20.5 12.99 21.2203 13.8137 22.1655 13.9723C22.6472 14.0531 23 14.4701 23 14.9585L23 16.2912C23.0001 16.8384 23.0001 17.3304 22.9543 17.7338C22.9047 18.1701 22.7909 18.6255 22.4754 19.0323C22.3469 19.198 22.198 19.3469 22.0323 19.4754C21.6255 19.7909 21.1701 19.9047 20.7338 19.9543C20.3305 20.0001 19.8385 20 19.2913 20L9.4025 20L9.4 20H8.6L8.59747 20ZM3.19355 17.8951C3.16041 17.8694 3.13064 17.8396 3.10493 17.8065C3.10173 17.8023 3.09261 17.7906 3.08015 17.7537C3.06571 17.711 3.04758 17.6367 3.03296 17.508C3.00152 17.2313 3.00001 16.8546 3.00001 16.24V15.8437C3.00001 15.7623 3.04966 15.6894 3.1241 15.6562C4.52403 15.0335 5.50001 13.6314 5.50001 12C5.50001 10.3686 4.52403 8.96647 3.1241 8.34376C3.04966 8.31065 3.00001 8.23774 3.00001 8.15626V7.76C3.00001 7.14536 3.00152 6.76875 3.03296 6.49199C3.04758 6.36334 3.06571 6.28902 3.08015 6.24629C3.0926 6.20944 3.10173 6.19767 3.10493 6.19355C3.13063 6.16041 3.16046 6.1306 3.1936 6.10489C3.19772 6.10169 3.20943 6.09261 3.24629 6.08015C3.28902 6.06571 3.36334 6.04757 3.49199 6.03296C3.76875 6.00151 4.14536 6 4.76 6L7.8 6C7.91046 6 8 6.08955 8 6.2V7.00001C8 7.55229 8.44772 8.00001 9 8.00001C9.55228 8.00001 10 7.55229 10 7.00001V6.2C10 6.08955 10.0895 6 10.2 6L19.24 6C19.8546 6 20.2313 6.00151 20.508 6.03296C20.6367 6.04757 20.711 6.0657 20.7537 6.08015C20.7906 6.0926 20.8023 6.10173 20.8065 6.10493C20.8396 6.13064 20.8694 6.16047 20.8951 6.19361C20.8983 6.19773 20.9074 6.20945 20.9199 6.24629C20.9343 6.28902 20.9524 6.36334 20.9671 6.49199C20.9985 6.76875 21 7.14536 21 7.76V8.15626C21 8.23774 20.9504 8.31065 20.8759 8.34376C19.476 8.96647 18.5 10.3686 18.5 12C18.5 13.6314 19.476 15.0335 20.8759 15.6562C20.9504 15.6894 21 15.7623 21 15.8437V16.24C21 16.8546 20.9985 17.2313 20.9671 17.508C20.9524 17.6367 20.9343 17.711 20.9199 17.7537C20.9074 17.7906 20.8983 17.8023 20.8951 17.8065C20.8694 17.8396 20.8396 17.8694 20.8064 17.8951C20.8023 17.8983 20.7906 17.9074 20.7537 17.9199C20.711 17.9343 20.6367 17.9524 20.508 17.967C20.2313 17.9985 19.8547 18 19.24 18L10.2 18C10.0895 18 10 17.9105 10 17.8V17C10 16.4477 9.55228 16 9 16C8.44772 16 8 16.4477 8 17V17.8C8 17.9105 7.91046 18 7.8 18H4.76001C4.14536 18 3.76875 17.9985 3.49199 17.9671C3.36334 17.9524 3.28902 17.9343 3.24629 17.9199C3.20944 17.9074 3.19767 17.8983 3.19355 17.8951Z" fill="currentColor"/>
</svg>
