<svg width="24" height="24" viewBox="0 0 24 24" fill="none" xmlns="http://www.w3.org/2000/svg">
<path fill-rule="evenodd" clip-rule="evenodd" d="M12 2C6.47715 2 2 6.47715 2 12C2 17.5228 6.47715 22 12 22C17.5228 22 22 17.5228 22 12C22 6.47715 17.5228 2 12 2ZM8 9C8 8.3425 8 8.01376 8.18159 7.79249C8.21484 7.75198 8.25198 7.71484 8.29249 7.68159C8.51376 7.5 8.8425 7.5 9.5 7.5C10.1575 7.5 10.4862 7.5 10.7075 7.68159C10.748 7.71484 10.7852 7.75198 10.8184 7.79249C11 8.01376 11 8.3425 11 9V15C11 15.6575 11 15.9862 10.8184 16.2075C10.7852 16.248 10.748 16.2852 10.7075 16.3184C10.4862 16.5 10.1575 16.5 9.5 16.5C8.8425 16.5 8.51376 16.5 8.29249 16.3184C8.25198 16.2852 8.21484 16.248 8.18159 16.2075C8 15.9862 8 15.6575 8 15V9ZM13 9C13 8.3425 13 8.01376 13.1816 7.79249C13.2148 7.75198 13.252 7.71484 13.2925 7.68159C13.5138 7.5 13.8425 7.5 14.5 7.5C15.1575 7.5 15.4862 7.5 15.7075 7.68159C15.748 7.71484 15.7852 7.75198 15.8184 7.79249C16 8.01376 16 8.3425 16 9V15C16 15.6575 16 15.9862 15.8184 16.2075C15.7852 16.248 15.748 16.2852 15.7075 16.3184C15.4862 16.5 15.1575 16.5 14.5 16.5C13.8425 16.5 13.5138 16.5 13.2925 16.3184C13.252 16.2852 13.2148 16.248 13.1816 16.2075C13 15.9862 13 15.6575 13 15V9Z" fill="currentColor"/>
</svg>
