<svg width="24" height="24" viewBox="0 0 24 24" fill="none" xmlns="http://www.w3.org/2000/svg">
<path fill-rule="evenodd" clip-rule="evenodd" d="M15.1502 10.3465C16.3556 11.0438 16.9583 11.3924 17.0068 11.9058C17.0127 11.9684 17.0127 12.0313 17.0068 12.0939C16.9583 12.6073 16.3556 12.9559 15.1502 13.6532L11.3664 15.8419C10.1579 16.5409 9.55373 16.8903 9.08413 16.6756C9.02693 16.6494 8.97232 16.6179 8.92103 16.5815C8.50001 16.2825 8.50001 15.5845 8.50001 14.1885L8.50001 9.81117C8.50001 8.41516 8.50001 7.71715 8.92103 7.41819C8.97232 7.38177 9.02693 7.35027 9.08414 7.32411C9.55373 7.10936 10.1579 7.45885 11.3664 8.15784L15.1502 10.3465ZM10.5 10.834C10.5 10.4488 10.5 10.2562 10.6251 10.1841C10.7502 10.1119 10.9169 10.2084 11.2504 10.4012L13.2658 11.567C13.5985 11.7594 13.7648 11.8557 13.7648 11.9999C13.7648 12.1441 13.5985 12.2403 13.2658 12.4327L11.2504 13.5985C10.9169 13.7914 10.7502 13.8878 10.6251 13.8156C10.5 13.7435 10.5 13.5509 10.5 13.1657V10.834Z" fill="currentColor"/>
<path fill-rule="evenodd" clip-rule="evenodd" d="M16.0658 22C16.9523 22.0001 17.7161 22.0001 18.3278 21.9179C18.9833 21.8297 19.6117 21.631 20.1213 21.1213C20.631 20.6117 20.8297 19.9833 20.9179 19.3278C21.0001 18.7161 21.0001 17.9523 21 17.0658L21 6.93418C21.0001 6.04771 21.0001 5.28387 20.9179 4.67221C20.8297 4.0167 20.631 3.38835 20.1213 2.87868C19.6117 2.36902 18.9833 2.17028 18.3278 2.08214C17.7161 1.99991 16.9523 1.99995 16.0659 2L7.9342 2C7.0477 1.99995 6.28388 1.99991 5.67222 2.08215C5.0167 2.17028 4.38835 2.36902 3.87869 2.87869C3.36902 3.38835 3.17028 4.0167 3.08215 4.67222C2.99991 5.28388 2.99995 6.0477 3 6.9342L3 17.0658C2.99995 17.9523 2.99991 18.7161 3.08215 19.3278C3.17028 19.9833 3.36902 20.6117 3.87869 21.1213C4.38835 21.631 5.0167 21.8297 5.67222 21.9179C6.28387 22.0001 7.04768 22.0001 7.93415 22H16.0658ZM18.7071 19.7071C18.631 19.7832 18.495 19.8774 18.0613 19.9357C17.5988 19.9979 16.9711 20 16 20L8.00001 20C7.02893 20 6.40122 19.9979 5.93871 19.9357C5.50497 19.8774 5.36903 19.7832 5.2929 19.7071C5.21678 19.631 5.12263 19.495 5.06431 19.0613C5.00213 18.5988 5.00001 17.9711 5.00001 17L5.00001 7.00001C5.00001 6.02893 5.00213 5.40122 5.06431 4.93871C5.12263 4.50497 5.21678 4.36902 5.2929 4.2929C5.36902 4.21677 5.50497 4.12263 5.93871 4.06431C6.40122 4.00213 7.02893 4.00001 8.00001 4.00001L16 4.00001C16.9711 4.00001 17.5988 4.00213 18.0613 4.06431C18.495 4.12263 18.631 4.21677 18.7071 4.2929C18.7832 4.36902 18.8774 4.50497 18.9357 4.93871C18.9979 5.40122 19 6.02893 19 7.00001V17C19 17.9711 18.9979 18.5988 18.9357 19.0613C18.8774 19.495 18.7832 19.631 18.7071 19.7071Z" fill="currentColor"/>
</svg>
