<svg width="36" height="36" viewBox="0 0 36 36" fill="none" xmlns="http://www.w3.org/2000/svg">
<path fill-rule="evenodd" clip-rule="evenodd" d="M20.6047 19.1316C20.6601 19.0736 20.7503 19.0695 20.9309 19.0611L21.1888 19.0491C21.795 19.0205 22.2287 19 23.0327 19C24.0317 19 24.8156 19.1471 25.3467 19.5776C25.8997 20.0257 26.0931 20.7059 26.0931 21.5455C26.0931 22.4091 25.87 23.1179 25.3181 23.5991C24.7776 24.0703 23.9926 24.2596 23.0149 24.2596L22.9525 24.2594C22.8539 24.2587 22.8046 24.2584 22.7751 24.2877C22.7456 24.317 22.7456 24.3654 22.7456 24.4622V25.4C22.7456 25.6828 22.7456 25.8243 22.6577 25.9121C22.5698 26 22.4284 26 22.1456 26H21.1494C20.8665 26 20.7251 26 20.6372 25.9121C20.5494 25.8243 20.5494 25.6828 20.5494 25.4V19.4607C20.5494 19.2799 20.5494 19.1896 20.6047 19.1316ZM23.0149 22.3209C23.4331 22.3209 23.6178 22.2364 23.7039 22.1548C23.7843 22.0787 23.8525 21.9346 23.8525 21.6165C23.8525 21.2908 23.7902 21.1613 23.7205 21.0958C23.6427 21.0227 23.4608 20.9387 23.006 20.9387L22.941 20.9387C22.8497 20.9388 22.8041 20.9389 22.7748 20.9682C22.7456 20.9974 22.7456 21.0436 22.7456 21.136V22.1238C22.7456 22.2152 22.7456 22.261 22.7745 22.2902C22.8035 22.3194 22.8483 22.3198 22.9379 22.3206C22.9625 22.3208 22.9881 22.3209 23.0149 22.3209Z" fill="currentColor"/>
<path d="M10.6233 24.3728C10.5125 24.528 10.4571 24.6056 10.4285 24.6949C10.3999 24.7842 10.3999 24.8795 10.3999 25.0701V25.5C10.3999 25.7357 10.3999 25.8536 10.4731 25.9268C10.5464 26 10.6642 26 10.8999 26H15.4857C15.7686 26 15.91 26 15.9979 25.9121C16.0857 25.8243 16.0857 25.6828 16.0857 25.4V24.5992C16.0857 24.3163 16.0857 24.1749 15.9979 24.087C15.91 23.9992 15.7686 23.9992 15.4857 23.9992H13.7052C13.5861 23.9992 13.5265 23.9992 13.507 23.9612C13.4875 23.9232 13.5221 23.8748 13.5913 23.7778L15.8091 20.6716C15.9199 20.5164 15.9753 20.4388 16.0039 20.3495C16.0325 20.2602 16.0325 20.1649 16.0325 19.9743V19.5444C16.0325 19.3087 16.0325 19.1908 15.9592 19.1176C15.886 19.0444 15.7682 19.0444 15.5325 19.0444H11.1065C10.8236 19.0444 10.6822 19.0444 10.5943 19.1323C10.5065 19.2201 10.5065 19.3616 10.5065 19.6444V20.4452C10.5065 20.7281 10.5065 20.8695 10.5943 20.9574C10.6822 21.0452 10.8236 21.0452 11.1065 21.0452H12.7271C12.8463 21.0452 12.9058 21.0452 12.9254 21.0832C12.9449 21.1212 12.9103 21.1696 12.8411 21.2666L10.6233 24.3728Z" fill="currentColor"/>
<path d="M17.7489 19.0444C17.466 19.0444 17.3246 19.0444 17.2368 19.1323C17.1489 19.2201 17.1489 19.3616 17.1489 19.6444V25.4C17.1489 25.6828 17.1489 25.8243 17.2368 25.9121C17.3246 26 17.466 26 17.7489 26H18.7362C19.019 26 19.1605 26 19.2483 25.9121C19.3362 25.8243 19.3362 25.6828 19.3362 25.4V19.6444C19.3362 19.3616 19.3362 19.2201 19.2483 19.1323C19.1605 19.0444 19.019 19.0444 18.7362 19.0444H17.7489Z" fill="currentColor"/>
<path fill-rule="evenodd" clip-rule="evenodd" d="M11.9294 3L18.9289 3C20.1552 3 20.7683 3 21.3196 3.22837C21.8709 3.45673 22.3045 3.89027 23.1716 4.75736L29.2426 10.8284C30.1097 11.6955 30.5433 12.1291 30.7716 12.6804C31 13.2317 31 13.8448 31 15.0711V26.0706C31 27.4247 31.0001 28.5413 30.8813 29.4251C30.7565 30.3529 30.4845 31.1723 29.8284 31.8284C29.1723 32.4845 28.3529 32.7565 27.4251 32.8813C26.5413 33.0001 25.4247 33 24.0706 33H11.9294C10.5753 33 9.4587 33.0001 8.57494 32.8813C7.64711 32.7565 6.82769 32.4845 6.17158 31.8284C5.51547 31.1723 5.2435 30.3529 5.11876 29.4251C4.99994 28.5413 4.99997 27.4247 5 26.0706V9.9294C4.99997 8.57531 4.99994 7.45868 5.11876 6.57494C5.2435 5.64711 5.51547 4.82769 6.17158 4.17158C6.82769 3.51547 7.64711 3.2435 8.57494 3.11876C9.45868 2.99994 10.5753 2.99997 11.9294 3ZM19.8828 5.11716C20 5.23432 20 5.42288 20 5.80001L20 9.06586C20 9.95235 19.9999 10.7162 20.0821 11.3278C20.1703 11.9833 20.369 12.6117 20.8787 13.1214C21.3884 13.631 22.0167 13.8298 22.6722 13.9179C23.2839 14.0001 24.0477 14.0001 24.9342 14L28.2 14C28.5771 14 28.7657 14 28.8828 14.1172C29 14.2343 29 14.4229 29 14.8V26C29 27.4425 28.9979 28.4238 28.8991 29.1586C28.8042 29.8646 28.6368 30.1916 28.4142 30.4142C28.1916 30.6368 27.8646 30.8042 27.1586 30.8991C26.4238 30.9979 25.4425 31 24 31H12C10.5575 31 9.57626 30.9979 8.84144 30.8991C8.13538 30.8042 7.80836 30.6368 7.58579 30.4142C7.36322 30.1916 7.19585 29.8646 7.10092 29.1586C7.00213 28.4238 7 27.4425 7 26V10C7 8.55752 7.00213 7.57626 7.10092 6.84144C7.19585 6.13538 7.36322 5.80836 7.58579 5.58579C7.80836 5.36322 8.13538 5.19585 8.84144 5.10092C9.57626 5.00213 10.5575 5 12 5H19.2C19.5771 5 19.7657 5 19.8828 5.11716ZM27.2877 11.8766C27.2366 12 27.0311 12 26.6201 12H25C24.0289 12 23.4012 11.9979 22.9387 11.9357C22.505 11.8774 22.369 11.7833 22.2929 11.7071C22.2168 11.631 22.1226 11.4951 22.0643 11.0613C22.0021 10.5988 22 9.97111 22 9.00003V7.37993C22 6.96894 22 6.76345 22.1235 6.71231C22.2469 6.66117 22.3922 6.80648 22.6829 7.09709L26.903 11.3172C27.1936 11.6078 27.3389 11.7531 27.2877 11.8766Z" fill="currentColor"/>
</svg>
