<svg width="24" height="24" viewBox="0 0 24 24" fill="none" xmlns="http://www.w3.org/2000/svg">
<path fill-rule="evenodd" clip-rule="evenodd" d="M2.08215 18.3278C1.99991 17.7161 1.99995 16.9523 2 16.0658L2 7.93418C1.99995 7.04769 1.99991 6.28388 2.08215 5.67222C2.17028 5.0167 2.36902 4.38835 2.87868 3.87869C3.38835 3.36902 4.0167 3.17028 4.67221 3.08215C5.28388 2.99991 6.0477 2.99995 6.9342 3L17.0658 3C17.9523 2.99995 18.7161 2.99991 19.3278 3.08215C19.9833 3.17028 20.6117 3.36902 21.1213 3.87869C21.631 4.38835 21.8297 5.0167 21.9179 5.67221C22.0001 6.28388 22.0001 7.0477 22 7.9342V16.0658C22.0001 16.9523 22.0001 17.7161 21.9179 18.3278C21.8297 18.9833 21.631 19.6117 21.1213 20.1213C20.6117 20.631 19.9833 20.8297 19.3278 20.9179C18.7161 21.0001 17.9523 21.0001 17.0658 21H6.93418C6.0477 21.0001 5.28387 21.0001 4.67221 20.9179C4.0167 20.8297 3.38835 20.631 2.87868 20.1213C2.36902 19.6117 2.17028 18.9833 2.08215 18.3278ZM8 16.1992C8 17.0276 7.32843 17.6992 6.5 17.6992C5.67157 17.6992 5 17.0276 5 16.1992C5 15.3708 5.67157 14.6992 6.5 14.6992C7.32843 14.6992 8 15.3708 8 16.1992ZM6.5 13.5C7.32843 13.5 8 12.8284 8 12C8 11.1716 7.32843 10.5 6.5 10.5C5.67157 10.5 5 11.1716 5 12C5 12.8284 5.67157 13.5 6.5 13.5ZM6.5 9.29883C7.32843 9.29883 8 8.62726 8 7.79883C8 6.9704 7.32843 6.29883 6.5 6.29883C5.67157 6.29883 5 6.9704 5 7.79883C5 8.62726 5.67157 9.29883 6.5 9.29883ZM10.8001 6.59805C10.1374 6.59805 9.6001 7.13531 9.6001 7.79805C9.6001 8.46079 10.1374 8.99805 10.8001 8.99805L17.7998 8.99805C18.4625 8.99805 18.9998 8.46079 18.9998 7.79805C18.9998 7.1353 18.4625 6.59805 17.7998 6.59805L10.8001 6.59805ZM9.6001 11.9992C9.6001 11.3365 10.1374 10.7992 10.8001 10.7992L17.7998 10.7992C18.4625 10.7992 18.9998 11.3365 18.9998 11.9992C18.9998 12.662 18.4625 13.1992 17.7998 13.1992H10.8001C10.1374 13.1992 9.6001 12.662 9.6001 11.9992ZM9.6001 16.1984C9.6001 15.5357 10.1374 14.9984 10.8001 14.9984H17.7998C18.4625 14.9984 18.9998 15.5357 18.9998 16.1984C18.9998 16.8612 18.4625 17.3984 17.7998 17.3984H10.8001C10.1374 17.3984 9.6001 16.8612 9.6001 16.1984Z" fill="currentColor"/>
</svg>
