<svg width="24" height="24" viewBox="0 0 24 24" fill="none" xmlns="http://www.w3.org/2000/svg">
<path fill-rule="evenodd" clip-rule="evenodd" d="M4.02413 9.95801C4.02413 9.79773 4.15012 9.66576 4.31023 9.65833L4.4086 9.65377C4.81806 9.63442 5.11011 9.62062 5.65213 9.62062C6.32478 9.62062 6.83943 9.72025 7.1843 9.99974C7.54097 10.2888 7.67013 10.73 7.67013 11.2906C7.67013 11.8661 7.52164 12.3284 7.16357 12.6406C6.8117 12.9474 6.29584 13.0746 5.64013 13.0746C5.59532 13.0746 5.55333 13.0741 5.51266 13.0732C5.45569 13.0718 5.40813 13.1172 5.40813 13.1742V13.9506C5.40813 14.1163 5.27382 14.2506 5.10813 14.2506H4.32413C4.15845 14.2506 4.02413 14.1163 4.02413 13.9506L4.02413 9.95801ZM5.50316 11.8629C5.54507 11.8641 5.58941 11.8646 5.64013 11.8646C5.92739 11.8646 6.06802 11.8069 6.14011 11.7387C6.20906 11.6734 6.25613 11.5592 6.25613 11.3386C6.25613 11.1145 6.21376 11.0092 6.15117 10.9504C6.0842 10.8874 5.94479 10.8306 5.63413 10.8306C5.58611 10.8306 5.54374 10.8306 5.50415 10.8311C5.45049 10.8317 5.40813 10.8758 5.40813 10.9295V11.7641C5.40813 11.8174 5.4499 11.8615 5.50316 11.8629Z" fill="currentColor"/>
<path fill-rule="evenodd" clip-rule="evenodd" d="M8.04443 9.9583C8.04443 9.79802 8.17042 9.66605 8.33053 9.65863L8.42892 9.65406C8.83835 9.63471 9.13043 9.62091 9.67243 9.62091C10.3451 9.62091 10.8597 9.72055 11.2046 10C11.5613 10.2891 11.6904 10.7303 11.6904 11.2909C11.6904 11.8664 11.5419 12.3287 11.1839 12.6409C10.832 12.9477 10.3161 13.0749 9.66043 13.0749C9.61562 13.0749 9.57363 13.0744 9.53296 13.0735C9.47599 13.0721 9.42843 13.1175 9.42843 13.1745V13.9509C9.42843 14.1166 9.29412 14.2509 9.12843 14.2509H8.34443C8.17875 14.2509 8.04443 14.1166 8.04443 13.9509V9.9583ZM9.52346 11.8632C9.56537 11.8644 9.6097 11.8649 9.66043 11.8649C9.94769 11.8649 10.0883 11.8072 10.1604 11.739C10.2294 11.6736 10.2764 11.5595 10.2764 11.3389C10.2764 11.1148 10.2341 11.0095 10.1715 10.9507C10.1045 10.8877 9.96509 10.8309 9.65443 10.8309C9.60641 10.8309 9.56404 10.8309 9.52445 10.8314C9.47079 10.832 9.42843 10.8761 9.42843 10.9298L9.42843 11.7644C9.42843 11.8177 9.4702 11.8618 9.52346 11.8632Z" fill="currentColor"/>
<path d="M13.0839 10.8969C13.1391 10.8969 13.1839 10.9417 13.1839 10.9969L13.1839 13.9509C13.1839 14.1166 13.3182 14.2509 13.4839 14.2509H14.2619C14.4276 14.2509 14.5619 14.1166 14.5619 13.9509L14.5619 10.9969C14.5619 10.9417 14.6066 10.8969 14.6619 10.8969H15.4739C15.6396 10.8969 15.7739 10.7626 15.7739 10.5969V9.95091C15.7739 9.78523 15.6396 9.65092 15.4739 9.65092L12.2719 9.65091C12.1062 9.65091 11.9719 9.78523 11.9719 9.95091V10.5969C11.9719 10.7626 12.1062 10.8969 12.2719 10.8969H13.0839Z" fill="currentColor"/>
<path d="M17.2389 11.9933C17.2734 11.9327 17.2738 11.8585 17.24 11.7975L16.2148 9.94787C16.1409 9.81457 16.2373 9.65092 16.3897 9.65092H17.5297C17.6031 9.65092 17.6705 9.69106 17.7055 9.75551L18.2434 10.7466C18.2659 10.788 18.3252 10.7885 18.3484 10.7474L18.9095 9.75265C18.945 9.68979 19.0115 9.65092 19.0837 9.65092H20.2057C20.3608 9.65092 20.4569 9.81982 20.3776 9.95314L19.2923 11.7782C19.255 11.8408 19.2548 11.9187 19.2916 11.9815L20.4443 13.9498C20.5224 14.0832 20.4262 14.2509 20.2717 14.2509L19.1137 14.2509C19.0423 14.2509 18.9763 14.2128 18.9406 14.151L18.3073 13.056C18.2839 13.0155 18.2253 13.0162 18.2028 13.0571L17.6029 14.1473C17.5678 14.2112 17.5006 14.2509 17.4277 14.2509H16.2997C16.1464 14.2509 16.0501 14.0854 16.1258 13.9521L17.2389 11.9933Z" fill="currentColor"/>
<path fill-rule="evenodd" clip-rule="evenodd" d="M22.0318 7.02512C21.8064 6.85033 21.5662 6.73745 21.3225 6.6631C21.1596 6.61338 21.0781 6.58851 21.0389 6.53594C20.9996 6.48336 20.9991 6.40645 20.998 6.25261C20.9937 5.65187 20.9777 5.12136 20.9174 4.6727C20.8292 4.01719 20.6305 3.38884 20.1208 2.87917C19.6112 2.36951 18.9828 2.17077 18.3273 2.08263C17.7156 2.0004 16.9518 2.00044 16.0653 2.00049L7.93369 2.00049C7.0472 2.00044 6.28339 2.0004 5.67172 2.08263C5.01621 2.17077 4.38786 2.36951 3.8782 2.87917C3.36853 3.38884 3.16979 4.01719 3.08166 4.6727C3.02134 5.12136 3.00529 5.65187 3.00103 6.25261C2.99994 6.40645 2.9994 6.48337 2.96018 6.53594C2.92097 6.58851 2.83948 6.61338 2.67651 6.6631C2.43284 6.73745 2.19259 6.85033 1.96725 7.02512C1.80154 7.15366 1.65267 7.30253 1.52413 7.46824C1.2086 7.87502 1.09483 8.3304 1.04526 8.76672C0.999431 9.17006 0.99947 9.6621 0.999514 10.2093V13.7917C0.99947 14.3389 0.999431 14.831 1.04526 15.2343C1.09483 15.6706 1.2086 16.126 1.52413 16.5328C1.65267 16.6985 1.80154 16.8474 1.96725 16.9759C2.19259 17.1507 2.43284 17.2636 2.67651 17.3379C2.83948 17.3876 2.92097 17.4125 2.96018 17.4651C2.9994 17.5177 2.99994 17.5946 3.00103 17.7484C3.00529 18.3491 3.02134 18.8796 3.08166 19.3283C3.16979 19.9838 3.36853 20.6122 3.8782 21.1218C4.38786 21.6315 5.01621 21.8302 5.67173 21.9184C6.28339 22.0006 7.04721 22.0005 7.93371 22.0005H16.0653C16.9518 22.0005 17.7156 22.0006 18.3273 21.9184C18.9828 21.8302 19.6112 21.6315 20.1208 21.1218C20.6305 20.6122 20.8292 19.9838 20.9174 19.3283C20.9777 18.8796 20.9937 18.3491 20.998 17.7484C20.9991 17.5946 20.9996 17.5177 21.0389 17.4651C21.0781 17.4125 21.1596 17.3876 21.3225 17.3379C21.5662 17.2636 21.8064 17.1507 22.0318 16.9759C22.1975 16.8474 22.3464 16.6985 22.4749 16.5328C22.7904 16.126 22.9042 15.6706 22.9538 15.2343C22.9996 14.831 22.9996 14.3389 22.9995 13.7917V10.2093C22.9996 9.6621 22.9996 9.17006 22.9538 8.76672C22.9042 8.3304 22.7904 7.87502 22.4749 7.46824C22.3464 7.30253 22.1975 7.15366 22.0318 7.02512ZM18.9962 6.0991C18.9984 6.28752 18.9995 6.38173 18.9408 6.44112C18.882 6.50051 18.7873 6.50051 18.5977 6.50051L5.40137 6.50051C5.21178 6.50051 5.11699 6.50051 5.05827 6.44112C4.99956 6.38173 5.00063 6.28752 5.00278 6.0991C5.00837 5.6101 5.02341 5.23976 5.06382 4.9392C5.12214 4.50546 5.21629 4.36951 5.29241 4.29339C5.36853 4.21726 5.50448 4.12311 5.93822 4.0648C6.40073 4.00262 7.02844 4.00049 7.99952 4.00049L15.9995 4.00049C16.9706 4.00049 17.5983 4.00262 18.0608 4.0648C18.4946 4.12312 18.6305 4.21726 18.7066 4.29339C18.7827 4.36951 18.8769 4.50546 18.9352 4.9392C18.9756 5.23976 18.9907 5.6101 18.9962 6.0991ZM5.00278 17.9019C5.00063 17.7135 4.99956 17.6193 5.05827 17.5599C5.11699 17.5005 5.21178 17.5005 5.40137 17.5005H18.5977C18.7873 17.5005 18.882 17.5005 18.9408 17.5599C18.9995 17.6193 18.9984 17.7135 18.9962 17.9019C18.9907 18.3909 18.9756 18.7612 18.9352 19.0618C18.8769 19.4955 18.7827 19.6315 18.7066 19.7076C18.6305 19.7837 18.4946 19.8779 18.0608 19.9362C17.5983 19.9984 16.9706 20.0005 15.9995 20.0005H7.99952C7.02844 20.0005 6.40073 19.9984 5.93822 19.9362C5.50448 19.8779 5.36853 19.7837 5.29241 19.7076C5.21629 19.6315 5.12214 19.4955 5.06382 19.0618C5.02341 18.7612 5.00837 18.3909 5.00278 17.9019ZM3.19306 8.60543C3.15992 8.63114 3.13015 8.66091 3.10444 8.69405C3.10124 8.69818 3.09212 8.70994 3.07966 8.74679C3.06522 8.78953 3.04709 8.86384 3.03247 8.9925C3.00103 9.26926 2.99952 9.64586 2.99952 10.2605V13.7405C2.99952 14.3552 3.00103 14.7318 3.03247 15.0085C3.04709 15.1372 3.06522 15.2115 3.07966 15.2542C3.09212 15.2911 3.1012 15.3028 3.1044 15.3069C3.13011 15.3401 3.15992 15.3699 3.19306 15.3956C3.19719 15.3988 3.20895 15.4079 3.2458 15.4204C3.28853 15.4348 3.36285 15.4529 3.4915 15.4676C3.76827 15.499 4.14487 15.5005 4.75952 15.5005H19.2395C19.8542 15.5005 20.2308 15.499 20.5075 15.4676C20.6362 15.4529 20.7105 15.4348 20.7532 15.4204C20.7901 15.4079 20.8018 15.3988 20.8059 15.3956C20.8391 15.3699 20.8689 15.3401 20.8946 15.307C20.8978 15.3028 20.9069 15.2911 20.9194 15.2542C20.9338 15.2115 20.9519 15.1372 20.9666 15.0085C20.998 14.7318 20.9995 14.3552 20.9995 13.7405V10.2605C20.9995 9.64586 20.998 9.26926 20.9666 8.9925C20.9519 8.86384 20.9338 8.78953 20.9194 8.74679C20.9069 8.70994 20.8978 8.69823 20.8946 8.69411C20.8689 8.66096 20.8391 8.63114 20.806 8.60543C20.8019 8.60223 20.7901 8.59311 20.7532 8.58065C20.7105 8.56621 20.6362 8.54808 20.5075 8.53346C20.2308 8.50202 19.8542 8.50051 19.2395 8.50051L4.75952 8.50051C4.14487 8.50051 3.76826 8.50202 3.4915 8.53346C3.36285 8.54808 3.28853 8.56621 3.2458 8.58065C3.20895 8.59311 3.19719 8.60223 3.19306 8.60543Z" fill="currentColor"/>
</svg>
