<svg width="24" height="24" viewBox="0 0 24 24" fill="none" xmlns="http://www.w3.org/2000/svg">
<path fill-rule="evenodd" clip-rule="evenodd" d="M16.1741 12.4945C16.5308 12.2856 16.7091 12.1812 16.7235 12.0281C16.7253 12.0094 16.7253 11.9906 16.7235 11.9719C16.7091 11.8188 16.5308 11.7144 16.1741 11.5055L8.86243 7.22392C8.49907 7.01115 8.3174 6.90476 8.17591 6.96897C8.15868 6.97678 8.14223 6.98621 8.12678 6.99713C7.99988 7.08678 7.99988 7.29731 7.99988 7.71838L7.99988 16.2816C7.99988 16.7027 7.99988 16.9132 8.12678 17.0029C8.14223 17.0138 8.15868 17.0232 8.17591 17.031C8.3174 17.0952 8.49907 16.9888 8.86242 16.7761L16.1741 12.4945ZM19.9931 11.9064C19.9451 11.3961 19.3507 11.048 18.1618 10.3518L8.87504 4.91363C7.66386 4.20439 7.05827 3.84976 6.58665 4.06378C6.52922 4.08984 6.47439 4.12127 6.42288 4.15766C5.99988 4.4565 5.99988 5.15827 5.99988 6.56183V17.4382C5.99988 18.8417 5.99988 19.5435 6.42288 19.8423C6.47439 19.8787 6.52922 19.9101 6.58665 19.9362C7.05827 20.1502 7.66386 19.7956 8.87503 19.0864L18.1618 13.6482C19.3507 12.952 19.9451 12.6039 19.9931 12.0936C19.999 12.0313 19.999 11.9687 19.9931 11.9064Z" fill="currentColor"/>
</svg>
