<svg width="24" height="24" viewBox="0 0 24 24" fill="none" xmlns="http://www.w3.org/2000/svg">
<path fill-rule="evenodd" clip-rule="evenodd" d="M19.7527 4.34426L19.6596 4.25112C19.0328 3.624 18.4927 3.08366 18.0021 2.70916C17.4762 2.3078 16.8914 2.00391 16.1706 2.00391C15.4499 2.00391 14.865 2.3078 14.3392 2.70916C13.8485 3.08366 13.3085 3.624 12.6816 4.25112L10.5567 6.37693C10.3797 6.55395 10.3435 6.5882 10.3105 6.61464C10.1624 6.73326 9.98374 6.80731 9.79521 6.82816C9.75319 6.8328 9.70337 6.83421 9.45312 6.83421H8.05384C6.64718 6.83421 5.29813 7.39322 4.30347 8.38827C3.63283 9.05918 3.63282 10.1469 4.30347 10.8178L13.1885 19.7064C13.8592 20.3773 14.9465 20.3773 15.6172 19.7064C16.6118 18.7113 17.1706 17.3618 17.1706 15.9546V14.5547C17.1706 14.3044 17.172 14.2545 17.1767 14.2125C17.1975 14.0239 17.2715 13.8451 17.3901 13.697C17.4166 13.664 17.4508 13.6278 17.6277 13.4507L19.7527 11.3249C20.3796 10.6979 20.9197 10.1576 21.2941 9.66677C21.6953 9.14072 21.9991 8.55565 21.9991 7.8346C21.9991 7.11355 21.6953 6.52848 21.2941 6.00243C20.9197 5.51158 20.3796 4.97131 19.7527 4.34426ZM16.1706 4.00468C16.2783 4.00468 16.441 4.03425 16.7889 4.29982C17.1599 4.583 17.6053 5.02553 18.292 5.71246C18.9786 6.39938 19.421 6.84491 19.704 7.21607C19.9695 7.56414 19.9991 7.7269 19.9991 7.8346C19.9991 7.9423 19.9695 8.10506 19.704 8.45313C19.421 8.82429 18.9786 9.26982 18.292 9.95675L16.186 12.0635C16.0516 12.1979 15.9334 12.316 15.8291 12.4463C15.4734 12.8905 15.2513 13.4269 15.1888 13.9927C15.1705 14.1586 15.1705 14.3257 15.1706 14.5158L15.1706 15.9546C15.1706 16.3673 15.0935 16.7721 14.9471 17.1496C14.7899 17.5552 14.7113 17.758 14.4462 17.8139C14.1811 17.8698 13.9953 17.684 13.6239 17.3124L6.69656 10.3823C6.3251 10.0107 6.13938 9.82494 6.19525 9.55973C6.25112 9.29453 6.45385 9.21588 6.8593 9.05859C7.23666 8.91219 7.64127 8.83499 8.05383 8.83499L9.49204 8.835C9.68207 8.83508 9.84913 8.83516 10.0149 8.81682C10.5805 8.75428 11.1166 8.53212 11.5608 8.17627C11.691 8.07195 11.809 7.95373 11.9433 7.81925L14.0493 5.71246C14.736 5.02553 15.1813 4.583 15.5523 4.29982C15.9003 4.03425 16.063 4.00468 16.1706 4.00468Z" fill="currentColor"/>
<path d="M7.92771 17.3238C7.92771 17.4895 7.79437 17.6229 7.52771 17.8897L4.70759 20.7109C4.31707 21.1016 3.68391 21.1016 3.29338 20.7109C2.90286 20.3202 2.90286 19.6868 3.29338 19.2961L6.11349 16.4749C6.38016 16.2082 6.5135 16.0748 6.67918 16.0748C6.84487 16.0748 6.9782 16.2082 7.24487 16.4749L7.52771 16.7579C7.79437 17.0246 7.92771 17.158 7.92771 17.3238Z" fill="currentColor"/>
</svg>
