<svg width="36" height="36" viewBox="0 0 36 36" fill="none" xmlns="http://www.w3.org/2000/svg">
<path d="M13.7099 21.5256C13.8436 21.6038 13.9104 21.643 13.9607 21.6141C14.0109 21.5853 14.0109 21.5079 14.0109 21.353V19.629C14.0109 19.5874 14.0109 19.5666 14.0086 19.5479C13.9958 19.4468 13.9326 19.3591 13.8407 19.315C13.8237 19.3068 13.804 19.3002 13.7645 19.2871C13.462 19.1862 12.8754 19.0005 12.0073 19.0005C10.877 19.0005 9.99296 19.2647 9.39964 19.8915C8.8104 20.5141 8.57666 21.4227 8.57666 22.5522C8.57666 23.6521 8.80633 24.5373 9.39569 25.1421C9.98698 25.7489 10.8683 26.0002 11.9987 26.0002C12.8629 26.0002 13.5125 25.8076 13.8736 25.637C13.907 25.6213 13.9237 25.6134 13.9382 25.6044C14.0162 25.5561 14.0678 25.4746 14.0782 25.3834C14.0801 25.3665 14.0801 25.3481 14.0801 25.3112L14.0801 23.5898C14.0801 23.4196 14.0801 23.3345 14.0259 23.3066C13.9716 23.2787 13.9024 23.3281 13.7639 23.4271L13.5103 23.6082C13.2674 23.7817 12.7868 23.9995 12.1111 23.9995C11.5853 23.9995 11.2916 23.8923 11.1164 23.7075C10.9355 23.5168 10.8023 23.1615 10.8023 22.4744C10.8023 21.8214 10.9271 21.476 11.0988 21.2888C11.2627 21.1101 11.539 21.0012 12.0419 21.0012C12.7457 21.0012 13.1498 21.1977 13.4685 21.3843L13.7099 21.5256Z" fill="currentColor"/>
<path d="M15.7558 23.5076L15.4907 23.2794C15.3482 23.1566 15.2769 23.0952 15.2186 23.122C15.1602 23.1487 15.1602 23.2428 15.1602 23.4309V25.225C15.1602 25.259 15.1602 25.276 15.1619 25.2918C15.171 25.3768 15.2158 25.4539 15.2852 25.5037C15.2981 25.513 15.3129 25.5214 15.3425 25.5382C15.8586 25.8317 16.7068 26.0005 17.5271 26.0005C18.4407 26.0005 19.1581 25.8268 19.6526 25.441C20.1646 25.0415 20.3783 24.4626 20.3783 23.7979C20.3783 23.1271 20.1502 22.6365 19.7879 22.281C19.4393 21.9389 18.9903 21.7459 18.5898 21.6101C18.4231 21.5536 18.2555 21.5042 18.1029 21.4592L18.0099 21.4317C17.8283 21.3777 17.6759 21.33 17.5505 21.2782C17.2851 21.1684 17.2899 21.1025 17.2907 21.0909C17.2907 21.0267 17.3033 21.0101 17.3386 20.9869C17.4068 20.9423 17.5802 20.8804 17.9682 20.8804C18.5401 20.8804 19.1275 21.0896 19.504 21.3456L19.7545 21.516C19.8918 21.6094 19.9605 21.6561 20.0137 21.6279C20.067 21.5998 20.067 21.5167 20.067 21.3506V19.6552C20.067 19.6165 20.067 19.5972 20.0649 19.5796C20.0536 19.4845 19.9976 19.4006 19.9142 19.3536C19.8987 19.3449 19.8809 19.3374 19.8452 19.3226C19.3721 19.1255 18.655 19.0008 17.8558 19.0008C16.9557 19.0008 16.2671 19.1721 15.7999 19.5502C15.3162 19.9416 15.1343 20.5001 15.1343 21.1168C15.1343 21.7854 15.3522 22.2751 15.7023 22.6318C16.04 22.9758 16.4753 23.1697 16.8622 23.3064C17.0176 23.3613 17.1743 23.4098 17.3171 23.4541L17.4208 23.4864C17.5953 23.541 17.7405 23.5893 17.8594 23.6418C18.1096 23.7522 18.1095 23.8197 18.1095 23.8498C18.1095 23.9288 18.0866 23.9699 18.0288 24.0084C17.9485 24.062 17.7762 24.1208 17.4493 24.1208C16.5946 24.1208 16.0263 23.7405 15.7558 23.5076Z" fill="currentColor"/>
<path d="M20.8928 19.2367C20.9827 19.1132 21.1709 19.1132 21.5474 19.1132H22.5885C22.8031 19.1132 22.9103 19.1132 22.99 19.1723C23.0696 19.2314 23.1007 19.3341 23.1628 19.5394L24.0344 22.4188C24.0736 22.5486 24.0933 22.6135 24.1305 22.6134C24.1676 22.6134 24.1871 22.5484 24.2259 22.4185L25.0857 19.5414C25.1473 19.3352 25.1782 19.232 25.2579 19.1726C25.3377 19.1132 25.4453 19.1132 25.6606 19.1132H26.6063C26.9824 19.1132 27.1704 19.1132 27.2603 19.2365C27.3502 19.3598 27.2926 19.5388 27.1775 19.8968L25.3856 25.4717C25.3211 25.6725 25.2888 25.7729 25.2098 25.8305C25.1308 25.8881 25.0254 25.8881 24.8144 25.8881H23.3473C23.1366 25.8881 23.0313 25.8881 22.9524 25.8306C22.8734 25.7731 22.8411 25.6729 22.7764 25.4725L20.9765 19.8976C20.8608 19.5393 20.8029 19.3601 20.8928 19.2367Z" fill="currentColor"/>
<path fill-rule="evenodd" clip-rule="evenodd" d="M8.57494 3.11924C9.45869 3.00043 10.5753 3.00046 11.9294 3.00049L18.9289 3.00049C20.1552 3.00049 20.7683 3.00049 21.3196 3.22885C21.8709 3.45721 22.3045 3.89075 23.1716 4.75783L29.2426 10.8289C30.1097 11.696 30.5433 12.1296 30.7716 12.6809C31 13.2322 31 13.8453 31 15.0716L31 26.0711C31 27.4252 31.0001 28.5418 30.8813 29.4256C30.7565 30.3534 30.4845 31.1728 29.8284 31.8289C29.1723 32.485 28.3529 32.757 27.4251 32.8817C26.5413 33.0006 25.4247 33.0005 24.0706 33.0005H11.9294C10.5753 33.0005 9.45869 33.0006 8.57494 32.8817C7.64711 32.757 6.82769 32.485 6.17158 31.8289C5.51547 31.1728 5.2435 30.3534 5.11876 29.4256C4.99994 28.5418 4.99997 27.4252 5 26.0711L5 9.92989C4.99997 8.57578 4.99994 7.45918 5.11876 6.57543C5.2435 5.6476 5.51547 4.82817 6.17158 4.17207C6.82769 3.51596 7.64711 3.24399 8.57494 3.11924ZM19.8828 5.11765C20 5.23481 20 5.42337 20 5.80049L20 9.06635C20 9.95284 19.9999 10.7166 20.0821 11.3283C20.1703 11.9838 20.369 12.6122 20.8787 13.1218C21.3884 13.6315 22.0167 13.8302 22.6722 13.9184C23.2839 14.0006 24.0477 14.0006 24.9342 14.0005L28.2 14.0005C28.5771 14.0005 28.7657 14.0005 28.8828 14.1177C29 14.2348 29 14.4234 29 14.8005L29 26.0005C29 27.443 28.9979 28.4242 28.8991 29.1591C28.8042 29.8651 28.6368 30.1921 28.4142 30.4147C28.1916 30.6373 27.8646 30.8046 27.1586 30.8996C26.4238 30.9984 25.4425 31.0005 24 31.0005H12C10.5575 31.0005 9.57626 30.9984 8.84144 30.8996C8.13538 30.8046 7.80836 30.6373 7.58579 30.4147C7.36322 30.1921 7.19585 29.8651 7.10092 29.1591C7.00213 28.4242 7 27.443 7 26.0005V10.0005C7 8.55801 7.00213 7.57674 7.10092 6.84192C7.19585 6.13587 7.36322 5.80885 7.58579 5.58628C7.80836 5.36371 8.13538 5.19634 8.84144 5.10141C9.57626 5.00261 10.5575 5.00049 12 5.00049L19.2 5.00049C19.5771 5.00049 19.7657 5.00049 19.8828 5.11765ZM27.2877 11.8771C27.2366 12.0005 27.0311 12.0005 26.6201 12.0005H25C24.0289 12.0005 23.4012 11.9984 22.9387 11.9362C22.505 11.8779 22.369 11.7837 22.2929 11.7076C22.2168 11.6315 22.1226 11.4956 22.0643 11.0618C22.0021 10.5993 22 9.9716 22 9.00052V7.38042C22 6.96943 22 6.76394 22.1235 6.7128C22.2469 6.66166 22.3922 6.80696 22.6828 7.09757L26.903 11.3177C27.1936 11.6083 27.3389 11.7536 27.2877 11.8771Z" fill="currentColor"/>
</svg>
