<svg width="36" height="36" viewBox="0 0 36 36" fill="none" xmlns="http://www.w3.org/2000/svg">
<path d="M10.4941 20.1307C9.48829 20.2656 8.98541 20.333 8.58655 20.6123C8.1877 20.8916 7.95239 21.3411 7.48178 22.2402L4.31623 28.2877C3.31932 30.1922 4.99876 32.394 7.10078 31.9384L8.64436 31.6039C17.6244 29.6575 26.0175 25.6195 33.1405 19.8187C34.293 18.8801 34.293 17.1209 33.1405 16.1822C26.0175 10.3814 17.6243 6.34353 8.6442 4.39725L7.08653 4.05965C4.98182 3.60349 3.30118 5.80961 4.30155 7.71539L7.4761 13.7632C7.94703 14.6603 8.18249 15.1089 8.58094 15.3876C8.97938 15.6664 9.48151 15.7338 10.4858 15.8685L16.8749 16.726C17.5133 16.8117 17.9899 17.3565 17.9899 18.0006C17.9899 18.6448 17.5132 19.1896 16.8748 19.2752L10.4941 20.1307Z" fill="currentColor"/>
</svg>
