<svg width="24" height="24" viewBox="0 0 24 24" fill="none" xmlns="http://www.w3.org/2000/svg">
<path d="M6.98928 11.7976C6.92522 11.8583 6.78796 11.9211 6.47713 11.9211L6.46929 11.9211C6.38005 11.921 6.33544 11.921 6.30618 11.8917C6.27693 11.8624 6.27693 11.8167 6.27693 11.7252V11.0887C6.27693 10.9983 6.27693 10.9531 6.30519 10.924L6.30727 10.922C6.33637 10.8937 6.38109 10.8937 6.47053 10.8937C6.80859 10.8937 6.94376 10.9561 7.00161 11.0105C7.05343 11.0592 7.09973 11.1554 7.09973 11.3975C7.09973 11.634 7.04904 11.741 6.98928 11.7976Z" fill="currentColor"/>
<path fill-rule="evenodd" clip-rule="evenodd" d="M3.08215 4.67222C3.01953 5.13797 3.00461 5.69195 3.00109 6.32114C3.00103 6.33107 3.001 6.33603 3.0009 6.33896C2.99738 6.43949 2.92899 6.51566 2.82942 6.52995C2.82651 6.53036 2.81985 6.53112 2.80653 6.53263C2.48564 6.56909 2.11334 6.65663 1.7742 6.9197C1.64163 7.02253 1.52253 7.14163 1.4197 7.2742C1.15663 7.61335 1.06909 7.98564 1.03263 8.30653C0.999889 8.59474 0.999946 8.93994 1 9.29479V14.7052C0.999946 15.0601 0.999889 15.4053 1.03263 15.6935C1.06909 16.0144 1.15663 16.3867 1.4197 16.7258C1.52253 16.8584 1.64163 16.9775 1.7742 17.0803C2.11334 17.3434 2.48564 17.4309 2.80653 17.4674C2.81985 17.4689 2.82651 17.4697 2.82942 17.4701C2.92899 17.4844 2.99738 17.5605 3.0009 17.6611C3.001 17.664 3.00103 17.669 3.00108 17.6789C3.00461 18.3081 3.01953 18.862 3.08215 19.3278C3.17028 19.9833 3.36902 20.6117 3.87868 21.1213C4.38835 21.631 5.0167 21.8297 5.67221 21.9179C6.28388 22.0001 7.0477 22.0001 7.9342 22H16.0658C16.9523 22.0001 17.7161 22.0001 18.3278 21.9179C18.9833 21.8297 19.6117 21.631 20.1213 21.1213C20.631 20.6117 20.8297 19.9833 20.9179 19.3278C20.9805 18.862 20.9954 18.3081 20.9989 17.6789C20.999 17.669 20.999 17.664 20.9991 17.6611C21.0026 17.5605 21.071 17.4844 21.1706 17.4701C21.1735 17.4697 21.1802 17.4689 21.1935 17.4674C21.5144 17.4309 21.8867 17.3434 22.2258 17.0803C22.3584 16.9775 22.4775 16.8584 22.5803 16.7258C22.8434 16.3867 22.9309 16.0144 22.9674 15.6935C23.0001 15.4053 23.0001 15.0601 23 14.7052V9.29474C23.0001 8.93991 23.0001 8.59472 22.9674 8.30653C22.9309 7.98564 22.8434 7.61335 22.5803 7.2742C22.4775 7.14163 22.3584 7.02253 22.2258 6.9197C21.8867 6.65663 21.5144 6.56909 21.1935 6.53263C21.1802 6.53112 21.1735 6.53036 21.1706 6.52994C21.071 6.51566 21.0026 6.43949 20.9991 6.33897C20.999 6.33603 20.999 6.33107 20.9989 6.32113C20.9954 5.69195 20.9805 5.13797 20.9179 4.67221C20.8297 4.0167 20.631 3.38835 20.1213 2.87868C19.6117 2.36902 18.9833 2.17028 18.3278 2.08215C17.7161 1.99991 16.9523 1.99995 16.0658 2L7.93417 2C7.04769 1.99995 6.28387 1.99991 5.67221 2.08215C5.0167 2.17028 4.38835 2.36902 3.87868 2.87869C3.36902 3.38835 3.17028 4.0167 3.08215 4.67222ZM18.9967 17.9014C18.9989 17.713 19 17.6188 18.9412 17.5594C18.8825 17.5 18.7877 17.5 18.5982 17.5L5.40185 17.5C5.21227 17.5 5.11748 17.5 5.05876 17.5594C5.00005 17.6188 5.00112 17.713 5.00327 17.9014C5.00886 18.3904 5.0239 18.7607 5.06431 19.0613C5.12263 19.495 5.21677 19.631 5.2929 19.7071C5.36902 19.7832 5.50497 19.8774 5.93871 19.9357C6.40122 19.9979 7.02893 20 8 20H16C16.9711 20 17.5988 19.9979 18.0613 19.9357C18.495 19.8774 18.631 19.7832 18.7071 19.7071C18.7832 19.631 18.8774 19.495 18.9357 19.0613C18.9761 18.7607 18.9912 18.3904 18.9967 17.9014ZM18.9357 4.93871C18.9761 5.23927 18.9912 5.6096 18.9967 6.0986C18.9989 6.28702 19 6.38123 18.9412 6.44062C18.8825 6.50001 18.7877 6.50001 18.5982 6.50001L5.40185 6.50001C5.21227 6.50001 5.11748 6.50001 5.05876 6.44062C5.00005 6.38124 5.00112 6.28703 5.00327 6.09861C5.00885 5.60961 5.0239 5.23927 5.06431 4.93871C5.12263 4.50497 5.21677 4.36902 5.2929 4.2929C5.36902 4.21677 5.50497 4.12263 5.93871 4.06431C6.40122 4.00213 7.02893 4.00001 8 4.00001L16 4.00001C16.9711 4.00001 17.5988 4.00213 18.0613 4.06431C18.495 4.12263 18.631 4.21677 18.7071 4.2929C18.7832 4.36902 18.8774 4.50497 18.9357 4.93871ZM5.1198 9.48923C4.94226 9.49746 4.85349 9.50157 4.78766 9.54196C4.74338 9.56912 4.70691 9.60732 4.68183 9.65281C4.64453 9.72044 4.64453 9.80931 4.64453 9.98703L4.64453 14.0557C4.64453 14.3385 4.64453 14.48 4.7324 14.5678C4.82027 14.6557 4.96169 14.6557 5.24453 14.6557H5.67693C5.95977 14.6557 6.1012 14.6557 6.18906 14.5678C6.27693 14.48 6.27693 14.3385 6.27693 14.0557V13.5591C6.27693 13.4688 6.27693 13.4237 6.30269 13.3951C6.30503 13.3925 6.30734 13.3902 6.30994 13.3879C6.33848 13.3621 6.3847 13.3621 6.47713 13.3621C7.20383 13.3621 7.78732 13.2214 8.18905 12.8712C8.59932 12.5135 8.76513 11.9867 8.76513 11.3447C8.76513 10.7207 8.62136 10.2151 8.21035 9.882C7.81554 9.56206 7.23289 9.4527 6.49033 9.4527C5.89276 9.4527 5.57036 9.46794 5.1198 9.48923ZM10.0411 9.4857C9.75829 9.4857 9.61687 9.4857 9.529 9.57357C9.44113 9.66144 9.44113 9.80286 9.44113 10.0857L9.44113 14.0557C9.44113 14.3385 9.44113 14.48 9.529 14.5678C9.61687 14.6557 9.75829 14.6557 10.0411 14.6557H10.4405C10.7234 14.6557 10.8648 14.6557 10.9527 14.5678C11.0405 14.48 11.0405 14.3385 11.0405 14.0557V12.6615C11.0405 12.5209 11.0405 12.4507 11.0767 12.4402C11.1128 12.4298 11.1503 12.4893 11.2252 12.6082L12.338 14.3754C12.4243 14.5125 12.4675 14.581 12.5351 14.6183C12.6028 14.6557 12.6838 14.6557 12.8457 14.6557H13.4699C13.7528 14.6557 13.8942 14.6557 13.9821 14.5678C14.0699 14.48 14.0699 14.3385 14.0699 14.0557L14.0699 10.0857C14.0699 9.80286 14.0699 9.66144 13.9821 9.57357C13.8942 9.4857 13.7528 9.4857 13.4699 9.4857H13.0639C12.7811 9.4857 12.6397 9.4857 12.5518 9.57357C12.4639 9.66144 12.4639 9.80286 12.4639 10.0857L12.4639 11.4024C12.4639 11.5427 12.4639 11.6129 12.4278 11.6233C12.3917 11.6338 12.3543 11.5744 12.2794 11.4558L11.2125 9.76546C11.1262 9.62867 11.083 9.56028 11.0154 9.52299C10.9478 9.4857 10.8669 9.4857 10.7051 9.4857H10.0411ZM19.2674 11.5866C19.3552 11.6744 19.3552 11.8159 19.3552 12.0987V14.1167C19.3552 14.2191 19.2984 14.313 19.2076 14.3604C18.8757 14.5339 18.2178 14.7415 17.3972 14.7415C16.558 14.7415 15.8858 14.5565 15.4276 14.0993C14.9694 13.6421 14.7792 12.9664 14.7792 12.1103C14.7792 11.2485 14.9576 10.5524 15.4237 10.0765C15.891 9.5994 16.5918 9.3999 17.5028 9.3999C18.18 9.3999 18.628 9.51717 18.8803 9.62756C18.9804 9.67135 19.045 9.77025 19.045 9.8795L19.045 11.0486C19.045 11.2057 19.045 11.2843 18.9942 11.313C18.9433 11.3417 18.8761 11.3011 18.7416 11.2198L18.6278 11.1511C18.3566 10.9872 18.0103 10.8805 17.5754 10.8805C17.0917 10.8805 16.8335 10.9804 16.6872 11.1327C16.5383 11.2876 16.4446 11.559 16.4446 12.0509C16.4446 12.5642 16.5442 12.8507 16.6907 13.0118C16.8312 13.1662 17.0665 13.2609 17.483 13.2609C17.5821 13.2609 17.6683 13.2553 17.7452 13.2462C17.7991 13.2399 17.826 13.2367 17.8437 13.2168C17.8614 13.197 17.8614 13.1685 17.8614 13.1117V13.0599C17.8614 12.9939 17.8614 12.9609 17.8409 12.9404C17.8204 12.9199 17.7874 12.9199 17.7214 12.9199H17.6232C17.3404 12.9199 17.199 12.9199 17.1111 12.832C17.0232 12.7442 17.0232 12.6027 17.0232 12.3199V12.0987C17.0232 11.8159 17.0232 11.6744 17.1111 11.5866C17.199 11.4987 17.3404 11.4987 17.6232 11.4987H18.7552C19.0381 11.4987 19.1795 11.4987 19.2674 11.5866Z" fill="currentColor"/>
</svg>
