<svg width="24" height="24" viewBox="0 0 24 24" fill="none" xmlns="http://www.w3.org/2000/svg">
<path d="M7.85463 3.14693C8.00107 3.29338 8.00107 3.52908 8.00107 4.00049V6.40039C8.00107 6.87179 8.00107 7.10749 7.85463 7.25394C7.70818 7.40039 7.47248 7.40039 7.00107 7.40039L2.40039 7.40039C2.17953 7.40039 2.00049 7.22135 2.00049 7.00049C2.00049 5.11487 2.00049 4.17206 2.58627 3.58628C3.17206 3.00049 4.11487 3.00049 6.00049 3.00049L7.00107 3.00049C7.47248 3.00049 7.70818 3.00049 7.85463 3.14693Z" fill="currentColor"/>
<path d="M10.5475 3.14694C10.4011 3.29338 10.4011 3.52908 10.4011 4.00049C10.4011 9.33382 10.4011 14.6672 10.4011 20.0005C10.4011 20.4719 10.4011 20.7076 10.5475 20.854C10.694 21.0005 10.9297 21.0005 11.4011 21.0005H18.0005C19.8861 21.0005 20.8289 21.0005 21.4147 20.4147C21.8863 19.9431 21.9782 19.2401 21.9961 18H22V17.507C22.0005 17.3462 22.0005 17.1775 22.0005 17.0005C22.0005 16.9938 22.0003 16.9872 22 16.9806V13.3962C22.0005 13.3359 22.0005 13.2709 22.0005 13.2007V10.8004C22.0005 10.7301 22.0005 10.6651 22 10.6049V7.02029C22.0003 7.01373 22.0005 7.00712 22.0005 7.00047C22.0005 5.11487 22.0005 4.17206 21.4147 3.58627C20.8289 3.00049 19.8861 3.00049 18.0005 3.00049L11.4011 3.00049C10.9297 3.00049 10.694 3.00049 10.5475 3.14694Z" fill="currentColor"/>
<path d="M3.00049 9.80039C2.52908 9.80039 2.29338 9.80039 2.14693 9.94684C2.00049 10.0933 2.00049 10.329 2.00049 10.8004V13.2007C2.00049 13.6721 2.00049 13.9078 2.14693 14.0542C2.29338 14.2007 2.52908 14.2007 3.00049 14.2007H7.00107C7.47248 14.2007 7.70818 14.2007 7.85463 14.0542C8.00107 13.9078 8.00107 13.6721 8.00107 13.2007L8.00107 10.8004C8.00107 10.329 8.00107 10.0933 7.85463 9.94684C7.70818 9.80039 7.47248 9.80039 7.00107 9.80039H3.00049Z" fill="currentColor"/>
<path d="M2.00049 17.0005C2.00049 16.7797 2.17949 16.6007 2.40029 16.6007H7.00107C7.47247 16.6007 7.70818 16.6007 7.85463 16.7471C8.00107 16.8936 8.00107 17.1293 8.00107 17.6007L8.00107 20.0005C8.00107 20.4719 8.00107 20.7076 7.85463 20.854C7.70818 21.0005 7.47248 21.0005 7.00107 21.0005H6.00049C4.11487 21.0005 3.17206 21.0005 2.58627 20.4147C2.00049 19.8289 2.00049 18.8861 2.00049 17.0005Z" fill="currentColor"/>
</svg>
