<svg width="24" height="24" viewBox="0 0 24 24" fill="none" xmlns="http://www.w3.org/2000/svg">
<path d="M4.61742 11.8662C4.66633 11.8676 4.71795 11.8683 4.7776 11.8683C5.09358 11.8683 5.24827 11.8048 5.32757 11.7297C5.40342 11.6579 5.4552 11.5323 5.4552 11.2897C5.4552 11.0432 5.40859 10.9273 5.33974 10.8626C5.26607 10.7934 5.11273 10.7309 4.771 10.7309C4.71427 10.7309 4.66471 10.7309 4.61842 10.7315C4.56476 10.7322 4.5224 10.7764 4.5224 10.83L4.5224 11.7673C4.5224 11.8206 4.56417 11.8646 4.61742 11.8662Z" fill="currentColor"/>
<path d="M9.06303 11.8666C9.11194 11.868 9.16355 11.8687 9.22321 11.8687C9.53919 11.8687 9.69388 11.8053 9.77318 11.7302C9.84903 11.6583 9.90081 11.5327 9.90081 11.2901C9.90081 11.0436 9.85419 10.9277 9.78535 10.863C9.71168 10.7938 9.55833 10.7313 9.21661 10.7313C9.15988 10.7313 9.11032 10.7313 9.06402 10.7319C9.01036 10.7326 8.96801 10.7768 8.96801 10.8304V11.7677C8.96801 11.821 9.00977 11.865 9.06303 11.8666Z" fill="currentColor"/>
<path fill-rule="evenodd" clip-rule="evenodd" d="M3.08215 19.3278C3.01953 18.862 3.00461 18.3081 3.00109 17.6789C3.00103 17.6689 3.001 17.664 3.0009 17.661C2.99738 17.5605 2.92899 17.4843 2.82942 17.4701C2.82651 17.4696 2.81985 17.4689 2.80653 17.4674C2.48564 17.4309 2.11334 17.3434 1.7742 17.0803C1.64163 16.9775 1.52253 16.8584 1.4197 16.7258C1.15663 16.3867 1.06909 16.0144 1.03263 15.6935C0.999889 15.4053 0.999946 15.0601 1 14.7052V9.29477C0.999946 8.93992 0.999889 8.59471 1.03263 8.30651C1.06909 7.98562 1.15663 7.61332 1.4197 7.27418C1.52253 7.14161 1.64163 7.02251 1.7742 6.91968C2.11334 6.65661 2.48564 6.56907 2.80653 6.53261C2.81985 6.5311 2.82652 6.53034 2.82942 6.52992C2.92899 6.51564 2.99738 6.43947 3.0009 6.33894C3.001 6.33601 3.00103 6.33105 3.00109 6.32112C3.00461 5.69194 3.01953 5.13797 3.08215 4.67222C3.17028 4.0167 3.36902 3.38835 3.87868 2.87869C4.38835 2.36902 5.0167 2.17028 5.67221 2.08215C6.28387 1.99991 7.04769 1.99995 7.93417 2L16.0658 2C16.9523 1.99995 17.7161 1.99991 18.3278 2.08215C18.9833 2.17028 19.6117 2.36902 20.1213 2.87868C20.631 3.38835 20.8297 4.0167 20.9179 4.67221C20.9805 5.13797 20.9954 5.69194 20.9989 6.32111C20.999 6.33104 20.999 6.33601 20.9991 6.33895C21.0026 6.43947 21.071 6.51564 21.1706 6.52992C21.1735 6.53034 21.1802 6.5311 21.1935 6.53261C21.5144 6.56907 21.8867 6.65661 22.2258 6.91968C22.3584 7.02251 22.4775 7.14161 22.5803 7.27418C22.8434 7.61332 22.9309 7.98562 22.9674 8.30651C23.0001 8.5947 23.0001 8.93989 23 9.29472V14.7052C23.0001 15.06 23.0001 15.4053 22.9674 15.6935C22.9309 16.0144 22.8434 16.3867 22.5803 16.7258C22.4775 16.8584 22.3584 16.9775 22.2258 17.0803C21.8867 17.3434 21.5144 17.4309 21.1935 17.4674C21.1802 17.4689 21.1735 17.4696 21.1706 17.4701C21.071 17.4843 21.0026 17.5605 20.9991 17.661C20.999 17.664 20.999 17.6689 20.9989 17.6789C20.9954 18.3081 20.9805 18.862 20.9179 19.3278C20.8297 19.9833 20.631 20.6117 20.1213 21.1213C19.6117 21.631 18.9833 21.8297 18.3278 21.9179C17.7161 22.0001 16.9523 22.0001 16.0658 22H7.9342C7.0477 22.0001 6.28388 22.0001 5.67221 21.9179C5.0167 21.8297 4.38835 21.631 3.87868 21.1213C3.36902 20.6117 3.17028 19.9833 3.08215 19.3278ZM18.9357 4.93871C18.9761 5.23927 18.9912 5.60959 18.9967 6.09858C18.9989 6.287 19 6.38121 18.9412 6.4406C18.8825 6.49998 18.7877 6.49998 18.5982 6.49998L5.40185 6.49999C5.21227 6.49999 5.11748 6.49999 5.05876 6.4406C5.00005 6.38121 5.00112 6.287 5.00327 6.09858C5.00886 5.6096 5.0239 5.23927 5.06431 4.93871C5.12263 4.50497 5.21677 4.36902 5.2929 4.2929C5.36902 4.21677 5.50497 4.12263 5.93871 4.06431C6.40122 4.00213 7.02893 4.00001 8.00001 4.00001L16 4.00001C16.9711 4.00001 17.5988 4.00213 18.0613 4.06431C18.495 4.12263 18.631 4.21677 18.7071 4.2929C18.7832 4.36902 18.8774 4.50497 18.9357 4.93871ZM5.00327 17.9014C5.00112 17.713 5.00005 17.6188 5.05876 17.5594C5.11748 17.5 5.21227 17.5 5.40185 17.5L18.5982 17.5C18.7877 17.5 18.8825 17.5 18.9412 17.5594C19 17.6188 18.9989 17.713 18.9967 17.9014C18.9912 18.3904 18.9761 18.7607 18.9357 19.0613C18.8774 19.495 18.7832 19.631 18.7071 19.7071C18.631 19.7832 18.495 19.8774 18.0613 19.9357C17.5988 19.9979 16.9711 20 16 20H8C7.02893 20 6.40122 19.9979 5.93871 19.9357C5.50497 19.8774 5.36902 19.7832 5.2929 19.7071C5.21677 19.631 5.12263 19.495 5.06431 19.0613C5.0239 18.7607 5.00885 18.3904 5.00327 17.9014ZM3 9.74239C3 9.58211 3.12599 9.45014 3.2861 9.44271L3.42292 9.43636C3.87332 9.41508 4.19457 9.3999 4.7908 9.3999C5.53071 9.3999 6.09682 9.5095 6.47619 9.81693C6.86852 10.1349 7.0106 10.6202 7.0106 11.2369C7.0106 11.8699 6.84726 12.3785 6.45338 12.7219C6.06632 13.0594 5.49888 13.1993 4.7776 13.1993C4.72445 13.1993 4.67492 13.1987 4.62693 13.1975C4.56995 13.196 4.5224 13.2414 4.5224 13.2984V14.1929C4.5224 14.3586 4.38809 14.4929 4.2224 14.4929H3.3C3.13431 14.4929 3 14.3586 3 14.1929L3 9.74239ZM7.44561 9.7428C7.44561 9.58252 7.5716 9.45055 7.7317 9.44312L7.86854 9.43677C8.31885 9.4155 8.64025 9.40031 9.23641 9.40031C9.97631 9.40031 10.5424 9.50991 10.9218 9.81734C11.3141 10.1353 11.4562 10.6206 11.4562 11.2373C11.4562 11.8703 11.2929 12.3789 10.899 12.7223C10.5119 13.0598 9.94448 13.1997 9.22321 13.1997C9.17006 13.1997 9.12052 13.1991 9.07253 13.1979C9.01556 13.1964 8.96801 13.2418 8.96801 13.2988L8.96801 14.1933C8.96801 14.359 8.83369 14.4933 8.66801 14.4933H7.74561C7.57992 14.4933 7.44561 14.359 7.44561 14.1933L7.44561 9.7428ZM12.999 10.8039C13.0542 10.8039 13.099 10.8487 13.099 10.9039V14.1933C13.099 14.359 13.2333 14.4933 13.399 14.4933H14.3148C14.4805 14.4933 14.6148 14.359 14.6148 14.1933V10.9039C14.6148 10.8487 14.6596 10.8039 14.7148 10.8039L15.648 10.8039C15.8137 10.8039 15.948 10.6696 15.948 10.5039V9.73331C15.948 9.56763 15.8137 9.43331 15.648 9.43331L12.0658 9.43331C11.9001 9.43331 11.7658 9.56763 11.7658 9.73331V10.5039C11.7658 10.6696 11.9001 10.8039 12.0658 10.8039L12.999 10.8039ZM17.5651 12.0002C17.5995 11.9395 17.5999 11.8654 17.5661 11.8044L16.4165 9.73027C16.3426 9.59697 16.4391 9.43331 16.5915 9.43331H17.8913C17.9647 9.43331 18.0321 9.47345 18.0671 9.53791L18.6696 10.6481C18.6921 10.6895 18.7514 10.69 18.7746 10.6489L19.4029 9.53505C19.4384 9.47219 19.505 9.43331 19.5771 9.43331H20.8582C21.0133 9.43331 21.1094 9.60222 21.0301 9.73554L19.8122 11.7835C19.775 11.8461 19.7747 11.924 19.8115 11.9868L21.1031 14.1922C21.1812 14.3256 21.085 14.4933 20.9305 14.4933H19.6103C19.5389 14.4933 19.4729 14.4552 19.4371 14.3934L18.7294 13.1697C18.706 13.1292 18.6474 13.1299 18.6249 13.1708L17.9543 14.3897C17.9191 14.4536 17.852 14.4933 17.779 14.4933H16.492C16.3387 14.4933 16.2424 14.3278 16.3182 14.1945L17.5651 12.0002Z" fill="currentColor"/>
</svg>
