<svg width="24" height="24" viewBox="0 0 24 24" fill="none" xmlns="http://www.w3.org/2000/svg">
<path d="M5.4 18.4006C6.1732 18.4006 6.8 17.7738 6.8 17.0006C6.8 16.2274 6.1732 15.6006 5.4 15.6006C4.6268 15.6006 4 16.2274 4 17.0006C4 17.7738 4.6268 18.4006 5.4 18.4006Z" fill="currentColor"/>
<path d="M5.4 8.40059C6.1732 8.40059 6.8 7.77378 6.8 7.00059C6.8 6.22739 6.1732 5.60059 5.4 5.60059C4.6268 5.60059 4 6.22739 4 7.00059C4 7.77378 4.6268 8.40059 5.4 8.40059Z" fill="currentColor"/>
<path d="M8.5 16.4C8.5 16.1791 8.67909 16 8.9 16L19.6 16C19.8209 16 20 16.1791 20 16.4V17.6C20 17.8209 19.8209 18 19.6 18L8.9 18C8.67909 18 8.5 17.8209 8.5 17.6V16.4Z" fill="currentColor"/>
<path d="M8.9 11C8.67909 11 8.5 11.1791 8.5 11.4L8.5 12.6C8.5 12.8209 8.67909 13 8.9 13L19.6 13C19.8209 13 20 12.8209 20 12.6V11.4C20 11.1791 19.8209 11 19.6 11L8.9 11Z" fill="currentColor"/>
<path d="M8.9 6C8.67909 6 8.5 6.17909 8.5 6.4V7.6C8.5 7.82091 8.67909 8 8.9 8L19.6 8C19.8209 8 20 7.82091 20 7.6V6.4C20 6.17909 19.8209 6 19.6 6L8.9 6Z" fill="currentColor"/>
<path d="M6.8 12.0006C6.8 12.7738 6.1732 13.4006 5.4 13.4006C4.6268 13.4006 4 12.7738 4 12.0006C4 11.2274 4.6268 10.6006 5.4 10.6006C6.1732 10.6006 6.8 11.2274 6.8 12.0006Z" fill="currentColor"/>
</svg>
