<svg width="16" height="16" viewBox="0 0 16 16" fill="none" xmlns="http://www.w3.org/2000/svg">
<path d="M5.03033 3.71772C4.73744 3.42483 4.26257 3.42482 3.96967 3.71771C3.67678 4.0106 3.67678 4.48548 3.96967 4.77837L7.46784 8.27659C7.60849 8.41725 7.79926 8.49627 7.99817 8.49627C8.19709 8.49627 8.38785 8.41725 8.52851 8.2766L12.0267 4.7784C12.3196 4.4855 12.3196 4.01063 12.0267 3.71774C11.7338 3.42484 11.2589 3.42484 10.966 3.71774L8.35173 6.33205C8.18507 6.49871 8.10173 6.58205 7.99818 6.58205C7.89463 6.58205 7.81129 6.49871 7.64463 6.33205L5.03033 3.71772Z" fill="currentColor"/>
<path d="M5.03033 7.71967C4.73744 7.42678 4.26257 7.42678 3.96967 7.71967C3.67678 8.01256 3.67678 8.48743 3.96967 8.78033L7.46784 12.2785C7.60849 12.4192 7.79926 12.4982 7.99817 12.4982C8.19709 12.4982 8.38785 12.4192 8.52851 12.2785L12.0267 8.78035C12.3196 8.48746 12.3196 8.01258 12.0267 7.71969C11.7338 7.4268 11.2589 7.4268 10.966 7.71969L8.35173 10.334C8.18507 10.5007 8.10173 10.584 7.99818 10.584C7.89462 10.584 7.81129 10.5007 7.64462 10.334L5.03033 7.71967Z" fill="currentColor"/>
</svg>
