<svg width="36" height="36" viewBox="0 0 36 36" fill="none" xmlns="http://www.w3.org/2000/svg">
<path fill-rule="evenodd" clip-rule="evenodd" d="M21.7029 19.0046C23.1859 19.8437 23.9274 20.2632 23.9867 20.8859C23.9939 20.9616 23.9939 21.0379 23.9867 21.1136C23.9273 21.7363 23.1857 22.1557 21.7025 22.9945L16.4203 25.9819C14.9763 26.7986 14.2543 27.2069 13.6952 26.9476C13.627 26.916 13.562 26.8781 13.5009 26.8343C13 26.4753 13 25.6458 13 23.9869V18.0109C13 16.3516 13 15.522 13.501 15.163C13.5621 15.1192 13.6271 15.0813 13.6953 15.0497C14.2545 14.7904 14.9765 15.199 16.4207 16.016L21.7029 19.0046ZM20.2843 21.4982L15.8557 24.0028C15.4947 24.207 15.3142 24.3091 15.1744 24.2443C15.1574 24.2364 15.1411 24.2269 15.1258 24.2159C15.0006 24.1262 15.0006 23.9188 15.0006 23.5041L15.0006 18.4938C15.0006 18.079 15.0006 17.8715 15.1259 17.7818C15.1411 17.7708 15.1574 17.7614 15.1744 17.7535C15.3142 17.6887 15.4947 17.7908 15.8558 17.9951L20.2844 20.5007C20.6551 20.7105 20.8405 20.8154 20.8553 20.971C20.8571 20.99 20.8571 21.009 20.8553 21.028C20.8405 21.1836 20.6551 21.2885 20.2843 21.4982Z" fill="currentColor"/>
<path fill-rule="evenodd" clip-rule="evenodd" d="M11.9294 3L18.9289 3C20.1552 3 20.7683 3 21.3196 3.22837C21.8709 3.45673 22.3045 3.89027 23.1716 4.75736L29.2426 10.8284C30.1097 11.6955 30.5433 12.1291 30.7716 12.6804C31 13.2317 31 13.8448 31 15.0711V26.0706C31 27.4247 31.0001 28.5413 30.8813 29.4251C30.7565 30.3529 30.4845 31.1723 29.8284 31.8284C29.1723 32.4845 28.3529 32.7565 27.4251 32.8813C26.5413 33.0001 25.4247 33 24.0706 33H11.9294C10.5753 33 9.4587 33.0001 8.57494 32.8813C7.64711 32.7565 6.82769 32.4845 6.17158 31.8284C5.51547 31.1723 5.2435 30.3529 5.11876 29.4251C4.99994 28.5413 4.99997 27.4247 5 26.0706V9.9294C4.99997 8.57531 4.99994 7.45868 5.11876 6.57494C5.2435 5.64711 5.51547 4.82769 6.17158 4.17158C6.82769 3.51547 7.64711 3.2435 8.57494 3.11876C9.45868 2.99994 10.5753 2.99997 11.9294 3ZM19.8828 5.11716C20 5.23432 20 5.42288 20 5.80001L20 9.06586C20 9.95235 19.9999 10.7162 20.0821 11.3278C20.1703 11.9833 20.369 12.6117 20.8787 13.1214C21.3884 13.631 22.0167 13.8298 22.6722 13.9179C23.2839 14.0001 24.0477 14.0001 24.9342 14L28.2 14C28.5771 14 28.7657 14 28.8828 14.1172C29 14.2343 29 14.4229 29 14.8V26C29 27.4425 28.9979 28.4238 28.8991 29.1586C28.8042 29.8646 28.6368 30.1916 28.4142 30.4142C28.1916 30.6368 27.8646 30.8042 27.1586 30.8991C26.4238 30.9979 25.4425 31 24 31H12C10.5575 31 9.57626 30.9979 8.84144 30.8991C8.13538 30.8042 7.80836 30.6368 7.58579 30.4142C7.36322 30.1916 7.19585 29.8646 7.10092 29.1586C7.00213 28.4238 7 27.4425 7 26V10C7 8.55752 7.00213 7.57626 7.10092 6.84144C7.19585 6.13538 7.36322 5.80836 7.58579 5.58579C7.80836 5.36322 8.13538 5.19585 8.84144 5.10092C9.57626 5.00213 10.5575 5 12 5H19.2C19.5771 5 19.7657 5 19.8828 5.11716ZM27.2877 11.8766C27.2366 12 27.0311 12 26.6201 12H25C24.0289 12 23.4012 11.9979 22.9387 11.9357C22.505 11.8774 22.369 11.7833 22.2929 11.7071C22.2168 11.631 22.1226 11.4951 22.0643 11.0613C22.0021 10.5988 22 9.97111 22 9.00003V7.37993C22 6.96894 22 6.76345 22.1235 6.71231C22.2469 6.66117 22.3922 6.80648 22.6829 7.09709L26.903 11.3172C27.1936 11.6078 27.3389 11.7531 27.2877 11.8766Z" fill="currentColor"/>
</svg>
