<svg width="24" height="24" viewBox="0 0 24 24" fill="none" xmlns="http://www.w3.org/2000/svg">
<path fill-rule="evenodd" clip-rule="evenodd" d="M10.7454 7.79981C10.3213 7.79973 9.90921 7.79965 9.5693 7.84535C9.1861 7.89687 8.74882 8.02239 8.38561 8.38561C8.02239 8.74882 7.89687 9.1861 7.84535 9.5693C7.79965 9.90921 7.79973 10.3213 7.79981 10.7454V13.2544C7.79973 13.6785 7.79965 14.0906 7.84535 14.4305C7.89687 14.8137 8.02239 15.251 8.38561 15.6142C8.74882 15.9774 9.1861 16.103 9.5693 16.1545C9.9092 16.2002 10.3213 16.2001 10.7454 16.2H13.2542C13.6783 16.2001 14.0904 16.2002 14.4303 16.1545C14.8135 16.103 15.2508 15.9774 15.614 15.6142C15.9772 15.251 16.1028 14.8137 16.1543 14.4305C16.2 14.0906 16.1999 13.6785 16.1998 13.2544V10.7454C16.1999 10.3213 16.2 9.90921 16.1543 9.5693C16.1028 9.1861 15.9772 8.74882 15.614 8.38561C15.2508 8.02239 14.8135 7.89687 14.4303 7.84535C14.0904 7.79965 13.6783 7.79973 13.2542 7.79981H10.7454ZM9.82751 9.83579L9.82851 9.82851L9.83579 9.82751C10.026 9.80194 10.3001 9.79982 10.7998 9.79982H13.1998C13.6995 9.79982 13.9736 9.80194 14.1638 9.82751L14.1711 9.82851L14.1721 9.83579C14.1977 10.026 14.1998 10.3001 14.1998 10.7998V13.2C14.1998 13.6997 14.1977 13.9738 14.1721 14.164L14.1711 14.1713L14.1638 14.1723C13.9736 14.1979 13.6995 14.2 13.1998 14.2H10.7998C10.3001 14.2 10.026 14.1979 9.83579 14.1723L9.82851 14.1713L9.82751 14.164C9.80194 13.9738 9.79982 13.6997 9.79982 13.2V10.7998C9.79982 10.3001 9.80194 10.026 9.82751 9.83579Z" fill="currentColor"/>
<path fill-rule="evenodd" clip-rule="evenodd" d="M2 12C2 6.47715 6.47715 2 12 2C17.5228 2 22 6.47715 22 12C22 17.5228 17.5228 22 12 22C6.47715 22 2 17.5228 2 12ZM12 20C7.58172 20 4 16.4183 4 12C4 7.58172 7.58172 4 12 4C16.4183 4 20 7.58172 20 12C20 16.4183 16.4183 20 12 20Z" fill="currentColor"/>
</svg>
