<svg width="24" height="24" viewBox="0 0 24 24" fill="none" xmlns="http://www.w3.org/2000/svg">
    <path d="M7.70714 17.7071C7.31661 18.0976 6.68345 18.0976 6.29292 17.7071C5.9024 17.3166 5.9024 16.6834 6.29292 16.2929L10.5858 12L6.29293 7.70711C5.9024 7.31658 5.9024 6.68342 6.29293 6.29289C6.68345 5.90237 7.31662 5.90237 7.70714 6.29289L12 10.5858L16.2929 6.29289C16.6834 5.90237 17.3166 5.90237 17.7071 6.29289C18.0977 6.68342 18.0977 7.31658 17.7071 7.70711L13.4142 12L17.7071 16.2929C18.0977 16.6834 18.0977 17.3166 17.7071 17.7071C17.3166 18.0976 16.6834 18.0976 16.2929 17.7071L12 13.4142L7.70714 17.7071Z" fill="currentColor"/>
</svg>
