<svg width="16" height="16" viewBox="0 0 16 16" fill="none" xmlns="http://www.w3.org/2000/svg">
<path d="M1.21967 7.46967C0.926777 7.76256 0.926777 8.23744 1.21967 8.53033L4.46967 11.7803C4.76256 12.0732 5.23744 12.0732 5.53033 11.7803C5.82322 11.4874 5.82322 11.0126 5.53033 10.7197L3.8972 9.08654C3.75189 8.94123 3.67924 8.86858 3.70481 8.80685C3.73038 8.74512 3.83313 8.74512 4.03862 8.74512L14.25 8.74512C14.6642 8.74512 15 8.40933 15 7.99512C15 7.5809 14.6642 7.24512 14.25 7.24512L4.04839 7.24512C3.84289 7.24512 3.74015 7.24512 3.71458 7.18339C3.68901 7.12165 3.76166 7.049 3.90696 6.9037L5.53033 5.28033C5.82322 4.98744 5.82322 4.51256 5.53033 4.21967C5.23744 3.92678 4.76256 3.92678 4.46967 4.21967L1.21967 7.46967Z" fill="currentColor"/>
</svg>
