<svg width="36" height="36" viewBox="0 0 36 36" fill="none" xmlns="http://www.w3.org/2000/svg">
<path fill-rule="evenodd" clip-rule="evenodd" d="M9.93417 5C9.04769 4.99995 8.28387 4.99991 7.67221 5.08215C7.0167 5.17028 6.38835 5.36902 5.87868 5.87868C5.36902 6.38835 5.17028 7.0167 5.08215 7.67221C4.99991 8.28387 4.99995 9.04769 5 9.93417V12.0658C4.99995 12.9523 4.99991 13.7161 5.08215 14.3278C5.17028 14.9833 5.36902 15.6117 5.87868 16.1213C6.38835 16.631 7.0167 16.8297 7.67221 16.9179C8.28387 17.0001 9.04769 17.0001 9.93417 17H12.0658C12.9523 17.0001 13.7161 17.0001 14.3278 16.9179C14.9833 16.8297 15.6117 16.631 16.1213 16.1213C16.631 15.6117 16.8297 14.9833 16.9179 14.3278C17.0001 13.7161 17.0001 12.9523 17 12.0658V9.93417C17.0001 9.04769 17.0001 8.28387 16.9179 7.67221C16.8297 7.0167 16.631 6.38835 16.1213 5.87868C15.6117 5.36902 14.9833 5.17028 14.3278 5.08215C13.7161 4.99991 12.9523 4.99995 12.0658 5H9.93417ZM7.2929 7.2929C7.36902 7.21677 7.50497 7.12263 7.93871 7.06431C8.40122 7.00213 9.02893 7 10 7H12C12.9711 7 13.5988 7.00213 14.0613 7.06431C14.495 7.12263 14.631 7.21677 14.7071 7.2929C14.7832 7.36902 14.8774 7.50497 14.9357 7.93871C14.9979 8.40122 15 9.02893 15 10V12C15 12.9711 14.9979 13.5988 14.9357 14.0613C14.8774 14.495 14.7832 14.631 14.7071 14.7071C14.631 14.7832 14.495 14.8774 14.0613 14.9357C13.5988 14.9979 12.9711 15 12 15H10C9.02893 15 8.40122 14.9979 7.93871 14.9357C7.50497 14.8774 7.36902 14.7832 7.2929 14.7071C7.21677 14.631 7.12263 14.495 7.06431 14.0613C7.00213 13.5988 7 12.9711 7 12V10C7 9.02893 7.00213 8.40122 7.06431 7.93871C7.12263 7.50497 7.21677 7.36902 7.2929 7.2929Z" fill="currentColor"/>
<path fill-rule="evenodd" clip-rule="evenodd" d="M23.9342 5C23.0477 4.99995 22.2839 4.99991 21.6722 5.08215C21.0167 5.17028 20.3883 5.36902 19.8787 5.87868C19.369 6.38835 19.1703 7.0167 19.0821 7.67221C18.9999 8.28387 19 9.04769 19 9.93417V12.0658C19 12.9523 18.9999 13.7161 19.0821 14.3278C19.1703 14.9833 19.369 15.6117 19.8787 16.1213C20.3883 16.631 21.0167 16.8297 21.6722 16.9179C22.2839 17.0001 23.0477 17.0001 23.9342 17H26.0658C26.9523 17.0001 27.7161 17.0001 28.3278 16.9179C28.9833 16.8297 29.6117 16.631 30.1213 16.1213C30.631 15.6117 30.8297 14.9833 30.9179 14.3278C31.0001 13.7161 31.0001 12.9523 31 12.0658V9.93417C31.0001 9.04769 31.0001 8.28387 30.9179 7.67221C30.8297 7.0167 30.631 6.38835 30.1213 5.87868C29.6117 5.36902 28.9833 5.17028 28.3278 5.08215C27.7161 4.99991 26.9523 4.99995 26.0658 5H23.9342ZM21.2929 7.2929C21.369 7.21677 21.505 7.12263 21.9387 7.06431C22.4012 7.00213 23.0289 7 24 7H26C26.9711 7 27.5988 7.00213 28.0613 7.06431C28.495 7.12263 28.631 7.21677 28.7071 7.2929C28.7832 7.36902 28.8774 7.50497 28.9357 7.93871C28.9979 8.40122 29 9.02893 29 10V12C29 12.9711 28.9979 13.5988 28.9357 14.0613C28.8774 14.495 28.7832 14.631 28.7071 14.7071C28.631 14.7832 28.495 14.8774 28.0613 14.9357C27.5988 14.9979 26.9711 15 26 15H24C23.0289 15 22.4012 14.9979 21.9387 14.9357C21.505 14.8774 21.369 14.7832 21.2929 14.7071C21.2168 14.631 21.1226 14.495 21.0643 14.0613C21.0021 13.5988 21 12.9711 21 12V10C21 9.02893 21.0021 8.40122 21.0643 7.93871C21.1226 7.50497 21.2168 7.36902 21.2929 7.2929Z" fill="currentColor"/>
<path fill-rule="evenodd" clip-rule="evenodd" d="M9.93417 19H12.0658C12.9523 19 13.7161 18.9999 14.3278 19.0821C14.9833 19.1703 15.6117 19.369 16.1213 19.8787C16.631 20.3883 16.8297 21.0167 16.9179 21.6722C17.0001 22.2839 17.0001 23.0477 17 23.9342V26.0658C17.0001 26.9523 17.0001 27.7161 16.9179 28.3278C16.8297 28.9833 16.631 29.6117 16.1213 30.1213C15.6117 30.631 14.9833 30.8297 14.3278 30.9179C13.7161 31.0001 12.9523 31.0001 12.0658 31H9.93417C9.04769 31.0001 8.28387 31.0001 7.67221 30.9179C7.0167 30.8297 6.38835 30.631 5.87868 30.1213C5.36902 29.6117 5.17028 28.9833 5.08215 28.3278C4.99991 27.7161 4.99995 26.9523 5 26.0658V23.9342C4.99995 23.0477 4.99991 22.2839 5.08215 21.6722C5.17028 21.0167 5.36902 20.3883 5.87868 19.8787C6.38835 19.369 7.0167 19.1703 7.67221 19.0821C8.28387 18.9999 9.04769 19 9.93417 19ZM7.93871 21.0643C7.50497 21.1226 7.36902 21.2168 7.2929 21.2929C7.21677 21.369 7.12263 21.505 7.06431 21.9387C7.00213 22.4012 7 23.0289 7 24V26C7 26.9711 7.00213 27.5988 7.06431 28.0613C7.12263 28.495 7.21677 28.631 7.2929 28.7071C7.36902 28.7832 7.50497 28.8774 7.93871 28.9357C8.40122 28.9979 9.02893 29 10 29H12C12.9711 29 13.5988 28.9979 14.0613 28.9357C14.495 28.8774 14.631 28.7832 14.7071 28.7071C14.7832 28.631 14.8774 28.495 14.9357 28.0613C14.9979 27.5988 15 26.9711 15 26V24C15 23.0289 14.9979 22.4012 14.9357 21.9387C14.8774 21.505 14.7832 21.369 14.7071 21.2929C14.631 21.2168 14.495 21.1226 14.0613 21.0643C13.5988 21.0021 12.9711 21 12 21H10C9.02893 21 8.40122 21.0021 7.93871 21.0643Z" fill="currentColor"/>
<path fill-rule="evenodd" clip-rule="evenodd" d="M23.9342 19C23.0477 19 22.2839 18.9999 21.6722 19.0821C21.0167 19.1703 20.3883 19.369 19.8787 19.8787C19.369 20.3883 19.1703 21.0167 19.0821 21.6722C18.9999 22.2839 19 23.0477 19 23.9342V26.0658C19 26.9523 18.9999 27.7161 19.0821 28.3278C19.1703 28.9833 19.369 29.6117 19.8787 30.1213C20.3883 30.631 21.0167 30.8297 21.6722 30.9179C22.2839 31.0001 23.0477 31.0001 23.9342 31H26.0658C26.9523 31.0001 27.7161 31.0001 28.3278 30.9179C28.9833 30.8297 29.6117 30.631 30.1213 30.1213C30.631 29.6117 30.8297 28.9833 30.9179 28.3278C31.0001 27.7161 31.0001 26.9523 31 26.0658V23.9342C31.0001 23.0477 31.0001 22.2839 30.9179 21.6722C30.8297 21.0167 30.631 20.3883 30.1213 19.8787C29.6117 19.369 28.9833 19.1703 28.3278 19.0821C27.7161 18.9999 26.9523 19 26.0658 19H23.9342ZM21.2929 21.2929C21.369 21.2168 21.505 21.1226 21.9387 21.0643C22.4012 21.0021 23.0289 21 24 21H26C26.9711 21 27.5988 21.0021 28.0613 21.0643C28.495 21.1226 28.631 21.2168 28.7071 21.2929C28.7832 21.369 28.8774 21.505 28.9357 21.9387C28.9979 22.4012 29 23.0289 29 24V26C29 26.9711 28.9979 27.5988 28.9357 28.0613C28.8774 28.495 28.7832 28.631 28.7071 28.7071C28.631 28.7832 28.495 28.8774 28.0613 28.9357C27.5988 28.9979 26.9711 29 26 29H24C23.0289 29 22.4012 28.9979 21.9387 28.9357C21.505 28.8774 21.369 28.7832 21.2929 28.7071C21.2168 28.631 21.1226 28.495 21.0643 28.0613C21.0021 27.5988 21 26.9711 21 26V24C21 23.0289 21.0021 22.4012 21.0643 21.9387C21.1226 21.505 21.2168 21.369 21.2929 21.2929Z" fill="currentColor"/>
</svg>
