<svg width="24" height="24" viewBox="0 0 24 24" fill="none" xmlns="http://www.w3.org/2000/svg">
<path d="M12 18.9999C15.3215 18.9999 18.1026 16.6866 18.8202 13.5832C18.8544 13.4351 18.938 13.3021 19.0612 13.213L21.5328 11.4242C21.7215 11.2876 21.9855 11.4092 21.9937 11.642C21.9978 11.7608 21.9999 11.8801 21.9999 12C21.9999 17.5228 17.5228 21.9999 12 21.9999C6.47714 21.9999 2 17.5228 2 12C2 6.47714 6.47714 2 12 2C13.9818 2 15.8289 2.57649 17.3828 3.57091C17.5565 3.68205 17.5585 3.9314 17.3915 4.05228L15.3834 5.50558C15.2033 5.63595 14.9667 5.65401 14.7624 5.56618C13.9149 5.20181 12.981 5 12 5C8.134 5 5 8.134 5 12C5 15.866 8.134 18.9999 12 18.9999Z" fill="currentColor"/>
<path d="M11.9376 11.3323L19.4435 5.90011C19.6151 5.7759 19.8545 5.80654 19.9823 5.97554C20.4492 6.59324 20.8461 7.26684 21.1611 7.98452C21.2349 8.15269 21.1778 8.34819 21.029 8.45587L12.0624 14.9452L8.58976 12.7806C8.44328 12.6893 8.35425 12.5289 8.35425 12.3563V9.63924C8.35425 9.40377 8.61311 9.26009 8.81294 9.38464L11.9376 11.3323Z" fill="currentColor"/>
</svg>
