<svg width="24" height="24" viewBox="0 0 24 24" fill="none" xmlns="http://www.w3.org/2000/svg">
<path fill-rule="evenodd" clip-rule="evenodd" d="M5.79479 12.75C5.43996 12.7499 5.09472 12.7499 4.80653 12.7826C4.48564 12.8191 4.11334 12.9066 3.7742 13.1697C3.64163 13.2725 3.52253 13.3916 3.4197 13.5242C3.15663 13.8633 3.06909 14.2356 3.03263 14.5565C2.99989 14.8447 2.99995 15.1899 3 15.5448L3 18.2052C2.99995 18.5601 2.99989 18.9053 3.03263 19.1935C3.06909 19.5144 3.15663 19.8867 3.4197 20.2258C3.52253 20.3584 3.64163 20.4775 3.7742 20.5803C4.11334 20.8434 4.48564 20.9309 4.80653 20.9674C5.09473 21.0001 5.43994 21.0001 5.79479 21H8.45523C8.81008 21.0001 9.15529 21.0001 9.44349 20.9674C9.76438 20.9309 10.1367 20.8434 10.4758 20.5803C10.6084 20.4775 10.7275 20.3584 10.8303 20.2258C11.0934 19.8867 11.1809 19.5144 11.2174 19.1935C11.2501 18.9053 11.2501 18.5601 11.25 18.2052V15.5448C11.2501 15.1899 11.2501 14.8447 11.2174 14.5565C11.1809 14.2356 11.0934 13.8633 10.8303 13.5242C10.7275 13.3916 10.6084 13.2725 10.4758 13.1697C10.1367 12.9066 9.76438 12.8191 9.44349 12.7826C9.15529 12.7499 8.81009 12.7499 8.45525 12.75H5.79479ZM5.08787 18.9121C5 18.8243 5 18.6828 5 18.4L5 15.35C5 15.0672 5 14.9257 5.08787 14.8379C5.17574 14.75 5.31716 14.75 5.6 14.75L8.65001 14.75C8.93285 14.75 9.07427 14.75 9.16214 14.8379C9.25001 14.9257 9.25001 15.0672 9.25001 15.35L9.25 18.4C9.25 18.6828 9.25 18.8243 9.16213 18.9121C9.07426 19 8.93284 19 8.65 19H5.6C5.31716 19 5.17574 19 5.08787 18.9121Z" fill="currentColor"/>
<path fill-rule="evenodd" clip-rule="evenodd" d="M5.79479 3.00025C5.43994 3.00019 5.09473 3.00013 4.80653 3.03288C4.48564 3.06933 4.11334 3.15687 3.7742 3.41994C3.64163 3.52277 3.52253 3.64187 3.4197 3.77444C3.15663 4.11359 3.06909 4.48588 3.03263 4.80677C2.99989 5.09498 2.99995 5.44019 3 5.79504L3 8.45546C2.99995 8.81031 2.99989 9.15552 3.03263 9.44373C3.06909 9.76462 3.15663 10.1369 3.4197 10.4761C3.52253 10.6086 3.64163 10.7277 3.7742 10.8306C4.11334 11.0936 4.48564 11.1812 4.80653 11.2176C5.09473 11.2504 5.43993 11.2503 5.79477 11.2502H8.45523C8.81007 11.2503 9.15529 11.2504 9.44349 11.2176C9.76438 11.1812 10.1367 11.0936 10.4758 10.8306C10.6084 10.7277 10.7275 10.6086 10.8303 10.4761C11.0934 10.1369 11.1809 9.76462 11.2174 9.44373C11.2501 9.15552 11.2501 8.81031 11.25 8.45546V5.79503C11.2501 5.44019 11.2501 5.09498 11.2174 4.80677C11.1809 4.48588 11.0934 4.11359 10.8303 3.77444C10.7275 3.64187 10.6084 3.52277 10.4758 3.41994C10.1367 3.15687 9.76438 3.06933 9.44349 3.03288C9.15529 3.00013 8.81008 3.00019 8.45523 3.00025L5.79479 3.00025ZM5.08787 9.16238C5 9.07451 5 8.93309 5 8.65024L5 5.60025C5 5.31741 5 5.17599 5.08787 5.08812C5.17574 5.00025 5.31716 5.00025 5.6 5.00025H8.65001C8.93285 5.00025 9.07427 5.00025 9.16214 5.08812C9.25001 5.17599 9.25001 5.31741 9.25001 5.60026L9.25 8.65025C9.25 8.93309 9.25 9.07451 9.16213 9.16238C9.07426 9.25024 8.93284 9.25024 8.65 9.25024L5.6 9.25024C5.31716 9.25024 5.17574 9.25024 5.08787 9.16238Z" fill="currentColor"/>
<path fill-rule="evenodd" clip-rule="evenodd" d="M15.5448 3.00025L18.2052 3.00025C18.5601 3.00019 18.9053 3.00013 19.1935 3.03288C19.5144 3.06933 19.8867 3.15687 20.2258 3.41994C20.3584 3.52277 20.4775 3.64187 20.5803 3.77444C20.8434 4.11359 20.9309 4.48588 20.9674 4.80677C21.0001 5.09498 21.0001 5.44018 21 5.79503V8.45546C21.0001 8.81031 21.0001 9.15552 20.9674 9.44373C20.9309 9.76462 20.8434 10.1369 20.5803 10.4761C20.4775 10.6086 20.3584 10.7277 20.2258 10.8306C19.8867 11.0936 19.5144 11.1812 19.1935 11.2176C18.9053 11.2504 18.5601 11.2503 18.2052 11.2502H15.5448C15.1899 11.2503 14.8447 11.2504 14.5565 11.2176C14.2356 11.1812 13.8633 11.0936 13.5242 10.8306C13.3916 10.7277 13.2725 10.6086 13.1697 10.4761C12.9066 10.1369 12.8191 9.76462 12.7826 9.44373C12.7499 9.15552 12.7499 8.81031 12.75 8.45546V5.79503C12.7499 5.44019 12.7499 5.09498 12.7826 4.80677C12.8191 4.48588 12.9066 4.11359 13.1697 3.77444C13.2725 3.64187 13.3916 3.52277 13.5242 3.41994C13.8633 3.15687 14.2356 3.06933 14.5565 3.03288C14.8447 3.00013 15.1899 3.00019 15.5448 3.00025ZM14.75 8.65024C14.75 8.93309 14.75 9.07451 14.8379 9.16238C14.9257 9.25024 15.0672 9.25024 15.35 9.25024L18.4 9.25024C18.6828 9.25024 18.8243 9.25024 18.9121 9.16238C19 9.07451 19 8.93309 19 8.65024L19 5.60026C19 5.31741 19 5.17599 18.9121 5.08812C18.8243 5.00025 18.6829 5.00025 18.4 5.00025L15.35 5.00025C15.0672 5.00025 14.9257 5.00025 14.8379 5.08812C14.75 5.17599 14.75 5.31741 14.75 5.60025V8.65024Z" fill="currentColor"/>
<path fill-rule="evenodd" clip-rule="evenodd" d="M15.5448 12.75C15.19 12.7499 14.8447 12.7499 14.5565 12.7826C14.2356 12.8191 13.8633 12.9066 13.5242 13.1697C13.3916 13.2725 13.2725 13.3916 13.1697 13.5242C12.9066 13.8633 12.8191 14.2356 12.7826 14.5565C12.7499 14.8447 12.7499 15.1899 12.75 15.5448V18.2052C12.7499 18.5601 12.7499 18.9053 12.7826 19.1935C12.8191 19.5144 12.9066 19.8867 13.1697 20.2258C13.2725 20.3584 13.3916 20.4775 13.5242 20.5803C13.8633 20.8434 14.2356 20.9309 14.5565 20.9674C14.8447 21.0001 15.1899 21.0001 15.5448 21H18.2052C18.5601 21.0001 18.9053 21.0001 19.1935 20.9674C19.5144 20.9309 19.8867 20.8434 20.2258 20.5803C20.3584 20.4775 20.4775 20.3584 20.5803 20.2258C20.8434 19.8867 20.9309 19.5144 20.9674 19.1935C21.0001 18.9053 21.0001 18.5601 21 18.2053V15.5448C21.0001 15.19 21.0001 14.8447 20.9674 14.5565C20.9309 14.2356 20.8434 13.8633 20.5803 13.5242C20.4775 13.3916 20.3584 13.2725 20.2258 13.1697C19.8867 12.9066 19.5144 12.8191 19.1935 12.7826C18.9053 12.7499 18.5601 12.7499 18.2052 12.75H15.5448ZM14.8379 18.9121C14.75 18.8243 14.75 18.6828 14.75 18.4V15.35C14.75 15.0672 14.75 14.9257 14.8379 14.8379C14.9257 14.75 15.0672 14.75 15.35 14.75H18.4C18.6829 14.75 18.8243 14.75 18.9121 14.8379C19 14.9257 19 15.0672 19 15.35L19 18.4C19 18.6828 19 18.8243 18.9121 18.9121C18.8243 19 18.6828 19 18.4 19L15.35 19C15.0672 19 14.9257 19 14.8379 18.9121Z" fill="currentColor"/>
</svg>
