<svg width="36" height="36" viewBox="0 0 36 36" fill="none" xmlns="http://www.w3.org/2000/svg">
<path fill-rule="evenodd" clip-rule="evenodd" d="M17.9993 10.5C14.9617 10.5 12.4993 12.9624 12.4993 16C12.4993 19.0376 14.9617 21.5 17.9993 21.5C21.0368 21.5 23.4993 19.0376 23.4993 16C23.4993 12.9624 21.0368 10.5 17.9993 10.5ZM14.4993 16C14.4993 14.067 16.0663 12.5 17.9993 12.5C19.9323 12.5 21.4993 14.067 21.4993 16C21.4993 17.933 19.9323 19.5 17.9993 19.5C16.0663 19.5 14.4993 17.933 14.4993 16Z" fill="currentColor"/>
<path fill-rule="evenodd" clip-rule="evenodd" d="M18 3C10.8203 3 5 8.8203 5 16C5 18.5649 6.09893 21.1893 7.6098 23.6348C9.12985 26.0953 11.131 28.4761 13.0725 30.5728L13.124 30.6284C14.0396 31.6173 14.8009 32.4395 15.5019 33.0039C16.2469 33.6036 17.0303 34.0021 17.9955 34.0021C18.9607 34.0021 19.7441 33.6036 20.4891 33.0039C21.1901 32.4395 21.9514 31.6173 22.8669 30.6284L22.9183 30.5729C24.8563 28.4799 26.8596 26.0973 28.3827 23.6354C29.8962 21.1888 31 18.5621 31 16C31 8.8203 25.1797 3 18 3ZM7 16C7 9.92487 11.9249 5 18 5C24.0751 5 29 9.92487 29 16C29 18.0185 28.116 20.265 26.6818 22.5832C25.2572 24.886 23.3528 27.1599 21.4508 29.214C20.4705 30.2728 19.808 30.9846 19.2349 31.446C18.6928 31.8824 18.3411 32.0021 17.9955 32.0021C17.65 32.0021 17.2983 31.8824 16.7561 31.446C16.183 30.9846 15.5204 30.2728 14.54 29.214C12.6346 27.1562 10.7326 24.8843 9.31127 22.5837C7.88073 20.2681 7 18.0232 7 16Z" fill="currentColor"/>
</svg>
