<svg width="24" height="24" viewBox="0 0 24 24" fill="none" xmlns="http://www.w3.org/2000/svg">
<g clip-path="url(#clip0_1600_48)">
<path d="M7.79319 8.20728C8.18371 8.59781 8.81687 8.59782 9.2074 8.20729C9.59793 7.81677 9.59793 7.18361 9.20741 6.79308L5.70729 3.2929C5.51976 3.10536 5.2654 3 5.00019 3C4.73497 3 4.48061 3.10536 4.29308 3.29289L0.792893 6.79307C0.402369 7.1836 0.402369 7.81676 0.792893 8.20729C1.18342 8.59781 1.81658 8.59781 2.20711 8.20729L3.31746 7.09694C3.60807 6.80633 3.75337 6.66102 3.87684 6.71216C4.0003 6.7633 4.0003 6.96879 4.0003 7.37978V20.0001C4.0003 20.5524 4.44802 21.0001 5.0003 21.0001C5.55259 21.0001 6.0003 20.5524 6.0003 20.0001V7.38006C6.0003 6.96907 6.0003 6.76358 6.12376 6.71244C6.24723 6.6613 6.39253 6.8066 6.68315 7.09722L7.79319 8.20728Z" fill="#02050A"/>
<path d="M11.0001 4.5C11.0001 3.94772 11.4478 3.5 12.0001 3.5H23.0001C23.5523 3.5 24.0001 3.94772 24.0001 4.5C24.0001 5.05228 23.5523 5.5 23.0001 5.5H12.0001C11.4478 5.5 11.0001 5.05228 11.0001 4.5Z" fill="#02050A"/>
<path d="M12.0001 8.5C11.4478 8.5 11.0001 8.94772 11.0001 9.5C11.0001 10.0523 11.4478 10.5 12.0001 10.5H19.5001C20.0523 10.5 20.5001 10.0523 20.5001 9.5C20.5001 8.94772 20.0523 8.5 19.5001 8.5L12.0001 8.5Z" fill="#02050A"/>
<path d="M12.0001 13.5C11.4478 13.5 11.0001 13.9477 11.0001 14.5C11.0001 15.0523 11.4478 15.5 12.0001 15.5H16.5001C17.0523 15.5 17.5001 15.0523 17.5001 14.5C17.5001 13.9477 17.0523 13.5 16.5001 13.5H12.0001Z" fill="#02050A"/>
<path d="M12.0001 18.5C11.4478 18.5 11.0001 18.9477 11.0001 19.5C11.0001 20.0523 11.4478 20.5 12.0001 20.5H13.5001C14.0523 20.5 14.5001 20.0523 14.5001 19.5C14.5001 18.9477 14.0523 18.5 13.5001 18.5H12.0001Z" fill="#02050A"/>
</g>
<defs>
<clipPath id="clip0_1600_48">
<rect width="24" height="24" fill="white"/>
</clipPath>
</defs>
</svg>
