<svg width="24" height="24" viewBox="0 0 24 24" fill="none" xmlns="http://www.w3.org/2000/svg">
<path d="M11.999 18.498C11.4467 18.498 10.999 18.9458 10.999 19.498C10.999 20.0503 11.4467 20.498 11.999 20.498H13.499C14.0513 20.498 14.499 20.0503 14.499 19.498C14.499 18.9458 14.0513 18.498 13.499 18.498L11.999 18.498Z" fill="currentColor"/>
<path d="M11.999 13.498C11.4467 13.498 10.999 13.9458 10.999 14.498C10.999 15.0503 11.4467 15.498 11.999 15.498L16.499 15.498C17.0513 15.498 17.499 15.0503 17.499 14.498C17.499 13.9458 17.0513 13.498 16.499 13.498L11.999 13.498Z" fill="currentColor"/>
<path d="M11.999 8.49805C11.4467 8.49805 10.999 8.94576 10.999 9.49805C10.999 10.0503 11.4467 10.498 11.999 10.498L19.499 10.498C20.0513 10.498 20.499 10.0503 20.499 9.49805C20.499 8.94576 20.0513 8.49805 19.499 8.49805L11.999 8.49805Z" fill="currentColor"/>
<path d="M10.999 4.49805C10.999 3.94576 11.4467 3.49805 11.999 3.49805L22.999 3.49805C23.5513 3.49805 23.999 3.94576 23.999 4.49805C23.999 5.05033 23.5513 5.49805 22.999 5.49805L11.999 5.49805C11.4467 5.49805 10.999 5.05033 10.999 4.49805Z" fill="currentColor"/>
<path d="M2.20809 15.7929C1.81757 15.4024 1.1844 15.4024 0.793876 15.7929C0.403348 16.1834 0.403343 16.8166 0.793864 17.2071L4.29398 20.7073C4.48152 20.8948 4.73587 21.0002 5.00109 21.0002C5.26631 21.0002 5.52066 20.8948 5.7082 20.7073L9.20838 17.2071C9.59891 16.8166 9.59891 16.1834 9.20838 15.7929C8.81786 15.4024 8.1847 15.4024 7.79417 15.7929L6.3424 17.2447C6.21641 17.3707 6.00098 17.2814 6.00098 17.1032V4C6.00098 3.44772 5.55326 3 5.00098 3C4.44869 3 4.00098 3.44772 4.00098 4V17.103C4.00098 17.2812 3.78555 17.3704 3.65955 17.2444L2.20809 15.7929Z" fill="currentColor"/>
</svg>
