<svg width="16" height="16" viewBox="0 0 16 16" fill="none" xmlns="http://www.w3.org/2000/svg">
<path d="M3.33325 4.5C2.91904 4.5 2.58325 4.16422 2.58325 3.75C2.58325 3.33579 2.91904 3 3.33325 3L6.66659 3C7.0808 3 7.41659 3.33579 7.41659 3.75C7.41659 4.16421 7.0808 4.5 6.66659 4.5L3.33325 4.5Z" fill="currentColor"/>
<path d="M3.33325 7.33336C2.91904 7.33336 2.58325 6.99757 2.58325 6.58336C2.58325 6.16915 2.91904 5.83336 3.33325 5.83336L8.66659 5.83336C9.0808 5.83336 9.41659 6.16914 9.41659 6.58336C9.41659 6.99757 9.0808 7.33336 8.66659 7.33336L3.33325 7.33336Z" fill="currentColor"/>
<path d="M3.33325 10.1667C2.91904 10.1667 2.58325 9.83093 2.58325 9.41672C2.58325 9.00251 2.91904 8.66672 3.33325 8.66672L10.6666 8.66672C11.0808 8.66672 11.4166 9.0025 11.4166 9.41672C11.4166 9.83093 11.0808 10.1667 10.6666 10.1667L3.33325 10.1667Z" fill="currentColor"/>
<path d="M2.58325 12.25C2.58325 12.6642 2.91904 13 3.33325 13L12.6666 13C13.0808 13 13.4166 12.6642 13.4166 12.25C13.4166 11.8358 13.0808 11.5 12.6666 11.5L3.33325 11.5C2.91904 11.5 2.58325 11.8358 2.58325 12.25Z" fill="currentColor"/>
</svg>
