<svg width="36" height="36" viewBox="0 0 36 36" fill="none" xmlns="http://www.w3.org/2000/svg">
<path fill-rule="evenodd" clip-rule="evenodd" d="M17.9976 3.00195C16.8524 3.00196 16.0843 4.31135 14.5482 6.93012L3.96342 24.9748C2.3943 27.6498 1.60975 28.9873 2.18592 29.9933C2.76208 30.9994 4.3125 30.9992 7.41334 30.9989L28.582 30.9965C31.6822 30.9962 33.2323 30.996 33.8083 29.99C34.3843 28.984 33.5999 27.6468 32.031 24.9724L21.4471 6.93006C19.9109 4.31131 19.1428 3.00194 17.9976 3.00195ZM18.0005 9.99902C18.8289 9.99902 19.5005 10.6706 19.5005 11.499V20.249C19.5005 21.0774 18.8289 21.749 18.0005 21.749C17.1721 21.749 16.5005 21.0774 16.5005 20.249V11.499C16.5005 10.6706 17.1721 9.99902 18.0005 9.99902ZM19.8007 25.799C19.8007 26.7931 18.9948 27.599 18.0007 27.599C17.0066 27.599 16.2007 26.7931 16.2007 25.799C16.2007 24.8049 17.0066 23.999 18.0007 23.999C18.9948 23.999 19.8007 24.8049 19.8007 25.799Z" fill="currentColor"/>
</svg>
