<svg width="24" height="24" viewBox="0 0 24 24" fill="none" xmlns="http://www.w3.org/2000/svg">
<path d="M6.51014 12.9658L6.42813 12.8975C6.28622 12.7792 6.21527 12.7201 6.15768 12.7471C6.1001 12.7741 6.1001 12.8664 6.1001 13.0511V14.0999C6.1001 14.2111 6.17358 14.309 6.28039 14.34C6.48797 14.4002 6.72142 14.4459 7.0881 14.4459C7.60456 14.4459 8.02422 14.3493 8.30637 14.0632C8.5878 13.7777 8.6761 13.3604 8.6761 12.8639V10.2979C8.6761 10.0151 8.6761 9.87363 8.58823 9.78576C8.50036 9.69789 8.35894 9.69789 8.0761 9.69789H7.7921C7.50925 9.69789 7.36783 9.69789 7.27997 9.78576C7.1921 9.87363 7.1921 10.0151 7.1921 10.2979V12.7379C7.1921 12.9694 7.15354 13.0348 7.13927 13.0507C7.13347 13.0571 7.10357 13.0879 6.9381 13.0879C6.85131 13.0879 6.75742 13.0709 6.67385 13.0438C6.58663 13.0156 6.53079 12.983 6.51014 12.9658Z" fill="currentColor"/>
<path fill-rule="evenodd" clip-rule="evenodd" d="M9.99963 9.7011C9.863 9.70743 9.79468 9.7106 9.74112 9.7355C9.6726 9.76735 9.61862 9.82389 9.58998 9.89381C9.56758 9.94847 9.56758 10.0169 9.56758 10.1536L9.56758 13.7979C9.56758 14.0807 9.56758 14.2222 9.65545 14.31C9.74332 14.3979 9.88474 14.3979 10.1676 14.3979H10.4516C10.7344 14.3979 10.8758 14.3979 10.9637 14.31C11.0516 14.2222 11.0516 14.0807 11.0516 13.7979V13.4009C11.0516 13.3278 11.0516 13.2912 11.0688 13.2658C11.0761 13.255 11.0847 13.2464 11.0954 13.2391C11.1209 13.2219 11.1584 13.2219 11.2336 13.2219C11.8942 13.2219 12.4247 13.094 12.7899 12.7756C13.1628 12.4504 13.3136 11.9715 13.3136 11.3879C13.3136 10.8206 13.1829 10.361 12.8092 10.0582C12.4503 9.76731 11.9206 9.66789 11.2456 9.66789C10.7023 9.66789 10.4092 9.68175 9.99963 9.7011ZM11.6992 11.7996C11.6409 11.8548 11.5162 11.9119 11.2336 11.9119C11.1546 11.9119 11.115 11.9119 11.0871 11.8883C11.0829 11.8848 11.0787 11.8806 11.0751 11.8764C11.0516 11.8484 11.0516 11.8078 11.0516 11.7267V11.1551C11.0516 11.0819 11.0516 11.0454 11.0707 11.019C11.0768 11.0107 11.0844 11.0031 11.0927 10.997C11.119 10.9779 11.1552 10.9779 11.2276 10.9779C11.5349 10.9779 11.6578 11.0347 11.7104 11.0841C11.7575 11.1283 11.7996 11.2158 11.7996 11.4359C11.7996 11.6509 11.7535 11.7482 11.6992 11.7996Z" fill="currentColor"/>
<path d="M15.892 11.6155C15.9799 11.5276 16.1213 11.5276 16.4041 11.5276H17.3241C17.607 11.5276 17.7484 11.5276 17.8363 11.6155C17.9241 11.7034 17.9241 11.8448 17.9241 12.1276V13.9076C17.9241 13.9369 17.9241 13.9516 17.9223 13.9651C17.9148 14.0198 17.885 14.069 17.84 14.101C17.8289 14.1089 17.8159 14.1156 17.79 14.1292C17.4882 14.2869 16.8901 14.4756 16.1441 14.4756C15.3812 14.4756 14.7701 14.3075 14.3536 13.8919C13.937 13.4762 13.7641 12.8619 13.7641 12.0836C13.7641 11.3001 13.9263 10.6674 14.35 10.2347C14.7748 9.80101 15.4119 9.61964 16.2401 9.61964C16.8557 9.61964 17.263 9.72625 17.4923 9.8266C17.5833 9.86642 17.6421 9.95632 17.6421 10.0556V11.0863C17.6421 11.2434 17.6421 11.3219 17.5913 11.3506C17.5404 11.3793 17.4732 11.3387 17.3387 11.2575L17.2629 11.2116C17.0163 11.0626 16.7015 10.9656 16.3061 10.9656C15.8664 10.9656 15.6316 11.0565 15.4987 11.1949C15.3633 11.3357 15.2781 11.5825 15.2781 12.0296C15.2781 12.4963 15.3687 12.7567 15.5018 12.9032C15.6295 13.0436 15.8434 13.1296 16.2221 13.1296C16.3076 13.1296 16.3826 13.125 16.4499 13.1175C16.5036 13.1115 16.5305 13.1085 16.5483 13.0886C16.5661 13.0687 16.5661 13.0402 16.5661 12.9833V12.9596C16.5661 12.8936 16.5661 12.8606 16.5456 12.8401C16.5251 12.8196 16.4921 12.8196 16.4261 12.8196H16.4041C16.1213 12.8196 15.9799 12.8196 15.892 12.7318C15.8041 12.6439 15.8041 12.5025 15.8041 12.2196V12.1276C15.8041 11.8448 15.8041 11.7034 15.892 11.6155Z" fill="currentColor"/>
<path fill-rule="evenodd" clip-rule="evenodd" d="M22.0323 7.02414C21.8069 6.84935 21.5667 6.73647 21.323 6.66213C21.16 6.6124 21.0786 6.58754 21.0393 6.53496C21.0001 6.48239 20.9996 6.40547 20.9985 6.25164C20.9942 5.65089 20.9782 5.12038 20.9179 4.67173C20.8297 4.01621 20.631 3.38786 20.1213 2.8782C19.6117 2.36853 18.9833 2.16979 18.3278 2.08166C17.7161 1.99942 16.9523 1.99946 16.0658 1.99952L7.93417 1.99951C7.04769 1.99946 6.28387 1.99942 5.67221 2.08166C5.0167 2.16979 4.38835 2.36853 3.87868 2.8782C3.36902 3.38786 3.17028 4.01621 3.08215 4.67173C3.02183 5.12038 3.00577 5.65089 3.00152 6.25164C3.00043 6.40547 2.99989 6.48239 2.96067 6.53496C2.92146 6.58754 2.83997 6.6124 2.677 6.66213C2.43333 6.73648 2.19308 6.84935 1.96774 7.02414C1.80203 7.15268 1.65315 7.30156 1.52462 7.46726C1.20909 7.87404 1.09532 8.32942 1.04574 8.76575C0.999919 9.16909 0.999959 9.66113 1 10.2083V13.7907C0.999959 14.3379 0.999919 14.83 1.04574 15.2333C1.09532 15.6696 1.20909 16.125 1.52462 16.5318C1.65315 16.6975 1.80203 16.8464 1.96774 16.9749C2.29239 17.2267 2.648 17.3501 3.00018 17.4148C3.00142 18.1537 3.01092 18.7976 3.08215 19.3273C3.17028 19.9828 3.36902 20.6112 3.87868 21.1208C4.38835 21.6305 5.0167 21.8292 5.67221 21.9174C6.28388 21.9996 7.0477 21.9996 7.9342 21.9995H16.0658C16.9523 21.9996 17.7161 21.9996 18.3278 21.9174C18.9833 21.8292 19.6117 21.6305 20.1213 21.1208C20.631 20.6112 20.8297 19.9828 20.9179 19.3273C20.9782 18.8787 20.9942 18.3482 20.9985 17.7474C20.9996 17.5936 21.0001 17.5167 21.0393 17.4641C21.0786 17.4115 21.16 17.3867 21.323 17.3369C21.5667 17.2626 21.8069 17.1497 22.0323 16.9749C22.198 16.8464 22.3469 16.6975 22.4754 16.5318C22.7909 16.125 22.9047 15.6696 22.9543 15.2333C23.0001 14.83 23.0001 14.3379 23 13.7907V10.2083C23.0001 9.66113 23.0001 9.16909 22.9543 8.76575C22.9047 8.32942 22.7909 7.87404 22.4754 7.46726C22.3469 7.30156 22.198 7.15268 22.0323 7.02414ZM18.9967 6.09812C18.9989 6.28654 19 6.38075 18.9412 6.44014C18.8825 6.49953 18.7877 6.49953 18.5982 6.49953L5.40185 6.49953C5.21227 6.49953 5.11747 6.49953 5.05876 6.44014C5.00005 6.38075 5.00112 6.28654 5.00327 6.09812C5.00885 5.60912 5.0239 5.23879 5.06431 4.93822C5.12263 4.50448 5.21677 4.36853 5.2929 4.29241C5.36902 4.21629 5.50497 4.12214 5.93871 4.06382C6.40121 4.00164 7.02893 3.99952 8 3.99952L16 3.99952C16.9711 3.99952 17.5988 4.00164 18.0613 4.06382C18.495 4.12214 18.631 4.21629 18.7071 4.29241C18.7832 4.36853 18.8774 4.50448 18.9357 4.93822C18.9761 5.23879 18.9912 5.60912 18.9967 6.09812ZM5.00057 17.4995H18.5982C18.7877 17.4995 18.8825 17.4995 18.9412 17.5589C19 17.6183 18.9989 17.7125 18.9967 17.9009C18.9912 18.3899 18.9761 18.7603 18.9357 19.0608C18.8774 19.4946 18.7832 19.6305 18.7071 19.7066C18.631 19.7828 18.495 19.8769 18.0613 19.9352C17.5988 19.9974 16.9711 19.9995 16 19.9995H8C7.02893 19.9995 6.40122 19.9974 5.93871 19.9352C5.50497 19.8769 5.36902 19.7828 5.2929 19.7066C5.21677 19.6305 5.12263 19.4946 5.06431 19.0608C5.01352 18.683 5.0028 18.1949 5.00057 17.4995ZM3.19355 8.60445C3.16041 8.63016 3.13064 8.65994 3.10493 8.69308C3.10173 8.6972 3.0926 8.70896 3.08015 8.74581C3.06571 8.78855 3.04758 8.86287 3.03296 8.99152C3.00152 9.26828 3.00001 9.64489 3.00001 10.2595V13.7395C3.00001 14.3542 3.00152 14.7308 3.03296 15.0075C3.04758 15.1362 3.06571 15.2105 3.08015 15.2532C3.0926 15.2901 3.10169 15.3018 3.10489 15.3059C3.1306 15.3391 3.16041 15.3689 3.19355 15.3946C3.19767 15.3978 3.20944 15.4069 3.24629 15.4194C3.28902 15.4338 3.36334 15.452 3.49199 15.4666C3.76875 15.498 4.14536 15.4995 4.76001 15.4995H19.24C19.8546 15.4995 20.2313 15.498 20.508 15.4666C20.6367 15.452 20.711 15.4338 20.7537 15.4194C20.7906 15.4069 20.8023 15.3978 20.8064 15.3946C20.8396 15.3689 20.8694 15.3391 20.8951 15.306C20.8983 15.3019 20.9074 15.2901 20.9199 15.2532C20.9343 15.2105 20.9524 15.1362 20.9671 15.0075C20.9985 14.7308 21 14.3542 21 13.7395V10.2595C21 9.64489 20.9985 9.26828 20.9671 8.99152C20.9524 8.86287 20.9343 8.78855 20.9199 8.74581C20.9074 8.70896 20.8983 8.69725 20.8951 8.69313C20.8694 8.65999 20.8396 8.63016 20.8065 8.60445C20.8023 8.60126 20.7906 8.59213 20.7537 8.57968C20.711 8.56523 20.6367 8.5471 20.508 8.53249C20.2313 8.50104 19.8546 8.49953 19.24 8.49953L4.76001 8.49953C4.14536 8.49953 3.76875 8.50104 3.49199 8.53248C3.36334 8.5471 3.28902 8.56523 3.24629 8.57968C3.20944 8.59213 3.19767 8.60126 3.19355 8.60445Z" fill="currentColor"/>
</svg>
