<svg width="24" height="24" viewBox="0 0 24 24" fill="none" xmlns="http://www.w3.org/2000/svg">
<path fill-rule="evenodd" clip-rule="evenodd" d="M5.56885 5.28041C5.28407 5.30463 5.07927 5.56379 5.11942 5.84677L5.15326 6.08521C5.291 7.05589 5.71107 7.96466 6.36122 8.69849L7.34605 9.81006L10.1472 12.5496C10.8205 13.2081 11.2 14.1101 11.2 15.0518V19.0355C11.2 19.1909 11.3695 19.2869 11.5028 19.207L12.6542 18.5174C12.7447 18.4632 12.8 18.3655 12.8 18.26V15.0537C12.8 14.1104 13.1808 13.207 13.856 12.5484L16.6636 9.80949L17.6475 8.69963C18.307 7.95558 18.7298 7.03178 18.8617 6.04627L18.8908 5.82923C18.9285 5.54704 18.7234 5.29016 18.4397 5.26666C14.158 4.91209 9.84957 4.91641 5.56885 5.28041ZM4.52841 3.36654C9.49487 2.8886 14.5022 2.88346 19.4695 3.34989C20.4225 3.43937 21.1128 4.3034 20.9855 5.25458L20.844 6.31162C20.6593 7.69133 20.0675 8.98465 19.1441 10.0263L18.1121 11.1905L15.2526 13.98C14.9632 14.2623 14.8 14.6494 14.8 15.0537V18.7701C14.8 19.2622 14.5416 19.7182 14.1194 19.9711L11.0166 21.8295C10.2168 22.3086 9.20004 21.7324 9.20004 20.8001V15.0518C9.20004 14.6482 9.03738 14.2617 8.74883 13.9794L5.89652 11.1899L4.86424 10.0248C3.95403 8.99743 3.36593 7.72515 3.1731 6.3662L3.01942 5.28321C2.88431 4.33103 3.57112 3.45867 4.52841 3.36654Z" fill="currentColor"/>
</svg>
