<svg width="36" height="36" viewBox="0 0 36 36" fill="none" xmlns="http://www.w3.org/2000/svg">
<path fill-rule="evenodd" clip-rule="evenodd" d="M3.87868 5.87868C3 6.75736 3 8.17157 3 11V25C3 27.8284 3 29.2426 3.87868 30.1213C4.75736 31 6.17157 31 9 31H27C29.8284 31 31.2426 31 32.1213 30.1213C33 29.2426 33 27.8284 33 25V11C33 8.17157 33 6.75736 32.1213 5.87868C31.2426 5 29.8284 5 27 5H9C6.17157 5 4.75736 5 3.87868 5.87868ZM11.2 11.7992C11.2 12.6829 10.4837 13.3992 9.6 13.3992C8.71634 13.3992 8 12.6829 8 11.7992C8 10.9156 8.71634 10.1992 9.6 10.1992C10.4837 10.1992 11.2 10.9156 11.2 11.7992ZM14 11.7988C14 11.1085 14.5596 10.5488 15.25 10.5488H25.75C26.4404 10.5488 27 11.1085 27 11.7988C27 12.4892 26.4404 13.0488 25.75 13.0488H15.25C14.5596 13.0488 14 12.4892 14 11.7988ZM15.25 16.75C14.5596 16.75 14 17.3096 14 18C14 18.6904 14.5596 19.25 15.25 19.25H25.75C26.4404 19.25 27 18.6904 27 18C27 17.3096 26.4404 16.75 25.75 16.75H15.25ZM11.2 17.9994C11.2 18.8831 10.4837 19.5994 9.6 19.5994C8.71634 19.5994 8 18.8831 8 17.9994C8 17.1158 8.71634 16.3994 9.6 16.3994C10.4837 16.3994 11.2 17.1158 11.2 17.9994ZM15.25 23.0488C14.5596 23.0488 14 23.6085 14 24.2988C14 24.9892 14.5596 25.5488 15.25 25.5488H25.75C26.4404 25.5488 27 24.9892 27 24.2988C27 23.6085 26.4404 23.0488 25.75 23.0488H15.25ZM11.2 24.1996C11.2 25.0833 10.4837 25.7996 9.6 25.7996C8.71634 25.7996 8 25.0833 8 24.1996C8 23.316 8.71634 22.5996 9.6 22.5996C10.4837 22.5996 11.2 23.316 11.2 24.1996Z" fill="currentColor"/>
</svg>
