<svg width="36" height="36" viewBox="0 0 36 36" fill="none" xmlns="http://www.w3.org/2000/svg">
<path fill-rule="evenodd" clip-rule="evenodd" d="M4.17157 6.17157C3 7.34315 3 9.22876 3 13V23C3 26.7712 3 28.6569 4.17157 29.8284C5.34315 31 7.22876 31 11 31H25C28.7712 31 30.6569 31 31.8284 29.8284C33 28.6569 33 26.7712 33 23V13C33 9.22876 33 7.34315 31.8284 6.17157C30.6569 5 28.7712 5 25 5H11C7.22876 5 5.34315 5 4.17157 6.17157ZM26.5 10C27.3284 10 28 10.6716 28 11.5V13.2C28 13.5771 28 13.7657 27.8828 13.8828C27.7657 14 27.5771 14 27.2 14H25.8C25.4229 14 25.2343 14 25.1172 13.8828C25 13.7657 25 13.5771 25 13.2V11.5C25 10.6716 25.6716 10 26.5 10ZM27.8828 16.1172C28 16.2343 28 16.4229 28 16.8V25.6C28 26.26 28 26.5899 27.795 26.795C27.5899 27 27.26 27 26.6 27H26.4C25.74 27 25.4101 27 25.205 26.795C25 26.5899 25 26.26 25 25.6V16.8C25 16.4229 25 16.2343 25.1172 16.1172C25.2343 16 25.4229 16 25.8 16H27.2C27.5771 16 27.7657 16 27.8828 16.1172ZM22.5 17.25C22.5 16.4216 21.8284 15.75 21 15.75C20.1716 15.75 19.5 16.4216 19.5 17.25V19.2C19.5 19.5771 19.5 19.7657 19.6172 19.8828C19.7343 20 19.9229 20 20.3 20H21.7C22.0771 20 22.2657 20 22.3828 19.8828C22.5 19.7657 22.5 19.5771 22.5 19.2V17.25ZM22.3828 22.1172C22.5 22.2343 22.5 22.4229 22.5 22.8V25.6C22.5 26.26 22.5 26.5899 22.295 26.795C22.09 27 21.76 27 21.1 27H20.9C20.24 27 19.91 27 19.705 26.795C19.5 26.5899 19.5 26.26 19.5 25.6V22.8C19.5 22.4229 19.5 22.2343 19.6172 22.1172C19.7343 22 19.9229 22 20.3 22H21.7C22.0771 22 22.2657 22 22.3828 22.1172ZM11 19.5C11 18.6716 10.3284 18 9.5 18C8.67157 18 8 18.6716 8 19.5V20.2C8 20.5771 8 20.7657 8.11716 20.8828C8.23431 21 8.42288 21 8.8 21H10.2C10.5771 21 10.7657 21 10.8828 20.8828C11 20.7657 11 20.5771 11 20.2V19.5ZM10.8828 23.1172C11 23.2343 11 23.4229 11 23.8V25.6C11 26.26 11 26.5899 10.795 26.795C10.5899 27 10.26 27 9.6 27H9.4C8.74003 27 8.41005 27 8.20503 26.795C8 26.5899 8 26.26 8 25.6V23.8C8 23.4229 8 23.2343 8.11716 23.1172C8.23431 23 8.42288 23 8.8 23H10.2C10.5771 23 10.7657 23 10.8828 23.1172ZM16.5 15.5C16.5 14.6716 15.8284 14 15 14C14.1716 14 13.5 14.6716 13.5 15.5V17.2C13.5 17.5771 13.5 17.7657 13.6172 17.8828C13.7343 18 13.9229 18 14.3 18H15.7C16.0771 18 16.2657 18 16.3828 17.8828C16.5 17.7657 16.5 17.5771 16.5 17.2V15.5ZM16.3828 20.1172C16.5 20.2343 16.5 20.4229 16.5 20.8V25.6C16.5 26.26 16.5 26.5899 16.295 26.795C16.0899 27 15.76 27 15.1 27H14.9C14.24 27 13.9101 27 13.705 26.795C13.5 26.5899 13.5 26.26 13.5 25.6V20.8C13.5 20.4229 13.5 20.2343 13.6172 20.1172C13.7343 20 13.9229 20 14.3 20H15.7C16.0771 20 16.2657 20 16.3828 20.1172Z" fill="currentColor"/>
</svg>
