<svg width="24" height="24" viewBox="0 0 24 24" fill="currentColor" xmlns="http://www.w3.org/2000/svg">
<path fill-rule="evenodd" clip-rule="evenodd" d="M12.0005 8.49995C10.0675 8.49995 8.50049 10.067 8.50049 12C8.50049 13.933 10.0675 15.5 12.0005 15.5C13.9335 15.5 15.5005 13.933 15.5005 12C15.5005 10.067 13.9335 8.49995 12.0005 8.49995ZM10.5005 12C10.5005 11.1715 11.1721 10.5 12.0005 10.5C12.8289 10.5 13.5005 11.1715 13.5005 12C13.5005 12.8284 12.8289 13.5 12.0005 13.5C11.1721 13.5 10.5005 12.8284 10.5005 12Z"/>
<path fill-rule="evenodd" clip-rule="evenodd" d="M12.0005 1.69995C11.4148 1.69995 10.8396 1.74783 10.2787 1.84006C9.88556 1.90472 9.56823 2.19575 9.4706 2.58119L8.98366 4.50368C8.94294 4.66447 8.79897 4.85582 8.52741 4.98632C8.26217 5.11378 8.02909 5.10714 7.87411 5.03703L6.05999 4.21638C5.69796 4.05261 5.27313 4.11797 4.97736 4.38294C4.12223 5.14901 3.39346 6.05317 2.82626 7.06073C2.63079 7.40797 2.66063 7.83786 2.90221 8.15489L4.09463 9.71977C4.20303 9.86202 4.26166 10.0928 4.19383 10.3855C4.1238 10.6879 3.96337 10.8777 3.81217 10.9547L2.0467 11.8538C1.69305 12.0339 1.47943 12.4054 1.50214 12.801C1.56956 13.9754 1.83082 15.0993 2.25485 16.1404C2.4051 16.5093 2.76051 16.754 3.15949 16.7632L5.11564 16.8084C5.29799 16.8126 5.52945 16.9179 5.72676 17.1654C5.92187 17.4101 5.97232 17.6556 5.93574 17.8345L5.54278 19.7563C5.46327 20.1452 5.62189 20.5441 5.94694 20.7728C6.87374 21.4248 7.91156 21.9315 9.02692 22.2591C9.40943 22.3714 9.82228 22.2466 10.078 21.9414L11.3315 20.4455C11.4518 20.3019 11.6816 20.186 12.0001 20.186C12.3186 20.186 12.5485 20.3019 12.6687 20.4455L13.9224 21.9416C14.1781 22.2468 14.5909 22.3716 14.9734 22.2593C16.0887 21.9318 17.1265 21.4252 18.0533 20.7733C18.3784 20.5446 18.5371 20.1457 18.4575 19.7568L18.0645 17.8347C18.0279 17.6557 18.0784 17.4102 18.2735 17.1654C18.4708 16.9179 18.7023 16.8126 18.8847 16.8084L20.8415 16.7632C21.2405 16.754 21.5959 16.5093 21.7462 16.1404C22.1701 15.0994 22.4314 13.9756 22.4988 12.8014C22.5216 12.4058 22.3079 12.0343 21.9543 11.8542L20.1882 10.9547C20.037 10.8777 19.8765 10.6879 19.8065 10.3855C19.7386 10.0927 19.7973 9.86194 19.9057 9.71966L21.0985 8.15431C21.3401 7.83726 21.3699 7.40733 21.1744 7.06009C20.6072 6.05267 19.8784 5.14864 19.0234 4.38268C18.7276 4.11773 18.3028 4.05238 17.9408 4.21614L16.1262 5.037C15.9712 5.10712 15.7381 5.11376 15.4728 4.9863C15.2013 4.85579 15.0573 4.66442 15.0165 4.50362L14.5296 2.58106C14.432 2.19559 14.1146 1.90454 13.7214 1.83992C13.1608 1.74777 12.5859 1.69995 12.0005 1.69995ZM11.3141 3.79295C11.4199 3.70894 11.5512 3.70613 11.8137 3.7005C11.8758 3.69917 11.9381 3.6985 12.0005 3.6985C12.0627 3.6985 12.1246 3.69916 12.1865 3.70048C12.449 3.70608 12.5803 3.70888 12.6861 3.79289C12.7918 3.8769 12.826 4.012 12.8945 4.2822L13.0746 4.9933C13.2922 5.85243 13.9254 6.46094 14.6037 6.7869C15.2866 7.11504 16.1498 7.22066 16.9533 6.85721L17.6312 6.55054C17.8848 6.43583 18.0115 6.37848 18.143 6.40831C18.2745 6.43815 18.3586 6.53817 18.5267 6.73821C18.6057 6.83221 18.6827 6.92794 18.7576 7.02532C18.9178 7.23353 18.9979 7.33763 18.9982 7.47284C18.9985 7.60805 18.9138 7.71924 18.7443 7.94162L18.3112 8.51008C17.7719 9.21784 17.6817 10.0881 17.8549 10.8356C18.0247 11.5685 18.4803 12.3288 19.2776 12.7348L19.9335 13.0688C20.1812 13.195 20.3051 13.2581 20.3637 13.3792C20.4223 13.5003 20.3964 13.628 20.3447 13.8835C20.321 14.0009 20.2948 14.1173 20.2663 14.2329C20.2033 14.4877 20.1719 14.6151 20.0661 14.6998C19.9602 14.7845 19.8202 14.7877 19.5402 14.7942L18.8383 14.8104C17.934 14.8313 17.1853 15.32 16.7059 15.9213C16.227 16.522 15.9221 17.3546 16.1019 18.2342L16.2452 18.9348C16.3009 19.2074 16.3288 19.3437 16.2702 19.4651C16.2116 19.5864 16.0949 19.6458 15.8616 19.7645C15.7578 19.8173 15.6528 19.8681 15.5466 19.9167C15.3077 20.026 15.1883 20.0807 15.0562 20.0509C14.924 20.0211 14.8343 19.914 14.6548 19.6999L14.2054 19.1636C13.6246 18.4704 12.7747 18.1874 12.0001 18.1874C11.2255 18.1874 10.3757 18.4704 9.7948 19.1636L9.34565 19.6996C9.16616 19.9138 9.07642 20.0209 8.94424 20.0507C8.81206 20.0805 8.69266 20.0258 8.45386 19.9164C8.34759 19.8678 8.24246 19.817 8.13858 19.7641C7.90534 19.6454 7.78871 19.586 7.73011 19.4647C7.67151 19.3433 7.69937 19.207 7.7551 18.9345L7.89832 18.2341C8.07817 17.3545 7.77321 16.522 7.29434 15.9213C6.81498 15.3199 6.06636 14.8313 5.16199 14.8104L4.46084 14.7942C4.18079 14.7877 4.04076 14.7845 3.93495 14.6998C3.82915 14.6151 3.79767 14.4877 3.73473 14.2329C3.70616 14.1172 3.67996 14.0006 3.65619 13.8831C3.6045 13.6276 3.57866 13.4999 3.63726 13.3788C3.69585 13.2577 3.81972 13.1946 4.06746 13.0685L4.72277 12.7348C5.52002 12.3287 5.9756 11.5685 6.14538 10.8357C6.31857 10.0881 6.22841 9.21792 5.68913 8.51019L5.25627 7.94212C5.08683 7.71976 5.00211 7.60858 5.00242 7.47338C5.00273 7.33818 5.08281 7.23408 5.24297 7.02588C5.31796 6.9284 5.39502 6.83258 5.47409 6.73849C5.64221 6.53843 5.72627 6.43841 5.85775 6.40856C5.98922 6.37872 6.11601 6.43608 6.3696 6.55079L7.04703 6.85724C7.85045 7.22068 8.71369 7.11506 9.39654 6.78692C10.0749 6.46096 10.708 5.85246 10.9256 4.99336L11.1057 4.28222C11.1742 4.01204 11.2084 3.87696 11.3141 3.79295Z"/>
</svg>
