<svg width="24" height="24" viewBox="0 0 24 24" fill="none" xmlns="http://www.w3.org/2000/svg">
<path d="M7.52767 11.7539C7.46353 11.8146 7.32611 11.8775 7.01492 11.8775L7.00684 11.8775C6.9176 11.8774 6.87298 11.8774 6.84373 11.8481C6.81448 11.8188 6.81448 11.7731 6.81448 11.6816V11.0441C6.81448 10.9535 6.81448 10.9083 6.84287 10.8791L6.84469 10.8773C6.87381 10.8489 6.91864 10.8489 7.00831 10.8489C7.34676 10.8489 7.48209 10.9114 7.54 10.9659C7.59189 11.0146 7.63824 11.1109 7.63824 11.3533C7.63824 11.59 7.58749 11.6972 7.52767 11.7539Z" fill="currentColor"/>
<path d="M11.7501 13.1729C11.6785 13.1729 11.6427 13.1729 11.616 13.1529C11.6087 13.1474 11.6016 13.1403 11.5961 13.1329C11.5761 13.1062 11.5761 13.0693 11.5761 12.9954V11.0782C11.5761 10.9874 11.5761 10.9421 11.6051 10.9128C11.634 10.8836 11.6783 10.8832 11.7667 10.8825L11.8293 10.8822C12.2834 10.8822 12.5177 10.9771 12.6484 11.1155C12.7828 11.258 12.869 11.5103 12.869 11.9747C12.869 12.4713 12.7712 12.7524 12.6187 12.9139C12.4698 13.0716 12.2134 13.1729 11.7501 13.1729Z" fill="currentColor"/>
<path fill-rule="evenodd" clip-rule="evenodd" d="M3.05886 19.2741C3.00814 18.8277 3.0011 18.2919 3.00015 17.6785C3.00013 17.6695 3.00013 17.665 3.00005 17.6623C2.99721 17.5611 2.9282 17.484 2.82796 17.4699C2.82534 17.4695 2.81907 17.4688 2.80653 17.4674C2.48564 17.4309 2.11334 17.3434 1.7742 17.0803C1.64163 16.9775 1.52253 16.8584 1.4197 16.7258C1.15663 16.3867 1.06909 16.0144 1.03263 15.6935C0.999889 15.4053 0.999946 15.0601 1 14.7052V9.29477C0.999946 8.93992 0.999889 8.59471 1.03263 8.3065C1.06909 7.98562 1.15663 7.61332 1.4197 7.27418C1.52253 7.14161 1.64163 7.02251 1.7742 6.91968C2.11334 6.65661 2.48564 6.56907 2.80653 6.53261C2.81907 6.53119 2.82534 6.53048 2.82796 6.53011C2.92819 6.51602 2.99721 6.43884 3.00005 6.33766C3.00013 6.33501 3.00013 6.3305 3.00015 6.32147C3.0011 5.70806 3.00814 5.17229 3.05886 4.72592C3.12154 4.17415 3.26155 3.63569 3.62954 3.16128C3.78378 2.96243 3.96243 2.78378 4.16128 2.62954C4.6357 2.26155 5.17415 2.12154 5.72592 2.05886C6.24452 1.99994 6.88377 1.99997 7.62525 2L16.3747 2C17.1162 1.99997 17.7555 1.99994 18.2741 2.05886C18.8259 2.12154 19.3643 2.26155 19.8387 2.62954C20.0376 2.78378 20.2162 2.96243 20.3705 3.16128C20.7385 3.6357 20.8785 4.17415 20.9412 4.72592C20.9919 5.17229 20.9989 5.70805 20.9999 6.32145C20.9999 6.33049 20.9999 6.33502 21 6.33767C21.0028 6.43884 21.0718 6.51601 21.172 6.5301C21.1747 6.53047 21.1809 6.53119 21.1935 6.53261C21.5144 6.56907 21.8867 6.65661 22.2258 6.91968C22.3584 7.02251 22.4775 7.14161 22.5803 7.27418C22.8434 7.61332 22.9309 7.98562 22.9674 8.3065C23.0001 8.5947 23.0001 8.93989 23 9.29472V14.7052C23.0001 15.06 23.0001 15.4053 22.9674 15.6935C22.9309 16.0144 22.8434 16.3867 22.5803 16.7258C22.4775 16.8584 22.3584 16.9775 22.2258 17.0803C21.8867 17.3434 21.5144 17.4309 21.1935 17.4674C21.1809 17.4688 21.1747 17.4695 21.172 17.4699C21.0718 17.484 21.0028 17.5611 21 17.6623C20.9999 17.665 20.9999 17.6695 20.9999 17.6785C20.9989 18.2919 20.9919 18.8277 20.9412 19.2741C20.8785 19.8259 20.7385 20.3643 20.3705 20.8387C20.2162 21.0376 20.0376 21.2162 19.8387 21.3705C19.3643 21.7385 18.8259 21.8785 18.2741 21.9412C17.7555 22.0001 17.1162 22 16.3747 22H7.62532C6.88381 22 6.24453 22.0001 5.72592 21.9412C5.17415 21.8785 4.6357 21.7385 4.16128 21.3705C3.96243 21.2162 3.78378 21.0376 3.62954 20.8387C3.26155 20.3643 3.12154 19.8259 3.05886 19.2741ZM18.9539 4.95169C18.9868 5.24137 18.9963 5.60317 18.999 6.09959C19 6.28791 19.0005 6.38206 18.9418 6.44102C18.8832 6.49998 18.7887 6.49998 18.5997 6.49998L5.40029 6.49999C5.21131 6.49999 5.11682 6.49999 5.05817 6.44103C4.99953 6.38207 5.00004 6.28791 5.00106 6.0996C5.00373 5.60318 5.01316 5.24137 5.04607 4.95169C5.08831 4.57994 5.15815 4.45375 5.20985 4.3871C5.26126 4.32081 5.32081 4.26126 5.3871 4.20985C5.45374 4.15815 5.57994 4.08831 5.95169 4.04607C6.34389 4.00151 6.8683 4 7.68 4L16.32 4C17.1317 4 17.6561 4.00151 18.0483 4.04607C18.4201 4.08831 18.5463 4.15815 18.6129 4.20985C18.6792 4.26126 18.7387 4.32081 18.7902 4.3871C18.8419 4.45374 18.9117 4.57994 18.9539 4.95169ZM5.00106 17.9004C5.00004 17.7121 4.99953 17.6179 5.05817 17.559C5.11682 17.5 5.21131 17.5 5.40029 17.5L18.5997 17.5C18.7887 17.5 18.8832 17.5 18.9418 17.559C19.0005 17.6179 19 17.7121 18.999 17.9004C18.9963 18.3968 18.9868 18.7586 18.9539 19.0483C18.9117 19.4201 18.8419 19.5463 18.7902 19.6129C18.7387 19.6792 18.6792 19.7387 18.6129 19.7902C18.5463 19.8419 18.4201 19.9117 18.0483 19.9539C17.6561 19.9985 17.1317 20 16.32 20H7.68C6.8683 20 6.34389 19.9985 5.95169 19.9539C5.57994 19.9117 5.45374 19.8419 5.3871 19.7902C5.32081 19.7387 5.26126 19.6792 5.20985 19.6129C5.15815 19.5463 5.08831 19.4201 5.04607 19.0483C5.01316 18.7586 5.00373 18.3968 5.00106 17.9004ZM5.656 9.44281C5.47793 9.45107 5.3889 9.45519 5.32293 9.4958C5.27894 9.52287 5.24269 9.56084 5.21768 9.60603C5.18018 9.67382 5.18018 9.76294 5.18018 9.9412L5.18018 14.0153C5.18018 14.2982 5.18018 14.4396 5.26804 14.5275C5.35591 14.6153 5.49733 14.6153 5.78018 14.6153H6.21448C6.49732 14.6153 6.63875 14.6153 6.72661 14.5275C6.81448 14.4396 6.81448 14.2982 6.81448 14.0153L6.81448 13.5174C6.81448 13.4269 6.81448 13.3817 6.84036 13.3531C6.84262 13.3506 6.84486 13.3484 6.84735 13.3461C6.87593 13.3202 6.92226 13.3202 7.01491 13.3202C7.74246 13.3202 8.32663 13.1794 8.72883 12.8287C9.13958 12.4706 9.30559 11.9432 9.30559 11.3005C9.30559 10.6757 9.16164 10.1695 8.75015 9.83604C8.35489 9.51573 7.77156 9.40625 7.02813 9.40625C6.42986 9.40625 6.10708 9.4215 5.656 9.44281ZM10.2007 9.44664C10.0553 9.4553 9.94175 9.57578 9.94175 9.72148V14.327C9.94175 14.4724 10.0547 14.5926 10.1997 14.6018C10.7245 14.635 11.1141 14.6552 11.6972 14.6552C12.6231 14.6552 13.3488 14.452 13.84 13.9743C14.333 13.495 14.5363 12.7917 14.5363 11.9152C14.5363 11.1681 14.3923 10.518 13.9394 10.0612C13.487 9.60477 12.7844 9.3999 11.8095 9.3999C11.1498 9.3999 10.7611 9.41329 10.2007 9.44664ZM15.2669 9.52715C15.3547 9.43928 15.4962 9.43928 15.779 9.43928L18.222 9.43928C18.5049 9.43928 18.6463 9.43928 18.7342 9.52715C18.822 9.61502 18.822 9.75644 18.822 10.0393V10.3282C18.822 10.6111 18.822 10.7525 18.7342 10.8404C18.6463 10.9282 18.5049 10.9282 18.222 10.9282H17.0133C16.919 10.9282 16.8719 10.9282 16.8426 10.9575C16.8133 10.9868 16.8133 11.0339 16.8133 11.1282V11.2965C16.8133 11.3908 16.8133 11.4379 16.8426 11.4672C16.8719 11.4965 16.919 11.4965 17.0133 11.4965L18.1361 11.4965C18.419 11.4965 18.5604 11.4965 18.6483 11.5844C18.7361 11.6722 18.7361 11.8137 18.7361 12.0965V12.3854C18.7361 12.6683 18.7361 12.8097 18.6483 12.8976C18.5604 12.9854 18.419 12.9854 18.1361 12.9854H17.0133C16.919 12.9854 16.8719 12.9854 16.8426 13.0147C16.8133 13.044 16.8133 13.0912 16.8133 13.1854V14.0153C16.8133 14.2982 16.8133 14.4396 16.7254 14.5275C16.6376 14.6153 16.4961 14.6153 16.2133 14.6153H15.779C15.4962 14.6153 15.3547 14.6153 15.2669 14.5275C15.179 14.4396 15.179 14.2982 15.179 14.0153V10.0393C15.179 9.75644 15.179 9.61502 15.2669 9.52715Z" fill="currentColor"/>
</svg>
