<svg width="24" height="24" viewBox="0 0 24 24" fill="none" xmlns="http://www.w3.org/2000/svg">
<path fill-rule="evenodd" clip-rule="evenodd" d="M12.0005 8.50002C10.0675 8.50002 8.50049 10.067 8.50049 12C8.50049 13.933 10.0675 15.5 12.0005 15.5C13.9335 15.5 15.5005 13.933 15.5005 12C15.5005 10.067 13.9335 8.50002 12.0005 8.50002ZM10.5005 12C10.5005 11.1716 11.1721 10.5 12.0005 10.5C12.8289 10.5 13.5005 11.1716 13.5005 12C13.5005 12.8284 12.8289 13.5 12.0005 13.5C11.1721 13.5 10.5005 12.8284 10.5005 12Z" fill="currentColor"/>
<path fill-rule="evenodd" clip-rule="evenodd" d="M12.0005 1.70001C11.4148 1.70001 10.8396 1.74789 10.2787 1.84013C9.88556 1.90478 9.56823 2.19581 9.4706 2.58125L8.98366 4.50374C8.94294 4.66453 8.79897 4.85588 8.52741 4.98638C8.26217 5.11384 8.02909 5.1072 7.87411 5.03709L6.05999 4.21644C5.69796 4.05267 5.27313 4.11803 4.97736 4.383C4.12223 5.14907 3.39346 6.05323 2.82626 7.06079C2.63079 7.40803 2.66063 7.83792 2.90221 8.15496L4.09463 9.71983C4.20303 9.86209 4.26166 10.0928 4.19383 10.3856C4.1238 10.6879 3.96337 10.8777 3.81217 10.9547L2.0467 11.8538C1.69305 12.0339 1.47943 12.4055 1.50214 12.801C1.56956 13.9754 1.83082 15.0994 2.25485 16.1405C2.4051 16.5094 2.76051 16.7541 3.15949 16.7633L5.11564 16.8084C5.29799 16.8127 5.52945 16.9179 5.72676 17.1654C5.92187 17.4102 5.97232 17.6557 5.93574 17.8346L5.54278 19.7564C5.46327 20.1452 5.62189 20.5442 5.94694 20.7728C6.87374 21.4249 7.91156 21.9316 9.02692 22.2591C9.40943 22.3715 9.82228 22.2467 10.078 21.9415L11.3315 20.4455C11.4518 20.302 11.6816 20.1861 12.0001 20.1861C12.3186 20.1861 12.5485 20.302 12.6687 20.4455L13.9224 21.9416C14.1781 22.2468 14.5909 22.3716 14.9734 22.2593C16.0887 21.9319 17.1265 21.4253 18.0533 20.7734C18.3784 20.5447 18.5371 20.1457 18.4575 19.7569L18.0645 17.8347C18.0279 17.6558 18.0784 17.4102 18.2735 17.1655C18.4708 16.9179 18.7023 16.8127 18.8847 16.8084L20.8415 16.7633C21.2405 16.754 21.5959 16.5094 21.7462 16.1405C22.1701 15.0995 22.4314 13.9757 22.4988 12.8014C22.5216 12.4059 22.3079 12.0343 21.9543 11.8542L20.1882 10.9548C20.037 10.8778 19.8765 10.6879 19.8065 10.3856C19.7386 10.0928 19.7973 9.862 19.9057 9.71972L21.0985 8.15437C21.3401 7.83732 21.3699 7.40739 21.1744 7.06015C20.6072 6.05273 19.8784 5.1487 19.0234 4.38274C18.7276 4.11779 18.3028 4.05244 17.9408 4.21621L16.1262 5.03706C15.9712 5.10718 15.7381 5.11382 15.4728 4.98636C15.2013 4.85585 15.0573 4.66449 15.0165 4.50368L14.5296 2.58112C14.432 2.19565 14.1146 1.90461 13.7214 1.83998C13.1608 1.74784 12.5859 1.70001 12.0005 1.70001ZM11.3141 3.79301C11.4199 3.709 11.5512 3.70619 11.8137 3.70056C11.8758 3.69923 11.9381 3.69856 12.0005 3.69856C12.0627 3.69856 12.1246 3.69922 12.1865 3.70054C12.449 3.70614 12.5803 3.70895 12.6861 3.79296C12.7918 3.87696 12.826 4.01206 12.8945 4.28226L13.0746 4.99336C13.2922 5.85249 13.9254 6.461 14.6037 6.78696C15.2866 7.1151 16.1498 7.22072 16.9533 6.85727L17.6312 6.5506C17.8848 6.43589 18.0115 6.37854 18.143 6.40837C18.2745 6.43821 18.3586 6.53823 18.5267 6.73827C18.6057 6.83227 18.6827 6.928 18.7576 7.02538C18.9178 7.23359 18.9979 7.33769 18.9982 7.4729C18.9985 7.60812 18.9138 7.7193 18.7443 7.94168L18.3112 8.51014C17.7719 9.2179 17.6817 10.0881 17.8549 10.8357C18.0247 11.5686 18.4803 12.3288 19.2776 12.7349L19.9335 13.0689C20.1812 13.1951 20.3051 13.2582 20.3637 13.3792C20.4223 13.5003 20.3964 13.6281 20.3447 13.8836C20.321 14.0009 20.2948 14.1174 20.2663 14.2329C20.2033 14.4877 20.1719 14.6151 20.0661 14.6998C19.9602 14.7845 19.8202 14.7878 19.5402 14.7942L18.8383 14.8104C17.934 14.8313 17.1853 15.32 16.7059 15.9213C16.227 16.5221 15.9221 17.3546 16.1019 18.2342L16.2452 18.9349C16.3009 19.2075 16.3288 19.3437 16.2702 19.4651C16.2116 19.5865 16.0949 19.6459 15.8616 19.7645C15.7578 19.8174 15.6528 19.8681 15.5466 19.9168C15.3077 20.0261 15.1883 20.0808 15.0562 20.051C14.924 20.0212 14.8343 19.9141 14.6548 19.6999L14.2054 19.1636C13.6246 18.4704 12.7747 18.1875 12.0001 18.1875C11.2255 18.1875 10.3757 18.4704 9.7948 19.1636L9.34565 19.6997C9.16616 19.9139 9.07642 20.021 8.94424 20.0507C8.81206 20.0805 8.69266 20.0258 8.45386 19.9165C8.34759 19.8678 8.24246 19.817 8.13858 19.7642C7.90534 19.6455 7.78871 19.5861 7.73011 19.4647C7.67151 19.3433 7.69937 19.2071 7.7551 18.9345L7.89832 18.2341C8.07817 17.3546 7.77321 16.522 7.29434 15.9213C6.81498 15.32 6.06636 14.8313 5.16199 14.8104L4.46084 14.7942C4.18079 14.7878 4.04076 14.7845 3.93495 14.6998C3.82915 14.6151 3.79767 14.4877 3.73473 14.2329C3.70616 14.1173 3.67996 14.0007 3.65619 13.8832C3.6045 13.6277 3.57866 13.5 3.63726 13.3789C3.69585 13.2578 3.81972 13.1947 4.06746 13.0685L4.72277 12.7348C5.52002 12.3288 5.9756 11.5686 6.14538 10.8357C6.31857 10.0882 6.22841 9.21798 5.68913 8.51025L5.25627 7.94218C5.08683 7.71983 5.00211 7.60865 5.00242 7.47344C5.00273 7.33824 5.08281 7.23414 5.24297 7.02594C5.31796 6.92846 5.39502 6.83264 5.47409 6.73855C5.64221 6.53849 5.72627 6.43847 5.85775 6.40863C5.98922 6.37878 6.11601 6.43614 6.3696 6.55085L7.04703 6.8573C7.85045 7.22074 8.71369 7.11512 9.39654 6.78698C10.0749 6.46102 10.708 5.85252 10.9256 4.99342L11.1057 4.28228C11.1742 4.0121 11.2084 3.87702 11.3141 3.79301Z" fill="currentColor"/>
</svg>
