<svg width="16" height="16" viewBox="0 0 16 16" fill="none" xmlns="http://www.w3.org/2000/svg">
    <path d="M4.89742 14.2152C4.65806 14.5988 4.53839 14.7907 4.34965 14.8953C4.16092 15 3.93474 15 3.48238 15H2.17876C1.49481 15 1.15284 15 1.03489 14.7804C0.916935 14.5608 1.10589 14.276 1.4838 13.7062L5.19729 8.10767C5.27055 7.99722 5.30718 7.94199 5.3075 7.87979C5.30782 7.81759 5.27176 7.76199 5.19963 7.65079L1.72032 2.28663C1.35224 1.71915 1.1682 1.4354 1.28658 1.2177C1.40497 1 1.7433 1 2.41997 1H3.81487C4.27084 1 4.49883 1 4.68856 1.1061C4.87829 1.2122 4.99756 1.4064 5.23609 1.79478L7.42564 5.35986C7.58031 5.61168 7.65763 5.73759 7.77228 5.73926C7.88693 5.74092 7.96788 5.6173 8.12979 5.37006L10.4978 1.75387C10.7394 1.385 10.8602 1.20055 11.0457 1.10028C11.2313 1 11.4519 1 11.8931 1H13.184C13.8896 1 14.2424 1 14.359 1.22502C14.4756 1.45003 14.2721 1.73804 13.8651 2.31406L10.1977 7.50405C10.117 7.61818 10.0767 7.67524 10.0761 7.74039C10.0756 7.80554 10.1149 7.8633 10.1935 7.97882L14.0872 13.6979C14.4769 14.2702 14.6717 14.5564 14.5543 14.7782C14.4369 15 14.0905 15 13.3979 15H11.9993C11.5552 15 11.3332 15 11.1468 14.8986C10.9604 14.7972 10.8398 14.6108 10.5988 14.2381L8.04607 10.2911C7.88579 10.0433 7.80565 9.9194 7.69108 9.92034C7.57652 9.92127 7.49841 10.0465 7.34218 10.2969L4.89742 14.2152Z" fill="url(#paint0_linear_72_164)"/>
    <defs>
        <linearGradient id="paint0_linear_72_164" x1="1.80609" y1="15" x2="17.4608" y2="0.744962" gradientUnits="userSpaceOnUse">
            <stop offset="0.0325622" stop-color="#DAFF46"/>
            <stop offset="0.222811" stop-color="#5BFF46"/>
            <stop offset="0.397701" stop-color="#20F87D"/>
            <stop offset="0.594252" stop-color="#06CFE7"/>
            <stop offset="0.86787" stop-color="#00D2F5"/>
        </linearGradient>
    </defs>
</svg>
