<svg width="36" height="36" viewBox="0 0 36 36" fill="none" xmlns="http://www.w3.org/2000/svg">
<path d="M3 9C3 6.79086 4.79086 5 7 5H29C31.2091 5 33 6.79086 33 9C33 9.55228 32.5523 10 32 10H4C3.44772 10 3 9.55228 3 9Z" fill="currentColor"/>
<path d="M7 14C7 13.0572 7 12.5858 7.29289 12.2929C7.58579 12 8.05719 12 9 12H21C21.9428 12 22.4142 12 22.7071 12.2929C23 12.5858 23 13.0572 23 14V15C23 15.9428 23 16.4142 22.7071 16.7071C22.4142 17 21.9428 17 21 17H9C8.05719 17 7.58579 17 7.29289 16.7071C7 16.4142 7 15.9428 7 15V14Z" fill="currentColor"/>
<path d="M11.2929 19.2929C11 19.5858 11 20.0572 11 21V22C11 22.9428 11 23.4142 11.2929 23.7071C11.5858 24 12.0572 24 13 24H21C21.9428 24 22.4142 24 22.7071 23.7071C23 23.4142 23 22.9428 23 22V21C23 20.0572 23 19.5858 22.7071 19.2929C22.4142 19 21.9428 19 21 19H13C12.0572 19 11.5858 19 11.2929 19.2929Z" fill="currentColor"/>
<path d="M15 28C15 27.0572 15 26.5858 15.2929 26.2929C15.5858 26 16.0572 26 17 26H21C21.9428 26 22.4142 26 22.7071 26.2929C23 26.5858 23 27.0572 23 28V29C23 29.9428 23 30.4142 22.7071 30.7071C22.4142 31 21.9428 31 21 31H17C16.0572 31 15.5858 31 15.2929 30.7071C15 30.4142 15 29.9428 15 29V28Z" fill="currentColor"/>
<path d="M25.2929 12.2929C25 12.5858 25 13.0572 25 14V15C25 15.9428 25 16.4142 25.2929 16.7071C25.5858 17 26.0572 17 27 17H31C31.9428 17 32.4142 17 32.7071 16.7071C33 16.4142 33 15.9428 33 15V14C33 13.0572 33 12.5858 32.7071 12.2929C32.4142 12 31.9428 12 31 12H27C26.0572 12 25.5858 12 25.2929 12.2929Z" fill="currentColor"/>
<path d="M25 21C25 20.0572 25 19.5858 25.2929 19.2929C25.5858 19 26.0572 19 27 19H31C31.9428 19 32.4142 19 32.7071 19.2929C33 19.5858 33 20.0572 33 21V22C33 22.9428 33 23.4142 32.7071 23.7071C32.4142 24 31.9428 24 31 24H27C26.0572 24 25.5858 24 25.2929 23.7071C25 23.4142 25 22.9428 25 22V21Z" fill="currentColor"/>
<path d="M25.2929 26.2929C25 26.5858 25 27.0572 25 28V29.4C25 29.9601 25 30.2401 25.109 30.454C25.2049 30.6422 25.3578 30.7951 25.546 30.891C25.7599 31 26.0399 31 26.6 31H29C31.2091 31 33 29.2091 33 27C33 26.4477 32.5523 26 32 26H27C26.0572 26 25.5858 26 25.2929 26.2929Z" fill="currentColor"/>
</svg>
