<svg width="24" height="24" viewBox="0 0 24 24" fill="none" xmlns="http://www.w3.org/2000/svg">
<path d="M8 15C7.44772 15 7 15.4477 7 16C7 16.5523 7.44772 17 8 17H16C16.5523 17 17 16.5523 17 16C17 15.4477 16.5523 15 16 15L8 15Z" fill="currentColor"/>
<path d="M7 12C7 11.4477 7.44772 11 8 11L16 11C16.5523 11 17 11.4477 17 12C17 12.5523 16.5523 13 16 13L8 13C7.44772 13 7 12.5523 7 12Z" fill="currentColor"/>
<path d="M8 7C7.44772 7 7 7.44771 7 8C7 8.55229 7.44772 9 8 9L11 9C11.5523 9 12 8.55229 12 8C12 7.44772 11.5523 7 11 7L8 7Z" fill="currentColor"/>
<path fill-rule="evenodd" clip-rule="evenodd" d="M7.62532 2C6.88383 1.99997 6.24452 1.99994 5.72592 2.05886C5.17415 2.12154 4.6357 2.26155 4.16128 2.62954C3.96243 2.78378 3.78378 2.96243 3.62954 3.16128C3.26155 3.63569 3.12154 4.17415 3.05886 4.72592C2.99994 5.24453 2.99997 5.88381 3 6.62532V17.3747C2.99997 18.1162 2.99994 18.7555 3.05886 19.2741C3.12154 19.8259 3.26155 20.3643 3.62954 20.8387C3.78378 21.0376 3.96243 21.2162 4.16128 21.3705C4.6357 21.7385 5.17415 21.8785 5.72592 21.9412C6.24453 22.0001 6.88381 22 7.62532 22H16.3747C17.1162 22 17.7555 22.0001 18.2741 21.9412C18.8259 21.8785 19.3643 21.7385 19.8387 21.3705C20.0376 21.2162 20.2162 21.0376 20.3705 20.8387C20.7385 20.3643 20.8785 19.8259 20.9412 19.2741C21.0001 18.7555 21 18.1162 21 17.3747V6.62532C21 5.88381 21.0001 5.24453 20.9412 4.72592C20.8785 4.17415 20.7385 3.6357 20.3705 3.16128C20.2162 2.96243 20.0376 2.78378 19.8387 2.62954C19.3643 2.26155 18.8259 2.12154 18.2741 2.05886C17.7555 1.99994 17.1162 1.99997 16.3747 2L7.62532 2ZM5.3871 4.20985C5.45374 4.15815 5.57994 4.08831 5.95169 4.04607C6.34389 4.00151 6.8683 4 7.68 4L16.32 4C17.1317 4 17.6561 4.00151 18.0483 4.04607C18.4201 4.08831 18.5463 4.15815 18.6129 4.20985C18.6792 4.26126 18.7387 4.32081 18.7902 4.3871C18.8419 4.45374 18.9117 4.57994 18.9539 4.95169C18.9985 5.34389 19 5.8683 19 6.68V17.32C19 18.1317 18.9985 18.6561 18.9539 19.0483C18.9117 19.4201 18.8419 19.5463 18.7902 19.6129C18.7387 19.6792 18.6792 19.7387 18.6129 19.7902C18.5463 19.8419 18.4201 19.9117 18.0483 19.9539C17.6561 19.9985 17.1317 20 16.32 20H7.68C6.8683 20 6.34389 19.9985 5.95169 19.9539C5.57994 19.9117 5.45374 19.8419 5.3871 19.7902C5.32081 19.7387 5.26126 19.6792 5.20985 19.6129C5.15815 19.5463 5.08831 19.4201 5.04607 19.0483C5.00151 18.6561 5 18.1317 5 17.32V6.68C5 5.8683 5.00151 5.34389 5.04607 4.95169C5.08831 4.57994 5.15815 4.45375 5.20985 4.3871C5.26126 4.32081 5.32081 4.26126 5.3871 4.20985Z" fill="currentColor"/>
</svg>
