<svg width="16" height="16" viewBox="0 0 16 16" fill="none" xmlns="http://www.w3.org/2000/svg">
<path d="M6.75 7C7.16421 7 7.5 7.33579 7.5 7.75L7.5 11C7.5 11.4142 7.16421 11.75 6.75 11.75C6.33579 11.75 6 11.4142 6 11L6 7.75C6 7.33579 6.33579 7 6.75 7Z" fill="currentColor"/>
<path d="M9.25 7C9.66421 7 10 7.33579 10 7.75V11C10 11.4142 9.66421 11.75 9.25 11.75C8.83579 11.75 8.5 11.4142 8.5 11L8.5 7.75C8.5 7.33579 8.83579 7 9.25 7Z" fill="currentColor"/>
<path fill-rule="evenodd" clip-rule="evenodd" d="M1 4.25C1 3.83579 1.33579 3.5 1.75 3.5L14.25 3.5C14.6642 3.5 15 3.83578 15 4.25C15 4.66421 14.6642 5 14.25 5H13.5124C13.354 5 13.2229 5.12316 13.213 5.28125L12.7366 12.8906C12.6624 14.0763 11.6791 15 10.491 15H5.50905C4.321 15 3.33768 14.0763 3.26345 12.8906L2.78704 5.28125C2.77714 5.12316 2.64603 5 2.48762 5H1.75C1.33579 5 1 4.66421 1 4.25ZM4.28567 5.2125C4.27846 5.09735 4.3699 5 4.48528 5L11.5148 5C11.6301 5 11.7216 5.09735 11.7144 5.2125L11.2395 12.7969C11.2148 13.1921 10.887 13.5 10.491 13.5H5.50905C5.11303 13.5 4.78526 13.1921 4.76052 12.7969L4.28567 5.2125Z" fill="currentColor"/>
<path d="M6.75 1C6.33579 1 6 1.33579 6 1.75C6 2.16421 6.33579 2.5 6.75 2.5L9.25 2.5C9.66421 2.5 10 2.16421 10 1.75C10 1.33579 9.66421 1 9.25 1L6.75 1Z" fill="currentColor"/>
</svg>
