<svg width="16" height="16" viewBox="0 0 16 16" fill="none" xmlns="http://www.w3.org/2000/svg">
<path d="M4.2226 5.03033C3.92971 4.73744 3.9297 4.26257 4.2226 3.96967C4.51549 3.67678 4.99036 3.67678 5.28326 3.96967L8.78148 7.46784C8.92213 7.60849 9.00115 7.79926 9.00115 7.99817C9.00115 8.19709 8.92213 8.38785 8.78148 8.52851L5.28328 12.0267C4.99039 12.3196 4.51551 12.3196 4.22262 12.0267C3.92973 11.7338 3.92973 11.2589 4.22262 10.966L6.83693 8.35173C7.0036 8.18507 7.08693 8.10173 7.08693 7.99818C7.08693 7.89463 7.0036 7.81129 6.83693 7.64463L4.2226 5.03033Z" fill="currentColor"/>
<path d="M8.22456 5.03033C7.93166 4.73744 7.93166 4.26257 8.22455 3.96967C8.51744 3.67678 8.99231 3.67678 9.28521 3.96967L12.7834 7.46784C12.9241 7.60849 13.0031 7.79926 13.0031 7.99817C13.0031 8.19709 12.9241 8.38785 12.7834 8.52851L9.28523 12.0267C8.99234 12.3196 8.51747 12.3196 8.22457 12.0267C7.93168 11.7338 7.93168 11.2589 8.22457 10.966L10.8389 8.35173C11.0056 8.18507 11.0889 8.10173 11.0889 7.99818C11.0889 7.89462 11.0055 7.81129 10.8389 7.64462L8.22456 5.03033Z" fill="currentColor"/>
</svg>
