<svg width="24" height="24" viewBox="0 0 24 24" fill="none" xmlns="http://www.w3.org/2000/svg">
<path d="M6.5 7.6C6.5 7.26863 6.23137 7 5.9 7H4C3.44772 7 3 7.44772 3 8C3 8.55228 3.44772 9 4 9L5.9 9C6.23137 9 6.5 8.73137 6.5 8.4V7.6Z" fill="currentColor"/>
<path d="M8.35 9C8.01863 9 7.75 8.73137 7.75 8.4V7.6C7.75 7.26863 8.01863 7 8.35 7H10.9C11.2314 7 11.5 7.26863 11.5 7.6V8.4C11.5 8.73137 11.2314 9 10.9 9L8.35 9Z" fill="currentColor"/>
<path d="M6.5 11.6C6.5 11.2686 6.23137 11 5.9 11H4C3.44772 11 3 11.4477 3 12C3 12.5523 3.44772 13 4 13H5.9C6.23137 13 6.5 12.7314 6.5 12.4V11.6Z" fill="currentColor"/>
<path d="M8.35 13C8.01863 13 7.75 12.7314 7.75 12.4V11.6C7.75 11.2686 8.01863 11 8.35 11H10.9C11.2314 11 11.5 11.2686 11.5 11.6V12.4C11.5 12.7314 11.2314 13 10.9 13H8.35Z" fill="currentColor"/>
<path d="M6.5 15.6C6.5 15.2686 6.23137 15 5.9 15H4C3.44772 15 3 15.4477 3 16C3 16.5523 3.44772 17 4 17H5.9C6.23137 17 6.5 16.7314 6.5 16.4V15.6Z" fill="currentColor"/>
<path d="M8.35 17C8.01863 17 7.75 16.7314 7.75 16.4V15.6C7.75 15.2686 8.01863 15 8.35 15H10.9C11.2314 15 11.5 15.2686 11.5 15.6V16.4C11.5 16.7314 11.2314 17 10.9 17H8.35Z" fill="currentColor"/>
<path d="M12.5 16.4C12.5 16.7314 12.7686 17 13.1 17H15.65C15.9814 17 16.25 16.7314 16.25 16.4V15.6C16.25 15.2686 15.9814 15 15.65 15H13.1C12.7686 15 12.5 15.2686 12.5 15.6V16.4Z" fill="currentColor"/>
<path d="M12.5 12.4C12.5 12.7314 12.7686 13 13.1 13H15.65C15.9814 13 16.25 12.7314 16.25 12.4V11.6C16.25 11.2686 15.9814 11 15.65 11H13.1C12.7686 11 12.5 11.2686 12.5 11.6V12.4Z" fill="currentColor"/>
<path d="M12.5 8.4C12.5 8.73137 12.7686 9 13.1 9L15.65 9C15.9814 9 16.25 8.73137 16.25 8.4V7.6C16.25 7.26863 15.9814 7 15.65 7H13.1C12.7686 7 12.5 7.26863 12.5 7.6V8.4Z" fill="currentColor"/>
<path d="M18.1 7C17.7686 7 17.5 7.26863 17.5 7.6V8.4C17.5 8.73137 17.7686 9 18.1 9L20 9C20.5523 9 21 8.55229 21 8C21 7.44772 20.5523 7 20 7H18.1Z" fill="currentColor"/>
<path d="M18.1 11C17.7686 11 17.5 11.2686 17.5 11.6V12.4C17.5 12.7314 17.7686 13 18.1 13H20C20.5523 13 21 12.5523 21 12C21 11.4477 20.5523 11 20 11H18.1Z" fill="currentColor"/>
<path d="M18.1 15C17.7686 15 17.5 15.2686 17.5 15.6V16.4C17.5 16.7314 17.7686 17 18.1 17H20C20.5523 17 21 16.5523 21 16C21 15.4477 20.5523 15 20 15H18.1Z" fill="currentColor"/>
</svg>
