<svg width="36" height="36" viewBox="0 0 36 36" fill="none" xmlns="http://www.w3.org/2000/svg">
<path d="M3.87854 6.87868C3.29282 7.46449 3.0976 8.28835 3.03253 9.61063C2.97802 10.7184 2.95077 11.2723 3.23499 11.776C3.51921 12.2796 4.0472 12.564 5.10316 13.1327L12.309 17.0137C15.0929 18.5131 16.4849 19.2628 17.9974 19.2628C19.5099 19.2628 20.9018 18.5132 23.6858 17.0139L30.8917 13.1331C31.9477 12.5644 32.4757 12.28 32.76 11.7763C33.0442 11.2726 33.017 10.7187 32.9625 9.61092C32.8974 8.28852 32.7022 7.4645 32.1165 6.87868C31.2379 6 29.8239 6 26.996 6H8.999C6.17105 6 4.75707 6 3.87854 6.87868Z" fill="currentColor"/>
<path d="M32.995 17.5185C32.995 16.3229 32.995 15.7251 32.6053 15.4923C32.2156 15.2595 31.6893 15.5429 30.6368 16.1098L23.6856 19.8534C20.9017 21.3526 19.5098 22.1022 17.9973 22.1022C16.4849 22.1022 15.093 21.3526 12.3091 19.8534L5.35817 16.1099C4.30567 15.5431 3.77942 15.2597 3.38971 15.4925C3.00001 15.7253 3.00001 16.3231 3.00001 17.5187V22C3.00001 25.7712 3.00001 27.6569 4.17138 28.8284C5.34276 30 7.22806 30 10.9987 30H24.9963C28.7669 30 30.6522 30 31.8236 28.8284C32.995 27.6569 32.995 25.7712 32.995 22V17.5185Z" fill="currentColor"/>
</svg>
