<svg width="24" height="24" viewBox="0 0 24 24" fill="none" xmlns="http://www.w3.org/2000/svg">
<path fill-rule="evenodd" clip-rule="evenodd" d="M6.63178 9.63961C6.49467 9.64596 6.42611 9.64914 6.37239 9.6742C6.30417 9.70603 6.2504 9.76234 6.22177 9.83197C6.19922 9.8868 6.19922 9.95543 6.19922 10.0927V13.7419C6.19922 14.0247 6.19922 14.1662 6.28709 14.254C6.37495 14.3419 6.51638 14.3419 6.79922 14.3419H7.08495C7.36779 14.3419 7.50922 14.3419 7.59708 14.254C7.68495 14.1662 7.68495 14.0247 7.68495 13.7419V13.3438C7.68495 13.2704 7.68495 13.2337 7.70228 13.2082C7.7095 13.1976 7.71808 13.1891 7.72868 13.1818C7.75415 13.1645 7.79182 13.1645 7.86716 13.1645C8.52857 13.1645 9.05963 13.0365 9.42527 12.7177C9.79867 12.3921 9.94959 11.9127 9.94959 11.3284C9.94959 10.7604 9.81874 10.3002 9.44465 9.99709C9.08532 9.70589 8.55502 9.60637 7.87918 9.60637C7.3353 9.60637 7.04186 9.62023 6.63178 9.63961ZM8.3333 11.7406C8.275 11.7958 8.15007 11.853 7.86716 11.853C7.78792 11.853 7.7483 11.853 7.72034 11.8293C7.71622 11.8258 7.71211 11.8217 7.70863 11.8176C7.68495 11.7896 7.68495 11.7489 7.68495 11.6675V11.0954C7.68495 11.022 7.68495 10.9853 7.7042 10.9589C7.7102 10.9507 7.71775 10.9431 7.72596 10.9371C7.75232 10.9179 7.7886 10.9179 7.86116 10.9179C8.16884 10.9179 8.29187 10.9747 8.34452 11.0242C8.39168 11.0685 8.43382 11.1561 8.43382 11.3764C8.43382 11.5916 8.38768 11.6891 8.3333 11.7406Z" fill="currentColor"/>
<path fill-rule="evenodd" clip-rule="evenodd" d="M10.6104 9.64309C10.4782 9.65096 10.375 9.76048 10.375 9.89294L10.375 14.0798C10.375 14.2119 10.4777 14.3213 10.6095 14.3296C11.0866 14.3598 11.4408 14.3782 11.9709 14.3782C12.8126 14.3782 13.4723 14.1934 13.9189 13.7592C14.3671 13.3234 14.5519 12.6841 14.5519 11.8873C14.5519 11.2081 14.4209 10.6171 14.0093 10.2018C13.5979 9.78685 12.9593 9.6006 12.073 9.6006C11.4732 9.6006 11.1198 9.61277 10.6104 9.64309ZM12.0189 13.0306C11.9626 13.0306 11.9345 13.0306 11.9116 13.0177C11.8962 13.009 11.8823 12.9952 11.8736 12.9797C11.8607 12.9569 11.8607 12.9277 11.8607 12.8693V11.1437C11.8607 11.0529 11.8607 11.0075 11.8898 10.9783C11.9189 10.949 11.9631 10.9488 12.0514 10.9483L12.091 10.9482C12.5038 10.9482 12.7168 11.0344 12.8356 11.1603C12.9578 11.2897 13.0361 11.5192 13.0361 11.9413C13.0361 12.3928 12.9472 12.6484 12.8086 12.7952C12.6732 12.9385 12.4401 13.0306 12.0189 13.0306Z" fill="currentColor"/>
<path d="M15.0918 9.72427C15.1796 9.6364 15.3211 9.6364 15.6039 9.6364H17.7158C17.9986 9.6364 18.14 9.6364 18.2279 9.72427C18.3158 9.81214 18.3158 9.95356 18.3158 10.2364V10.39C18.3158 10.6728 18.3158 10.8142 18.2279 10.9021C18.14 10.99 17.9986 10.99 17.7158 10.99H16.6896C16.5954 10.99 16.5482 10.99 16.5189 11.0193C16.4896 11.0486 16.4896 11.0957 16.4896 11.19V11.3066C16.4896 11.4009 16.4896 11.448 16.5189 11.4773C16.5482 11.5066 16.5954 11.5066 16.6896 11.5066H17.6377C17.9205 11.5066 18.0619 11.5066 18.1498 11.5945C18.2377 11.6823 18.2377 11.8238 18.2377 12.1066V12.2602C18.2377 12.543 18.2377 12.6844 18.1498 12.7723C18.0619 12.8602 17.9205 12.8602 17.6377 12.8602H16.6896C16.5954 12.8602 16.5482 12.8602 16.5189 12.8895C16.4896 12.9188 16.4896 12.9659 16.4896 13.0602V13.7419C16.4896 14.0247 16.4896 14.1662 16.4018 14.254C16.3139 14.3419 16.1725 14.3419 15.8896 14.3419H15.6039C15.3211 14.3419 15.1796 14.3419 15.0918 14.254C15.0039 14.1662 15.0039 14.0247 15.0039 13.7419L15.0039 10.2364C15.0039 9.95356 15.0039 9.81214 15.0918 9.72427Z" fill="currentColor"/>
<path fill-rule="evenodd" clip-rule="evenodd" d="M22.0323 7.02463C21.8069 6.84984 21.5667 6.73696 21.323 6.66262C21.16 6.61289 21.0786 6.58803 21.0393 6.53545C21.0001 6.48288 20.9996 6.40596 20.9985 6.25212C20.9942 5.65138 20.9782 5.12087 20.9179 4.67221C20.8297 4.0167 20.631 3.38835 20.1213 2.87868C19.6117 2.36902 18.9833 2.17028 18.3278 2.08215C17.7161 1.99991 16.9523 1.99995 16.0658 2L7.93417 2C7.04769 1.99995 6.28387 1.99991 5.67221 2.08215C5.0167 2.17028 4.38835 2.36902 3.87868 2.87869C3.36902 3.38835 3.17028 4.0167 3.08215 4.67222C3.02183 5.12087 3.00577 5.65138 3.00152 6.25213C3.00043 6.40596 2.99989 6.48288 2.96067 6.53545C2.92146 6.58803 2.83997 6.61289 2.677 6.66262C2.43333 6.73696 2.19308 6.84984 1.96774 7.02463C1.80203 7.15317 1.65315 7.30204 1.52462 7.46775C1.20909 7.87453 1.09532 8.32991 1.04574 8.76624C0.999919 9.16958 0.999959 9.66161 1 10.2088V13.7912C0.999959 14.3384 0.999919 14.8305 1.04574 15.2338C1.09532 15.6701 1.20909 16.1255 1.52462 16.5323C1.65315 16.698 1.80203 16.8469 1.96774 16.9754C2.19308 17.1502 2.43333 17.2631 2.677 17.3374C2.83997 17.3871 2.92146 17.412 2.96067 17.4646C2.99989 17.5172 3.00043 17.5941 3.00152 17.7479C3.00577 18.3486 3.02183 18.8792 3.08215 19.3278C3.17028 19.9833 3.36902 20.6117 3.87868 21.1213C4.38835 21.631 5.0167 21.8297 5.67221 21.9179C6.28388 22.0001 7.0477 22.0001 7.9342 22H16.0658C16.9523 22.0001 17.7161 22.0001 18.3278 21.9179C18.9833 21.8297 19.6117 21.631 20.1213 21.1213C20.631 20.6117 20.8297 19.9833 20.9179 19.3278C20.9782 18.8792 20.9942 18.3486 20.9985 17.7479C20.9996 17.5941 21.0001 17.5172 21.0393 17.4646C21.0786 17.412 21.16 17.3871 21.323 17.3374C21.5667 17.2631 21.8069 17.1502 22.0323 16.9754C22.198 16.8469 22.3469 16.698 22.4754 16.5323C22.7909 16.1255 22.9047 15.6701 22.9543 15.2338C23.0001 14.8305 23.0001 14.3384 23 13.7912V10.2088C23.0001 9.66161 23.0001 9.16958 22.9543 8.76624C22.9047 8.32991 22.7909 7.87453 22.4754 7.46775C22.3469 7.30204 22.198 7.15317 22.0323 7.02463ZM18.9967 6.09861C18.9989 6.28703 19 6.38124 18.9412 6.44063C18.8825 6.50002 18.7877 6.50002 18.5982 6.50002L5.40185 6.50002C5.21227 6.50002 5.11747 6.50002 5.05876 6.44063C5.00005 6.38124 5.00112 6.28703 5.00327 6.09861C5.00885 5.60961 5.0239 5.23927 5.06431 4.93871C5.12263 4.50497 5.21677 4.36902 5.2929 4.2929C5.36902 4.21677 5.50497 4.12263 5.93871 4.06431C6.40121 4.00213 7.02893 4.00001 8 4.00001L16 4.00001C16.9711 4.00001 17.5988 4.00213 18.0613 4.06431C18.495 4.12263 18.631 4.21677 18.7071 4.2929C18.7832 4.36902 18.8774 4.50497 18.9357 4.93871C18.9761 5.23928 18.9912 5.60961 18.9967 6.09861ZM5.00327 17.9014C5.00112 17.713 5.00005 17.6188 5.05876 17.5594C5.11747 17.5 5.21227 17.5 5.40185 17.5H18.5982C18.7877 17.5 18.8825 17.5 18.9412 17.5594C19 17.6188 18.9989 17.713 18.9967 17.9014C18.9912 18.3904 18.9761 18.7607 18.9357 19.0613C18.8774 19.495 18.7832 19.631 18.7071 19.7071C18.631 19.7832 18.495 19.8774 18.0613 19.9357C17.5988 19.9979 16.9711 20 16 20H8C7.02893 20 6.40122 19.9979 5.93871 19.9357C5.50497 19.8774 5.36902 19.7832 5.2929 19.7071C5.21677 19.631 5.12263 19.495 5.06431 19.0613C5.0239 18.7607 5.00886 18.3904 5.00327 17.9014ZM3.19355 8.60494C3.16041 8.63065 3.13064 8.66043 3.10493 8.69357C3.10173 8.69769 3.0926 8.70945 3.08015 8.7463C3.06571 8.78904 3.04758 8.86336 3.03296 8.99201C3.00152 9.26877 3.00001 9.64538 3.00001 10.26V13.74C3.00001 14.3547 3.00152 14.7313 3.03296 15.008C3.04758 15.1367 3.06571 15.211 3.08015 15.2537C3.0926 15.2906 3.10169 15.3023 3.10489 15.3064C3.1306 15.3396 3.16041 15.3694 3.19355 15.3951C3.19767 15.3983 3.20944 15.4074 3.24629 15.4199C3.28902 15.4343 3.36334 15.4524 3.49199 15.4671C3.76875 15.4985 4.14536 15.5 4.76001 15.5H19.24C19.8546 15.5 20.2313 15.4985 20.508 15.4671C20.6367 15.4524 20.711 15.4343 20.7537 15.4199C20.7906 15.4074 20.8023 15.3983 20.8064 15.3951C20.8396 15.3694 20.8694 15.3396 20.8951 15.3065C20.8983 15.3024 20.9074 15.2906 20.9199 15.2537C20.9343 15.211 20.9524 15.1367 20.9671 15.008C20.9985 14.7313 21 14.3547 21 13.74V10.26C21 9.64538 20.9985 9.26877 20.9671 8.99201C20.9524 8.86336 20.9343 8.78904 20.9199 8.7463C20.9074 8.70945 20.8983 8.69774 20.8951 8.69362C20.8694 8.66047 20.8396 8.63065 20.8065 8.60494C20.8023 8.60175 20.7906 8.59262 20.7537 8.58016C20.711 8.56572 20.6367 8.54759 20.508 8.53297C20.2313 8.50153 19.8546 8.50002 19.24 8.50002L4.76001 8.50002C4.14536 8.50002 3.76875 8.50153 3.49199 8.53297C3.36334 8.54759 3.28902 8.56572 3.24629 8.58016C3.20944 8.59262 3.19767 8.60174 3.19355 8.60494Z" fill="currentColor"/>
</svg>
