<svg width="36" height="36" viewBox="0 0 36 36" fill="none" xmlns="http://www.w3.org/2000/svg">
<path fill-rule="evenodd" clip-rule="evenodd" d="M2.00488 18.001C2.00488 18.7807 2.40292 19.4947 3.19899 20.9226L7.65901 28.9226C8.49595 30.4239 8.91441 31.1745 9.61795 31.5877C10.3215 32.001 11.1809 32.001 12.8996 32.001L23.1029 32.001C24.8207 32.001 25.6796 32.001 26.3828 31.5881C27.0861 31.1753 27.5047 30.4253 28.342 28.9254L32.8075 20.9254C33.6053 19.4962 34.0042 18.7816 34.0042 18.001C34.0042 17.2204 33.6053 16.5058 32.8075 15.0766L28.342 7.07655C27.5047 5.57664 27.0861 4.82669 26.3828 4.41383C25.6796 4.00098 24.8207 4.00098 23.1029 4.00098H12.8996C11.1809 4.00098 10.3215 4.00098 9.61795 4.41423C8.91441 4.82749 8.49595 5.5781 7.65901 7.07933L3.19899 15.0793C2.40292 16.5073 2.00488 17.2212 2.00488 18.001ZM18.0002 9C18.8287 9 19.5002 9.67157 19.5002 10.5V20.25C19.5002 21.0784 18.8287 21.75 18.0002 21.75C17.1718 21.75 16.5002 21.0784 16.5002 20.25V10.5C16.5002 9.67157 17.1718 9 18.0002 9ZM19.8002 25.8C19.8002 26.7941 18.9943 27.6 18.0002 27.6C17.0061 27.6 16.2002 26.7941 16.2002 25.8C16.2002 24.8059 17.0061 24 18.0002 24C18.9943 24 19.8002 24.8059 19.8002 25.8Z" fill="currentColor"/>
</svg>
