<svg width="24" height="24" viewBox="0 0 24 24" fill="none" xmlns="http://www.w3.org/2000/svg">
<path fill-rule="evenodd" clip-rule="evenodd" d="M2 16.3747C2 16.3565 2 16.3383 2 16.32L2 7.62532C1.99997 6.88381 1.99994 6.24453 2.05886 5.72592C2.12154 5.17416 2.26155 4.6357 2.62954 4.16129C2.78378 3.96244 2.96243 3.78378 3.16128 3.62954C3.6357 3.26155 4.17415 3.12155 4.72592 3.05886C5.24453 2.99994 5.88381 2.99997 6.62532 3.00001L7.27638 3.00001C7.32069 3.00001 7.36465 2.99994 7.40827 2.99988C8.04927 2.99895 8.61662 2.99813 9.14235 3.2008C9.27319 3.25124 9.40033 3.31079 9.52284 3.37901C10.0151 3.65315 10.3777 4.08952 10.7873 4.58255C10.8152 4.6161 10.8433 4.6499 10.8717 4.68394C11.007 4.84632 11.1932 5.06843 11.3739 5.28363C11.667 5.63258 11.8135 5.80706 12.0139 5.90064C12.2143 5.99422 12.4423 5.99458 12.8984 5.99528C14.0896 5.99712 16.1496 6 17.3747 6C18.1162 5.99997 18.7555 5.99994 19.2741 6.05886C19.8259 6.12155 20.3643 6.26155 20.8387 6.62954C21.0376 6.78378 21.2162 6.96243 21.3705 7.16128C21.7385 7.6357 21.8785 8.17415 21.9412 8.72592C22.0001 9.24453 22 9.88381 22 10.6253V16.3747C22 17.1162 22.0001 17.7555 21.9412 18.2741C21.8785 18.8259 21.7385 19.3643 21.3705 19.8387C21.2162 20.0376 21.0376 20.2162 20.8387 20.3705C20.3643 20.7385 19.8259 20.8785 19.2741 20.9412C18.7555 21.0001 18.1162 21 17.3747 21L6.68 21C6.66172 21 6.64349 21 6.62532 21C5.88381 21 5.24453 21.0001 4.72592 20.9412C4.17415 20.8785 3.6357 20.7385 3.16128 20.3705C2.96243 20.2162 2.78378 20.0376 2.62954 19.8387C2.26155 19.3643 2.12154 18.8259 2.05886 18.2741C1.99994 17.7555 1.99997 17.1162 2 16.3747ZM4.04607 18.0483C4.08831 18.4201 4.15815 18.5463 4.20985 18.6129C4.26126 18.6792 4.32081 18.7387 4.3871 18.7902C4.45374 18.8419 4.57994 18.9117 4.95169 18.9539C5.34389 18.9985 5.8683 19 6.68 19H17.32C18.1317 19 18.6561 18.9985 19.0483 18.9539C19.4201 18.9117 19.5463 18.8419 19.6129 18.7902C19.6792 18.7387 19.7387 18.6792 19.7902 18.6129C19.8419 18.5463 19.9117 18.4201 19.9539 18.0483C19.9985 17.6561 20 17.1317 20 16.32V10.68C20 9.8683 19.9985 9.34389 19.9539 8.95169C19.9117 8.57994 19.8419 8.45375 19.7902 8.3871C19.7387 8.32081 19.6792 8.26126 19.6129 8.20985C19.5463 8.15815 19.4201 8.08831 19.0483 8.04607C18.6561 8.00152 18.1317 8.00001 17.32 8.00001H12.3618C12.3357 8.00001 12.3089 8.00012 12.2813 8.00023C11.9827 8.00147 11.6041 8.00305 11.249 7.86614C11.1618 7.83252 11.077 7.79282 10.9953 7.74733C10.6628 7.56216 10.4217 7.27034 10.2314 7.04011C10.2139 7.01889 10.1968 6.99818 10.1801 6.97813L9.33522 5.96431C8.79114 5.31142 8.6743 5.19568 8.54978 5.12634C8.50895 5.1036 8.46657 5.08375 8.42295 5.06694C8.28997 5.01567 8.12626 5.00001 7.27638 5.00001H6.68C5.8683 5.00001 5.34389 5.00152 4.95169 5.04607C4.57994 5.08831 4.45374 5.15815 4.3871 5.20985C4.32081 5.26126 4.26126 5.32082 4.20985 5.3871C4.15815 5.45375 4.08831 5.57995 4.04607 5.95169C4.00151 6.34389 4 6.8683 4 7.68001L4 16.32C4 17.1317 4.00151 17.6561 4.04607 18.0483Z" fill="currentColor"/>
</svg>
