<svg width="36" height="36" viewBox="0 0 36 36" fill="none" xmlns="http://www.w3.org/2000/svg">
<path fill-rule="evenodd" clip-rule="evenodd" d="M16.5456 3.07385C15.2706 2.71793 14.0078 3.67648 14.0078 5.0002L14 8.97285L6.38168 11.4495C5.55778 11.7173 5 12.4852 5 13.3515V29.3998C5 29.6826 5 29.8241 4.91213 29.9119C4.82426 29.9998 4.68284 29.9998 4.4 29.9998H3C2.44772 29.9998 2 30.4475 2 30.9998C2 31.5521 2.44772 31.9998 3 31.9998L33 31.9998C33.5523 31.9998 34 31.5521 34 30.9998C34 30.4475 33.5523 29.9998 33 29.9998H31.6C31.3172 29.9998 31.1757 29.9998 31.0879 29.9119C31 29.8241 31 29.6826 31 29.3998V8.6067C31 7.70924 30.4022 6.92168 29.5378 6.68037L16.5456 3.07385ZM7 29.3998C7 29.6826 7 29.8241 7.08787 29.9119C7.17574 29.9998 7.31716 29.9998 7.6 29.9998H13.4C13.6828 29.9998 13.8243 29.9998 13.9121 29.9119C14 29.8241 14 29.6826 14 29.3998V11.9019C14 11.5246 14 11.336 13.8763 11.2462C13.7526 11.1563 13.5733 11.2146 13.2145 11.3313L7.69084 13.1269C7.35757 13.2353 7.19094 13.2894 7.09547 13.4209C7 13.5523 7 13.7275 7 14.0779V29.3998ZM16 16.5998C16 16.317 16 16.1756 16.0879 16.0877C16.1757 15.9998 16.3172 15.9998 16.6 15.9998H23C23.5523 15.9998 24 15.5521 24 14.9998C24 14.4475 23.5523 13.9998 23 13.9998H16.6005C16.3175 13.9998 16.1759 13.9998 16.088 13.9119C16.0002 13.8239 16.0003 13.6824 16.0005 13.3993L16.0071 5.78873C16.0074 5.42675 16.0076 5.24576 16.126 5.15582C16.2444 5.06588 16.4188 5.11429 16.7676 5.21111L28.2675 8.40336C28.6199 8.50118 28.7961 8.55009 28.898 8.68421C29 8.81834 29 9.0012 29 9.36692V29.3998C29 29.6826 29 29.8241 28.9121 29.9119C28.8243 29.9998 28.6828 29.9998 28.4 29.9998L16.6 29.9998C16.3172 29.9998 16.1757 29.9998 16.0879 29.9119C16 29.8241 16 29.6826 16 29.3998V26.5998C16 26.3169 16 26.1755 16.0879 26.0877C16.1757 25.9998 16.3172 25.9998 16.6 25.9998H23C23.5523 25.9998 24 25.5521 24 24.9998C24 24.4475 23.5523 23.9998 23 23.9998H16.6C16.3172 23.9998 16.1757 23.9998 16.0879 23.9119C16 23.8241 16 23.6826 16 23.3998V21.5998C16 21.3169 16 21.1755 16.0879 21.0877C16.1757 20.9998 16.3172 20.9998 16.6 20.9998H23C23.5523 20.9998 24 20.5521 24 19.9998C24 19.4475 23.5523 18.9998 23 18.9998H16.6C16.3172 18.9998 16.1757 18.9998 16.0879 18.9119C16 18.8241 16 18.6827 16 18.3998V16.5998Z" fill="currentColor"/>
</svg>
