<svg width="36" height="36" viewBox="0 0 36 36" fill="none" xmlns="http://www.w3.org/2000/svg">
<path fill-rule="evenodd" clip-rule="evenodd" d="M28.9999 3C28.9999 2.44772 28.5522 2 27.9999 2H26.9999C23.1884 2 20.0885 5.04618 20.0017 8.83678C20.0002 8.90318 19.9242 8.94063 19.8728 8.89854C19.2288 8.37098 18.1646 7.35624 15.9136 7.0599C15.4578 6.99989 14.9328 6.99994 14.0873 7L11.9999 7.00001C11.4476 7.00001 10.9999 7.44772 10.9999 8.00001L10.9999 8.08745C10.9998 8.93288 10.9998 9.45794 11.0598 9.91369C11.4733 13.0548 13.9451 15.5266 17.0862 15.9401C17.542 16.0001 18.067 16.0001 18.9125 16L19.6999 16C19.8656 16 19.9999 16.1343 19.9999 16.3L19.9999 20.3155C19.9999 20.4059 19.888 20.4511 19.8227 20.3885C18.9206 19.5249 17.6985 18.9998 16.3645 18.9998H12.2114C11.0532 18.9998 9.91982 19.335 8.94796 19.9649L2.91626 23.8642C1.99995 24.4581 1.72938 25.6772 2.30839 26.603L6.42147 33.063C7.02995 34.0359 8.33057 34.2984 9.26877 33.6376L12.8846 31.1823C13.0532 31.0636 13.2543 30.9999 13.4604 30.9999H20.6658C22.0244 30.9999 23.3245 30.4471 24.267 29.4685L33.481 19.9003C34.2039 19.1498 34.1664 17.9511 33.398 17.2472C31.3761 15.395 28.2716 15.403 26.2593 17.2655L22.3357 20.8931C22.2077 21.0116 21.9999 20.9208 21.9999 20.7463V11.3C21.9999 11.1343 22.1346 11.0007 22.3001 10.9937C26.0268 10.8364 28.9999 7.76541 28.9999 4V3ZM12.2494 29.185C12.4129 29.0685 12.613 28.9999 12.8291 28.9999H20.6658C21.4809 28.9999 22.261 28.6682 22.8265 28.0811L31.4877 19.0869C31.7291 18.8363 31.7085 18.4279 31.403 18.2613C30.1971 17.6035 28.6678 17.7615 27.6178 18.7333L21.13 24.7342C20.927 24.9221 20.6671 25.0097 20.411 24.9996C20.4035 24.9997 20.3959 24.9998 20.3883 24.9998H13.9514C13.3991 24.9998 12.9514 24.5521 12.9514 23.9998C12.9514 23.4475 13.3991 22.9998 13.9514 22.9998L18.6281 22.9998C18.9041 22.9998 19.0952 22.7259 18.956 22.4876C18.4328 21.5919 17.4617 20.9998 16.3645 20.9998H12.2114C11.4393 20.9998 10.6837 21.2233 10.0358 21.6432L4.49947 25.2214C4.22458 25.3996 4.14341 25.7653 4.31711 26.043L7.7811 31.4551C7.96365 31.747 8.35383 31.8258 8.63529 31.6275L12.2074 29.213C12.2213 29.2033 12.2353 29.194 12.2494 29.185ZM26.991 4.30004C27.0008 4.13464 26.8652 3.99906 26.6998 4.00885C24.1774 4.15815 22.158 6.17749 22.0087 8.69996C21.9989 8.86536 22.1345 9.00094 22.2999 8.99115C24.8224 8.84185 26.8417 6.82251 26.991 4.30004ZM15.6525 9.04278C15.344 9.00217 14.9605 9.00001 13.9999 9.00001H13.31C13.1422 9.00001 13.0059 9.13766 13.0137 9.30523C13.0201 9.44115 13.0293 9.55096 13.0427 9.65264C13.338 11.8963 15.1036 13.6618 17.3473 13.9572C17.6558 13.9979 18.0393 14 18.9999 14H19.6898C19.8576 14 19.9938 13.8624 19.986 13.6948C19.9797 13.5589 19.9705 13.4491 19.9571 13.3474C19.6617 11.1037 17.8962 9.33817 15.6525 9.04278Z" fill="currentColor"/>
</svg>
