<svg width="36" height="36" viewBox="0 0 36 36" fill="none" xmlns="http://www.w3.org/2000/svg">
<path fill-rule="evenodd" clip-rule="evenodd" d="M29.0001 4C29.0001 3.44772 28.5524 3 28.0001 3H27.0001C23.1341 3 20.0001 6.13401 20.0001 10V10.101C18.932 9.01096 17.5093 8.26993 15.9138 8.05988C15.4581 7.99988 14.933 7.99992 14.0876 7.99999L12.0002 7.99999C11.4479 7.99999 11.0002 8.44771 11.0002 8.99999L11.0002 9.08744C11.0001 9.93287 11 10.4579 11.06 10.9137C11.4736 14.0548 13.9453 16.5266 17.0865 16.9401C17.5422 17.0001 18.0673 17.0001 18.9127 17L20.0001 17L20.0001 20.5669C19.0843 19.5979 17.7883 19 16.3649 19H12.2118C11.0536 19 9.9202 19.3352 8.94834 19.9651L2.91669 23.855C2.00038 24.4489 1.72981 25.668 2.30882 26.5938L6.40915 33.0572C7.01534 34.0265 8.30921 34.2913 9.24747 33.6382L13.0085 31.1332H20.6522C22.0208 31.1332 23.3296 30.5722 24.2734 29.581L33.4901 19.844C34.2061 19.092 34.1653 17.8987 33.3997 17.1974C31.3761 15.3436 28.2689 15.3515 26.2548 17.2157L22.0001 21.2034L22.0001 12C25.8661 12 29.0001 8.86599 29.0001 5V4ZM12.7618 29.1355C12.7841 29.134 12.8066 29.1332 12.8292 29.1332H20.6522C21.4734 29.1332 22.2587 28.7966 22.8249 28.2019L31.5698 18.9605C31.7688 18.7514 31.751 18.4139 31.5025 18.2669C30.2806 17.5439 28.6937 17.6836 27.6133 18.6835L21.1301 24.7339C20.9295 24.9196 20.6732 25.0073 20.42 24.9995C20.4096 24.9998 20.3991 25 20.3887 25H13.9518C13.3995 25 12.9518 24.5523 12.9518 24C12.9518 23.4477 13.3995 23 13.9518 23L18.9111 23C19.0491 23 19.1453 22.8634 19.0872 22.7382C18.6078 21.7041 17.5614 21 16.3649 21H12.2118C11.4397 21 10.6841 21.2235 10.0362 21.6434L4.41733 25.2657C4.18826 25.4141 4.12061 25.7189 4.26537 25.9504L7.82632 31.5514C7.97787 31.7937 8.30134 31.8599 8.5359 31.6966L12.1233 29.3125C12.3175 29.1774 12.5428 29.1206 12.7618 29.1355ZM26.9962 5.20022C27.0005 5.08985 26.9103 4.99959 26.7999 5.00394C24.1977 5.10641 22.1065 7.19759 22.0041 9.79978C21.9997 9.91015 22.09 10.0004 22.2003 9.99606C24.8025 9.89359 26.8937 7.80241 26.9962 5.20022ZM15.6528 10.0428C15.3443 10.0022 14.9608 9.99999 14.0002 9.99999H13.2085C13.0966 9.99999 13.0062 10.0917 13.01 10.2035C13.0162 10.3884 13.0264 10.5268 13.0429 10.6526C13.3383 12.8963 15.1039 14.6618 17.3475 14.9572C17.6561 14.9978 18.0395 15 19.0001 15H19.7918C19.9037 15 19.9941 14.9083 19.9903 14.7965C19.9841 14.6116 19.9739 14.4732 19.9574 14.3474C19.662 12.1037 17.8965 10.3382 15.6528 10.0428Z" fill="currentColor"/>
</svg>
