<svg width="16" height="16" viewBox="0 0 16 16" fill="none" xmlns="http://www.w3.org/2000/svg">
<path fill-rule="evenodd" clip-rule="evenodd" d="M7.70089 1.04498C7.33923 1.16111 7.07375 1.60974 6.54279 2.507L1.25996 11.4343C0.712138 12.3601 0.43823 12.823 0.515908 13.2011C0.558625 13.409 0.666419 13.5979 0.823689 13.7405C1.10968 13.9999 1.64766 13.9999 2.72362 13.9999L13.283 13.9999C14.3584 13.9999 14.8961 13.9999 15.1821 13.7407C15.3393 13.5981 15.4471 13.4092 15.4899 13.2014C15.5677 12.8234 15.2942 12.3606 14.7471 11.4351L9.47056 2.50776C8.94007 1.61023 8.67482 1.16146 8.31323 1.04514C8.11415 0.981101 7.9 0.981046 7.70089 1.04498ZM7.99971 4.4502C8.44153 4.4502 8.79971 4.80837 8.79971 5.2502V8.75C8.79971 9.19183 8.44153 9.55 7.99971 9.55C7.55788 9.55 7.19971 9.19183 7.19971 8.75V5.2502C7.19971 4.80837 7.55788 4.4502 7.99971 4.4502ZM9 11.6006C9 12.1529 8.55228 12.6006 8 12.6006C7.44772 12.6006 7 12.1529 7 11.6006C7 11.0483 7.44772 10.6006 8 10.6006C8.55228 10.6006 9 11.0483 9 11.6006Z" fill="currentColor"/>
</svg>
