<svg width="24" height="24" viewBox="0 0 24 24" fill="none" xmlns="http://www.w3.org/2000/svg">
<path d="M13.5995 14.9991C14.8057 14.9991 15.4089 14.9991 15.7003 14.7132C15.8598 14.5566 15.9624 14.3511 15.9915 14.1294C16.0446 13.7244 15.6821 13.242 14.9571 12.2772L13.354 10.1441C12.8469 9.46923 12.5933 9.13179 12.2705 9.03968C12.0914 8.98856 11.9016 8.98856 11.7225 9.03968C11.3997 9.1318 11.1461 9.46924 10.639 10.1441L9.03601 12.2772C8.31103 13.2419 7.94854 13.7243 8.00169 14.1292C8.0308 14.351 8.13332 14.5565 8.29288 14.7131C8.58428 14.999 9.18736 14.999 10.3935 14.999L13.5995 14.9991Z" fill="currentColor"/>
</svg>
