<svg width="36" height="36" viewBox="0 0 36 36" fill="none" xmlns="http://www.w3.org/2000/svg">
<path d="M16.5 18C15.9477 18 15.5 18.4477 15.5 19C15.5 19.5523 15.9477 20 16.5 20H19.5C20.0523 20 20.5 19.5523 20.5 19C20.5 18.4477 20.0523 18 19.5 18H16.5Z" fill="currentColor"/>
<path fill-rule="evenodd" clip-rule="evenodd" d="M13.0001 8.99997L8.79859 8.99997C7.97602 8.99993 7.26705 8.99989 6.69594 9.07148C6.08594 9.14794 5.49626 9.3196 4.99892 9.76488C4.91667 9.83852 4.83855 9.91664 4.76491 9.99889C4.31963 10.4962 4.14797 11.0859 4.07151 11.6959C3.99992 12.267 3.99996 12.976 4 13.7986L4 13.918C3.99998 15.285 3.99997 16.3946 4.10073 17.29C4.20561 18.222 4.42852 19.027 4.94455 19.7425C5.03663 19.8702 5.13468 19.9935 5.23839 20.1119C5.46836 20.3745 5.72229 20.5956 6 20.7861L6 24.0706C5.99997 25.4247 5.99994 26.5413 6.11875 27.4251C6.2435 28.3529 6.51547 29.1723 7.17158 29.8284C7.82768 30.4845 8.64711 30.7565 9.57494 30.8812C10.4587 31.0001 11.5753 31 12.9294 31H23.0706C24.4247 31 25.5413 31.0001 26.4251 30.8812C27.3529 30.7565 28.1723 30.4845 28.8284 29.8284C29.4845 29.1723 29.7565 28.3529 29.8813 27.4251C30.0001 26.5413 30 25.4247 30 24.0706V20.7861C30.2777 20.5956 30.5316 20.3745 30.7616 20.1119C30.8653 19.9935 30.9634 19.8702 31.0555 19.7425C31.5715 19.027 31.7944 18.222 31.8993 17.29C32 16.3946 32 15.285 32 13.9179L32 13.7986C32 12.976 32.0001 12.267 31.9285 11.6959C31.852 11.0859 31.6804 10.4962 31.2351 9.99889C31.1615 9.91664 31.0833 9.83852 31.0011 9.76488C30.5037 9.3196 29.9141 9.14794 29.3041 9.07148C28.7329 8.99989 28.024 8.99993 27.2014 8.99997L23.0001 8.99997L23.0001 8.66127C23.0003 8.36151 23.0005 8.10098 22.9606 7.85756C22.7952 6.84869 22.1275 5.99348 21.1888 5.58837C20.9623 5.49063 20.7095 5.4276 20.4187 5.35509L20.3246 5.3316C19.9414 5.2358 19.7076 5.17733 19.4712 5.1331C18.4989 4.9512 17.5012 4.9512 16.5289 5.1331C16.2925 5.17733 16.0587 5.2358 15.6755 5.3316L15.5814 5.35509C15.2906 5.4276 15.0378 5.49063 14.8113 5.58837C13.8726 5.99348 13.2049 6.84869 13.0396 7.85756C12.9997 8.10098 12.9998 8.36152 13 8.66128L13.0001 8.99997ZM19.1034 7.09899C18.3742 6.96257 17.6259 6.96257 16.8967 7.09899C16.7264 7.13086 16.5532 7.17372 16.1288 7.27983C15.7404 7.37692 15.6603 7.40028 15.6038 7.42465C15.2909 7.55969 15.0683 7.84476 15.0132 8.18105C15.0033 8.24175 15.0001 8.32516 15.0001 8.72548V8.99997L21.0001 8.99997V8.72548C21.0001 8.32516 20.9968 8.24175 20.9869 8.18105C20.9318 7.84476 20.7092 7.55969 20.3963 7.42465C20.3398 7.40028 20.2597 7.37692 19.8713 7.27983C19.4469 7.17372 19.2737 7.13086 19.1034 7.09899ZM8.85948 11H13.9946L14.0001 11H22.0001L22.0056 11H27.1405C28.0413 11 28.6234 11.0018 29.0553 11.056C29.4624 11.107 29.5948 11.1903 29.667 11.2549C29.6944 11.2795 29.7205 11.3055 29.745 11.3329C29.8097 11.4052 29.893 11.5376 29.944 11.9447C29.9982 12.3765 30 12.9587 30 13.8594C30 15.299 29.9985 16.2958 29.9118 17.0664C29.8278 17.8131 29.6729 18.2404 29.4333 18.5727C29.378 18.6493 29.3192 18.7232 29.257 18.7943C28.9871 19.1025 28.6055 19.3495 27.8968 19.5993C27.1655 19.8571 26.1946 20.0826 24.7919 20.4063L21.8226 21.0916C19.7649 21.5664 18.8851 21.7634 18 21.7634C17.1149 21.7634 16.2352 21.5664 14.1774 21.0916L11.2081 20.4063C9.80541 20.0826 8.83451 19.8571 8.10318 19.5993C7.39449 19.3495 7.0129 19.1025 6.74303 18.7943C6.68081 18.7232 6.62198 18.6493 6.56673 18.5727C6.32713 18.2404 6.17222 17.8131 6.08819 17.0664C6.00148 16.2958 6 15.299 6 13.8594C6 12.9587 6.00185 12.3765 6.05598 11.9447C6.10701 11.5376 6.19031 11.4052 6.25497 11.3329C6.27952 11.3055 6.30556 11.2795 6.33297 11.2549C6.4052 11.1903 6.53763 11.107 6.94468 11.056C7.37656 11.0018 7.95869 11 8.85948 11ZM28 21.6673C27.2503 21.8916 26.3531 22.0986 25.2986 22.342L22.1458 23.0695C20.2511 23.5069 19.1398 23.7634 18 23.7634C16.8602 23.7634 15.7489 23.5069 13.8542 23.0695L10.7014 22.342C9.64696 22.0986 8.74973 21.8916 8 21.6673V24C8 25.4425 8.00213 26.4237 8.10092 27.1586C8.19585 27.8646 8.36322 28.1916 8.58579 28.4142C8.80836 28.6368 9.13538 28.8041 9.84143 28.8991C10.5763 28.9979 11.5575 29 13 29H23C24.4425 29 25.4237 28.9979 26.1586 28.8991C26.8646 28.8041 27.1916 28.6368 27.4142 28.4142C27.6368 28.1916 27.8042 27.8646 27.8991 27.1586C27.9979 26.4237 28 25.4425 28 24V21.6673Z" fill="currentColor"/>
</svg>
