<svg width="24" height="24" viewBox="0 0 24 24" fill="none" xmlns="http://www.w3.org/2000/svg">
<path d="M20.4739 14.8965C20.6302 14.7404 20.8834 14.7405 21.0396 14.8967L21.8829 15.7404C22.0391 15.8966 22.039 16.1498 21.8827 16.3059L17.319 20.8645C17.1433 21.04 16.8586 21.04 16.6829 20.8645L12.1192 16.3059C11.9629 16.1498 11.9629 15.8966 12.119 15.7404L12.9624 14.8967C13.1185 14.7405 13.3718 14.7404 13.528 14.8965L15.9996 17.3654V3.39915C15.9996 3.17832 16.1787 2.9993 16.3996 2.9993H17.5996C17.8206 2.9993 17.9996 3.17832 17.9996 3.39915V17.368L20.4739 14.8965Z" fill="currentColor"/>
<path d="M7.99964 6.62418V20.593C7.99964 20.8139 7.82055 20.9929 7.59964 20.9929H6.39964C6.17873 20.9929 5.99964 20.8139 5.99964 20.593V6.62682L3.52804 9.09566C3.37177 9.25176 3.1185 9.25166 2.96235 9.09545L2.119 8.25178C1.96285 8.09557 1.96295 7.84239 2.11922 7.6863L6.68288 3.12773C6.85859 2.95222 7.14333 2.95222 7.31904 3.12773L11.8827 7.6863C12.039 7.84239 12.0391 8.09557 11.8829 8.25178L11.0396 9.09545C10.8834 9.25166 10.6302 9.25176 10.4739 9.09566L7.99964 6.62418Z" fill="currentColor"/>
</svg>
