<svg width="36" height="36" viewBox="0 0 36 36" fill="none" xmlns="http://www.w3.org/2000/svg">
<path d="M15.0008 15.9986C14.338 15.9986 13.8008 16.5359 13.8008 17.1986C13.8008 17.8614 14.338 18.3986 15.0008 18.3986H16.1224C16.2883 18.3986 16.3713 18.3986 16.439 18.4181C16.6044 18.4657 16.7337 18.595 16.7813 18.7604C16.8008 18.8281 16.8008 18.9111 16.8008 19.077C16.8008 19.1907 16.8008 19.2476 16.7976 19.3041C16.7899 19.44 16.7684 19.5747 16.7333 19.7062C16.7187 19.7608 16.701 19.8149 16.6655 19.9229L15.5086 23.4488C15.1972 24.3979 15.4521 25.4415 16.166 26.1402C17.1852 27.1377 18.8152 27.1374 19.8344 26.1398C20.548 25.4414 20.8034 24.3982 20.4928 23.4493L19.796 21.3202C19.499 20.4127 19.3505 19.959 19.2757 19.4895C19.2008 19.02 19.2008 18.5426 19.2008 17.5877V16.9982C19.2008 16.5268 19.2008 16.2911 19.3472 16.1447C19.4937 15.9982 19.7294 15.9982 20.2008 15.9982H21.0008C21.6635 15.9982 22.2008 15.461 22.2008 14.7982C22.2008 14.1355 21.6635 13.5982 21.0008 13.5982H20.2005C19.7294 13.5982 19.4938 13.5982 19.3474 13.452C19.2011 13.3055 19.2008 13.0697 19.2008 12.5985C19.2008 12.1274 19.2008 11.8919 19.3471 11.7454C19.4935 11.5992 19.7294 11.5988 20.2005 11.5988H21.0008C21.6635 11.5988 22.2008 11.0616 22.2008 10.3988C22.2008 9.73609 21.6635 9.19883 21.0008 9.19883H20.2008C19.7294 9.19883 19.4937 9.19883 19.3472 9.05238C19.2008 8.90594 19.2008 8.67023 19.2008 8.19883V5.99902C19.2008 5.05621 19.2008 4.58481 19.4937 4.29192C19.7866 3.99902 20.258 3.99902 21.2008 3.99902H25C27.8284 3.99902 29.2426 3.99902 30.1213 4.8777C31 5.75638 31 7.1706 31 9.99902V25.999C31 28.8275 31 30.2417 30.1213 31.1203C29.2426 31.999 27.8284 31.999 25 31.999H11C8.17157 31.999 6.75736 31.999 5.87868 31.1203C5 30.2417 5 28.8274 5 25.999V9.99902C5 7.1706 5 5.75638 5.87868 4.8777C6.75736 3.99902 8.17157 3.99902 11 3.99902H14.801C15.7436 3.99902 16.2149 3.99902 16.5077 4.29177C16.8005 4.58464 16.8008 5.05621 16.8008 5.99876C16.8008 6.47004 16.8008 6.70568 16.6544 6.85212C16.508 6.99849 16.2722 6.99863 15.8009 6.99863H15.0008C14.338 6.99863 13.8008 7.53589 13.8008 8.19863C13.8008 8.86138 14.338 9.39863 15.0008 9.39863H15.8011C16.2722 9.39863 16.5078 9.39863 16.6542 9.54492C16.8005 9.69134 16.8008 9.92722 16.8008 10.3983C16.8008 10.8695 16.8008 11.105 16.6545 11.2514C16.5081 11.3977 16.2722 11.398 15.8011 11.398H15.0008C14.338 11.398 13.8008 11.9353 13.8008 12.598C13.8008 13.2608 14.338 13.798 15.0008 13.798H15.8008C16.2722 13.798 16.5079 13.798 16.6543 13.9445C16.8008 14.0909 16.8008 14.3266 16.8008 14.798V14.9986C16.8008 15.47 16.8008 15.7057 16.6543 15.8522C16.5079 15.9986 16.2722 15.9986 15.8008 15.9986H15.0008Z" fill="currentColor"/>
</svg>
