<svg width="24" height="24" viewBox="0 0 24 24" fill="none" xmlns="http://www.w3.org/2000/svg">
<path fill-rule="evenodd" clip-rule="evenodd" d="M11.9995 7C9.79037 7 7.99951 8.79086 7.99951 11C7.99951 13.2091 9.79037 15 11.9995 15C14.2087 15 15.9995 13.2091 15.9995 11C15.9995 8.79086 14.2087 7 11.9995 7ZM9.99951 11C9.99951 9.89543 10.8949 9 11.9995 9C13.1041 9 13.9995 9.89543 13.9995 11C13.9995 12.1046 13.1041 13 11.9995 13C10.8949 13 9.99951 12.1046 9.99951 11Z" fill="currentColor"/>
<path fill-rule="evenodd" clip-rule="evenodd" d="M12 2C7.02944 2 3 6.02944 3 11C3 12.7981 3.76647 14.561 4.78516 16.154C5.81115 17.7585 7.15674 19.2879 8.44943 20.6346L8.49653 20.6837C9.1141 21.3271 9.64848 21.8839 10.1394 22.2702C10.669 22.6869 11.2606 22.9984 11.9971 22.9984C12.7336 22.9984 13.3252 22.687 13.8548 22.2703C14.3457 21.8841 14.88 21.3275 15.4974 20.6842L15.5446 20.6351C16.835 19.2908 18.1819 17.7601 19.2098 16.1547C20.2301 14.5612 21 12.7965 21 11C21 6.02944 16.9706 2 12 2ZM5 11C5 7.13401 8.13401 4 12 4C15.866 4 19 7.13401 19 11C19 12.244 18.4563 13.6226 17.5255 15.0763C16.6024 16.518 15.3608 17.9384 14.1018 19.25C13.4235 19.9565 12.9858 20.4093 12.6181 20.6985C12.2767 20.9671 12.1131 20.9984 11.9972 20.9984C11.8812 20.9984 11.7176 20.9671 11.3762 20.6985C11.0084 20.4091 10.5706 19.9563 9.89228 19.2496C8.63085 17.9355 7.39101 16.5166 6.4701 15.0766C5.54189 13.625 5 12.2474 5 11Z" fill="currentColor"/>
</svg>
