<svg width="36" height="36" viewBox="0 0 36 36" fill="none" xmlns="http://www.w3.org/2000/svg">
<path d="M24.7067 9.37392C24.7676 9.2269 24.7676 9.0634 24.7676 8.7364V7.44254C24.7676 6.62419 24.7676 6.21502 24.9201 5.84718C25.0726 5.47933 25.3622 5.19022 25.9413 4.61199L27.5655 2.99024C28.2919 2.26493 28.6551 1.90227 28.9636 2.03019C29.2721 2.1581 29.2721 2.67136 29.2721 3.69788V5.33385C29.2721 5.99382 29.2721 6.3238 29.4771 6.52883C29.6821 6.73385 30.0121 6.73385 30.6721 6.73385L32.3029 6.73385C33.3313 6.73385 33.8455 6.73385 33.9733 7.04269C34.1011 7.35152 33.7372 7.71484 33.0095 8.44149L31.3864 10.0621C30.8085 10.6391 30.5196 10.9276 30.1523 11.0796C29.7851 11.2315 29.3768 11.2315 28.5601 11.2315H27.1334C26.8064 11.2315 26.6429 11.2315 26.4959 11.2924C26.3489 11.3533 26.2333 11.469 26.0021 11.7002L17.8438 19.8584C17.3557 20.3466 16.5642 20.3466 16.0761 19.8584C15.5879 19.3703 15.5879 18.5788 16.0761 18.0906L24.2989 9.86777C24.5302 9.63654 24.6458 9.52093 24.7067 9.37392Z" fill="currentColor"/>
<path d="M22.0915 8.11487C21.9201 8.23414 21.6441 8.1321 21.0922 7.92802C19.8174 7.45667 18.4388 7.19922 17.0002 7.19922C10.4832 7.19922 5.2002 12.4823 5.2002 18.9992C5.2002 25.5162 10.4832 30.7992 17.0002 30.7992C23.5172 30.7992 28.8002 25.5162 28.8002 18.9992C28.8002 17.565 28.5443 16.1905 28.0757 14.9189C27.8724 14.3673 27.7708 14.0915 27.8902 13.9203C28.0095 13.749 28.2917 13.749 28.8561 13.749C29.1746 13.749 29.4927 13.7398 29.807 13.7076C30.4381 13.6429 30.7536 13.6106 30.9325 13.7288C31.1113 13.8471 31.1847 14.0842 31.3315 14.5584C31.766 15.962 32 17.4537 32 19C32 27.2843 25.2843 34 17 34C8.71573 34 2 27.2843 2 19C2 10.7157 8.71573 4 17 4C18.5517 4 20.0483 4.23561 21.4561 4.673C21.9304 4.82035 22.1675 4.89402 22.2856 5.07297C22.4036 5.25192 22.371 5.56777 22.3056 6.19949C22.2731 6.51293 22.2636 6.83022 22.2634 7.1479C22.263 7.71303 22.2628 7.9956 22.0915 8.11487Z" fill="currentColor"/>
<path d="M25.4365 15.8216C25.1548 15.7423 24.9124 15.9844 24.4275 16.4687C23.8398 17.0556 23.1463 17.7486 22.5801 18.3166C22.3248 18.5728 22.1971 18.7009 22.1257 18.8404C22.0544 18.98 22.0141 19.2266 21.9336 19.7198C21.5436 22.1087 19.4832 23.999 17 23.999C14.2386 23.999 12 21.7604 12 18.999C12 16.5189 13.8057 14.4605 16.1742 14.0669C16.6713 13.9843 16.9199 13.943 17.059 13.8714C17.1981 13.7999 17.3269 13.6711 17.5846 13.4134L19.447 11.551C19.9355 11.0624 20.1798 10.8182 20.0987 10.5351C20.0175 10.252 19.7053 10.1798 19.0807 10.0355C18.4122 9.8809 17.7157 9.79922 17.0002 9.79922C11.9192 9.79922 7.8002 13.9182 7.8002 18.9992C7.8002 24.0802 11.9192 28.1992 17.0002 28.1992C22.0812 28.1992 26.2002 24.0802 26.2002 18.9992C26.2002 18.2513 26.111 17.5243 25.9426 16.8282C25.793 16.21 25.7182 15.9009 25.4365 15.8216Z" fill="currentColor"/>
</svg>
