<svg width="24" height="24" viewBox="0 0 24 24" fill="none" xmlns="http://www.w3.org/2000/svg">
<path d="M12.4005 8.99997C12.6833 8.99997 12.8248 8.99997 12.9126 8.9121C13.0005 8.82423 13.0005 8.68281 13.0005 8.39997V7.46765C13.0005 6.00411 13.0005 5.27233 13.458 5.05562C13.9156 4.8389 14.4818 5.30251 15.6141 6.22972L20.5062 10.2355C21.5029 11.0516 22.0012 11.4596 22.0012 11.9996C22.0012 12.5395 21.5028 12.9476 20.5062 13.7636L15.6141 17.7692C14.4818 18.6963 13.9156 19.1599 13.458 18.9432C13.0005 18.7264 13.0005 17.9947 13.0005 16.5312V15.6C13.0005 15.3171 13.0005 15.1757 12.9126 15.0878C12.8248 15 12.6833 15 12.4005 15H10.0439C7.79211 15 5.64995 15.972 4.16716 17.6666L3.31378 18.6419C3.11469 18.8695 2.82706 19 2.52473 19C2.2352 19 2.00049 18.7653 2.00049 18.4757L2.00049 16.7777C2.00049 16.0555 2.00049 15.6943 2.02713 15.3899C2.3232 12.0057 5.00627 9.32268 8.3904 9.02661C8.69486 8.99997 9.056 8.99997 9.77827 8.99997L12.4005 8.99997Z" fill="currentColor"/>
</svg>
