<svg width="24" height="24" viewBox="0 0 24 24" fill="none" xmlns="http://www.w3.org/2000/svg">
<path fill-rule="evenodd" clip-rule="evenodd" d="M21.6232 8.57959C20.8188 5.87701 18.7766 3.71796 16.1231 2.76411C13.1859 1.70828 10.5254 1.78128 7.87343 2.7643C5.2206 3.71812 3.17942 5.87658 2.37512 8.5785L2.3327 8.72102C1.88997 10.2083 1.88846 11.7922 2.32838 13.2803L2.38179 13.461C2.85799 15.0719 3.77417 16.4903 4.99793 17.5759V21.4957C4.99793 21.8802 5.41387 22.1208 5.7472 21.9291L7.56033 20.8863C8.83236 20.1548 10.3283 19.9764 11.7954 20.0009C13.2571 20.0252 14.7221 19.7865 16.1182 19.2846C18.7741 18.3299 20.8165 16.1665 21.6166 13.4599L21.6697 13.2802C22.1096 11.7921 22.1081 10.2084 21.6654 8.72116L21.6232 8.57959ZM7.99999 8.00003C7.4477 8.00003 6.99999 8.44775 6.99999 9.00003C6.99999 9.55231 7.4477 10 7.99999 10H16C16.5523 10 17 9.55231 17 9.00003C17 8.44775 16.5523 8.00003 16 8.00003L7.99999 8.00003ZM7.99999 12C7.4477 12 6.99999 12.4477 6.99999 13C6.99999 13.5523 7.4477 14 7.99999 14L10.2656 14L13.0078 12.0001L13 12H7.99999Z" fill="currentColor"/>
</svg>
