<svg width="36" height="36" viewBox="0 0 36 36" fill="none" xmlns="http://www.w3.org/2000/svg">
<path d="M33.7839 16.6188C33.4851 16.9604 33.0034 16.9604 32.04 16.9604H26.44C25.8247 16.9604 25.517 16.9604 25.3262 16.8096C25.1354 16.6588 25.0494 16.2969 24.8774 15.573C24.8038 15.2635 24.7056 14.9596 24.5833 14.6643C24.2817 13.9363 23.8398 13.2749 23.2826 12.7177C22.7255 12.1606 22.064 11.7186 21.3361 11.4171C21.0408 11.2948 20.7369 11.1966 20.4273 11.123C19.7035 10.9509 19.3415 10.8649 19.1908 10.6741C19.04 10.4833 19.04 10.1757 19.04 9.56039V3.96039C19.04 2.99701 19.04 2.51531 19.3815 2.2165C19.7231 1.91769 20.1601 1.9763 21.0341 2.09353C22.3184 2.2658 23.5778 2.60415 24.7802 3.1022C26.6001 3.85602 28.2537 4.96091 29.6466 6.35379C31.0395 7.74667 32.1444 9.40025 32.8982 11.2201C33.3962 12.4225 33.7346 13.682 33.9068 14.9663C34.0241 15.8403 34.0827 16.2772 33.7839 16.6188Z" fill="currentColor"/>
<path d="M14.326 3.45381C7.81786 5.0924 3 10.9839 3 18.0006C3 26.2849 9.71573 33.0006 18 33.0006C25.0167 33.0006 30.9082 28.1827 32.5468 21.6746C32.7824 20.7389 32.9002 20.2711 32.5999 19.8858C32.2996 19.5006 31.7722 19.5006 30.7175 19.5006H25.3614C24.6903 19.5006 24.3547 19.5006 24.1208 19.6375C23.8868 19.7744 23.6694 20.1614 23.2345 20.9353C22.2067 22.7647 20.2477 24.0006 18 24.0006C14.6863 24.0006 12 21.3143 12 18.0006C12 15.7529 13.2359 13.7939 15.0653 12.7661C15.8392 12.3312 16.2262 12.1138 16.3631 11.8798C16.5 11.6459 16.5 11.3103 16.5 10.6392V5.28305C16.5 4.22834 16.5 3.70098 16.1148 3.40071C15.7295 3.10043 15.2617 3.21822 14.326 3.45381Z" fill="currentColor"/>
</svg>
