<svg width="24" height="24" viewBox="0 0 24 24" fill="none" xmlns="http://www.w3.org/2000/svg">
<path d="M10 21.5552C10 21.6817 9.88375 21.7764 9.7605 21.7482C5.31587 20.7313 2 16.7529 2 12C2 6.47714 6.47714 2 12 2C13.9818 2 15.8289 2.57649 17.3828 3.57091C17.5565 3.68205 17.5585 3.9314 17.3915 4.05228L15.3834 5.50558C15.2033 5.63595 14.9667 5.65401 14.7624 5.56618C13.9149 5.20181 12.981 5 12 5C8.134 5 5 8.134 5 12C5 15.1186 7.03943 17.7609 9.85736 18.666C9.9416 18.693 10 18.7707 10 18.8592V21.5552Z" fill="currentColor"/>
<path d="M18.4943 14.6171C18.4532 14.719 18.4984 14.8361 18.5982 14.8819C18.9507 15.0437 19.4788 15.2999 19.8438 15.539C20.1375 15.7315 20.4886 16.0198 20.7683 16.2618C20.8681 16.3482 21.0231 16.3181 21.0786 16.1984C21.6699 14.9218 21.9999 13.4994 21.9999 12C21.9999 11.8801 21.9978 11.7608 21.9937 11.642C21.9855 11.4092 21.7215 11.2876 21.5328 11.4242L19.0612 13.213C18.938 13.3021 18.8544 13.4351 18.8202 13.5832C18.7379 13.939 18.6285 14.2844 18.4943 14.6171Z" fill="currentColor"/>
<path d="M11.9376 11.3323L19.4435 5.90011C19.6151 5.7759 19.8545 5.80654 19.9823 5.97554C20.4492 6.59324 20.8461 7.26684 21.1611 7.98452C21.2349 8.15269 21.1778 8.34819 21.029 8.45587L12.0624 14.9452L8.58976 12.7806C8.44328 12.6893 8.35425 12.5289 8.35425 12.3563V9.63924C8.35425 9.40377 8.61311 9.26009 8.81294 9.38464L11.9376 11.3323Z" fill="currentColor"/>
<path d="M13.4329 16.4V22H12V16.4H13.4329Z" fill="currentColor"/>
<path fill-rule="evenodd" clip-rule="evenodd" d="M14.3116 16.4H16.2378C17.3438 16.4 18.1611 16.6355 18.7029 17.0979C19.2477 17.5629 19.497 18.2428 19.497 19.092C19.497 20.075 19.1805 20.8075 18.6134 21.2923C18.0488 21.7749 17.2499 22 16.3071 22H14.3116V16.4ZM16.3456 20.6426C16.9426 20.6426 17.3554 20.4924 17.6187 20.2437C17.8812 19.9959 18.0102 19.6361 18.0102 19.1845C18.0102 18.6975 17.8942 18.3488 17.6413 18.1189C17.386 17.8869 16.9711 17.7573 16.3302 17.7573H15.7445V20.6426H16.3456Z" fill="currentColor"/>
</svg>
