<svg width="36" height="36" viewBox="0 0 36 36" fill="none" xmlns="http://www.w3.org/2000/svg">
<path fill-rule="evenodd" clip-rule="evenodd" d="M5.87819 3.87917C4.99951 4.75785 4.99951 6.17206 4.99951 9.00049V27.0005C4.99951 29.8289 4.99951 31.2431 5.87819 32.1218C6.75687 33.0005 8.17109 33.0005 10.9995 33.0005H24.9995C27.8279 33.0005 29.2422 33.0005 30.1208 32.1218C30.9995 31.2431 30.9995 29.8289 30.9995 27.0005V15.8007C30.9995 15.1407 30.9995 14.8107 30.7945 14.6057C30.5895 14.4007 30.2595 14.4007 29.5995 14.4007L25.8779 14.4007C25.0418 14.4009 24.1927 14.4011 23.4853 14.306C22.6746 14.197 21.7015 13.9251 20.8884 13.1119C20.0752 12.2988 19.8033 11.3258 19.6943 10.515C19.5992 9.80764 19.5994 8.95847 19.5996 8.12241L19.5996 4.40064C19.5997 3.74068 19.5997 3.4107 19.3946 3.20567C19.1896 3.00065 18.8596 3.00064 18.1997 3.00063L10.9995 3.00049C8.17109 3.00049 6.75687 3.00049 5.87819 3.87917ZM11.9998 15C11.3371 15 10.7998 15.5373 10.7998 16.2C10.7998 16.8627 11.3371 17.4 11.9998 17.4H16.4998C17.1625 17.4 17.6998 16.8627 17.6998 16.2C17.6998 15.5373 17.1625 15 16.4998 15H11.9998ZM10.7998 21.2005C10.7998 20.5377 11.3371 20.0005 11.9998 20.0005H23.9998C24.6625 20.0005 25.1998 20.5377 25.1998 21.2005C25.1998 21.8632 24.6625 22.4005 23.9998 22.4005H11.9998C11.3371 22.4005 10.7998 21.8632 10.7998 21.2005ZM11.9998 25.0005C11.3371 25.0005 10.7998 25.5377 10.7998 26.2005C10.7998 26.8632 11.3371 27.4005 11.9998 27.4005H23.9998C24.6625 27.4005 25.1998 26.8632 25.1998 26.2005C25.1998 25.5377 24.6625 25.0005 23.9998 25.0005H11.9998Z" fill="currentColor"/>
<path d="M21.9997 5.03663C21.9997 3.8042 21.9997 3.18799 22.37 3.03453C22.7403 2.88107 23.1761 3.31665 24.0479 4.1878L29.8155 9.95129C30.688 10.8232 31.1242 11.2591 30.9708 11.6296C30.8175 12.0001 30.2007 12.0001 28.9673 12.0001L25.9997 12.0002C24.1141 12.0002 23.1713 12.0002 22.5855 11.4144C21.9997 10.8286 21.9997 9.8858 21.9997 8.00016V5.03663Z" fill="currentColor"/>
</svg>
