<svg width="24" height="24" viewBox="0 0 24 24" fill="none" xmlns="http://www.w3.org/2000/svg">
<path fill-rule="evenodd" clip-rule="evenodd" d="M12 22C17.5228 22 22 17.5228 22 12C22 6.47715 17.5228 2 12 2C6.47715 2 2 6.47715 2 12C2 17.5228 6.47715 22 12 22ZM16.7071 16.7071C16.3166 17.0976 15.6834 17.0976 15.2929 16.7071L12 13.4142L8.70717 16.7071C8.31664 17.0976 7.68348 17.0976 7.29295 16.7071C6.90243 16.3166 6.90243 15.6834 7.29295 15.2929L10.5858 12L7.29289 8.70711C6.90237 8.31658 6.90237 7.68342 7.29289 7.29289C7.68342 6.90237 8.31658 6.90237 8.70711 7.29289L12 10.5858L15.293 7.29289C15.6835 6.90237 16.3166 6.90237 16.7072 7.29289C17.0977 7.68342 17.0977 8.31658 16.7072 8.70711L13.4142 12L16.7071 15.2929C17.0976 15.6834 17.0976 16.3166 16.7071 16.7071Z" fill="currentColor"/>
</svg>
