<svg width="36" height="36" viewBox="0 0 36 36" fill="none" xmlns="http://www.w3.org/2000/svg">
<path d="M22.7683 22.3209C23.1865 22.3209 23.3712 22.2364 23.4574 22.1548C23.5378 22.0787 23.606 21.9346 23.606 21.6165C23.606 21.2908 23.5437 21.1613 23.4739 21.0958C23.3961 21.0227 23.2143 20.9387 22.7594 20.9387L22.6944 20.9387C22.6031 20.9388 22.5575 20.9389 22.5282 20.9682C22.499 20.9974 22.499 21.0436 22.499 21.136V22.1238C22.499 22.2152 22.499 22.261 22.528 22.2902C22.5569 22.3194 22.6017 22.3198 22.6913 22.3206C22.7159 22.3208 22.7415 22.3209 22.7683 22.3209Z" fill="currentColor"/>
<path fill-rule="evenodd" clip-rule="evenodd" d="M5.87868 3.87868C5 4.75736 5 6.17157 5 9V27C5 29.8284 5 31.2426 5.87868 32.1213C6.75736 33 8.17157 33 11 33H25C27.8284 33 29.2426 33 30.1213 32.1213C31 31.2426 31 29.8284 31 27V15.8002C31 15.1402 31 14.8102 30.795 14.6052C30.5899 14.4002 30.26 14.4002 29.6 14.4002L25.8784 14.4002C25.0423 14.4004 24.1932 14.4006 23.4858 14.3055C22.675 14.1965 21.702 13.9246 20.8889 13.1114C20.0757 12.2983 19.8038 11.3253 19.6948 10.5145C19.5997 9.80715 19.5999 8.95798 19.6001 8.12192L19.6001 4.40015C19.6001 3.74019 19.6001 3.41021 19.3951 3.20518C19.1901 3.00016 18.8601 3.00015 18.2002 3.00014L11 3C8.17157 3 6.75736 3 5.87868 3.87868ZM20.3581 19.1316C20.4135 19.0736 20.5037 19.0695 20.6843 19.0611L20.9422 19.0491C21.5484 19.0205 21.9821 19 22.7861 19C23.7851 19 24.569 19.1471 25.1002 19.5776C25.6531 20.0257 25.8465 20.7059 25.8465 21.5455C25.8465 22.4091 25.6235 23.1179 25.0715 23.5991C24.531 24.0703 23.746 24.2596 22.7683 24.2596L22.7059 24.2594C22.6073 24.2587 22.5581 24.2584 22.5285 24.2877C22.499 24.317 22.499 24.3654 22.499 24.4622V25.4C22.499 25.6828 22.499 25.8243 22.4111 25.9121C22.3232 26 22.1818 26 21.899 26H20.9028C20.6199 26 20.4785 26 20.3907 25.9121C20.3028 25.8243 20.3028 25.6828 20.3028 25.4V19.4607C20.3028 19.2799 20.3028 19.1896 20.3581 19.1316ZM10.3767 24.3728C10.2659 24.528 10.2105 24.6056 10.1819 24.6949C10.1533 24.7842 10.1533 24.8795 10.1533 25.0701V25.5C10.1533 25.7357 10.1533 25.8536 10.2265 25.9268C10.2998 26 10.4176 26 10.6533 26H15.2392C15.522 26 15.6634 26 15.7513 25.9121C15.8392 25.8243 15.8392 25.6828 15.8392 25.4V24.5992C15.8392 24.3163 15.8392 24.1749 15.7513 24.087C15.6634 23.9992 15.522 23.9992 15.2392 23.9992H13.4586C13.3395 23.9992 13.28 23.9992 13.2604 23.9612C13.2409 23.9232 13.2755 23.8748 13.3447 23.7778L15.5625 20.6716C15.6733 20.5164 15.7287 20.4388 15.7573 20.3495C15.7859 20.2602 15.7859 20.1649 15.7859 19.9743V19.5444C15.7859 19.3087 15.7859 19.1908 15.7127 19.1176C15.6394 19.0444 15.5216 19.0444 15.2859 19.0444H10.8599C10.577 19.0444 10.4356 19.0444 10.3477 19.1323C10.2599 19.2201 10.2599 19.3616 10.2599 19.6444V20.4452C10.2599 20.7281 10.2599 20.8695 10.3477 20.9574C10.4356 21.0452 10.577 21.0452 10.8599 21.0452H12.4806C12.5997 21.0452 12.6592 21.0452 12.6788 21.0832C12.6983 21.1212 12.6637 21.1696 12.5945 21.2666L10.3767 24.3728ZM17.5023 19.0444C17.2195 19.0444 17.078 19.0444 16.9902 19.1323C16.9023 19.2201 16.9023 19.3616 16.9023 19.6444V25.4C16.9023 25.6828 16.9023 25.8243 16.9902 25.9121C17.078 26 17.2195 26 17.5023 26H18.4896C18.7725 26 18.9139 26 19.0018 25.9121C19.0896 25.8243 19.0896 25.6828 19.0896 25.4V19.6444C19.0896 19.3616 19.0896 19.2201 19.0018 19.1323C18.9139 19.0444 18.7725 19.0444 18.4896 19.0444H17.5023Z" fill="currentColor"/>
<path d="M22.0002 5.03614C22.0002 3.80371 22.0002 3.1875 22.3705 3.03404C22.7408 2.88059 23.1766 3.31616 24.0484 4.18731L29.816 9.95081C30.6885 10.8227 31.1247 11.2586 30.9713 11.6291C30.8179 11.9996 30.2012 11.9996 28.9677 11.9996L26.0002 11.9997C24.1146 11.9997 23.1718 11.9997 22.586 11.4139C22.0002 10.8281 22.0002 9.88531 22.0002 7.99967V5.03614Z" fill="currentColor"/>
</svg>
