<svg width="16" height="16" viewBox="0 0 16 16" fill="none" xmlns="http://www.w3.org/2000/svg">
<path d="M2.16005 2.16005C1.75 2.5701 1.75 3.23007 1.75 4.55V4.7C1.75 6.01993 1.75 6.6799 2.16005 7.08995C2.5701 7.5 3.23007 7.5 4.55 7.5H4.7C6.01993 7.5 6.6799 7.5 7.08995 7.08995C7.5 6.6799 7.5 6.01993 7.5 4.7V4.55C7.5 3.23007 7.5 2.5701 7.08995 2.16005C6.6799 1.75 6.01993 1.75 4.7 1.75H4.55C3.23007 1.75 2.5701 1.75 2.16005 2.16005Z" fill="currentColor"/>
<path d="M2.16005 8.91005C1.75 9.3201 1.75 9.98007 1.75 11.3V11.45C1.75 12.7699 1.75 13.4299 2.16005 13.8399C2.5701 14.25 3.23007 14.25 4.55 14.25H4.7C6.01993 14.25 6.6799 14.25 7.08995 13.8399C7.5 13.4299 7.5 12.7699 7.5 11.45V11.3C7.5 9.98007 7.5 9.3201 7.08995 8.91005C6.6799 8.5 6.01993 8.5 4.7 8.5H4.55C3.23007 8.5 2.5701 8.5 2.16005 8.91005Z" fill="currentColor"/>
<path d="M8.5 4.55C8.5 3.23007 8.5 2.5701 8.91005 2.16005C9.3201 1.75 9.98007 1.75 11.3 1.75H11.45C12.7699 1.75 13.4299 1.75 13.8399 2.16005C14.25 2.5701 14.25 3.23007 14.25 4.55V4.7C14.25 6.01993 14.25 6.6799 13.8399 7.08995C13.4299 7.5 12.7699 7.5 11.45 7.5H11.3C9.98007 7.5 9.3201 7.5 8.91005 7.08995C8.5 6.6799 8.5 6.01993 8.5 4.7V4.55Z" fill="currentColor"/>
<path d="M8.91005 8.91005C8.5 9.3201 8.5 9.98007 8.5 11.3V11.45C8.5 12.7699 8.5 13.4299 8.91005 13.8399C9.3201 14.25 9.98007 14.25 11.3 14.25H11.45C12.7699 14.25 13.4299 14.25 13.8399 13.8399C14.25 13.4299 14.25 12.7699 14.25 11.45V11.3C14.25 9.98007 14.25 9.3201 13.8399 8.91005C13.4299 8.5 12.7699 8.5 11.45 8.5H11.3C9.98007 8.5 9.3201 8.5 8.91005 8.91005Z" fill="currentColor"/>
</svg>
