<svg width="24" height="24" viewBox="0 0 24 24" fill="none" xmlns="http://www.w3.org/2000/svg">
<path d="M4 15C4.55228 15 5 15.4477 5 16L5 18C5 18.5523 5.44772 19 6 19H18C18.5523 19 19 18.5523 19 18V16C19 15.4477 19.4477 15 20 15C20.5523 15 21 15.4477 21 16V18C21 19.6568 19.6569 21 18 21H6C4.34315 21 3 19.6568 3 18L3 16C3 15.4477 3.44772 15 4 15Z" fill="currentColor"/>
<path d="M11 6.82419L9.70711 8.11708C9.31658 8.5076 8.68342 8.5076 8.29289 8.11708C7.90237 7.72655 7.90237 7.09339 8.29289 6.70286L12 2.99576L15.7071 6.70287C16.0976 7.09339 16.0976 7.72655 15.7071 8.11708C15.3166 8.5076 14.6834 8.5076 14.2929 8.11708L13 6.82419L13 15C13 15.5523 12.5523 16 12 16C11.4477 16 11 15.5523 11 15L11 6.82419Z" fill="currentColor"/>
</svg>
