<svg width="36" height="36" viewBox="0 0 36 36" fill="none" xmlns="http://www.w3.org/2000/svg">
<path fill-rule="evenodd" clip-rule="evenodd" d="M5.87868 3.87917C5 4.75785 5 6.17206 5 9.00049L5 27.0005C5 29.8289 5 31.2431 5.87868 32.1218C6.75736 33.0005 8.17157 33.0005 11 33.0005H25C27.8284 33.0005 29.2426 33.0005 30.1213 32.1218C31 31.2431 31 29.8289 31 27.0005V15.8007C31 15.1407 31 14.8107 30.795 14.6057C30.5899 14.4007 30.26 14.4007 29.6 14.4007L25.8784 14.4007C25.0423 14.4009 24.1932 14.4011 23.4858 14.306C22.675 14.197 21.702 13.9251 20.8889 13.1119C20.0757 12.2988 19.8038 11.3258 19.6948 10.515C19.5997 9.80764 19.5999 8.95847 19.6001 8.12241L19.6001 4.40064C19.6001 3.74068 19.6001 3.4107 19.3951 3.20567C19.1901 3.00065 18.8601 3.00064 18.2002 3.00063L11 3.00049C8.17157 3.00049 6.75736 3.00049 5.87868 3.87917ZM10.745 22.3714C10.7619 22.4018 10.7617 22.4389 10.7445 22.4692L8.97156 25.5892C8.89579 25.7226 8.99209 25.8881 9.14544 25.8881H11.1419C11.2148 25.8881 11.282 25.8484 11.3171 25.7845L12.1971 24.1851C12.2159 24.151 12.2647 24.1504 12.2842 24.1841L13.2118 25.7882C13.2476 25.85 13.3135 25.8881 13.3849 25.8881H15.4265C15.581 25.8881 15.6772 25.7203 15.5991 25.587L13.7614 22.449C13.743 22.4176 13.7431 22.3787 13.7618 22.3474L15.5055 19.4152C15.5847 19.2818 15.4887 19.1129 15.3336 19.1129H13.3406C13.2684 19.1129 13.2018 19.1518 13.1664 19.2147L12.343 20.6742C12.3237 20.7084 12.2743 20.708 12.2555 20.6735L11.4653 19.2175C11.4303 19.1531 11.3629 19.1129 11.2895 19.1129H9.27852C9.12611 19.1129 9.02971 19.2766 9.10359 19.4099L10.745 22.3714ZM16.8071 19.1129C16.6414 19.1129 16.5071 19.2472 16.5071 19.4129L16.5071 25.5881C16.5071 25.7537 16.6414 25.8881 16.8071 25.8881H21.0102C21.1759 25.8881 21.3102 25.7537 21.3102 25.5881V24.1699C21.3102 24.0042 21.1759 23.8699 21.0102 23.8699H18.7463C18.691 23.8699 18.6463 23.8252 18.6463 23.7699L18.6463 19.4129C18.6463 19.2472 18.512 19.1129 18.3463 19.1129H16.8071ZM22.1453 23.1369L22.5756 23.5075C22.8461 23.7405 23.4145 24.1208 24.2692 24.1208C24.5961 24.1208 24.7684 24.0619 24.8488 24.0083C24.9065 23.9698 24.9294 23.9287 24.9294 23.8497C24.9294 23.8196 24.9295 23.7521 24.6793 23.6417C24.5604 23.5892 24.4152 23.5409 24.2407 23.4862L24.137 23.454C23.9942 23.4097 23.8375 23.3612 23.6821 23.3063C23.2951 23.1696 22.8598 22.9757 22.5222 22.6317C22.172 22.2749 21.9541 21.7852 21.9541 21.1166C21.9541 20.4999 22.136 19.9413 22.6197 19.5499C23.087 19.1718 23.7756 19.0005 24.6757 19.0005C25.475 19.0005 26.1921 19.1251 26.6652 19.3223L26.7024 19.3378C26.8141 19.3844 26.8868 19.4936 26.8868 19.6147V21.5394C26.8868 21.6197 26.797 21.6673 26.7306 21.6221L26.3239 21.3454C25.9474 21.0894 25.36 20.8802 24.7881 20.8802C24.4 20.8802 24.2267 20.9421 24.1585 20.9867C24.1232 21.0098 24.1106 21.0265 24.1106 21.0907C24.1098 21.1023 24.105 21.1682 24.3704 21.278C24.4958 21.3298 24.6482 21.3775 24.8298 21.4315L24.9228 21.459C25.0754 21.504 25.243 21.5534 25.4098 21.61C25.8103 21.7457 26.2593 21.9387 26.6079 22.2808C26.9702 22.6363 27.1983 23.127 27.1983 23.7979C27.1983 24.4626 26.9846 25.0415 26.4726 25.441C25.9781 25.8268 25.2607 26.0005 24.347 26.0005C23.5267 26.0005 22.6784 25.8317 22.1623 25.5382L22.1317 25.5209C22.038 25.4675 21.98 25.368 21.98 25.2601V23.2127C21.98 23.1272 22.0805 23.0811 22.1453 23.1369Z" fill="currentColor"/>
<path d="M22.0002 5.03663C22.0002 3.8042 22.0002 3.18799 22.3705 3.03453C22.7408 2.88107 23.1766 3.31665 24.0484 4.1878L29.816 9.95129C30.6885 10.8232 31.1247 11.2591 30.9713 11.6296C30.8179 12.0001 30.2012 12.0001 28.9677 12.0001L26.0002 12.0002C24.1146 12.0002 23.1718 12.0002 22.586 11.4144C22.0002 10.8286 22.0002 9.8858 22.0002 8.00016V5.03663Z" fill="currentColor"/>
</svg>
