<svg width="16" height="16" viewBox="0 0 16 16" fill="none" xmlns="http://www.w3.org/2000/svg">
<path d="M4.40042 2.6C4.40042 2.31716 4.40042 2.17574 4.31255 2.08787C4.22469 2 4.08313 2 3.80003 2C2.4801 2 1.82013 2 1.41008 2.41005C1.00003 2.8201 1.00003 3.48007 1.00003 4.8C1.00003 4.91046 1.08957 5 1.20003 5H3.80042C4.08326 5 4.22469 5 4.31255 4.91213C4.40042 4.82426 4.40042 4.68284 4.40042 4.4V2.6Z" fill="currentColor"/>
<path d="M1.60003 6.6C1.31719 6.6 1.17577 6.6 1.0879 6.68787C1.00003 6.77574 1.00003 6.91716 1.00003 7.2V8.80039C1.00003 9.08323 1.00003 9.22466 1.0879 9.31252C1.17577 9.40039 1.31719 9.40039 1.60003 9.40039H3.80042C4.08326 9.40039 4.22469 9.40039 4.31255 9.31252C4.40042 9.22466 4.40042 9.08323 4.40042 8.80039V7.2C4.40042 6.91716 4.40042 6.77574 4.31255 6.68787C4.22469 6.6 4.08326 6.6 3.80042 6.6H1.60003Z" fill="currentColor"/>
<path d="M1.19964 11.0004C1.0894 11.0004 1.00003 11.0898 1.00003 11.2C1.00003 12.5199 1.00003 13.1799 1.41008 13.5899C1.82013 14 2.4801 14 3.80003 14C4.08313 14 4.22469 14 4.31255 13.9121C4.40042 13.8243 4.40042 13.6828 4.40042 13.4V11.6004C4.40042 11.3175 4.40042 11.1761 4.31255 11.0883C4.22469 11.0004 4.08326 11.0004 3.80042 11.0004H1.19964Z" fill="currentColor"/>
<path d="M6.00042 13.4C6.00042 13.6828 6.00042 13.8243 6.08829 13.9121C6.17616 14 6.31758 14 6.60042 14H12.2C13.52 14 14.1799 14 14.59 13.5899C15 13.1799 15 12.5199 15 11.2C15 11.0898 14.9107 11.0004 14.8004 11.0004H6.60042C6.31758 11.0004 6.17616 11.0004 6.08829 11.0883C6.00042 11.1761 6.00042 11.3175 6.00042 11.6004V13.4Z" fill="currentColor"/>
<path d="M14.4 9.40039C14.6829 9.40039 14.8243 9.40039 14.9122 9.31252C15 9.22465 15 9.08323 15 8.80039V7.2C15 6.91716 15 6.77574 14.9122 6.68787C14.8243 6.6 14.6829 6.6 14.4 6.6L6.60042 6.6C6.31758 6.6 6.17616 6.6 6.08829 6.68787C6.00042 6.77574 6.00042 6.91716 6.00042 7.2V8.80039C6.00042 9.08323 6.00042 9.22466 6.08829 9.31252C6.17616 9.40039 6.31758 9.40039 6.60042 9.40039L14.4 9.40039Z" fill="currentColor"/>
<path d="M14.8 5C14.9105 5 15 4.91046 15 4.8C15 3.48007 15 2.8201 14.59 2.41005C14.1799 2 13.52 2 12.2 2H6.60042C6.31758 2 6.17616 2 6.08829 2.08787C6.00042 2.17574 6.00042 2.31716 6.00042 2.6V4.4C6.00042 4.68284 6.00042 4.82426 6.08829 4.91213C6.17616 5 6.31758 5 6.60042 5L14.8 5Z" fill="currentColor"/>
</svg>
