<svg width="24" height="24" viewBox="0 0 24 24" fill="none" xmlns="http://www.w3.org/2000/svg">
<path fill-rule="evenodd" clip-rule="evenodd" d="M12 8.5C10.067 8.5 8.5 10.067 8.5 12C8.5 13.933 10.067 15.5 12 15.5C13.933 15.5 15.5 13.933 15.5 12C15.5 10.067 13.933 8.5 12 8.5ZM10.5 12C10.5 11.1716 11.1716 10.5 12 10.5C12.8284 10.5 13.5 11.1716 13.5 12C13.5 12.8284 12.8284 13.5 12 13.5C11.1716 13.5 10.5 12.8284 10.5 12Z" fill="currentColor"/>
<path fill-rule="evenodd" clip-rule="evenodd" d="M12.0002 1.5C11.4154 1.5 10.841 1.54791 10.281 1.64021L10.1517 1.66152C9.90083 1.70287 9.77539 1.72355 9.68752 1.80432C9.59965 1.88509 9.5685 2.00835 9.5062 2.25486L8.90863 4.61938C8.65684 4.72495 8.41164 4.84299 8.17382 4.97271L5.94961 3.96431C5.71866 3.8596 5.60319 3.80725 5.48551 3.82539C5.36783 3.84354 5.27349 3.92824 5.08481 4.09765L4.98759 4.18493C4.13375 4.95156 3.40608 5.85638 2.83973 6.86468L2.77543 6.97915C2.65067 7.20128 2.58829 7.31234 2.59655 7.43162C2.60481 7.5509 2.6819 7.6523 2.8361 7.85511L4.3087 9.792C4.23207 10.0594 4.169 10.3324 4.12029 10.6103L1.94513 11.7205C1.71956 11.8356 1.60677 11.8932 1.54759 11.9964C1.48841 12.0995 1.49565 12.226 1.51013 12.4788L1.51759 12.6091C1.58491 13.7843 1.84578 14.9091 2.26917 15.9509L2.31859 16.0726C2.41449 16.3085 2.46244 16.4265 2.56084 16.4944C2.65924 16.5623 2.78657 16.5653 3.04122 16.5712L5.4733 16.6274C5.64126 16.864 5.82171 17.0909 6.0137 17.3073L5.52603 19.6976C5.47531 19.9462 5.44995 20.0705 5.49388 20.1813C5.53782 20.292 5.6415 20.3651 5.84888 20.5113L5.95572 20.5867C6.88113 21.2392 7.91739 21.7463 9.03108 22.074L9.15688 22.1111C9.40099 22.1829 9.52305 22.2188 9.63736 22.1842C9.75167 22.1496 9.83328 22.052 9.9965 21.8567L11.5591 19.9877C11.852 20.0034 12.1476 20.0034 12.4405 19.9877L14.0033 21.8569C14.1665 22.0521 14.2481 22.1497 14.3624 22.1844C14.4767 22.219 14.5987 22.1831 14.8428 22.1113L14.9686 22.0743C16.0823 21.7466 17.1185 21.2396 18.0439 20.5872L18.1508 20.5119C18.3582 20.3657 18.4619 20.2925 18.5058 20.1818C18.5498 20.0711 18.5244 19.9467 18.4737 19.6981L17.9859 17.3074C18.1779 17.0909 18.3584 16.864 18.5264 16.6274L20.9592 16.5711C21.2138 16.5652 21.3412 16.5623 21.4396 16.4944C21.538 16.4265 21.5859 16.3085 21.6818 16.0725L21.7312 15.9509C22.1546 14.9092 22.4154 13.7846 22.4828 12.6095L22.4902 12.4792C22.5047 12.2264 22.512 12.1 22.4528 11.9968C22.3936 11.8936 22.2808 11.836 22.0552 11.7209L19.8794 10.6103C19.8307 10.3324 19.7676 10.0593 19.691 9.79193L21.164 7.85452C21.3182 7.6517 21.3953 7.55028 21.4035 7.431C21.4118 7.31171 21.3494 7.20064 21.2246 6.97851L21.1603 6.86403C20.5939 5.85588 19.8663 4.9512 19.0125 4.18468L18.9153 4.0974C18.7266 3.928 18.6323 3.84331 18.5146 3.82516C18.3969 3.80702 18.2815 3.85937 18.0505 3.96407L15.8258 4.97269C15.588 4.84296 15.3428 4.72492 15.091 4.61935L14.4934 2.25471C14.4311 2.00818 14.3999 1.88491 14.312 1.80414C14.2242 1.72337 14.0987 1.7027 13.8478 1.66137L13.7185 1.64007C13.1588 1.54786 12.5847 1.5 12.0002 1.5ZM11.2958 3.58037C11.3734 3.51753 11.4728 3.51376 11.6716 3.50622C11.7806 3.50209 11.8901 3.5 12.0002 3.5C12.11 3.5 12.2192 3.50208 12.328 3.50619C12.5267 3.51371 12.6261 3.51747 12.7038 3.58031C12.7814 3.64315 12.8069 3.7442 12.858 3.94631L13.3062 5.71967C13.3583 5.92605 13.3844 6.02925 13.4534 6.10399C13.5225 6.17874 13.6233 6.21292 13.8249 6.28128L13.9279 6.31621C14.3882 6.4723 14.8237 6.68291 15.2267 6.94059L15.3182 6.99906C15.4972 7.11349 15.5867 7.1707 15.6879 7.17797C15.7892 7.18523 15.886 7.14137 16.0795 7.05366L17.7514 6.29563C17.9407 6.20983 18.0353 6.16693 18.1326 6.18822C18.2298 6.2095 18.2948 6.28438 18.4247 6.43413C18.5671 6.59837 18.7033 6.76811 18.833 6.94297C18.9517 7.10307 19.011 7.18312 19.0104 7.28321C19.0098 7.3833 18.9466 7.46646 18.8201 7.63278L17.7164 9.08445C17.5871 9.25453 17.5225 9.33959 17.5072 9.44053C17.4919 9.54147 17.5285 9.64185 17.6017 9.8426L17.639 9.9452C17.8035 10.3964 17.9154 10.8732 17.9671 11.3685L17.9784 11.4765C18.0004 11.6878 18.0115 11.7935 18.0689 11.8773C18.1264 11.961 18.2211 12.0094 18.4103 12.106L20.0472 12.9415C20.2321 13.0358 20.3246 13.083 20.3686 13.1723C20.4126 13.2615 20.3947 13.3589 20.3587 13.5535C20.3197 13.7653 20.2727 13.9742 20.2183 14.1801C20.1673 14.3728 20.1418 14.4691 20.0632 14.5311C19.9845 14.5932 19.88 14.5956 19.671 14.6004L17.8479 14.6426C17.6342 14.6476 17.5274 14.65 17.4389 14.7011C17.3504 14.7521 17.2948 14.8433 17.1835 15.0258L17.1266 15.1191C16.867 15.5446 16.5559 15.9356 16.2016 16.2831L16.124 16.3593C15.9721 16.5083 15.8961 16.5829 15.8664 16.6801C15.8366 16.7774 15.8579 16.8817 15.9004 17.0902L16.2669 18.8864C16.3085 19.0902 16.3293 19.1921 16.2867 19.2823C16.2442 19.3725 16.1566 19.4191 15.9813 19.5122C15.7952 19.611 15.605 19.7032 15.411 19.7883C15.2287 19.8682 15.1375 19.9082 15.0401 19.8854C14.9427 19.8625 14.8757 19.7824 14.7418 19.6222L13.5703 18.221C13.4335 18.0573 13.3651 17.9755 13.2702 17.9381C13.1754 17.9007 13.0695 17.9139 12.8578 17.9403L12.7496 17.9537C12.2594 18.0147 11.7402 18.0147 11.25 17.9537L11.1418 17.9402C10.9301 17.9139 10.8243 17.9007 10.7294 17.9381C10.6345 17.9755 10.5661 18.0573 10.4293 18.221L9.25801 19.6219C9.12407 19.7822 9.0571 19.8623 8.95967 19.8851C8.86224 19.908 8.77107 19.868 8.58874 19.788C8.39473 19.7029 8.20447 19.6107 8.0183 19.5118C7.84309 19.4187 7.75549 19.3721 7.71297 19.2819C7.67044 19.1917 7.69123 19.0898 7.73282 18.886L8.0992 17.0902C8.14175 16.8816 8.16302 16.7774 8.13327 16.6801C8.10351 16.5828 8.02755 16.5083 7.87563 16.3592L7.798 16.2831C7.4438 15.9355 7.13263 15.5446 6.87312 15.1191L6.81623 15.0258C6.70492 14.8433 6.64926 14.7521 6.56079 14.7011C6.47231 14.65 6.36546 14.6476 6.15175 14.6426L4.32936 14.6004C4.12037 14.5956 4.01588 14.5932 3.93722 14.5312C3.85856 14.4691 3.83307 14.3728 3.78211 14.1801C3.72763 13.9741 3.68068 13.765 3.64158 13.5531C3.60567 13.3585 3.58771 13.2612 3.63174 13.1719C3.67576 13.0826 3.76819 13.0355 3.95306 12.9411L5.58934 12.1059C5.77862 12.0093 5.87327 11.961 5.93075 11.8772C5.98823 11.7935 5.99926 11.6878 6.02133 11.4764L6.0326 11.3684C6.08431 10.8732 6.19617 10.3964 6.36062 9.94526L6.39801 9.84265C6.47118 9.6419 6.50776 9.54153 6.49248 9.44059C6.47719 9.33965 6.41254 9.25461 6.28322 9.08452L5.17986 7.6333C5.05342 7.46699 4.99019 7.38383 4.98959 7.28375C4.98898 7.18367 5.04833 7.10362 5.16702 6.94352C5.29672 6.76856 5.433 6.59874 5.57549 6.43442C5.70536 6.28464 5.7703 6.20975 5.86759 6.18847C5.96488 6.16718 6.0595 6.21008 6.24875 6.29588L7.9202 7.05368C8.11367 7.14139 8.21042 7.18525 8.31171 7.17799C8.413 7.17072 8.50249 7.11351 8.68147 6.99908L8.77293 6.9406C9.17594 6.68293 9.61143 6.47232 10.0717 6.31624L10.1747 6.2813C10.3763 6.21294 10.4771 6.17876 10.5462 6.10401C10.6152 6.02927 10.6413 5.92608 10.6934 5.71969L11.1416 3.94634C11.1927 3.74425 11.2182 3.64321 11.2958 3.58037Z" fill="currentColor"/>
</svg>
