<svg width="16" height="16" viewBox="0 0 16 16" fill="none" xmlns="http://www.w3.org/2000/svg">
<path d="M0.2203 5.28499C0.513541 5.57753 0.988414 5.57697 1.28096 5.28373L1.65597 4.90783C1.80131 4.76214 1.87399 4.68929 1.93577 4.71484C1.99756 4.74039 1.99756 4.84329 1.99756 5.04908V13.25C1.99756 13.6642 2.33334 14 2.74756 14C3.16177 14 3.49756 13.6642 3.49756 13.25L3.49756 5.04057C3.49756 4.83517 3.49756 4.73247 3.55927 4.70689C3.62099 4.68132 3.69363 4.75391 3.83893 4.89909L4.22468 5.28456C4.51768 5.57734 4.99256 5.57716 5.28534 5.28416C5.57812 4.99116 5.57795 4.51628 5.28494 4.2235L3.27941 2.21947C3.13863 2.0788 2.94771 1.99984 2.74869 2C2.54967 2.00016 2.35888 2.07941 2.21832 2.2203L0.219041 4.22433C-0.0735045 4.51757 -0.0729409 4.99244 0.2203 5.28499Z" fill="currentColor"/>
<path d="M6.24993 3C6.24993 3.41421 6.58571 3.75 6.99993 3.75L9.74993 3.75C10.1641 3.75 10.4999 3.41422 10.4999 3C10.4999 2.58579 10.1641 2.25 9.74993 2.25L6.99993 2.25C6.58572 2.25 6.24993 2.58579 6.24993 3Z" fill="currentColor"/>
<path d="M6.99993 7.08008C6.58572 7.08008 6.24993 6.74429 6.24993 6.33008C6.24993 5.91587 6.58571 5.58008 6.99993 5.58008L10.7499 5.58008C11.1641 5.58008 11.4999 5.91586 11.4999 6.33008C11.4999 6.74429 11.1641 7.08008 10.7499 7.08008L6.99993 7.08008Z" fill="currentColor"/>
<path d="M6.24993 9.66699C6.24993 10.0812 6.58571 10.417 6.99993 10.417L12.7499 10.417C13.1641 10.417 13.4999 10.0812 13.4999 9.66699C13.4999 9.25278 13.1641 8.91699 12.7499 8.91699L6.99993 8.91699C6.58571 8.91699 6.24993 9.25278 6.24993 9.66699Z" fill="currentColor"/>
<path d="M6.99993 13.75C6.58571 13.75 6.24993 13.4142 6.24993 13C6.24993 12.5858 6.58571 12.25 6.99993 12.25H15.2499C15.6641 12.25 15.9999 12.5858 15.9999 13C15.9999 13.4142 15.6641 13.75 15.2499 13.75H6.99993Z" fill="currentColor"/>
</svg>
