<svg width="24" height="24" viewBox="0 0 24 24" fill="none" xmlns="http://www.w3.org/2000/svg">
<path fill-rule="evenodd" clip-rule="evenodd" d="M2 12C2 6.47715 6.47715 2 12 2C17.5228 2 22 6.47715 22 12C22 17.5228 17.5228 22 12 22C6.47715 22 2 17.5228 2 12ZM8 7.9C8 7.67909 8.17909 7.5 8.4 7.5H10.6C10.8209 7.5 11 7.67909 11 7.9V16.1C11 16.3209 10.8209 16.5 10.6 16.5H8.4C8.17909 16.5 8 16.3209 8 16.1V7.9ZM13.4 7.5C13.1791 7.5 13 7.67909 13 7.9V16.1C13 16.3209 13.1791 16.5 13.4 16.5H15.6C15.8209 16.5 16 16.3209 16 16.1V7.9C16 7.67909 15.8209 7.5 15.6 7.5H13.4Z" fill="currentColor"/>
</svg>
