<svg width="24" height="24" viewBox="0 0 24 24" fill="none" xmlns="http://www.w3.org/2000/svg">
<path fill-rule="evenodd" clip-rule="evenodd" d="M6.93417 4C6.04769 3.99995 5.28387 3.99991 4.67221 4.08215C4.0167 4.17028 3.38835 4.36902 2.87868 4.87868C2.36902 5.38835 2.17028 6.0167 2.08215 6.67221C1.99991 7.28387 1.99995 8.04769 2 8.93417L2 13.0706C1.99997 14.4247 1.99994 15.5413 2.11876 16.4251C2.2435 17.3529 2.51547 18.1723 3.17158 18.8284C3.82769 19.4845 4.64711 19.7565 5.57494 19.8813C6.4587 20.0001 7.57531 20 8.92943 20H15.0706C16.4247 20 17.5413 20.0001 18.4251 19.8813C19.3529 19.7565 20.1723 19.4845 20.8284 18.8284C21.4845 18.1723 21.7565 17.3529 21.8813 16.4251C22.0001 15.5413 22 14.4247 22 13.0706L22 8.9342C22.0001 8.0477 22.0001 7.28388 21.9179 6.67221C21.8297 6.0167 21.631 5.38835 21.1213 4.87868C20.6117 4.36902 19.9833 4.17028 19.3278 4.08215C18.7161 3.99991 17.9523 3.99995 17.0658 4H6.93417ZM4.2929 6.2929C4.36902 6.21677 4.50497 6.12263 4.93871 6.06431C5.40122 6.00213 6.02893 6 7 6H17C17.9711 6 18.5988 6.00213 19.0613 6.06431C19.495 6.12263 19.631 6.21677 19.7071 6.2929C19.7832 6.36902 19.8774 6.50497 19.9357 6.93871C19.9498 7.04383 19.9609 7.15748 19.9695 7.28176C19.9928 7.61873 20.0045 7.78722 19.9191 7.94202C19.8338 8.09682 19.6739 8.1829 19.3542 8.35507L13.4223 11.5492C12.942 11.8078 12.6414 11.9685 12.3993 12.071C12.1764 12.1654 12.0719 12.1793 12 12.1793C11.928 12.1793 11.8236 12.1654 11.6007 12.071C11.3586 11.9685 11.0579 11.8078 10.5777 11.5492L4.64582 8.35509C4.32608 8.18293 4.16621 8.09685 4.08087 7.94205C3.99553 7.78725 4.0072 7.61876 4.03054 7.28179C4.03915 7.1575 4.05018 7.04384 4.06431 6.93871C4.12263 6.50497 4.21677 6.36902 4.2929 6.2929ZM4.88446 10.7551C4.48971 10.5425 4.29233 10.4363 4.14617 10.5236C4 10.6109 4 10.835 4 11.2834V13C4 14.4425 4.00213 15.4238 4.10092 16.1586C4.19585 16.8646 4.36322 17.1916 4.58579 17.4142C4.80836 17.6368 5.13538 17.8042 5.84144 17.8991C6.57626 17.9979 7.55752 18 9 18H15C16.4425 18 17.4238 17.9979 18.1586 17.8991C18.8646 17.8042 19.1916 17.6368 19.4142 17.4142C19.6368 17.1916 19.8042 16.8646 19.8991 16.1586C19.9979 15.4238 20 14.4425 20 13V11.2834C20 10.835 20 10.6108 19.8538 10.5235C19.7077 10.4362 19.5103 10.5425 19.1155 10.7551L14.3341 13.3297C13.9012 13.5629 13.5177 13.7693 13.1791 13.9127C12.8119 14.0682 12.4323 14.1793 12 14.1793C11.5677 14.1793 11.188 14.0682 10.8208 13.9127C10.4822 13.7693 10.0988 13.5629 9.66584 13.3297L4.88446 10.7551Z" fill="currentColor"/>
</svg>
