<svg width="110" height="34" viewBox="0 0 148 46" fill="none" xmlns="http://www.w3.org/2000/svg">
    <path d="M121.965 34.0941C121.384 35.0258 121.093 35.4916 120.635 35.7458C120.177 36 119.627 36 118.529 36H115.363C113.702 36 112.871 36 112.585 35.4667C112.298 34.9335 112.757 34.2416 113.675 32.858L122.693 19.2615C122.871 18.9932 122.96 18.8591 122.961 18.7081C122.962 18.557 122.874 18.422 122.699 18.1519L114.249 5.12468C113.355 3.7465 112.908 3.05741 113.196 2.5287C113.483 2 114.305 2 115.949 2H119.336C120.443 2 120.997 2 121.458 2.25768C121.919 2.51535 122.208 2.98697 122.788 3.93019L128.105 12.5882C128.481 13.1998 128.669 13.5056 128.947 13.5096C129.225 13.5137 129.422 13.2134 129.815 12.613L135.566 3.83082C136.153 2.93499 136.446 2.48705 136.897 2.24354C137.347 2 137.883 2 138.955 2H142.09C143.803 2 144.66 2 144.943 2.54647C145.227 3.09294 144.732 3.79239 143.744 5.19129L134.837 17.7956C134.641 18.0727 134.543 18.2113 134.542 18.3695C134.541 18.5277 134.636 18.668 134.827 18.9486L144.283 32.8377C145.23 34.2277 145.703 34.9227 145.418 35.4613C145.132 36 144.291 36 142.609 36H139.213C138.134 36 137.595 36 137.142 35.7537C136.689 35.5074 136.397 35.0548 135.811 34.1496L129.612 24.5642C129.223 23.9623 129.028 23.6614 128.75 23.6637C128.472 23.6659 128.282 23.97 127.902 24.5781L121.965 34.0941Z" fill="url(#paint0_linear_72_161)"/>
    <path d="M31.1996 31.4606C31.7885 32.1624 32.083 32.5134 32.5156 32.5372C32.9483 32.5609 33.2529 32.2698 33.862 31.6874C37.0322 28.6569 38.864 24.3688 38.864 19.248C38.864 8.112 31.232 1.82401 20.384 1.82401C9.44 1.872 2 8.832 2 19.152C2 29.8206 8.93222 35.9927 19.0488 36.5114C19.2364 36.521 19.3302 36.5258 19.4076 36.5662C19.485 36.6066 19.541 36.6788 19.653 36.823L24.1984 42.679C25.0831 43.8187 25.5254 44.3886 26.1497 44.6943C26.774 45 27.4954 45 28.9382 45H31.6292C33.4722 45 34.3937 45 34.6637 44.4251C34.9337 43.8501 34.3452 43.141 33.1682 41.7227L24.2275 30.9495C23.5715 30.1591 23.2435 29.7639 22.8515 29.5747C22.8364 29.5674 22.8287 29.5638 22.8135 29.5569C22.4176 29.376 21.7717 29.376 20.48 29.376C13.616 29.328 10.16 24.768 10.16 19.2C10.16 13.104 14.048 9.024 20.432 9.024C27.248 9.024 30.704 13.68 30.704 19.2C30.704 21.5619 30.1203 23.6212 29.0368 25.2577C28.3255 26.3321 27.9698 26.8692 27.9924 27.2673C28.015 27.6653 28.3437 28.0571 29.0012 28.8407L31.1996 31.4606Z" fill="black"/>
    <path d="M50.0512 14C50.0512 13.0572 50.0512 12.5858 49.7583 12.2929C49.4654 12 48.994 12 48.0512 12H44.8032C43.8604 12 43.389 12 43.0961 12.2929C42.8032 12.5858 42.8032 13.0572 42.8032 14V28.272C42.8032 33.648 46.7052 36.432 51.5052 36.48C55.1963 36.48 57.1846 35.3837 58.4841 33.9192C58.7897 33.5748 58.9424 33.4027 59.0508 33.42C59.0793 33.4246 59.1023 33.4333 59.1266 33.4488C59.2192 33.5077 59.2192 33.7282 59.2192 34.169C59.2192 34.9486 59.2192 35.3384 59.4247 35.6073C59.4785 35.6777 59.5415 35.7407 59.6119 35.7945C59.8808 36 60.2706 36 61.0502 36H63.9872C64.93 36 65.4014 36 65.6943 35.7071C65.9872 35.4142 65.9872 34.9428 65.9872 34V14C65.9872 13.0572 65.9872 12.5858 65.6943 12.2929C65.4014 12 64.93 12 63.9872 12H60.7392C59.7964 12 59.325 12 59.0321 12.2929C58.7392 12.5858 58.7392 13.0572 58.7392 14V23.086C58.7392 27.6727 57.5444 30.144 54.3764 30.144C51.7844 30.144 50.0512 29.3355 50.0512 25.0451V14Z" fill="black"/>
    <path fill-rule="evenodd" clip-rule="evenodd" d="M74.1623 18.3563C74.4576 18.778 75.0229 18.9009 75.4963 18.6986C76.8183 18.1337 78.4934 17.808 80.7022 17.808C83.4464 17.808 84.4356 18.8318 84.5731 21.0988C84.5897 21.3737 84.5981 21.5111 84.5091 21.6055C84.4202 21.6999 84.2767 21.6998 83.9897 21.6995L79.4062 21.696C73.9822 21.696 69.7582 23.232 69.7582 28.944C69.7582 33.408 72.3502 36.384 77.3422 36.384C80.5909 36.384 82.6353 35.34 84.2584 33.7589C84.5692 33.4562 84.7245 33.3048 84.8425 33.3477C84.8473 33.3494 84.8517 33.3512 84.8562 33.3532L84.8612 33.3556C84.9742 33.4101 84.9742 33.6212 84.9742 34.0434C84.9742 34.9441 84.9742 35.3944 85.2434 35.6826C85.2524 35.6922 85.2616 35.7017 85.271 35.711C85.2778 35.7177 85.2846 35.7243 85.2916 35.7308C85.5798 36 86.0301 36 86.9308 36H89.7902C90.733 36 91.2044 36 91.4973 35.7071C91.7902 35.4142 91.7902 34.9428 91.7902 34V20.16C91.7902 14.208 88.6222 11.52 80.7022 11.52C77.6904 11.52 74.6907 11.8692 72.1022 13.3641C71.5362 13.691 71.4162 14.4344 71.7911 14.9699L74.1623 18.3563ZM79.8382 30.048C78.0142 30.048 77.0062 29.28 77.0062 27.984C77.0062 26.448 78.3022 25.872 80.6062 25.872H83.5902C84.0616 25.872 84.2973 25.872 84.4438 26.0184C84.5902 26.1649 84.5902 26.4006 84.5902 26.872V26.8836C84.3502 28.5156 82.5742 30.048 79.8382 30.048Z" fill="black"/>
    <path d="M106.027 19.3285C107.037 18.4891 108.385 18.0082 110.02 17.8557C110.61 17.8006 110.906 17.773 111.062 17.6013C111.219 17.4295 111.219 17.1537 111.219 16.6021V13.1853C111.219 12.668 111.219 12.4093 110.994 12.1334C110.769 11.8576 110.6 11.8227 110.262 11.753C109.939 11.6864 109.55 11.6477 109.055 11.6261H108.911C107.238 11.6261 105.161 12.4094 103.936 13.8601C103.467 14.4144 103.233 14.6915 103.174 14.6985C103.118 14.7052 103.086 14.6938 103.047 14.6519C103.007 14.6087 103.007 14.2778 103.007 13.616C103.007 13.0408 103.007 12.7533 102.892 12.5348C102.798 12.3555 102.651 12.209 102.472 12.1148C102.254 12 101.966 12 101.391 12H98.2186C97.2758 12 96.8044 12 96.5115 12.2929C96.2186 12.5858 96.2186 13.0572 96.2186 14V34C96.2186 34.9428 96.2186 35.4142 96.5115 35.7071C96.8044 36 97.2758 36 98.2186 36H101.439C102.382 36 102.853 36 103.146 35.7071C103.439 35.4142 103.439 34.9428 103.439 34V25.872C103.439 22.01 104.585 20.5275 106.027 19.3285Z" fill="black"/>
    <defs>
        <linearGradient id="paint0_linear_72_161" x1="114.458" y1="36" x2="152.476" y2="1.38062" gradientUnits="userSpaceOnUse">
            <stop offset="0.0325622" stop-color="#DAFF46"/>
            <stop offset="0.222811" stop-color="#5BFF46"/>
            <stop offset="0.397701" stop-color="#20F87D"/>
            <stop offset="0.594252" stop-color="#06CFE7"/>
            <stop offset="0.86787" stop-color="#00D2F5"/>
        </linearGradient>
    </defs>
</svg>
