<svg width="24" height="24" viewBox="0 0 24 24" fill="none" xmlns="http://www.w3.org/2000/svg">
<path fill-rule="evenodd" clip-rule="evenodd" d="M4.98873 6.14023C5.46338 5.85788 6.07706 6.01377 6.35941 6.48842L7.86472 9.01894C7.88987 9.06123 7.94202 9.07889 7.98786 9.061C9.21841 8.58085 10.5701 8.31689 11.9999 8.31689C13.5854 8.31689 15.0749 8.64097 16.4096 9.22537C16.4561 9.24573 16.5106 9.22851 16.5365 9.18488L18.1405 6.48842C18.4229 6.01377 19.0366 5.85788 19.5112 6.14023C19.9859 6.42258 20.1418 7.03626 19.8594 7.51091L18.2781 10.1692C18.2513 10.2142 18.2638 10.2722 18.3064 10.3026C20.6973 12.0113 22.3091 14.6864 22.6304 17.784C22.6425 17.9005 22.5503 18.0007 22.4332 18.0007H1.56686C1.44982 18.0007 1.35765 17.9004 1.36972 17.784C1.70624 14.5368 3.46134 11.7539 6.04551 10.0618C6.09061 10.0323 6.10482 9.97247 6.07726 9.92614L4.64054 7.51091C4.35819 7.03626 4.51408 6.42258 4.98873 6.14023ZM16.9021 14.9656C16.7266 14.9657 16.5551 14.9137 16.4092 14.8162C16.2633 14.7188 16.1496 14.5803 16.0824 14.4182C16.0153 14.2561 15.9977 14.0777 16.0319 13.9057C16.066 13.7336 16.1505 13.5755 16.2745 13.4514C16.3986 13.3273 16.5566 13.2428 16.7287 13.2086C16.9008 13.1743 17.0791 13.1918 17.2412 13.259C17.4033 13.3261 17.5419 13.4397 17.6394 13.5856C17.7369 13.7314 17.7889 13.9029 17.789 14.0784C17.7887 14.3136 17.6952 14.539 17.5289 14.7053C17.3627 14.8717 17.1372 14.9653 16.9021 14.9656ZM7.09805 14.9656C6.92261 14.9657 6.75109 14.9137 6.6052 14.8162C6.4593 14.7188 6.34558 14.5803 6.27841 14.4182C6.21124 14.2561 6.19364 14.0777 6.22783 13.9057C6.26203 13.7336 6.34648 13.5755 6.47052 13.4514C6.59455 13.3273 6.7526 13.2428 6.92466 13.2086C7.09673 13.1743 7.27509 13.1918 7.4372 13.259C7.5993 13.3261 7.73786 13.4397 7.83536 13.5856C7.93286 13.7314 7.98492 13.9029 7.98495 14.0784C7.98473 14.3136 7.89123 14.5391 7.72496 14.7054C7.55869 14.8717 7.33324 14.9653 7.09805 14.9656Z" fill="currentColor"/>
</svg>
