<svg width="24" height="24" viewBox="0 0 24 24" fill="none" xmlns="http://www.w3.org/2000/svg">
<path d="M10.7425 13.6475H11.367L11.0537 12.9188L10.7425 13.6475Z" fill="currentColor"/>
<path fill-rule="evenodd" clip-rule="evenodd" d="M2 7.61057C2 3.50258 3.50284 2 7.61167 2H16.3883C20.4972 2 22 3.50258 22 7.61057V16.3894C22 20.4974 20.4944 22 16.3857 22H7.61167C3.50284 22 2 20.4974 2 16.3894V7.61057ZM8.31836 4.72021H8.98687V4.80021C8.98687 6.46054 10.338 7.81153 11.9984 7.81153C13.6587 7.81153 15.0099 6.46054 15.0099 4.80021V4.72021H15.6784V4.80021C15.6784 6.82947 14.0276 8.48021 11.9984 8.48021C9.96893 8.48021 8.31836 6.82946 8.31836 4.80021V4.72021ZM10.4602 14.3174L10.2029 14.906H9.44211L10.7583 11.9201H11.3689L12.6797 14.906H11.9033L11.6493 14.3174H10.4602ZM19.7534 11.9199V14.904H20.4795V11.9199H19.7534ZM17.6602 14.2308H19.2296V14.9059H16.9342V11.922H19.1751V12.5971H17.6602V13.0159H18.7037V13.6908H17.6602V14.2308ZM13.0124 11.9215L13.5797 13.6862L14.1627 11.9199H14.7468L15.3298 13.6865L15.8985 11.9215H16.6643L15.6255 14.9076H15.0327L14.4468 13.2157L13.8609 14.9076H13.2723L12.2307 11.9215H13.0124ZM7.49139 11.9218V13.599C7.49139 13.8233 7.54594 13.9826 7.63784 14.0852C7.72845 14.1863 7.86586 14.244 8.05773 14.244C8.24903 14.244 8.38576 14.1878 8.47563 14.0897C8.56654 13.9904 8.62059 13.8362 8.62059 13.6186V11.9201H9.35383V13.595C9.35383 14.0144 9.23825 14.3553 9.01131 14.5917C8.78393 14.8286 8.45493 14.95 8.04991 14.95C7.64893 14.95 7.32293 14.8309 7.09746 14.5982C6.87233 14.3658 6.75763 14.0307 6.75763 13.6186V11.9218H7.49139ZM6.12216 11.9201H5.38874V13.0607H4.2533V11.9201H3.51953V14.9078H4.2533V13.7594H5.38874V14.9078H6.12216V11.9201Z" fill="currentColor"/>
</svg>
