<svg width="16" height="16" viewBox="0 0 16 16" fill="none" xmlns="http://www.w3.org/2000/svg">
<path d="M11.1249 6.87994C11.4178 6.58705 11.4178 6.11217 11.1249 5.81928C10.832 5.52639 10.3571 5.52639 10.0642 5.81928L7.62769 8.25582C7.49436 8.38915 7.4277 8.45581 7.34486 8.45581C7.26202 8.45582 7.19535 8.38915 7.06202 8.25583L6.58011 7.77397C6.2872 7.48109 5.81233 7.48111 5.51945 7.77402C5.22657 8.06693 5.22659 8.5418 5.5195 8.83468L6.21354 9.52866C6.74688 10.0619 7.01355 10.3286 7.34491 10.3286C7.67626 10.3286 7.94292 10.0619 8.47623 9.52861L11.1249 6.87994Z" fill="currentColor"/>
<path fill-rule="evenodd" clip-rule="evenodd" d="M15 8C15 4.13401 11.866 1 8 1C4.13401 1 1 4.13401 1 8C1 11.866 4.13401 15 8 15C11.866 15 15 11.866 15 8ZM13.5 8C13.5 4.96243 11.0376 2.5 8 2.5C4.96243 2.5 2.5 4.96243 2.5 8C2.5 11.0376 4.96243 13.5 8 13.5C11.0376 13.5 13.5 11.0376 13.5 8Z" fill="currentColor"/>
</svg>
