<svg width="36" height="36" viewBox="0 0 36 36" fill="none" xmlns="http://www.w3.org/2000/svg">
<path fill-rule="evenodd" clip-rule="evenodd" d="M27.145 17.667C28.0076 16.1424 28.5 14.3806 28.5 12.5039C28.5 6.70492 23.799 2.00391 18 2.00391C12.201 2.00391 7.5 6.70492 7.5 12.5039C7.5 14.3545 7.97875 16.0933 8.81916 17.6032H8.81641C9.72922 19.2888 11.1243 20.5559 12.5324 21.8348C13.8721 23.0515 15.2235 24.2789 16.1825 25.8876C16.5708 26.5389 17.2421 27.0001 18.0003 27.0001C18.7585 27.0001 19.4299 26.5389 19.8181 25.8876C20.7772 24.278 22.1285 23.0497 23.4677 21.8323C24.8566 20.5698 26.2325 19.3191 27.145 17.667ZM22 12.5C22 14.7091 20.2091 16.5 18 16.5C15.7909 16.5 14 14.7091 14 12.5C14 10.2909 15.7909 8.5 18 8.5C20.2091 8.5 22 10.2909 22 12.5Z" fill="currentColor"/>
<path d="M6.7959 22.3971C7.14296 22.1381 7.56939 22.0481 8.22285 22.0168C8.60807 21.9983 8.80069 21.9891 8.99305 22.0609C9.18542 22.1326 9.34565 22.2856 9.66612 22.5915C10.0281 22.937 10.3833 23.2597 10.7178 23.5636L10.7484 23.5914C12.1789 24.8912 13.2759 25.8942 14.035 27.1674C14.7778 28.4133 16.1879 29.4995 17.9999 29.4995C19.8118 29.4995 21.2221 28.4134 21.9648 27.167C22.724 25.8932 23.8208 24.8893 25.2501 23.5895L25.2818 23.5607C25.615 23.2577 25.9688 22.936 26.3293 22.5917C26.6497 22.2857 26.8099 22.1328 27.0021 22.061C27.1944 21.9891 27.3872 21.9983 27.7727 22.0166C28.4284 22.0477 28.8559 22.1376 29.2036 22.397C29.7357 22.7939 29.9405 23.4827 30.35 24.8603L31.2418 27.8603C31.9417 30.2146 32.2917 31.3918 31.6918 32.1959C31.092 33.0001 29.8639 33.0001 27.4077 33.0001H8.59275C6.13691 33.0001 4.90899 33.0001 4.30913 32.1961C3.70926 31.3921 4.05897 30.215 4.75841 27.8609L5.64973 24.8609C6.05911 23.483 6.26379 22.7941 6.7959 22.3971Z" fill="currentColor"/>
</svg>
